<svg xmlns="http://www.w3.org/2000/svg" xmlns:xlink="http://www.w3.org/1999/xlink" viewBox="0 0 393.92 308.37"><defs><clipPath id="clip-path"><path d="M164,111.18s.38,7-.78,10.25-2.71,5.42-2.71,7S163,131.88,163,135s-5.61,18-7.16,20.89-1,3.87-2.9,4.07-6.77-2.13-6.77-2.13-2.91.39-3.29,1.55-1.36,5.22-1.36,5.22L113.3,152a28.16,28.16,0,0,0,5.81-9.86c1.74-5.62-1-14.32-1-14.32s-2.71-20.32,9.67-26.12,30.38-2.13,33.29.77S164,111.18,164,111.18Z" style="fill:#fff;stroke:#263238;stroke-linecap:round;stroke-linejoin:round"/></clipPath><clipPath id="clip-path-2"><path d="M107.5,155.87l-.71.49c-2.72,1.87-12.76,8.83-20.38,14.8-8.9,7-9.48,19.93-9.87,30s-6.88,72.71-8.43,80.45,12.3,9.72,25.65,11.65,30.57-.19,38.89-4.06,10.26-3.68,10.26-7.93.19-13.94.19-14.71,6-48.18,5.61-62.11S149.49,183,146.2,176s-11.61-12.39-22.64-16.06S107.5,155.87,107.5,155.87Z" style="fill:#c6ff00;stroke:#263238;stroke-linecap:round;stroke-linejoin:round"/></clipPath><clipPath id="clip-path-3"><path d="M109.43,149.29,104.21,158s15.67,3.68,23.8,7,19,12,19,12-1.74-9.86-3.29-12.38-17.61-11-24.19-13.54S109.43,149.29,109.43,149.29Z" style="fill:#c6ff00;stroke:#263238;stroke-linecap:round;stroke-linejoin:round"/></clipPath><clipPath id="clip-path-4"><path d="M130.72,195.73s-5.42,7.35-7.16,13.16.38,14.12,1,16.06,31.53,62.88,34.82,68.88,7,6.39,9.68,5.42,33.86-23.22,35-24.38,6.39-5.61,6.39-5.61,1-6.19-3.29-9.48-6.39-1.55-6.39-1.55l-27.09,7.35s-15.28-52.63-17-62.69,1-9.48-4.45-14.9a75.81,75.81,0,0,0-12-9.5" style="fill:#c6ff00;stroke:#263238;stroke-linecap:round;stroke-linejoin:round"/></clipPath></defs><g id="Layer_2" data-name="Layer 2"><g id="Background_Simple" data-name="Background Simple"><path d="M35.55,199s14.34,57.67,70.9,85.34,124,15.12,178.92,6.39,89.87-49,86.14-97-48-52.18-81.83-100S254.12,28,199.64,6.23,75.2,21.55,48.24,86.32,35.55,199,35.55,199Z" style="fill:#c6ff00"/><path d="M35.55,199s14.34,57.67,70.9,85.34,124,15.12,178.92,6.39,89.87-49,86.14-97-48-52.18-81.83-100S254.12,28,199.64,6.23,75.2,21.55,48.24,86.32,35.55,199,35.55,199Z" style="fill:#fff;opacity:0.7000000000000001"/></g><g id="Plants"><path d="M364.09,255.38c-3.62,4.53-5.39,7.05-6.15,8.2A86.49,86.49,0,0,1,362.07,249a42.72,42.72,0,0,0,2.51-11.41l-.33.18-.32-.6c.13-.06,12.46-6.61,15.95-12.78l.58.33c-3.15,5.58-12.88,11.22-15.55,12.69,2.53-.24,10.43-1.44,15.13-7.25,5.64-7,4.65-15.61,4.65-15.61s-10.63,7.31-14.95,13a40.58,40.58,0,0,0-5,8.38,58.4,58.4,0,0,0-1.05-13.73c3.55-2.79,16.61-13.54,18.05-21.57,1.66-9.3-.67-25.24-.67-25.24a82.27,82.27,0,0,1-4.65,9.63c-3,5.32-12.29,13.62-13.95,22.59a38.89,38.89,0,0,0-.66,6.81,132,132,0,0,0-5.36-14.71,26.67,26.67,0,0,1-1.33-4h0l-.29-.18c.06-.1,6-10.2,6-13.1h.68c0,2.72-4.57,10.75-5.83,12.92,2.09-1.26,5.49-3.84,6.77-7.84a16,16,0,0,0-.91-11.3s-5.05,7.42-6.43,12.17A28.64,28.64,0,0,0,354,195a37,37,0,0,0-4.15-8.07,41.39,41.39,0,0,1-5-10s-3.65,6.31-1,13c2.19,5.46,8.4,7.55,10.55,8.13.24.72.5,1.43.79,2.1A114.08,114.08,0,0,1,362,220.61a41,41,0,0,0-7.24-7.72,41.59,41.59,0,0,1-7.66-8.09s-1.67,7.1,2.8,12.68c3.66,4.57,10.16,4.8,12.42,4.73,1.54,8,1.71,16.44-.89,24.56-.17-1.58-1.12-5.87-6.34-10.66-6.58-6.06-19.77-25.43-19.77-25.43s1.06,22.86,7.37,30.38c5.79,6.89,16.72,6.48,18.51,6.37-.12.36-.24.71-.37,1.07-4.17,11.18-5,19-5.14,23.16h-7.85v36.21H369.4V271.66H357a52.06,52.06,0,0,1,.73-7.05l-.23.07-.18-.65c.14,0,13.67-3.85,23.13-13.58l.48.47c-7.63,7.85-17.86,11.89-21.79,13.24,3.9-.49,13.44-1.92,17.88-4.79,5.64-3.66,10.63-14.62,10.63-14.62S369.4,248.74,364.09,255.38Zm-10.28-58.84a16.89,16.89,0,0,1-8.66-11.6l.66-.13a16.23,16.23,0,0,0,8.28,11.12Zm9.56,25.81-.15.23-.26-.11c-.37-.15-9.21-3.79-12.81-9l.56-.38c3.15,4.6,10.76,8,12.25,8.69,1.15-1.76,8.33-12.9,10.83-19.91l.64.23C371.7,209.72,363.46,222.22,363.37,222.35Zm-3.14,24.79c-.11,0-10.64-4-15.33-13.1l.6-.31c4.57,8.87,14.86,12.74,15,12.78Z" style="fill:#263238"/></g><g id="Table"><rect x="149.3" y="131.26" width="155.78" height="176.61" style="fill:none;stroke:#263238;stroke-miterlimit:10"/><rect x="149.3" y="146.25" width="142.56" height="161.62" style="fill:none;stroke:#263238;stroke-miterlimit:10"/><polygon points="291.87 146.25 305.09 131.26 305.09 307.87 291.87 307.87 291.87 146.25" style="fill:#263238"/><rect x="298.65" y="275.34" width="6.44" height="32.54" style="fill:#fff;stroke:#263238;stroke-linecap:round;stroke-linejoin:round"/><polygon points="333.06 307.87 333.06 252.79 305.09 275.34 305.09 307.87 333.06 307.87" style="fill:#263238;stroke:#263238;stroke-linecap:round;stroke-linejoin:round"/><rect x="79.69" y="275.34" width="6.44" height="32.54" style="fill:#fff;stroke:#263238;stroke-linecap:round;stroke-linejoin:round"/><polygon points="114.1 307.87 114.1 252.79 86.13 275.34 86.13 307.87 114.1 307.87" style="fill:#263238;stroke:#263238;stroke-linecap:round;stroke-linejoin:round"/><polygon points="312.85 281.1 54.89 281.1 54.79 278.99 353.64 247.61 353.64 249.74 312.85 281.1" style="fill:#fff;stroke:#263238;stroke-linecap:round;stroke-linejoin:round"/><polygon points="312.85 278.97 54.89 278.97 119.97 247.61 353.64 247.61 312.85 278.97" style="fill:#fff;stroke:#263238;stroke-linecap:round;stroke-linejoin:round"/><polygon points="297.82 273.68 270.5 273.68 286.27 261.06 315.04 261.06 297.82 273.68" style="fill:#c6ff00;stroke:#263238;stroke-linecap:round;stroke-linejoin:round"/><polygon points="312.85 281.1 312.85 278.97 353.64 247.61 353.64 249.74 312.85 281.1" style="fill:#263238;stroke:#263238;stroke-linecap:round;stroke-linejoin:round"/><path d="M278.86,249.08h47.07s7-.66,5.67,2.83-7.41,3.7-20.92,4.14-17,8.72-17,8.72" style="fill:none;stroke:#263238;stroke-linecap:round;stroke-linejoin:round"/><path d="M297.28,262s-4.44-.78-7.58.78c-2,1-3.73,4.46-4.77,6.89a1.81,1.81,0,0,0,1.67,2.52h5.95a1.81,1.81,0,0,0,1.35-.6l6-6.71S299.64,262.24,297.28,262Z" style="fill:#263238"/><path d="M293.55,270.35a6.76,6.76,0,0,1,3.7-6.54" style="fill:none;stroke:#fff;stroke-linecap:round;stroke-linejoin:round;stroke-width:0.5px"/><polygon points="261.92 275.45 165.95 275.45 189.29 256.82 285.26 256.82 261.92 275.45" style="fill:#fff;stroke:#263238;stroke-linecap:round;stroke-linejoin:round"/><polygon points="285.26 257.99 285.26 256.82 261.92 275.45 261.92 276.62 285.26 257.99" style="fill:none;stroke:#263238;stroke-linecap:round;stroke-linejoin:round"/><rect x="165.95" y="275.45" width="95.97" height="1.17" style="fill:#fff;stroke:#263238;stroke-linecap:round;stroke-linejoin:round"/><polygon points="197.24 267.41 194.16 269.9 200.49 269.9 203.58 267.41 197.24 267.41" style="fill:none;stroke:#263238;stroke-linecap:round;stroke-linejoin:round"/><polygon points="203.58 267.41 200.49 269.9 206.83 269.9 209.91 267.41 203.58 267.41" style="fill:none;stroke:#263238;stroke-linecap:round;stroke-linejoin:round"/><polygon points="190.9 267.41 187.82 269.9 194.16 269.9 197.24 267.41 190.9 267.41" style="fill:none;stroke:#263238;stroke-linecap:round;stroke-linejoin:round"/><polygon points="200.32 264.92 193.99 264.92 190.9 267.41 197.24 267.41 200.32 264.92" style="fill:none;stroke:#263238;stroke-linecap:round;stroke-linejoin:round"/><polygon points="206.66 264.92 209.75 262.43 203.41 262.43 200.32 264.92 206.66 264.92" style="fill:none;stroke:#263238;stroke-linecap:round;stroke-linejoin:round"/><polygon points="203.41 262.43 197.07 262.43 193.99 264.92 200.32 264.92 203.41 262.43" style="fill:none;stroke:#263238;stroke-linecap:round;stroke-linejoin:round"/><polygon points="209.91 267.41 206.83 269.9 213.17 269.9 216.25 267.41 209.91 267.41" style="fill:none;stroke:#263238;stroke-linecap:round;stroke-linejoin:round"/><polygon points="241.6 267.41 238.51 269.9 244.85 269.9 247.94 267.41 241.6 267.41" style="fill:none;stroke:#263238;stroke-linecap:round;stroke-linejoin:round"/><polygon points="213 264.92 216.08 262.43 209.75 262.43 206.66 264.92 213 264.92" style="fill:none;stroke:#263238;stroke-linecap:round;stroke-linejoin:round"/><polygon points="216.25 267.41 213.17 269.9 219.5 269.9 222.59 267.41 216.25 267.41" style="fill:none;stroke:#263238;stroke-linecap:round;stroke-linejoin:round"/><polygon points="251.19 269.9 257.52 269.9 260.61 267.41 254.27 267.41 251.19 269.9" style="fill:none;stroke:#263238;stroke-linecap:round;stroke-linejoin:round"/><polygon points="254.27 267.41 260.61 267.41 263.69 264.92 257.36 264.92 254.27 267.41" style="fill:none;stroke:#263238;stroke-linecap:round;stroke-linejoin:round"/><polygon points="247.94 267.41 244.85 269.9 251.19 269.9 254.27 267.41 247.94 267.41" style="fill:none;stroke:#263238;stroke-linecap:round;stroke-linejoin:round"/><polygon points="235.26 267.41 232.18 269.9 238.51 269.9 241.6 267.41 235.26 267.41" style="fill:none;stroke:#263238;stroke-linecap:round;stroke-linejoin:round"/><polygon points="222.59 267.41 219.5 269.9 225.84 269.9 228.93 267.41 222.59 267.41" style="fill:none;stroke:#263238;stroke-linecap:round;stroke-linejoin:round"/><polygon points="228.93 267.41 225.84 269.9 232.18 269.9 235.26 267.41 228.93 267.41" style="fill:none;stroke:#263238;stroke-linecap:round;stroke-linejoin:round"/><polygon points="238.34 264.92 241.43 262.43 235.09 262.43 232.01 264.92 238.34 264.92" style="fill:none;stroke:#263238;stroke-linecap:round;stroke-linejoin:round"/><polygon points="244.68 264.92 241.6 267.41 247.94 267.41 251.02 264.92 244.68 264.92" style="fill:none;stroke:#263238;stroke-linecap:round;stroke-linejoin:round"/><polygon points="232.01 264.92 228.93 267.41 235.26 267.41 238.34 264.92 232.01 264.92" style="fill:none;stroke:#263238;stroke-linecap:round;stroke-linejoin:round"/><polygon points="219.34 264.92 216.25 267.41 222.59 267.41 225.67 264.92 219.34 264.92" style="fill:none;stroke:#263238;stroke-linecap:round;stroke-linejoin:round"/><polygon points="238.34 264.92 235.26 267.41 241.6 267.41 244.68 264.92 238.34 264.92" style="fill:none;stroke:#263238;stroke-linecap:round;stroke-linejoin:round"/><polygon points="219.34 264.92 222.42 262.43 216.08 262.43 213 264.92 219.34 264.92" style="fill:none;stroke:#263238;stroke-linecap:round;stroke-linejoin:round"/><polygon points="200.32 264.92 197.24 267.41 203.58 267.41 206.66 264.92 200.32 264.92" style="fill:none;stroke:#263238;stroke-linecap:round;stroke-linejoin:round"/><polygon points="213 264.92 209.91 267.41 216.25 267.41 219.34 264.92 213 264.92" style="fill:none;stroke:#263238;stroke-linecap:round;stroke-linejoin:round"/><polygon points="206.66 264.92 203.58 267.41 209.91 267.41 213 264.92 206.66 264.92" style="fill:none;stroke:#263238;stroke-linecap:round;stroke-linejoin:round"/><polygon points="225.67 264.92 222.59 267.41 228.93 267.41 232.01 264.92 225.67 264.92" style="fill:none;stroke:#263238;stroke-linecap:round;stroke-linejoin:round"/><polygon points="232.01 264.92 235.09 262.43 228.76 262.43 225.67 264.92 232.01 264.92" style="fill:none;stroke:#263238;stroke-linecap:round;stroke-linejoin:round"/><polygon points="257.36 264.92 263.69 264.92 266.78 262.43 260.44 262.43 257.36 264.92" style="fill:none;stroke:#263238;stroke-linecap:round;stroke-linejoin:round"/><polygon points="225.67 264.92 228.76 262.43 222.42 262.43 219.34 264.92 225.67 264.92" style="fill:none;stroke:#263238;stroke-linecap:round;stroke-linejoin:round"/><polygon points="251.02 264.92 254.1 262.43 247.77 262.43 244.68 264.92 251.02 264.92" style="fill:none;stroke:#263238;stroke-linecap:round;stroke-linejoin:round"/><polygon points="257.36 264.92 260.44 262.43 254.1 262.43 251.02 264.92 257.36 264.92" style="fill:none;stroke:#263238;stroke-linecap:round;stroke-linejoin:round"/><polygon points="247.94 267.41 254.27 267.41 257.36 264.92 251.02 264.92 247.94 267.41" style="fill:none;stroke:#263238;stroke-linecap:round;stroke-linejoin:round"/><polygon points="244.68 264.92 247.77 262.43 241.43 262.43 238.34 264.92 244.68 264.92" style="fill:none;stroke:#263238;stroke-linecap:round;stroke-linejoin:round"/><polygon points="225.84 269.9 222.76 272.38 229.09 272.38 232.18 269.9 225.84 269.9" style="fill:none;stroke:#263238;stroke-linecap:round;stroke-linejoin:round"/><polygon points="232.18 269.9 229.09 272.38 235.43 272.38 238.51 269.9 232.18 269.9" style="fill:none;stroke:#263238;stroke-linecap:round;stroke-linejoin:round"/><polygon points="219.5 269.9 216.42 272.38 222.76 272.38 225.84 269.9 219.5 269.9" style="fill:none;stroke:#263238;stroke-linecap:round;stroke-linejoin:round"/><polygon points="238.51 269.9 235.43 272.38 241.77 272.38 244.85 269.9 238.51 269.9" style="fill:none;stroke:#263238;stroke-linecap:round;stroke-linejoin:round"/><polygon points="213.17 269.9 210.08 272.38 216.42 272.38 219.5 269.9 213.17 269.9" style="fill:none;stroke:#263238;stroke-linecap:round;stroke-linejoin:round"/><polygon points="206.83 269.9 203.75 272.38 210.08 272.38 213.17 269.9 206.83 269.9" style="fill:none;stroke:#263238;stroke-linecap:round;stroke-linejoin:round"/><polygon points="244.85 269.9 241.77 272.38 248.1 272.38 251.19 269.9 244.85 269.9" style="fill:none;stroke:#263238;stroke-linecap:round;stroke-linejoin:round"/><polygon points="194.16 269.9 191.07 272.38 197.41 272.38 200.49 269.9 194.16 269.9" style="fill:none;stroke:#263238;stroke-linecap:round;stroke-linejoin:round"/><polygon points="200.49 269.9 197.41 272.38 203.75 272.38 206.83 269.9 200.49 269.9" style="fill:none;stroke:#263238;stroke-linecap:round;stroke-linejoin:round"/><polygon points="260.61 267.41 266.95 267.41 270.03 264.92 263.69 264.92 260.61 267.41" style="fill:none;stroke:#263238;stroke-linecap:round;stroke-linejoin:round"/><polygon points="269.86 259.94 266.78 262.43 273.11 262.43 276.2 259.94 269.86 259.94" style="fill:none;stroke:#263238;stroke-linecap:round;stroke-linejoin:round"/><polygon points="263.69 264.92 270.03 264.92 273.11 262.43 266.78 262.43 263.69 264.92" style="fill:none;stroke:#263238;stroke-linecap:round;stroke-linejoin:round"/><polygon points="187.82 269.9 184.74 272.38 191.07 272.38 194.16 269.9 187.82 269.9" style="fill:none;stroke:#263238;stroke-linecap:round;stroke-linejoin:round"/><polygon points="251.19 269.9 248.1 272.38 254.44 272.38 257.52 269.9 251.19 269.9" style="fill:none;stroke:#263238;stroke-linecap:round;stroke-linejoin:round"/><polygon points="254.44 272.38 260.78 272.38 263.86 269.9 257.52 269.9 254.44 272.38" style="fill:none;stroke:#263238;stroke-linecap:round;stroke-linejoin:round"/><polygon points="257.52 269.9 263.86 269.9 266.95 267.41 260.61 267.41 257.52 269.9" style="fill:none;stroke:#263238;stroke-linecap:round;stroke-linejoin:round"/><polygon points="193.99 264.92 187.65 264.92 184.57 267.41 190.9 267.41 193.99 264.92" style="fill:none;stroke:#263238;stroke-linecap:round;stroke-linejoin:round"/><polygon points="235.09 262.43 238.18 259.94 231.84 259.94 228.76 262.43 235.09 262.43" style="fill:none;stroke:#263238;stroke-linecap:round;stroke-linejoin:round"/><polygon points="241.43 262.43 244.51 259.94 238.18 259.94 235.09 262.43 241.43 262.43" style="fill:none;stroke:#263238;stroke-linecap:round;stroke-linejoin:round"/><polygon points="228.76 262.43 231.84 259.94 225.5 259.94 222.42 262.43 228.76 262.43" style="fill:none;stroke:#263238;stroke-linecap:round;stroke-linejoin:round"/><polygon points="247.77 262.43 250.85 259.94 244.51 259.94 241.43 262.43 247.77 262.43" style="fill:none;stroke:#263238;stroke-linecap:round;stroke-linejoin:round"/><polygon points="260.44 262.43 263.52 259.94 257.19 259.94 254.1 262.43 260.44 262.43" style="fill:none;stroke:#263238;stroke-linecap:round;stroke-linejoin:round"/><polygon points="254.1 262.43 257.19 259.94 250.85 259.94 247.77 262.43 254.1 262.43" style="fill:none;stroke:#263238;stroke-linecap:round;stroke-linejoin:round"/><polygon points="222.42 262.43 225.5 259.94 219.17 259.94 216.08 262.43 222.42 262.43" style="fill:none;stroke:#263238;stroke-linecap:round;stroke-linejoin:round"/><polygon points="190.9 267.41 184.57 267.41 181.48 269.9 187.82 269.9 190.9 267.41" style="fill:none;stroke:#263238;stroke-linecap:round;stroke-linejoin:round"/><polygon points="197.07 262.43 190.73 262.43 187.65 264.92 193.99 264.92 197.07 262.43" style="fill:none;stroke:#263238;stroke-linecap:round;stroke-linejoin:round"/><polygon points="266.78 262.43 269.86 259.94 263.52 259.94 260.44 262.43 266.78 262.43" style="fill:none;stroke:#263238;stroke-linecap:round;stroke-linejoin:round"/><polygon points="181.48 269.9 178.4 272.38 184.74 272.38 187.82 269.9 181.48 269.9" style="fill:none;stroke:#263238;stroke-linecap:round;stroke-linejoin:round"/><polygon points="200.16 259.94 193.82 259.94 190.73 262.43 197.07 262.43 200.16 259.94" style="fill:none;stroke:#263238;stroke-linecap:round;stroke-linejoin:round"/><polygon points="209.75 262.43 212.83 259.94 206.49 259.94 203.41 262.43 209.75 262.43" style="fill:none;stroke:#263238;stroke-linecap:round;stroke-linejoin:round"/><polygon points="203.41 262.43 206.49 259.94 200.16 259.94 197.07 262.43 203.41 262.43" style="fill:none;stroke:#263238;stroke-linecap:round;stroke-linejoin:round"/><polygon points="216.08 262.43 219.17 259.94 212.83 259.94 209.75 262.43 216.08 262.43" style="fill:none;stroke:#263238;stroke-linecap:round;stroke-linejoin:round"/></g><g id="Device_3" data-name="Device 3"><path d="M288.67,254.41H255.59a.53.53,0,0,1-.23-1l6.8-3.27a.46.46,0,0,1,.23-.06h30.54a.53.53,0,0,1,.32.94L289,254.3A.54.54,0,0,1,288.67,254.41Z" style="fill:#263238;stroke:#263238;stroke-linecap:round;stroke-linejoin:round"/><rect x="272.88" y="229.43" width="6.08" height="23.17" style="fill:#fff;stroke:#263238;stroke-linecap:round;stroke-linejoin:round"/><rect x="271.93" y="229.43" width="7.98" height="16.82" style="fill:#263238;stroke:#263238;stroke-linecap:round;stroke-linejoin:round"/><rect x="227.02" y="152.35" width="100.68" height="78.75" style="fill:#fff;stroke:#263238;stroke-linecap:round;stroke-linejoin:round"/><rect x="232.4" y="156.57" width="89.91" height="70.33" style="fill:#263238;stroke:#263238;stroke-linecap:round;stroke-linejoin:round"/><path d="M241,161.41h-2.32a.58.58,0,0,1,0-1.15H241a.58.58,0,0,1,0,1.15Zm.57,2.07a.58.58,0,0,0-.57-.57h-2.32a.58.58,0,0,0-.57.57.57.57,0,0,0,.57.57H241A.57.57,0,0,0,241.53,163.48Zm0,2.65a.58.58,0,0,0-.57-.57h-2.32a.58.58,0,0,0-.57.57.57.57,0,0,0,.57.57H241A.57.57,0,0,0,241.53,166.13Zm0,2.65a.57.57,0,0,0-.57-.57h-2.32a.57.57,0,0,0,0,1.14H241A.57.57,0,0,0,241.53,168.78Zm0,2.65a.57.57,0,0,0-.57-.57h-2.32a.57.57,0,0,0-.57.57.58.58,0,0,0,.57.57H241A.58.58,0,0,0,241.53,171.43Zm0,2.65a.57.57,0,0,0-.57-.57h-2.32a.57.57,0,0,0-.57.57.58.58,0,0,0,.57.57H241A.58.58,0,0,0,241.53,174.08Zm0,2.65a.58.58,0,0,0-.57-.58h-2.32a.58.58,0,0,0,0,1.15H241A.58.58,0,0,0,241.53,176.73Zm0,2.64a.58.58,0,0,0-.57-.57h-2.32a.58.58,0,0,0,0,1.15H241A.58.58,0,0,0,241.53,179.37Zm8.67-18.54a.58.58,0,0,0-.57-.57h-6.08a.58.58,0,1,0,0,1.15h6.08A.58.58,0,0,0,250.2,160.83Zm0,2.65a.58.58,0,0,0-.57-.57h-6.08a.58.58,0,0,0-.58.57.57.57,0,0,0,.58.57h6.08A.57.57,0,0,0,250.2,163.48Zm0,2.65a.58.58,0,0,0-.57-.57h-6.08a.58.58,0,0,0-.58.57.57.57,0,0,0,.58.57h6.08A.57.57,0,0,0,250.2,166.13Zm0,2.65a.57.57,0,0,0-.57-.57h-6.08a.57.57,0,1,0,0,1.14h6.08A.57.57,0,0,0,250.2,168.78Zm0,2.65a.57.57,0,0,0-.57-.57h-6.08a.57.57,0,0,0-.58.57.58.58,0,0,0,.58.57h6.08A.58.58,0,0,0,250.2,171.43Zm7.28,2.65a.56.56,0,0,0-.57-.57h-6.08a.56.56,0,0,0-.57.57.57.57,0,0,0,.57.57h6.08A.57.57,0,0,0,257.48,174.08Zm0,2.65a.57.57,0,0,0-.57-.58h-6.08a.58.58,0,0,0,0,1.15h6.08A.57.57,0,0,0,257.48,176.73Zm0,2.64a.57.57,0,0,0-.57-.57h-6.08a.58.58,0,0,0,0,1.15h6.08A.57.57,0,0,0,257.48,179.37Zm-4.6-18.54a.67.67,0,1,0-.66.67A.67.67,0,0,0,252.88,160.83Zm2,0a.66.66,0,0,0-1.32,0,.66.66,0,1,0,1.32,0Zm2,0a.66.66,0,1,0-.66.67A.67.67,0,0,0,256.85,160.83Zm2,0a.67.67,0,1,0-.67.67A.67.67,0,0,0,258.84,160.83Zm2,0a.66.66,0,0,0-1.32,0,.66.66,0,1,0,1.32,0Zm2,0a.66.66,0,1,0-.66.67A.67.67,0,0,0,262.81,160.83Zm-9.93,5.3a.67.67,0,1,0-.66.66A.67.67,0,0,0,252.88,166.13Zm2,0a.66.66,0,1,0-.66.66A.66.66,0,0,0,254.86,166.13Zm2,0a.66.66,0,1,0-1.32,0,.66.66,0,0,0,1.32,0Zm2,0a.67.67,0,0,0-1.33,0,.67.67,0,0,0,1.33,0Zm2,0a.66.66,0,1,0-.66.66A.66.66,0,0,0,260.82,166.13Zm2,0a.66.66,0,1,0-1.32,0,.66.66,0,1,0,1.32,0Zm-3.15,7.62a.66.66,0,1,0-.66.66A.66.66,0,0,0,259.66,173.75Zm2,0a.66.66,0,1,0-1.32,0,.66.66,0,0,0,1.32,0Zm2,0a.67.67,0,1,0-.66.66A.67.67,0,0,0,263.64,173.75Zm2,0a.66.66,0,1,0-.66.66A.66.66,0,0,0,265.62,173.75Zm2,0a.66.66,0,1,0-1.32,0,.66.66,0,1,0,1.32,0Zm2,0a.67.67,0,1,0-.67.66A.67.67,0,0,0,269.6,173.75Zm-9.94,5.46a.66.66,0,1,0-1.32,0,.66.66,0,0,0,1.32,0Zm2,0a.66.66,0,1,0-.66.66A.66.66,0,0,0,261.65,179.21Zm2,0a.67.67,0,0,0-1.33,0,.67.67,0,0,0,1.33,0Zm2,0a.66.66,0,1,0-1.32,0,.66.66,0,1,0,1.32,0Zm2,0a.66.66,0,1,0-.66.66A.66.66,0,0,0,267.61,179.21Zm2,0a.67.67,0,1,0-.67.66A.66.66,0,0,0,269.6,179.21Z" style="fill:#c6ff00"/><path d="M241,182.6h-2.32a.58.58,0,0,1-.57-.57.57.57,0,0,1,.57-.57H241a.57.57,0,0,1,.57.57A.58.58,0,0,1,241,182.6Zm.57,2.08a.57.57,0,0,0-.57-.57h-2.32a.57.57,0,0,0-.57.57.58.58,0,0,0,.57.57H241A.58.58,0,0,0,241.53,184.68Zm0,2.65a.58.58,0,0,0-.57-.58h-2.32a.58.58,0,0,0,0,1.15H241A.58.58,0,0,0,241.53,187.33Zm0,2.64a.58.58,0,0,0-.57-.57h-2.32a.58.58,0,0,0,0,1.15H241A.58.58,0,0,0,241.53,190Zm0,2.65a.58.58,0,0,0-.57-.57h-2.32a.58.58,0,0,0-.57.57.57.57,0,0,0,.57.57H241A.57.57,0,0,0,241.53,192.62Zm0,2.65a.58.58,0,0,0-.57-.57h-2.32a.58.58,0,0,0-.57.57.57.57,0,0,0,.57.57H241A.57.57,0,0,0,241.53,195.27Zm0,2.65a.57.57,0,0,0-.57-.57h-2.32a.57.57,0,0,0,0,1.14H241A.57.57,0,0,0,241.53,197.92Zm0,2.65A.57.57,0,0,0,241,200h-2.32a.57.57,0,0,0-.57.57.58.58,0,0,0,.57.57H241A.58.58,0,0,0,241.53,200.57ZM250.2,182a.57.57,0,0,0-.57-.57h-6.08a.57.57,0,0,0-.58.57.58.58,0,0,0,.58.57h6.08A.58.58,0,0,0,250.2,182Zm0,2.65a.57.57,0,0,0-.57-.57h-6.08a.57.57,0,0,0-.58.57.58.58,0,0,0,.58.57h6.08A.58.58,0,0,0,250.2,184.68Zm0,2.65a.58.58,0,0,0-.57-.58h-6.08a.58.58,0,1,0,0,1.15h6.08A.58.58,0,0,0,250.2,187.33Zm0,2.64a.58.58,0,0,0-.57-.57h-6.08a.58.58,0,1,0,0,1.15h6.08A.58.58,0,0,0,250.2,190Zm0,2.65a.58.58,0,0,0-.57-.57h-6.08a.58.58,0,0,0-.58.57.57.57,0,0,0,.58.57h6.08A.57.57,0,0,0,250.2,192.62Zm7.28,2.65a.57.57,0,0,0-.57-.57h-6.08a.57.57,0,0,0-.57.57.56.56,0,0,0,.57.57h6.08A.56.56,0,0,0,257.48,195.27Zm0,2.65a.56.56,0,0,0-.57-.57h-6.08a.57.57,0,0,0,0,1.14h6.08A.56.56,0,0,0,257.48,197.92Zm0,2.65a.56.56,0,0,0-.57-.57h-6.08a.56.56,0,0,0-.57.57.57.57,0,0,0,.57.57h6.08A.57.57,0,0,0,257.48,200.57ZM252.88,182a.67.67,0,0,0-1.33,0,.67.67,0,0,0,1.33,0Zm2,0a.66.66,0,1,0-1.32,0,.66.66,0,0,0,1.32,0Zm2,0a.66.66,0,1,0-.66.66A.66.66,0,0,0,256.85,182Zm2,0a.67.67,0,1,0-.67.66A.66.66,0,0,0,258.84,182Zm2,0a.66.66,0,0,0-1.32,0,.66.66,0,0,0,1.32,0Zm2,0a.66.66,0,1,0-.66.66A.66.66,0,0,0,262.81,182Zm-9.93,5.3a.67.67,0,1,0-.66.66A.67.67,0,0,0,252.88,187.33Zm2,0a.66.66,0,1,0-.66.66A.66.66,0,0,0,254.86,187.33Zm2,0a.66.66,0,1,0-1.32,0,.66.66,0,0,0,1.32,0Zm2,0a.67.67,0,1,0-.67.66A.67.67,0,0,0,258.84,187.33Zm2,0a.66.66,0,1,0-.66.66A.66.66,0,0,0,260.82,187.33Zm2,0a.66.66,0,1,0-1.32,0,.66.66,0,1,0,1.32,0Zm-3.15,7.61a.66.66,0,1,0-.66.66A.65.65,0,0,0,259.66,194.94Zm2,0a.66.66,0,1,0-.66.66A.66.66,0,0,0,261.65,194.94Zm2,0a.67.67,0,1,0-.66.66A.66.66,0,0,0,263.64,194.94Zm2,0a.66.66,0,1,0-.66.66A.65.65,0,0,0,265.62,194.94Zm2,0a.66.66,0,1,0-.66.66A.66.66,0,0,0,267.61,194.94Zm2,0a.67.67,0,1,0-.67.66A.66.66,0,0,0,269.6,194.94Zm-9.94,5.46a.66.66,0,1,0-1.32,0,.66.66,0,1,0,1.32,0Zm2,0a.66.66,0,1,0-.66.67A.67.67,0,0,0,261.65,200.4Zm2,0a.67.67,0,1,0-.66.67A.67.67,0,0,0,263.64,200.4Zm2,0a.66.66,0,1,0-1.32,0,.66.66,0,1,0,1.32,0Zm2,0a.66.66,0,1,0-.66.67A.67.67,0,0,0,267.61,200.4Zm2,0a.67.67,0,1,0-.67.67A.67.67,0,0,0,269.6,200.4Z" style="fill:#c6ff00"/><path d="M241,204.31h-2.32a.58.58,0,0,1,0-1.15H241a.58.58,0,0,1,0,1.15Zm.57,2.07a.58.58,0,0,0-.57-.57h-2.32a.58.58,0,0,0-.57.57.57.57,0,0,0,.57.57H241A.57.57,0,0,0,241.53,206.38Zm0,2.65a.58.58,0,0,0-.57-.57h-2.32a.58.58,0,0,0-.57.57.57.57,0,0,0,.57.57H241A.57.57,0,0,0,241.53,209Zm0,2.65a.57.57,0,0,0-.57-.57h-2.32a.57.57,0,0,0,0,1.14H241A.57.57,0,0,0,241.53,211.68Zm0,2.65a.57.57,0,0,0-.57-.57h-2.32a.57.57,0,0,0-.57.57.58.58,0,0,0,.57.57H241A.58.58,0,0,0,241.53,214.33Zm0,2.65a.57.57,0,0,0-.57-.57h-2.32a.57.57,0,0,0-.57.57.58.58,0,0,0,.57.57H241A.58.58,0,0,0,241.53,217Zm0,2.65a.58.58,0,0,0-.57-.58h-2.32a.58.58,0,0,0,0,1.15H241A.58.58,0,0,0,241.53,219.63Zm0,2.64a.58.58,0,0,0-.57-.57h-2.32a.58.58,0,0,0,0,1.15H241A.58.58,0,0,0,241.53,222.27Zm8.67-18.54a.58.58,0,0,0-.57-.57h-6.08a.58.58,0,1,0,0,1.15h6.08A.58.58,0,0,0,250.2,203.73Zm0,2.65a.58.58,0,0,0-.57-.57h-6.08a.58.58,0,0,0-.58.57.57.57,0,0,0,.58.57h6.08A.57.57,0,0,0,250.2,206.38Zm0,2.65a.58.58,0,0,0-.57-.57h-6.08a.58.58,0,0,0-.58.57.57.57,0,0,0,.58.57h6.08A.57.57,0,0,0,250.2,209Zm0,2.65a.57.57,0,0,0-.57-.57h-6.08a.57.57,0,1,0,0,1.14h6.08A.57.57,0,0,0,250.2,211.68Zm0,2.65a.57.57,0,0,0-.57-.57h-6.08a.57.57,0,0,0-.58.57.58.58,0,0,0,.58.57h6.08A.58.58,0,0,0,250.2,214.33Zm7.28,2.65a.56.56,0,0,0-.57-.57h-6.08a.56.56,0,0,0-.57.57.57.57,0,0,0,.57.57h6.08A.57.57,0,0,0,257.48,217Zm0,2.65a.57.57,0,0,0-.57-.58h-6.08a.58.58,0,0,0,0,1.15h6.08A.57.57,0,0,0,257.48,219.63Zm0,2.64a.57.57,0,0,0-.57-.57h-6.08a.58.58,0,0,0,0,1.15h6.08A.57.57,0,0,0,257.48,222.27Zm-4.6-18.54a.67.67,0,1,0-.66.67A.67.67,0,0,0,252.88,203.73Zm2,0a.66.66,0,1,0-1.32,0,.66.66,0,1,0,1.32,0Zm2,0a.66.66,0,1,0-.66.67A.67.67,0,0,0,256.85,203.73Zm2,0a.67.67,0,1,0-.67.67A.67.67,0,0,0,258.84,203.73Zm2,0a.66.66,0,0,0-1.32,0,.66.66,0,1,0,1.32,0Zm2,0a.66.66,0,1,0-.66.67A.67.67,0,0,0,262.81,203.73Zm-9.93,5.3a.67.67,0,1,0-.66.66A.67.67,0,0,0,252.88,209Zm2,0a.66.66,0,1,0-.66.66A.66.66,0,0,0,254.86,209Zm2,0a.66.66,0,1,0-1.32,0,.66.66,0,0,0,1.32,0Zm2,0a.67.67,0,0,0-1.33,0,.67.67,0,0,0,1.33,0Zm2,0a.66.66,0,1,0-.66.66A.66.66,0,0,0,260.82,209Zm2,0a.66.66,0,1,0-1.32,0,.66.66,0,1,0,1.32,0Zm-3.15,7.62a.66.66,0,1,0-.66.66A.66.66,0,0,0,259.66,216.65Zm2,0a.66.66,0,1,0-1.32,0,.66.66,0,0,0,1.32,0Zm2,0a.67.67,0,1,0-.66.66A.67.67,0,0,0,263.64,216.65Zm2,0a.66.66,0,1,0-.66.66A.66.66,0,0,0,265.62,216.65Zm2,0a.66.66,0,1,0-1.32,0,.66.66,0,1,0,1.32,0Zm2,0a.67.67,0,1,0-.67.66A.67.67,0,0,0,269.6,216.65Zm-9.94,5.46a.66.66,0,0,0-1.32,0,.66.66,0,0,0,1.32,0Zm2,0a.66.66,0,1,0-.66.66A.66.66,0,0,0,261.65,222.11Zm2,0a.67.67,0,0,0-1.33,0,.67.67,0,0,0,1.33,0Zm2,0a.66.66,0,0,0-1.32,0,.66.66,0,1,0,1.32,0Zm2,0a.66.66,0,1,0-.66.66A.66.66,0,0,0,267.61,222.11Zm2,0a.67.67,0,1,0-.67.66A.66.66,0,0,0,269.6,222.11Z" style="fill:#c6ff00"/><path d="M276.54,161.41h-2.32a.58.58,0,0,1,0-1.15h2.32a.58.58,0,0,1,0,1.15Zm.57,2.07a.57.57,0,0,0-.57-.57h-2.32a.58.58,0,0,0-.57.57.57.57,0,0,0,.57.57h2.32A.56.56,0,0,0,277.11,163.48Zm0,2.65a.57.57,0,0,0-.57-.57h-2.32a.58.58,0,0,0-.57.57.57.57,0,0,0,.57.57h2.32A.56.56,0,0,0,277.11,166.13Zm0,2.65a.56.56,0,0,0-.57-.57h-2.32a.57.57,0,1,0,0,1.14h2.32A.56.56,0,0,0,277.11,168.78Zm0,2.65a.56.56,0,0,0-.57-.57h-2.32a.57.57,0,0,0-.57.57.58.58,0,0,0,.57.57h2.32A.57.57,0,0,0,277.11,171.43Zm0,2.65a.56.56,0,0,0-.57-.57h-2.32a.57.57,0,0,0-.57.57.58.58,0,0,0,.57.57h2.32A.57.57,0,0,0,277.11,174.08Zm0,2.65a.57.57,0,0,0-.57-.58h-2.32a.58.58,0,0,0,0,1.15h2.32A.57.57,0,0,0,277.11,176.73Zm0,2.64a.57.57,0,0,0-.57-.57h-2.32a.58.58,0,0,0,0,1.15h2.32A.57.57,0,0,0,277.11,179.37Zm8.67-18.54a.57.57,0,0,0-.57-.57h-6.08a.58.58,0,1,0,0,1.15h6.08A.57.57,0,0,0,285.78,160.83Zm0,2.65a.57.57,0,0,0-.57-.57h-6.08a.58.58,0,0,0-.58.57.57.57,0,0,0,.58.57h6.08A.56.56,0,0,0,285.78,163.48Zm0,2.65a.57.57,0,0,0-.57-.57h-6.08a.58.58,0,0,0-.58.57.57.57,0,0,0,.58.57h6.08A.56.56,0,0,0,285.78,166.13Zm0,2.65a.56.56,0,0,0-.57-.57h-6.08a.57.57,0,1,0,0,1.14h6.08A.56.56,0,0,0,285.78,168.78Zm0,2.65a.56.56,0,0,0-.57-.57h-6.08a.57.57,0,0,0-.58.57.58.58,0,0,0,.58.57h6.08A.57.57,0,0,0,285.78,171.43Zm7.29,2.65a.57.57,0,0,0-.58-.57h-6.08a.56.56,0,0,0-.57.57.57.57,0,0,0,.57.57h6.08A.58.58,0,0,0,293.07,174.08Zm0,2.65a.58.58,0,0,0-.58-.58h-6.08a.58.58,0,0,0,0,1.15h6.08A.58.58,0,0,0,293.07,176.73Zm0,2.64a.58.58,0,0,0-.58-.57h-6.08a.58.58,0,0,0,0,1.15h6.08A.58.58,0,0,0,293.07,179.37Zm-4.61-18.54a.67.67,0,1,0-.66.67A.67.67,0,0,0,288.46,160.83Zm2,0a.67.67,0,1,0-.67.67A.67.67,0,0,0,290.45,160.83Zm2,0a.66.66,0,1,0-.66.67A.66.66,0,0,0,292.43,160.83Zm2,0a.67.67,0,1,0-.66.67A.67.67,0,0,0,294.42,160.83Zm2,0a.66.66,0,0,0-1.32,0,.66.66,0,1,0,1.32,0Zm2,0a.66.66,0,1,0-.66.67A.67.67,0,0,0,298.39,160.83Zm-9.93,5.3a.67.67,0,1,0-.66.66A.67.67,0,0,0,288.46,166.13Zm2,0a.67.67,0,0,0-1.33,0,.67.67,0,0,0,1.33,0Zm2,0a.66.66,0,1,0-.66.66A.66.66,0,0,0,292.43,166.13Zm2,0a.67.67,0,1,0-.66.66A.67.67,0,0,0,294.42,166.13Zm2,0a.66.66,0,1,0-.66.66A.66.66,0,0,0,296.4,166.13Zm2,0a.66.66,0,0,0-1.32,0,.66.66,0,0,0,1.32,0Zm-3.14,7.62a.67.67,0,1,0-.67.66A.67.67,0,0,0,295.25,173.75Zm2,0a.66.66,0,1,0-.66.66A.66.66,0,0,0,297.23,173.75Zm2,0a.67.67,0,1,0-.66.66A.67.67,0,0,0,299.22,173.75Zm2,0a.67.67,0,1,0-.67.66A.67.67,0,0,0,301.21,173.75Zm2,0a.66.66,0,1,0-.66.66A.66.66,0,0,0,303.19,173.75Zm2,0a.67.67,0,1,0-.66.66A.67.67,0,0,0,305.18,173.75Zm-9.93,5.46a.67.67,0,1,0-.67.66A.66.66,0,0,0,295.25,179.21Zm2,0a.66.66,0,1,0-.66.66A.65.65,0,0,0,297.23,179.21Zm2,0a.67.67,0,0,0-1.33,0,.67.67,0,0,0,1.33,0Zm2,0a.67.67,0,1,0-.67.66A.66.66,0,0,0,301.21,179.21Zm2,0a.66.66,0,1,0-.66.66A.65.65,0,0,0,303.19,179.21Zm2,0a.67.67,0,0,0-1.33,0,.67.67,0,0,0,1.33,0Z" style="fill:#c6ff00"/><path d="M276.54,183.11h-2.32a.57.57,0,1,1,0-1.14h2.32a.57.57,0,1,1,0,1.14Zm.57,2.08a.56.56,0,0,0-.57-.57h-2.32a.57.57,0,0,0-.57.57.58.58,0,0,0,.57.57h2.32A.57.57,0,0,0,277.11,185.19Zm0,2.65a.56.56,0,0,0-.57-.57h-2.32a.57.57,0,0,0-.57.57.58.58,0,0,0,.57.57h2.32A.57.57,0,0,0,277.11,187.84Zm0,2.65a.57.57,0,0,0-.57-.58h-2.32a.58.58,0,0,0,0,1.15h2.32A.57.57,0,0,0,277.11,190.49Zm0,2.64a.57.57,0,0,0-.57-.57h-2.32a.58.58,0,0,0,0,1.15h2.32A.57.57,0,0,0,277.11,193.13Zm0,2.65a.57.57,0,0,0-.57-.57h-2.32a.58.58,0,0,0,0,1.15h2.32A.57.57,0,0,0,277.11,195.78Zm0,2.65a.57.57,0,0,0-.57-.57h-2.32a.58.58,0,0,0-.57.57.57.57,0,0,0,.57.57h2.32A.56.56,0,0,0,277.11,198.43Zm0,2.65a.56.56,0,0,0-.57-.57h-2.32a.57.57,0,1,0,0,1.14h2.32A.56.56,0,0,0,277.11,201.08Zm8.67-18.54a.56.56,0,0,0-.57-.57h-6.08a.57.57,0,1,0,0,1.14h6.08A.56.56,0,0,0,285.78,182.54Zm0,2.65a.56.56,0,0,0-.57-.57h-6.08a.57.57,0,0,0-.58.57.58.58,0,0,0,.58.57h6.08A.57.57,0,0,0,285.78,185.19Zm0,2.65a.56.56,0,0,0-.57-.57h-6.08a.57.57,0,0,0-.58.57.58.58,0,0,0,.58.57h6.08A.57.57,0,0,0,285.78,187.84Zm0,2.65a.57.57,0,0,0-.57-.58h-6.08a.58.58,0,1,0,0,1.15h6.08A.57.57,0,0,0,285.78,190.49Zm0,2.64a.57.57,0,0,0-.57-.57h-6.08a.58.58,0,1,0,0,1.15h6.08A.57.57,0,0,0,285.78,193.13Zm7.29,2.65a.58.58,0,0,0-.58-.57h-6.08a.58.58,0,0,0,0,1.15h6.08A.58.58,0,0,0,293.07,195.78Zm0,2.65a.58.58,0,0,0-.58-.57h-6.08a.57.57,0,0,0-.57.57.56.56,0,0,0,.57.57h6.08A.57.57,0,0,0,293.07,198.43Zm0,2.65a.57.57,0,0,0-.58-.57h-6.08a.57.57,0,1,0,0,1.14h6.08A.57.57,0,0,0,293.07,201.08Zm-4.61-18.54a.67.67,0,1,0-.66.66A.66.66,0,0,0,288.46,182.54Zm2,0a.67.67,0,1,0-.67.66A.66.66,0,0,0,290.45,182.54Zm2,0a.66.66,0,1,0-.66.66A.65.65,0,0,0,292.43,182.54Zm2,0a.67.67,0,1,0-.66.66A.66.66,0,0,0,294.42,182.54Zm2,0a.66.66,0,1,0-.66.66A.65.65,0,0,0,296.4,182.54Zm2,0a.66.66,0,1,0-.66.66A.66.66,0,0,0,298.39,182.54Zm-9.93,5.3a.67.67,0,0,0-1.33,0,.67.67,0,0,0,1.33,0Zm2,0a.67.67,0,1,0-.67.66A.66.66,0,0,0,290.45,187.84Zm2,0a.66.66,0,1,0-.66.66A.65.65,0,0,0,292.43,187.84Zm2,0a.67.67,0,0,0-1.33,0,.67.67,0,0,0,1.33,0Zm2,0a.66.66,0,0,0-1.32,0,.66.66,0,0,0,1.32,0Zm2,0a.66.66,0,1,0-.66.66A.66.66,0,0,0,298.39,187.84Zm-3.14,7.61a.67.67,0,0,0-1.33,0,.67.67,0,0,0,1.33,0Zm2,0a.66.66,0,1,0-.66.66A.66.66,0,0,0,297.23,195.45Zm2,0a.67.67,0,1,0-.66.66A.67.67,0,0,0,299.22,195.45Zm2,0a.67.67,0,0,0-1.33,0,.67.67,0,0,0,1.33,0Zm2,0a.66.66,0,1,0-.66.66A.66.66,0,0,0,303.19,195.45Zm2,0a.67.67,0,1,0-.66.66A.67.67,0,0,0,305.18,195.45Zm-9.93,5.46a.67.67,0,1,0-.67.67A.67.67,0,0,0,295.25,200.91Zm2,0a.66.66,0,1,0-.66.67A.66.66,0,0,0,297.23,200.91Zm2,0a.67.67,0,1,0-.66.67A.67.67,0,0,0,299.22,200.91Zm2,0a.67.67,0,1,0-.67.67A.67.67,0,0,0,301.21,200.91Zm2,0a.66.66,0,1,0-.66.67A.66.66,0,0,0,303.19,200.91Zm2,0a.67.67,0,1,0-.66.67A.67.67,0,0,0,305.18,200.91Z" style="fill:#c6ff00"/></g><g id="Device_2" data-name="Device 2"><path d="M238.52,139.57H205.45a.53.53,0,0,1-.23-1l6.8-3.27a.42.42,0,0,1,.22-.05h30.55a.52.52,0,0,1,.31.93l-4.26,3.28A.52.52,0,0,1,238.52,139.57Z" style="fill:#263238;stroke:#263238;stroke-linecap:round;stroke-linejoin:round"/><rect x="222.74" y="114.59" width="6.08" height="23.17" style="fill:#fff;stroke:#263238;stroke-linecap:round;stroke-linejoin:round"/><rect x="221.79" y="114.59" width="7.99" height="16.82" style="fill:#263238;stroke:#263238;stroke-linecap:round;stroke-linejoin:round"/><rect x="176.88" y="37.52" width="100.68" height="78.75" style="fill:#fff;stroke:#263238;stroke-linecap:round;stroke-linejoin:round"/><rect x="182.26" y="41.73" width="89.91" height="70.33" style="fill:#263238;stroke:#263238;stroke-linecap:round;stroke-linejoin:round"/><rect x="189.29" y="49.59" width="36.64" height="16.28" style="fill:none;stroke:#c6ff00;stroke-miterlimit:10"/><path d="M194.06,77.17h8.54a26.37,26.37,0,0,1,11.15,2.48l4,1.87a15.67,15.67,0,0,0,14.19-.46l1.15-.63a26.24,26.24,0,0,1,12.67-3.26h10.09" style="fill:none;stroke:#c6ff00;stroke-miterlimit:10"/><path d="M194.06,83.14h8.54a26.37,26.37,0,0,1,11.15,2.48l4,1.87A15.64,15.64,0,0,0,231.92,87l1.15-.63a26.34,26.34,0,0,1,12.67-3.25h10.09" style="fill:none;stroke:#c6ff00;stroke-miterlimit:10"/><path d="M194.06,102.3h8.54a26.37,26.37,0,0,0,11.15-2.48l4-1.87a15.67,15.67,0,0,1,14.19.46l1.15.63a26.24,26.24,0,0,0,12.67,3.26h10.09" style="fill:none;stroke:#c6ff00;stroke-miterlimit:10"/><path d="M194.06,96.33h8.54a26.22,26.22,0,0,0,11.15-2.48l4-1.86a15.67,15.67,0,0,1,14.19.46l1.15.63a26.34,26.34,0,0,0,12.67,3.25h10.09" style="fill:none;stroke:#c6ff00;stroke-miterlimit:10"/><rect x="256.84" y="73.21" width="5.73" height="5.73" style="fill:#c6ff00"/><rect x="256.84" y="80.26" width="5.73" height="5.73" style="fill:#c6ff00"/><rect x="256.84" y="92.38" width="5.73" height="5.73" style="fill:#c6ff00"/><rect x="256.84" y="99.43" width="5.73" height="5.73" style="fill:#c6ff00"/><rect x="187.2" y="73.21" width="5.73" height="5.73" style="fill:#c6ff00"/><rect x="187.2" y="80.26" width="5.73" height="5.73" style="fill:#c6ff00"/><rect x="187.2" y="92.38" width="5.73" height="5.73" style="fill:#c6ff00"/><rect x="187.2" y="99.43" width="5.73" height="5.73" style="fill:#c6ff00"/><path d="M234.05,49.31h-2.31a.57.57,0,0,1-.58-.57.58.58,0,0,1,.58-.57h2.31a.57.57,0,0,1,.57.57A.56.56,0,0,1,234.05,49.31Zm.57,2.08a.56.56,0,0,0-.57-.57h-2.31a.57.57,0,1,0,0,1.14h2.31A.56.56,0,0,0,234.62,51.39Zm0,2.65a.56.56,0,0,0-.57-.57h-2.31a.57.57,0,1,0,0,1.14h2.31A.56.56,0,0,0,234.62,54Zm0,2.65a.56.56,0,0,0-.57-.57h-2.31a.57.57,0,0,0-.58.57.58.58,0,0,0,.58.57h2.31A.57.57,0,0,0,234.62,56.69Zm0,2.65a.57.57,0,0,0-.57-.58h-2.31a.58.58,0,1,0,0,1.15h2.31A.57.57,0,0,0,234.62,59.34Zm0,2.65a.57.57,0,0,0-.57-.58h-2.31a.58.58,0,1,0,0,1.15h2.31A.57.57,0,0,0,234.62,62Zm0,2.64a.57.57,0,0,0-.57-.57h-2.31a.58.58,0,1,0,0,1.15h2.31A.57.57,0,0,0,234.62,64.63Zm0,2.65a.57.57,0,0,0-.57-.57h-2.31a.58.58,0,0,0-.58.57.57.57,0,0,0,.58.57h2.31A.56.56,0,0,0,234.62,67.28Zm8.67-18.54a.57.57,0,0,0-.57-.57h-6.08a.57.57,0,0,0-.57.57.56.56,0,0,0,.57.57h6.08A.56.56,0,0,0,243.29,48.74Zm0,2.65a.56.56,0,0,0-.57-.57h-6.08a.57.57,0,1,0,0,1.14h6.08A.56.56,0,0,0,243.29,51.39Zm0,2.65a.56.56,0,0,0-.57-.57h-6.08a.57.57,0,1,0,0,1.14h6.08A.56.56,0,0,0,243.29,54Zm0,2.65a.56.56,0,0,0-.57-.57h-6.08a.56.56,0,0,0-.57.57.57.57,0,0,0,.57.57h6.08A.57.57,0,0,0,243.29,56.69Zm0,2.65a.57.57,0,0,0-.57-.58h-6.08a.58.58,0,0,0,0,1.15h6.08A.57.57,0,0,0,243.29,59.34ZM250.58,62a.58.58,0,0,0-.57-.58h-6.09a.58.58,0,0,0,0,1.15H250A.58.58,0,0,0,250.58,62Zm0,2.64a.58.58,0,0,0-.57-.57h-6.09a.58.58,0,0,0,0,1.15H250A.58.58,0,0,0,250.58,64.63Zm0,2.65a.58.58,0,0,0-.57-.57h-6.09a.58.58,0,0,0-.57.57.57.57,0,0,0,.57.57H250A.57.57,0,0,0,250.58,67.28ZM246,48.74a.66.66,0,1,0-.66.66A.66.66,0,0,0,246,48.74Zm2,0a.67.67,0,1,0-.66.66A.67.67,0,0,0,248,48.74Zm2,0a.66.66,0,1,0-.66.66A.66.66,0,0,0,249.94,48.74Zm2,0a.66.66,0,0,0-1.32,0,.66.66,0,0,0,1.32,0Zm2,0a.67.67,0,1,0-.66.66A.67.67,0,0,0,253.92,48.74Zm2,0a.66.66,0,1,0-.66.66A.66.66,0,0,0,255.9,48.74ZM246,54a.66.66,0,1,0-.66.66A.65.65,0,0,0,246,54Zm2,0a.67.67,0,0,0-1.33,0A.67.67,0,0,0,248,54Zm2,0a.66.66,0,0,0-1.32,0,.66.66,0,1,0,1.32,0Zm2,0a.66.66,0,1,0-.66.66A.66.66,0,0,0,251.93,54Zm2,0a.67.67,0,0,0-1.33,0,.67.67,0,0,0,1.33,0Zm2,0a.66.66,0,1,0-1.32,0,.66.66,0,1,0,1.32,0Zm-3.14,7.61a.67.67,0,1,0-.66.67A.67.67,0,0,0,252.76,61.65Zm2,0a.67.67,0,1,0-.67.67A.67.67,0,0,0,254.75,61.65Zm2,0a.66.66,0,1,0-.66.67A.66.66,0,0,0,256.73,61.65Zm2,0a.67.67,0,1,0-.66.67A.67.67,0,0,0,258.72,61.65Zm2,0a.66.66,0,0,0-1.32,0,.66.66,0,1,0,1.32,0Zm2,0a.66.66,0,1,0-.66.67A.67.67,0,0,0,262.69,61.65Zm-9.93,5.47a.67.67,0,1,0-.66.66A.67.67,0,0,0,252.76,67.12Zm2,0a.67.67,0,1,0-.67.66A.67.67,0,0,0,254.75,67.12Zm2,0a.66.66,0,1,0-.66.66A.66.66,0,0,0,256.73,67.12Zm2,0a.67.67,0,1,0-.66.66A.67.67,0,0,0,258.72,67.12Zm2,0a.66.66,0,1,0-.66.66A.66.66,0,0,0,260.7,67.12Zm2,0a.66.66,0,1,0-1.32,0,.66.66,0,1,0,1.32,0Z" style="fill:#c6ff00"/></g><g id="Device_1" data-name="Device 1"><path d="M170.77,254.41H137.69a.53.53,0,0,1-.22-1l6.79-3.27a.49.49,0,0,1,.23-.06H175a.52.52,0,0,1,.32.94l-4.26,3.28A.52.52,0,0,1,170.77,254.41Z" style="fill:#263238;stroke:#263238;stroke-linecap:round;stroke-linejoin:round"/><rect x="154.99" y="229.43" width="6.08" height="23.17" style="fill:#fff;stroke:#263238;stroke-linecap:round;stroke-linejoin:round"/><rect x="154.04" y="229.43" width="7.99" height="16.82" style="fill:#263238;stroke:#263238;stroke-linecap:round;stroke-linejoin:round"/><rect x="109.12" y="152.35" width="100.68" height="78.75" style="fill:#fff;stroke:#263238;stroke-linecap:round;stroke-linejoin:round"/><rect x="114.51" y="156.57" width="89.91" height="70.33" style="fill:#263238;stroke:#263238;stroke-linecap:round;stroke-linejoin:round"/><path d="M134.46,161.41h-2.32a.58.58,0,0,1,0-1.15h2.32a.58.58,0,0,1,0,1.15Zm.57,2.07a.57.57,0,0,0-.57-.57h-2.32a.58.58,0,0,0-.57.57.57.57,0,0,0,.57.57h2.32A.56.56,0,0,0,135,163.48Zm0,2.65a.57.57,0,0,0-.57-.57h-2.32a.58.58,0,0,0-.57.57.57.57,0,0,0,.57.57h2.32A.56.56,0,0,0,135,166.13Zm0,2.65a.56.56,0,0,0-.57-.57h-2.32a.57.57,0,0,0,0,1.14h2.32A.56.56,0,0,0,135,168.78Zm0,2.65a.56.56,0,0,0-.57-.57h-2.32a.57.57,0,0,0-.57.57.58.58,0,0,0,.57.57h2.32A.57.57,0,0,0,135,171.43Zm0,2.65a.56.56,0,0,0-.57-.57h-2.32a.57.57,0,0,0-.57.57.58.58,0,0,0,.57.57h2.32A.57.57,0,0,0,135,174.08Zm0,2.65a.57.57,0,0,0-.57-.58h-2.32a.58.58,0,0,0,0,1.15h2.32A.57.57,0,0,0,135,176.73Zm0,2.64a.57.57,0,0,0-.57-.57h-2.32a.58.58,0,0,0,0,1.15h2.32A.57.57,0,0,0,135,179.37Zm8.67-18.54a.57.57,0,0,0-.57-.57h-6.08a.58.58,0,0,0,0,1.15h6.08A.57.57,0,0,0,143.7,160.83Zm0,2.65a.57.57,0,0,0-.57-.57h-6.08a.57.57,0,0,0-.57.57.56.56,0,0,0,.57.57h6.08A.56.56,0,0,0,143.7,163.48Zm0,2.65a.57.57,0,0,0-.57-.57h-6.08a.57.57,0,0,0-.57.57.56.56,0,0,0,.57.57h6.08A.56.56,0,0,0,143.7,166.13Zm0,2.65a.56.56,0,0,0-.57-.57h-6.08a.57.57,0,1,0,0,1.14h6.08A.56.56,0,0,0,143.7,168.78Zm0,2.65a.56.56,0,0,0-.57-.57h-6.08a.56.56,0,0,0-.57.57.57.57,0,0,0,.57.57h6.08A.57.57,0,0,0,143.7,171.43Zm7.29,2.65a.57.57,0,0,0-.57-.57h-6.09a.57.57,0,0,0-.57.57.58.58,0,0,0,.57.57h6.09A.58.58,0,0,0,151,174.08Zm0,2.65a.58.58,0,0,0-.57-.58h-6.09a.58.58,0,0,0,0,1.15h6.09A.58.58,0,0,0,151,176.73Zm0,2.64a.58.58,0,0,0-.57-.57h-6.09a.58.58,0,0,0,0,1.15h6.09A.58.58,0,0,0,151,179.37Zm-4.61-18.54a.66.66,0,1,0-.66.67A.67.67,0,0,0,146.38,160.83Zm2,0a.67.67,0,1,0-.67.67A.67.67,0,0,0,148.37,160.83Zm2,0a.66.66,0,0,0-1.32,0,.66.66,0,1,0,1.32,0Zm2,0a.66.66,0,1,0-.66.67A.67.67,0,0,0,152.34,160.83Zm2,0a.67.67,0,1,0-.67.67A.67.67,0,0,0,154.33,160.83Zm2,0a.66.66,0,1,0-.66.67A.66.66,0,0,0,156.31,160.83Zm-9.93,5.3a.66.66,0,0,0-1.32,0,.66.66,0,0,0,1.32,0Zm2,0a.67.67,0,0,0-1.33,0,.67.67,0,0,0,1.33,0Zm2,0a.66.66,0,1,0-.66.66A.66.66,0,0,0,150.35,166.13Zm2,0a.66.66,0,0,0-1.32,0,.66.66,0,0,0,1.32,0Zm2,0a.67.67,0,0,0-1.33,0,.67.67,0,0,0,1.33,0Zm2,0a.66.66,0,1,0-.66.66A.66.66,0,0,0,156.31,166.13Zm-3.14,7.62a.67.67,0,1,0-.66.66A.67.67,0,0,0,153.17,173.75Zm2,0a.66.66,0,1,0-.66.66A.66.66,0,0,0,155.15,173.75Zm2,0a.66.66,0,1,0-1.32,0,.66.66,0,0,0,1.32,0Zm2,0a.67.67,0,1,0-.67.66A.67.67,0,0,0,159.13,173.75Zm2,0a.66.66,0,1,0-.66.66A.66.66,0,0,0,161.11,173.75Zm2,0a.66.66,0,1,0-1.32,0,.66.66,0,0,0,1.32,0Zm-9.93,5.46a.67.67,0,0,0-1.33,0,.67.67,0,0,0,1.33,0Zm2,0a.66.66,0,1,0-1.32,0,.66.66,0,1,0,1.32,0Zm2,0a.66.66,0,1,0-.66.66A.66.66,0,0,0,157.14,179.21Zm2,0a.67.67,0,1,0-.67.66A.66.66,0,0,0,159.13,179.21Zm2,0a.66.66,0,1,0-1.32,0,.66.66,0,0,0,1.32,0Zm2,0a.66.66,0,1,0-.66.66A.66.66,0,0,0,163.1,179.21Z" style="fill:#c6ff00"/><path d="M134.46,182.6h-2.32a.58.58,0,0,1-.57-.57.57.57,0,0,1,.57-.57h2.32a.56.56,0,0,1,.57.57A.57.57,0,0,1,134.46,182.6Zm.57,2.08a.56.56,0,0,0-.57-.57h-2.32a.57.57,0,0,0-.57.57.58.58,0,0,0,.57.57h2.32A.57.57,0,0,0,135,184.68Zm0,2.65a.57.57,0,0,0-.57-.58h-2.32a.58.58,0,0,0,0,1.15h2.32A.57.57,0,0,0,135,187.33Zm0,2.64a.57.57,0,0,0-.57-.57h-2.32a.58.58,0,0,0,0,1.15h2.32A.57.57,0,0,0,135,190Zm0,2.65a.57.57,0,0,0-.57-.57h-2.32a.58.58,0,0,0-.57.57.57.57,0,0,0,.57.57h2.32A.56.56,0,0,0,135,192.62Zm0,2.65a.57.57,0,0,0-.57-.57h-2.32a.58.58,0,0,0-.57.57.57.57,0,0,0,.57.57h2.32A.56.56,0,0,0,135,195.27Zm0,2.65a.56.56,0,0,0-.57-.57h-2.32a.57.57,0,0,0,0,1.14h2.32A.56.56,0,0,0,135,197.92Zm0,2.65a.56.56,0,0,0-.57-.57h-2.32a.57.57,0,0,0-.57.57.58.58,0,0,0,.57.57h2.32A.57.57,0,0,0,135,200.57ZM143.7,182a.56.56,0,0,0-.57-.57h-6.08a.56.56,0,0,0-.57.57.57.57,0,0,0,.57.57h6.08A.57.57,0,0,0,143.7,182Zm0,2.65a.56.56,0,0,0-.57-.57h-6.08a.56.56,0,0,0-.57.57.57.57,0,0,0,.57.57h6.08A.57.57,0,0,0,143.7,184.68Zm0,2.65a.57.57,0,0,0-.57-.58h-6.08a.58.58,0,0,0,0,1.15h6.08A.57.57,0,0,0,143.7,187.33Zm0,2.64a.57.57,0,0,0-.57-.57h-6.08a.58.58,0,0,0,0,1.15h6.08A.57.57,0,0,0,143.7,190Zm0,2.65a.57.57,0,0,0-.57-.57h-6.08a.57.57,0,0,0-.57.57.56.56,0,0,0,.57.57h6.08A.56.56,0,0,0,143.7,192.62Zm7.29,2.65a.58.58,0,0,0-.57-.57h-6.09a.58.58,0,0,0-.57.57.57.57,0,0,0,.57.57h6.09A.57.57,0,0,0,151,195.27Zm0,2.65a.57.57,0,0,0-.57-.57h-6.09a.57.57,0,0,0,0,1.14h6.09A.57.57,0,0,0,151,197.92Zm0,2.65a.57.57,0,0,0-.57-.57h-6.09a.57.57,0,0,0-.57.57.58.58,0,0,0,.57.57h6.09A.58.58,0,0,0,151,200.57ZM146.38,182a.66.66,0,1,0-.66.66A.66.66,0,0,0,146.38,182Zm2,0a.67.67,0,1,0-.67.66A.66.66,0,0,0,148.37,182Zm2,0a.66.66,0,1,0-1.32,0,.66.66,0,1,0,1.32,0Zm2,0a.66.66,0,1,0-.66.66A.66.66,0,0,0,152.34,182Zm2,0a.67.67,0,1,0-.67.66A.66.66,0,0,0,154.33,182Zm2,0a.66.66,0,1,0-.66.66A.65.65,0,0,0,156.31,182Zm-9.93,5.3a.66.66,0,1,0-1.32,0,.66.66,0,0,0,1.32,0Zm2,0a.67.67,0,1,0-.67.66A.67.67,0,0,0,148.37,187.33Zm2,0a.66.66,0,1,0-.66.66A.66.66,0,0,0,150.35,187.33Zm2,0a.66.66,0,1,0-1.32,0,.66.66,0,1,0,1.32,0Zm2,0a.67.67,0,1,0-.67.66A.67.67,0,0,0,154.33,187.33Zm2,0a.66.66,0,1,0-.66.66A.66.66,0,0,0,156.31,187.33Zm-3.14,7.61a.67.67,0,1,0-.66.66A.66.66,0,0,0,153.17,194.94Zm2,0a.66.66,0,1,0-.66.66A.65.65,0,0,0,155.15,194.94Zm2,0a.66.66,0,1,0-.66.66A.66.66,0,0,0,157.14,194.94Zm2,0a.67.67,0,1,0-.67.66A.66.66,0,0,0,159.13,194.94Zm2,0a.66.66,0,1,0-.66.66A.65.65,0,0,0,161.11,194.94Zm2,0a.66.66,0,1,0-.66.66A.66.66,0,0,0,163.1,194.94Zm-9.93,5.46a.67.67,0,1,0-.66.67A.67.67,0,0,0,153.17,200.4Zm2,0a.66.66,0,1,0-1.32,0,.66.66,0,1,0,1.32,0Zm2,0a.66.66,0,1,0-.66.67A.67.67,0,0,0,157.14,200.4Zm2,0a.67.67,0,1,0-.67.67A.67.67,0,0,0,159.13,200.4Zm2,0a.66.66,0,1,0-1.32,0,.66.66,0,1,0,1.32,0Zm2,0a.66.66,0,1,0-.66.67A.67.67,0,0,0,163.1,200.4Z" style="fill:#c6ff00"/><path d="M134.46,204.31h-2.32a.58.58,0,0,1,0-1.15h2.32a.58.58,0,0,1,0,1.15Zm.57,2.07a.57.57,0,0,0-.57-.57h-2.32a.58.58,0,0,0-.57.57.57.57,0,0,0,.57.57h2.32A.56.56,0,0,0,135,206.38Zm0,2.65a.57.57,0,0,0-.57-.57h-2.32a.58.58,0,0,0-.57.57.57.57,0,0,0,.57.57h2.32A.56.56,0,0,0,135,209Zm0,2.65a.56.56,0,0,0-.57-.57h-2.32a.57.57,0,0,0,0,1.14h2.32A.56.56,0,0,0,135,211.68Zm0,2.65a.56.56,0,0,0-.57-.57h-2.32a.57.57,0,0,0-.57.57.58.58,0,0,0,.57.57h2.32A.57.57,0,0,0,135,214.33Zm0,2.65a.56.56,0,0,0-.57-.57h-2.32a.57.57,0,0,0-.57.57.58.58,0,0,0,.57.57h2.32A.57.57,0,0,0,135,217Zm0,2.65a.57.57,0,0,0-.57-.58h-2.32a.58.58,0,0,0,0,1.15h2.32A.57.57,0,0,0,135,219.63Zm0,2.64a.57.57,0,0,0-.57-.57h-2.32a.58.58,0,0,0,0,1.15h2.32A.57.57,0,0,0,135,222.27Zm8.67-18.54a.57.57,0,0,0-.57-.57h-6.08a.58.58,0,0,0,0,1.15h6.08A.57.57,0,0,0,143.7,203.73Zm0,2.65a.57.57,0,0,0-.57-.57h-6.08a.57.57,0,0,0-.57.57.56.56,0,0,0,.57.57h6.08A.56.56,0,0,0,143.7,206.38Zm0,2.65a.57.57,0,0,0-.57-.57h-6.08a.57.57,0,0,0-.57.57.56.56,0,0,0,.57.57h6.08A.56.56,0,0,0,143.7,209Zm0,2.65a.56.56,0,0,0-.57-.57h-6.08a.57.57,0,1,0,0,1.14h6.08A.56.56,0,0,0,143.7,211.68Zm0,2.65a.56.56,0,0,0-.57-.57h-6.08a.56.56,0,0,0-.57.57.57.57,0,0,0,.57.57h6.08A.57.57,0,0,0,143.7,214.33ZM151,217a.57.57,0,0,0-.57-.57h-6.09a.57.57,0,0,0-.57.57.58.58,0,0,0,.57.57h6.09A.58.58,0,0,0,151,217Zm0,2.65a.58.58,0,0,0-.57-.58h-6.09a.58.58,0,0,0,0,1.15h6.09A.58.58,0,0,0,151,219.63Zm0,2.64a.58.58,0,0,0-.57-.57h-6.09a.58.58,0,0,0,0,1.15h6.09A.58.58,0,0,0,151,222.27Zm-4.61-18.54a.66.66,0,1,0-.66.67A.67.67,0,0,0,146.38,203.73Zm2,0a.67.67,0,1,0-.67.67A.67.67,0,0,0,148.37,203.73Zm2,0a.66.66,0,1,0-1.32,0,.66.66,0,1,0,1.32,0Zm2,0a.66.66,0,1,0-.66.67A.67.67,0,0,0,152.34,203.73Zm2,0a.67.67,0,1,0-.67.67A.67.67,0,0,0,154.33,203.73Zm2,0a.66.66,0,1,0-.66.67A.66.66,0,0,0,156.31,203.73Zm-9.93,5.3a.66.66,0,0,0-1.32,0,.66.66,0,0,0,1.32,0Zm2,0a.67.67,0,0,0-1.33,0,.67.67,0,0,0,1.33,0Zm2,0a.66.66,0,1,0-.66.66A.66.66,0,0,0,150.35,209Zm2,0a.66.66,0,1,0-1.32,0,.66.66,0,1,0,1.32,0Zm2,0a.67.67,0,0,0-1.33,0,.67.67,0,0,0,1.33,0Zm2,0a.66.66,0,1,0-.66.66A.66.66,0,0,0,156.31,209Zm-3.14,7.62a.67.67,0,1,0-.66.66A.67.67,0,0,0,153.17,216.65Zm2,0a.66.66,0,1,0-.66.66A.66.66,0,0,0,155.15,216.65Zm2,0a.66.66,0,1,0-1.32,0,.66.66,0,0,0,1.32,0Zm2,0a.67.67,0,1,0-.67.66A.67.67,0,0,0,159.13,216.65Zm2,0a.66.66,0,1,0-.66.66A.66.66,0,0,0,161.11,216.65Zm2,0a.66.66,0,1,0-1.32,0,.66.66,0,1,0,1.32,0Zm-9.93,5.46a.67.67,0,0,0-1.33,0,.67.67,0,0,0,1.33,0Zm2,0a.66.66,0,0,0-1.32,0,.66.66,0,0,0,1.32,0Zm2,0a.66.66,0,1,0-.66.66A.66.66,0,0,0,157.14,222.11Zm2,0a.67.67,0,1,0-.67.66A.66.66,0,0,0,159.13,222.11Zm2,0a.66.66,0,0,0-1.32,0,.66.66,0,0,0,1.32,0Zm2,0a.66.66,0,1,0-.66.66A.66.66,0,0,0,163.1,222.11Z" style="fill:#c6ff00"/><path d="M170,161.41h-2.32a.58.58,0,0,1,0-1.15H170a.58.58,0,0,1,0,1.15Zm.57,2.07a.57.57,0,0,0-.57-.57h-2.32a.58.58,0,0,0-.57.57.57.57,0,0,0,.57.57H170A.56.56,0,0,0,170.61,163.48Zm0,2.65a.57.57,0,0,0-.57-.57h-2.32a.58.58,0,0,0-.57.57.57.57,0,0,0,.57.57H170A.56.56,0,0,0,170.61,166.13Zm0,2.65a.56.56,0,0,0-.57-.57h-2.32a.57.57,0,0,0,0,1.14H170A.56.56,0,0,0,170.61,168.78Zm0,2.65a.56.56,0,0,0-.57-.57h-2.32a.57.57,0,0,0-.57.57.58.58,0,0,0,.57.57H170A.57.57,0,0,0,170.61,171.43Zm0,2.65a.56.56,0,0,0-.57-.57h-2.32a.57.57,0,0,0-.57.57.58.58,0,0,0,.57.57H170A.57.57,0,0,0,170.61,174.08Zm0,2.65a.57.57,0,0,0-.57-.58h-2.32a.58.58,0,0,0,0,1.15H170A.57.57,0,0,0,170.61,176.73Zm0,2.64a.57.57,0,0,0-.57-.57h-2.32a.58.58,0,0,0,0,1.15H170A.57.57,0,0,0,170.61,179.37Zm8.67-18.54a.57.57,0,0,0-.57-.57h-6.08a.58.58,0,0,0,0,1.15h6.08A.57.57,0,0,0,179.28,160.83Zm0,2.65a.57.57,0,0,0-.57-.57h-6.08a.57.57,0,0,0-.57.57.56.56,0,0,0,.57.57h6.08A.56.56,0,0,0,179.28,163.48Zm0,2.65a.57.57,0,0,0-.57-.57h-6.08a.57.57,0,0,0-.57.57.56.56,0,0,0,.57.57h6.08A.56.56,0,0,0,179.28,166.13Zm0,2.65a.56.56,0,0,0-.57-.57h-6.08a.57.57,0,0,0,0,1.14h6.08A.56.56,0,0,0,179.28,168.78Zm0,2.65a.56.56,0,0,0-.57-.57h-6.08a.56.56,0,0,0-.57.57.57.57,0,0,0,.57.57h6.08A.57.57,0,0,0,179.28,171.43Zm7.29,2.65a.57.57,0,0,0-.57-.57h-6.09a.57.57,0,0,0-.57.57.58.58,0,0,0,.57.57H186A.58.58,0,0,0,186.57,174.08Zm0,2.65a.58.58,0,0,0-.57-.58h-6.09a.58.58,0,0,0,0,1.15H186A.58.58,0,0,0,186.57,176.73Zm0,2.64a.58.58,0,0,0-.57-.57h-6.09a.58.58,0,0,0,0,1.15H186A.58.58,0,0,0,186.57,179.37ZM182,160.83a.66.66,0,1,0-.66.67A.67.67,0,0,0,182,160.83Zm2,0a.67.67,0,1,0-.66.67A.67.67,0,0,0,184,160.83Zm2,0a.66.66,0,0,0-1.32,0,.66.66,0,1,0,1.32,0Zm2,0a.66.66,0,1,0-.66.67A.67.67,0,0,0,187.92,160.83Zm2,0a.67.67,0,1,0-.67.67A.67.67,0,0,0,189.91,160.83Zm2,0a.66.66,0,0,0-1.32,0,.66.66,0,1,0,1.32,0Zm-9.93,5.3a.66.66,0,1,0-1.32,0,.66.66,0,0,0,1.32,0Zm2,0a.67.67,0,1,0-.66.66A.67.67,0,0,0,184,166.13Zm2,0a.66.66,0,1,0-.66.66A.66.66,0,0,0,185.93,166.13Zm2,0a.66.66,0,0,0-1.32,0,.66.66,0,0,0,1.32,0Zm2,0a.67.67,0,0,0-1.33,0,.67.67,0,0,0,1.33,0Zm2,0a.66.66,0,1,0-.66.66A.66.66,0,0,0,191.89,166.13Zm-3.14,7.62a.67.67,0,1,0-.66.66A.67.67,0,0,0,188.75,173.75Zm2,0a.66.66,0,1,0-.66.66A.66.66,0,0,0,190.73,173.75Zm2,0a.66.66,0,1,0-1.32,0,.66.66,0,0,0,1.32,0Zm2,0a.67.67,0,1,0-.66.66A.67.67,0,0,0,194.71,173.75Zm2,0a.66.66,0,1,0-.66.66A.66.66,0,0,0,196.69,173.75Zm2,0a.66.66,0,1,0-1.32,0,.66.66,0,0,0,1.32,0Zm-9.93,5.46a.67.67,0,0,0-1.33,0,.67.67,0,0,0,1.33,0Zm2,0a.66.66,0,1,0-1.32,0,.66.66,0,1,0,1.32,0Zm2,0a.66.66,0,1,0-.66.66A.66.66,0,0,0,192.72,179.21Zm2,0a.67.67,0,0,0-1.33,0,.67.67,0,0,0,1.33,0Zm2,0a.66.66,0,0,0-1.32,0,.66.66,0,0,0,1.32,0Zm2,0a.66.66,0,1,0-.66.66A.66.66,0,0,0,198.68,179.21Z" style="fill:#c6ff00"/><path d="M170,183.11h-2.32a.57.57,0,0,1,0-1.14H170a.57.57,0,0,1,0,1.14Zm.57,2.08a.56.56,0,0,0-.57-.57h-2.32a.57.57,0,0,0-.57.57.58.58,0,0,0,.57.57H170A.57.57,0,0,0,170.61,185.19Zm0,2.65a.56.56,0,0,0-.57-.57h-2.32a.57.57,0,0,0-.57.57.58.58,0,0,0,.57.57H170A.57.57,0,0,0,170.61,187.84Zm0,2.65a.57.57,0,0,0-.57-.58h-2.32a.58.58,0,0,0,0,1.15H170A.57.57,0,0,0,170.61,190.49Zm0,2.64a.57.57,0,0,0-.57-.57h-2.32a.58.58,0,0,0,0,1.15H170A.57.57,0,0,0,170.61,193.13Zm0,2.65a.57.57,0,0,0-.57-.57h-2.32a.58.58,0,0,0,0,1.15H170A.57.57,0,0,0,170.61,195.78Zm0,2.65a.57.57,0,0,0-.57-.57h-2.32a.58.58,0,0,0-.57.57.57.57,0,0,0,.57.57H170A.56.56,0,0,0,170.61,198.43Zm0,2.65a.56.56,0,0,0-.57-.57h-2.32a.57.57,0,0,0,0,1.14H170A.56.56,0,0,0,170.61,201.08Zm8.67-18.54a.56.56,0,0,0-.57-.57h-6.08a.57.57,0,0,0,0,1.14h6.08A.56.56,0,0,0,179.28,182.54Zm0,2.65a.56.56,0,0,0-.57-.57h-6.08a.56.56,0,0,0-.57.57.57.57,0,0,0,.57.57h6.08A.57.57,0,0,0,179.28,185.19Zm0,2.65a.56.56,0,0,0-.57-.57h-6.08a.56.56,0,0,0-.57.57.57.57,0,0,0,.57.57h6.08A.57.57,0,0,0,179.28,187.84Zm0,2.65a.57.57,0,0,0-.57-.58h-6.08a.58.58,0,0,0,0,1.15h6.08A.57.57,0,0,0,179.28,190.49Zm0,2.64a.57.57,0,0,0-.57-.57h-6.08a.58.58,0,0,0,0,1.15h6.08A.57.57,0,0,0,179.28,193.13Zm7.29,2.65a.58.58,0,0,0-.57-.57h-6.09a.58.58,0,0,0,0,1.15H186A.58.58,0,0,0,186.57,195.78Zm0,2.65a.58.58,0,0,0-.57-.57h-6.09a.58.58,0,0,0-.57.57.57.57,0,0,0,.57.57H186A.57.57,0,0,0,186.57,198.43Zm0,2.65a.57.57,0,0,0-.57-.57h-6.09a.57.57,0,0,0,0,1.14H186A.57.57,0,0,0,186.57,201.08ZM182,182.54a.66.66,0,1,0-.66.66A.66.66,0,0,0,182,182.54Zm2,0a.67.67,0,1,0-.66.66A.66.66,0,0,0,184,182.54Zm2,0a.66.66,0,1,0-.66.66A.65.65,0,0,0,185.93,182.54Zm2,0a.66.66,0,1,0-.66.66A.66.66,0,0,0,187.92,182.54Zm2,0a.67.67,0,1,0-.67.66A.66.66,0,0,0,189.91,182.54Zm2,0a.66.66,0,1,0-.66.66A.65.65,0,0,0,191.89,182.54Zm-9.93,5.3a.66.66,0,1,0-.66.66A.66.66,0,0,0,182,187.84Zm2,0a.67.67,0,0,0-1.33,0,.67.67,0,0,0,1.33,0Zm2,0a.66.66,0,0,0-1.32,0,.66.66,0,0,0,1.32,0Zm2,0a.66.66,0,1,0-.66.66A.66.66,0,0,0,187.92,187.84Zm2,0a.67.67,0,1,0-.67.66A.66.66,0,0,0,189.91,187.84Zm2,0a.66.66,0,0,0-1.32,0,.66.66,0,0,0,1.32,0Zm-3.14,7.61a.67.67,0,1,0-.66.66A.67.67,0,0,0,188.75,195.45Zm2,0a.66.66,0,1,0-.66.66A.66.66,0,0,0,190.73,195.45Zm2,0a.66.66,0,0,0-1.32,0,.66.66,0,1,0,1.32,0Zm2,0a.67.67,0,1,0-.66.66A.67.67,0,0,0,194.71,195.45Zm2,0a.66.66,0,1,0-.66.66A.66.66,0,0,0,196.69,195.45Zm2,0a.66.66,0,0,0-1.32,0,.66.66,0,1,0,1.32,0Zm-9.93,5.46a.67.67,0,1,0-.66.67A.67.67,0,0,0,188.75,200.91Zm2,0a.66.66,0,1,0-1.32,0,.66.66,0,1,0,1.32,0Zm2,0a.66.66,0,1,0-.66.67A.67.67,0,0,0,192.72,200.91Zm2,0a.67.67,0,1,0-.66.67A.67.67,0,0,0,194.71,200.91Zm2,0a.66.66,0,0,0-1.32,0,.66.66,0,1,0,1.32,0Zm2,0a.66.66,0,1,0-.66.67A.67.67,0,0,0,198.68,200.91Z" style="fill:#c6ff00"/></g><g id="Character"><path d="M166.89,130.7c-.29,3.78-2.09,6.73-4,6.58s-3.23-3.34-2.94-7.12,2.09-6.73,4-6.58S167.18,126.92,166.89,130.7Z" style="fill:none;stroke:#263238;stroke-linecap:round;stroke-linejoin:round"/><path d="M164,111.18s.38,7-.78,10.25-2.71,5.42-2.71,7S163,131.88,163,135s-5.61,18-7.16,20.89-1,3.87-2.9,4.07-6.77-2.13-6.77-2.13-2.91.39-3.29,1.55-1.36,5.22-1.36,5.22L113.3,152a28.16,28.16,0,0,0,5.81-9.86c1.74-5.62-1-14.32-1-14.32s-2.71-20.32,9.67-26.12,30.38-2.13,33.29.77S164,111.18,164,111.18Z" style="fill:#fff"/><g style="clip-path:url(#clip-path)"><path d="M145.94,143.29c.35-9-2.08-20.49-2.08-20.49s.34-2.77-4.87-11.45a112.77,112.77,0,0,0-7-11.19,28.11,28.11,0,0,0-4.14,1.54c-12.38,5.8-9.67,26.12-9.67,26.12s2.71,8.7,1,14.32A28.16,28.16,0,0,1,113.3,152l16.42,7.31,13.09-1.79s.68.3,1.66.7a10.51,10.51,0,0,1,1.73-.41s4.83,2.32,6.77,2.13C154.26,158.38,145.59,152.32,145.94,143.29Z" style="opacity:0.4"/><path d="M148.37,113.43l6.94-.35s-4.16,4.52.7,4.52,8-1.22,8-3.82,2.43-6.6-6.94-6.6S145.59,111,148.37,113.43Z" style="opacity:0.4"/></g><path d="M164,111.18s.38,7-.78,10.25-2.71,5.42-2.71,7S163,131.88,163,135s-5.61,18-7.16,20.89-1,3.87-2.9,4.07-6.77-2.13-6.77-2.13-2.91.39-3.29,1.55-1.36,5.22-1.36,5.22L113.3,152a28.16,28.16,0,0,0,5.81-9.86c1.74-5.62-1-14.32-1-14.32s-2.71-20.32,9.67-26.12,30.38-2.13,33.29.77S164,111.18,164,111.18Z" style="fill:none;stroke:#263238;stroke-linecap:round;stroke-linejoin:round"/><path d="M140.58,129.17s4.65,1.36,5.23,0-1.16-1.74,1-2.51,7.16-3.87,7.16-7-5.81-8.32-2.91-9.09,11.81-.39,11.81-.39-6.2,2.9-3.1,4.26,10.64-.39,13.54-4.65-1.16-11-6.77-14.7-16.83-6.78-27.86-6.39S119.49,93,117.17,99.37s1.36,28.83,1.55,34.83,3.87,7.74,8.13,7.74,7.93-3.67,8.9-7,1.35-6.58,1.93-7.36S140.58,129.17,140.58,129.17Z" style="fill:#263238;stroke:#263238;stroke-linecap:round;stroke-linejoin:round"/><path d="M127.72,128.35a15,15,0,0,1-2.36,2.09" style="fill:none;stroke:#707070;stroke-linecap:round;stroke-linejoin:round"/><path d="M172.17,103.32s-1.29,1.94-6.46,3.23-16.14-4.2-28.09,1.29c-8.13,3.74-6.08,9.43-7.21,15" style="fill:none;stroke:#707070;stroke-linecap:round;stroke-linejoin:round"/><path d="M149.57,113s-4.2.65-7.43,6.13-2.9,13.89-12.59,16.47" style="fill:none;stroke:#707070;stroke-linecap:round;stroke-linejoin:round"/><line x1="138.84" y1="125.88" x2="166.51" y2="128.78" style="fill:none;stroke:#263238;stroke-linecap:round;stroke-linejoin:round"/><path d="M142.71,132.07s.39-6.77-2.13-10.06-4.64-1-5.8,5.61-1.16,10.06,1.35,11a7.14,7.14,0,0,0,5-.19" style="fill:#fff;stroke:#263238;stroke-linecap:round;stroke-linejoin:round"/><path d="M213.28,307.87c-2.33-2.29-8.48-7.72-16.21-9.56-9.9-2.36-53.28-7.31-53.28-7.31l-2.13-8.73s-6.13-1.88-7.54-1.88-7.78,2.12-21.93,5.19-39.48-4.44-39.48-4.44a19.22,19.22,0,0,0-6.89,14.69c0,6,.56,11,1.25,12Z" style="fill:#263238;stroke:#263238;stroke-linecap:round;stroke-linejoin:round"/><path d="M107.5,155.87l-.71.49c-2.72,1.87-12.76,8.83-20.38,14.8-8.9,7-9.48,19.93-9.87,30s-6.88,72.71-8.43,80.45,12.3,9.72,25.65,11.65,30.57-.19,38.89-4.06,10.26-3.68,10.26-7.93.19-13.94.19-14.71,6-48.18,5.61-62.11S149.49,183,146.2,176s-11.61-12.39-22.64-16.06S107.5,155.87,107.5,155.87Z" style="fill:#c6ff00"/><g style="clip-path:url(#clip-path-2)"><path d="M139.87,183.94c-3.27-6.61-13.81-18.56-13.81-18.56s8-2.36-19.26-9h0c-2.72,1.87-12.76,8.83-20.38,14.8-8.9,7-9.48,19.93-9.87,30s-6.88,72.71-8.43,80.45,12.3,9.72,25.65,11.65a76.24,76.24,0,0,0,10.65.73L143.32,262l.25.34c1.05-8.92,3.56-30.23,4.64-45.31C145.41,204,142.13,188.52,139.87,183.94Z" style="opacity:0.4"/><path d="M94.35,196.05s1.77,17.18,10.07,28.14" style="fill:none;stroke:#263238;stroke-linecap:round;stroke-linejoin:round"/><path d="M119.22,224.78s1.78,4.15,10.67,11" style="fill:none;stroke:#263238;stroke-linecap:round;stroke-linejoin:round"/><path d="M112.12,237.22s9.47,3.26,18.65,1.48" style="fill:none;stroke:#263238;stroke-linecap:round;stroke-linejoin:round"/><path d="M109.15,293.79S128.7,283.72,136.4,274" style="fill:none;stroke:#263238;stroke-linecap:round;stroke-linejoin:round"/></g><path d="M107.5,155.87l-.71.49c-2.72,1.87-12.76,8.83-20.38,14.8-8.9,7-9.48,19.93-9.87,30s-6.88,72.71-8.43,80.45,12.3,9.72,25.65,11.65,30.57-.19,38.89-4.06,10.26-3.68,10.26-7.93.19-13.94.19-14.71,6-48.18,5.61-62.11S149.49,183,146.2,176s-11.61-12.39-22.64-16.06S107.5,155.87,107.5,155.87Z" style="fill:none;stroke:#263238;stroke-linecap:round;stroke-linejoin:round"/><path d="M109.43,149.29,104.21,158s15.67,3.68,23.8,7,19,12,19,12-1.74-9.86-3.29-12.38-17.61-11-24.19-13.54S109.43,149.29,109.43,149.29Z" style="fill:#c6ff00"/><g style="clip-path:url(#clip-path-3)"><path d="M133.59,167.76a2.11,2.11,0,0,0,1.44-1.63c.56-4.6-7.24-11.17-7.64-11.5-3.06-1.53-5.91-2.83-7.9-3.59-6.57-2.52-10.06-1.75-10.06-1.75L104.21,158s15.67,3.68,23.8,7A46.79,46.79,0,0,1,133.59,167.76Z" style="opacity:0.4"/></g><path d="M109.43,149.29,104.21,158s15.67,3.68,23.8,7,19,12,19,12-1.74-9.86-3.29-12.38-17.61-11-24.19-13.54S109.43,149.29,109.43,149.29Z" style="fill:none;stroke:#263238;stroke-linecap:round;stroke-linejoin:round"/><path d="M202.5,258.81s5-4.26,7.35-8.51,3.87-5.42,5.62-5a16.07,16.07,0,0,0,3.09.38s6.19-3.67,8.13-4.06,5.8,4.26,5.8,4.26,6.58,5,5.81,6.19-1.94.58-2.71.58-2.52-1.36-3.48-1-5.23,3.1-5.23,3.1,5,0,6.39.58,6.38,5,5.42,5.61-1,.77-2.13.58a17.24,17.24,0,0,1-3.87-1.94l-5.23,1s3.1,3.29,4.07,4.07,4.64,1.93,3.09,2.9-2.71.58-4.64-.78-6.19-3.48-7-3.48-2.9,2.71-6.38,3.87a34,34,0,0,1-8.71,1.16l-1,1-5.8-7-1.16-1Z" style="fill:#fff;stroke:#263238;stroke-linecap:round;stroke-linejoin:round"/><path d="M232.49,245.85s-1.74-1-2.9-.39-8.51,4.84-8.51,4.84" style="fill:none;stroke:#263238;stroke-linecap:round;stroke-linejoin:round"/><line x1="218.56" y1="245.65" x2="215.08" y2="247.97" style="fill:none;stroke:#263238;stroke-linecap:round;stroke-linejoin:round"/><path d="M167.67,261.91s12.77-.2,14.71-1.36,6.58-4.45,6.77-5.8-1-2.13-2.9-1.36-7,2.71-7.74,2.71a27.65,27.65,0,0,1-4.06-1.16s5.61-5,7.93-6.38a6.3,6.3,0,0,1,6.19,0c1.36.77,3.48-1.75,1.74-3.1a9.66,9.66,0,0,0-6.19-2.13,8.62,8.62,0,0,0-2.71.58s-2.13-3.48-3.67-3.09a6.53,6.53,0,0,0-2.71,1.54,3.54,3.54,0,0,0-3.49.2c-1.74,1.16-3.48,1.55-5.41,3.09s-7.55,5.23-8.32,6.58S167.67,261.91,167.67,261.91Z" style="fill:#fff;stroke:#263238;stroke-linecap:round;stroke-linejoin:round"/><line x1="181.41" y1="243.91" x2="175.99" y2="247.01" style="fill:none;stroke:#263238;stroke-linecap:round;stroke-linejoin:round"/><line x1="175.03" y1="242.36" x2="171.16" y2="245.07" style="fill:none;stroke:#263238;stroke-linecap:round;stroke-linejoin:round"/><path d="M130.72,195.73s-5.42,7.35-7.16,13.16.38,14.12,1,16.06,31.53,62.88,34.82,68.88,7,6.39,9.68,5.42,33.86-23.22,35-24.38,6.39-5.61,6.39-5.61,1-6.19-3.29-9.48-6.39-1.55-6.39-1.55l-27.09,7.35s-15.28-52.63-17-62.69,1-9.48-4.45-14.9a75.81,75.81,0,0,0-12-9.5" style="fill:#c6ff00"/><g style="clip-path:url(#clip-path-4)"><path d="M204.05,274.87c1.16-1.16,6.39-5.61,6.39-5.61a13.16,13.16,0,0,0-.25-4.51C199.3,269.06,177,278,175.68,279.3c-1.73,1.73-.86-1.3-.86-4.75s-5.18,6-6,8.2-2.83-6.13-3.46-9.49-10.78-29.34-13.8-41.43-8.39-41.28-11.65-47.89a34.06,34.06,0,0,0-2-3.34l-8.17,14.55s-4.45,7.93-6.19,13.74.38,14.12,1,16.06c.31,1.05,9.63,19.6,18.59,37.25l.2-.16s16.4,41.52,24.46,37.5C175.69,294.52,203,275.88,204.05,274.87Z" style="opacity:0.4"/></g><path d="M130.72,195.73s-5.42,7.35-7.16,13.16.38,14.12,1,16.06,31.53,62.88,34.82,68.88,7,6.39,9.68,5.42,33.86-23.22,35-24.38,6.39-5.61,6.39-5.61,1-6.19-3.29-9.48-6.39-1.55-6.39-1.55l-27.09,7.35s-15.28-52.63-17-62.69,1-9.48-4.45-14.9a75.81,75.81,0,0,0-12-9.5" style="fill:none;stroke:#263238;stroke-linecap:round;stroke-linejoin:round"/><path d="M197.08,260s8.79,1.11,9.29,12.77" style="fill:none;stroke:#263238;stroke-linecap:round;stroke-linejoin:round"/></g><g id="Chair"><path d="M102.76,307.87h4.49C100.37,295,62.44,224.18,61.15,221c-1.41-3.54-3.53-3.54-4.24-4.95s.24-7.55,0-11.56-13.2-41.26-16.74-47.39-9-5.42-9-5.42l-1.42,3.77,22.4,61.07Z" style="fill:#fff;stroke:#263238;stroke-linecap:round;stroke-linejoin:round"/><path d="M15,220.27c9.31,21.5,35.74,81.7,37.94,87.6h49.85c-5.85-10.53-40.63-73.42-48-93.27-8-21.69-20.52-60.36-23.58-62.95s-18.39-2.6-24.52-.71-6.37,2.59-6.13,6.6S5.69,198.84,15,220.27Z" style="fill:#263238;stroke:#263238;stroke-linecap:round;stroke-linejoin:round"/><line x1="32.81" y1="307.87" x2="393.42" y2="307.87" style="fill:#fff;stroke:#263238;stroke-linecap:round;stroke-linejoin:round"/></g></g></svg>