<svg id="Layer_1" data-name="Layer 1" xmlns="http://www.w3.org/2000/svg" xmlns:xlink="http://www.w3.org/1999/xlink" viewBox="0 0 496 28"><defs><linearGradient id="linear-gradient" x1="345.81" y1="694.01" x2="345.81" y2="717.19" gradientTransform="matrix(0.65, 0, 0, -0.65, 0.35, 469.81)" gradientUnits="userSpaceOnUse"><stop offset="0" stop-color="#b00005"/><stop offset="0.25" stop-color="#b70007"/><stop offset="0.5" stop-color="#be010a"/><stop offset="0.75" stop-color="#c6010d"/><stop offset="1" stop-color="#cd010f"/></linearGradient><linearGradient id="linear-gradient-2" x1="290.69" y1="717.23" x2="290.69" y2="694.01" gradientTransform="matrix(0.65, 0, 0, -0.65, 0.35, 469.81)" gradientUnits="userSpaceOnUse"><stop offset="0" stop-color="#001455"/><stop offset="0.25" stop-color="#001150"/><stop offset="0.5" stop-color="#000e4b"/><stop offset="0.75" stop-color="#000b46"/><stop offset="1" stop-color="#000841"/></linearGradient></defs><path d="M305.75,13.77H304c-1.15,0-1.78.86-1.78,2.35v5.34h-3.45V13.77H297.3c-1.15,0-1.78.86-1.78,2.35v5.34h-3.44V10.9h3.44v1.61A2.36,2.36,0,0,1,298,10.9h4.2v1.61a2.36,2.36,0,0,1,2.47-1.61h1.15ZM291.27,17h-7.12a2,2,0,0,0,2.12,1.84,1.74,1.74,0,0,0,1.78-1l3,.86a5,5,0,0,1-4.82,2.93,5.29,5.29,0,0,1-5.45-5.45c0-2.47,1.49-5.4,5.22-5.4A5,5,0,0,1,291.32,16,4.09,4.09,0,0,1,291.27,17ZM288,15a1.81,1.81,0,0,0-1.89-1.72A1.77,1.77,0,0,0,284.16,15Zm-13.16,6.48h3L281.63,11h-3.46l-1.84,6.14-1.84-6.2h-3.44Zm-14,0h3.39V13.77h3.27v7.69h3.39V10.9h-6.66v-.63a1.15,1.15,0,0,1,1.26-1.15h2V6.25H265c-2.47,0-4.14,1.55-4.14,3.79v.86h-1.95v2.87h1.95Z" style="fill:#fff"/><path d="M307.88,21.75a2.12,2.12,0,1,0-2.12-2.12A2.15,2.15,0,0,0,307.88,21.75Z" style="fill:#1dbf73"/><path d="M115,22.17H74.13V5.83H115V22.17Z" style="fill:#0058ab;fill-rule:evenodd"/><path d="M74.94,14c0,4,8.23,7.36,19.63,7.36S114.18,18,114.18,14,106,6.64,94.57,6.64,74.94,10,74.94,14Z" style="fill:#fbd914;fill-rule:evenodd"/><path d="M93.11,16.45a3.05,3.05,0,0,0,.43.51H89.12a1.9,1.9,0,0,0-.36-.79c-.18-.28-1.2-1.78-1.2-1.78v2.06a1,1,0,0,0,.09.51H84a1.12,1.12,0,0,0,.08-.51v-4.9A1.14,1.14,0,0,0,84,11h3.68a1,1,0,0,0-.09.51v2.14L89,11.85a2.3,2.3,0,0,0,.46-.81h3.84a4.11,4.11,0,0,0-.8.77l-1.4,1.67s1.77,2.64,2,3Zm1.16-4.9v4.9a1,1,0,0,1-.09.51h7.11V15.32a1.16,1.16,0,0,1-.52.08h-3v-.78h2.88V13.38H97.78v-.79h3a1.16,1.16,0,0,1,.52.08V11H94.18A1.08,1.08,0,0,1,94.27,11.55Zm16.88,4.9a1.44,1.44,0,0,0,.29.51h-3.86a1.09,1.09,0,0,0-.12-.51s0-.13-.14-.33l0-.09h-2.22l0,.09-.12.34a1.16,1.16,0,0,0-.1.51h-3a1.39,1.39,0,0,0,.27-.51l1.83-4.91A1,1,0,0,0,104,11h5.14a.85.85,0,0,0,.11.51Zm-4.35-1.67-.54-1.37c0-.13-.08-.26-.11-.39a2.85,2.85,0,0,1-.11.39c0,.05-.25.65-.51,1.37ZM82.22,11h-4a1,1,0,0,1,.09.51v4.9a1,1,0,0,1-.09.51h4a1,1,0,0,1-.09-.51v-4.9A1,1,0,0,1,82.22,11Zm27.7.47a.75.75,0,0,1,.74-.78h.06a.76.76,0,0,1,.79.75v0a.8.8,0,0,1-1.6,0,.06.06,0,0,0,0,0Zm.16,0a.64.64,0,1,0,.64-.63.61.61,0,0,0-.64.58Zm.48.46h-.14V11h.35a.31.31,0,0,1,.3.31.31.31,0,0,1-.17.27l.21.36H111l-.19-.33h-.2Zm0-.46h.19a.18.18,0,0,0,.18-.16.17.17,0,0,0-.16-.17h-.21Z" style="fill:#0058a3"/><path id="path40306" d="M128.87,22.33h35V5.67h-35Z" style="fill:#ab182f"/><path id="path41548" d="M156.48,16.74a7.07,7.07,0,0,0,2-.38l-.37,1.58a13.47,13.47,0,0,1-2.65.28c-3.17,0-4.53-1.61-4.54-3.3,0-2.27,2.43-4.53,6.35-4.48a7.76,7.76,0,0,1,2.16.34l-.52,1.86h-.26a2,2,0,0,0-1.79-.75c-2,0-3.22,1.09-3.22,2.54s1.14,2.31,2.83,2.31M145,10.52l-.12.49a.6.6,0,0,1,.52.83l-1.71,6.22h3.42l.13-.53s-.64-.16-.48-.75c0-.05.51-1.84.51-1.84h1.56a1.2,1.2,0,0,1,1,.41l.46-1.85h-2.65l.4-1.45h2.29c.42,0,.72.28.72.49h.26l.51-2ZM142.42,17c-.2-.22-2-3-2-3l3.21-2.58a1.36,1.36,0,0,1,.93-.4l.13-.5h-4l-.13.49c.27,0,.65.26.34.55L137.73,14l.68-2.48a.81.81,0,0,1,.66-.53l.12-.5h-3.82l-.12.49a.6.6,0,0,1,.52.83c-1.27,4.61-1.13,4.15-1.21,4.41-.35,1.33-.91,1.26-1.12,1.27l-.13.54h4l.13-.54s-.63-.13-.51-.59.62-2.26.62-2.26a27.16,27.16,0,0,0,1.69,2.39c.83,1.15,1.72,1,4.09,1l.13-.53a1.46,1.46,0,0,1-1-.58" style="fill:#fff"/><path d="M246,6.25H200.72v15H246a1,1,0,0,0,1-1v-13A1,1,0,0,0,246,6.25Z" style="fill:url(#linear-gradient)"/><path d="M200.72,6.25H176.77a1,1,0,0,0-1,1v13a1,1,0,0,0,1,1h23.95V13.87h0Z" style="fill:url(#linear-gradient-2)"/><path d="M187.61,16.38c0,.63-.24,1-1.46,1a3,3,0,0,1-.44,0V9c0-.64.21-1.29,1.44-1.29a2.35,2.35,0,0,1,.47,0v8.63Zm-2.54-1.28c0,1.18-.76,2-2.31,2.2a18.74,18.74,0,0,1-3.53-.11,1.84,1.84,0,0,1-.06-.41c0-1,.55-1.26,1.08-1.26s1.38.1,2,.1.9-.24.9-.46-.28-.42-.81-.52l-1.49-.29a2.09,2.09,0,0,1-1.88-2,2.25,2.25,0,0,1,2.3-2.18,15.2,15.2,0,0,1,3.33.11,1.31,1.31,0,0,1,0,.39c0,1-.54,1.24-1.07,1.24-.38,0-1-.07-1.72-.07s-1,.2-1,.44.29.36.73.44L183,13c1.44.27,2.06,1.09,2.06,2.1m7.57,4.51a2.24,2.24,0,0,0,.9.19,1.33,1.33,0,0,0,1.39-.9l3.83-8.53a2,2,0,0,0-.79-.19,1.51,1.51,0,0,0-1.57,1.1l-1.24,2.92-2.43-3.95a3.4,3.4,0,0,0-.82-.12,2.24,2.24,0,0,0-1.84.85l-2.36,2.59,1.9,3a1.68,1.68,0,0,0,1.56.82,2.8,2.8,0,0,0,1.09-.2L190,13.73,191.6,12l2.65,4.17" style="fill:#fff"/><path id="path4078" d="M204.23,16a14.35,14.35,0,0,0,2.3.37c1,0,1.69-.32,1.69-1,0-1.58-4.44-.74-4.44-3.27,0-1,.71-2,2.72-2a7,7,0,0,1,2.51.45,1,1,0,0,1,0,.23c0,.34-.13.65-.42.65a13.79,13.79,0,0,0-2.13-.35c-1.06,0-1.54.4-1.54.94,0,1.53,4.44.71,4.44,3.28,0,1.14-.9,2.07-2.88,2.07a7.63,7.63,0,0,1-2.7-.48,1.22,1.22,0,0,1,0-.24c0-.56.27-.66.45-.66Z" style="fill:#fff"/><path id="path4080" d="M214.28,10.13a2.94,2.94,0,0,0-2.47,1.22v-.69c0-.32-.21-.45-.58-.45a2.43,2.43,0,0,0-.54.08V19.6a1.89,1.89,0,0,0,.52.06c.39,0,.6-.1.6-.48v-3a2.88,2.88,0,0,0,2.45,1.21,3.38,3.38,0,0,0,3.37-3.62A3.39,3.39,0,0,0,214.28,10.13Zm-.22,1a2.46,2.46,0,0,1,2.42,2.61A2.46,2.46,0,0,1,214,16.39,2.54,2.54,0,0,1,211.81,15V12.49a2.56,2.56,0,0,1,2.25-1.35Z" style="fill:#fff"/><path id="path4084" d="M222.35,10.13a3.5,3.5,0,0,0-3.59,3.62,3.59,3.59,0,1,0,7.17,0,3.49,3.49,0,0,0-3.58-3.62Zm0,1a2.44,2.44,0,0,1,2.44,2.6,2.44,2.44,0,0,1-2.43,2.65,2.47,2.47,0,0,1-2.44-2.64,2.44,2.44,0,0,1,2.43-2.61Z" style="fill:#fff"/><path id="path4088" d="M238.49,16a14.56,14.56,0,0,0,2.3.37c1,0,1.69-.32,1.69-1,0-1.58-4.44-.74-4.44-3.27,0-1,.71-2,2.72-2a7,7,0,0,1,2.51.45,1,1,0,0,1,0,.23c0,.34-.12.65-.41.65a14,14,0,0,0-2.13-.35c-1.07,0-1.55.4-1.55.94,0,1.53,4.44.71,4.44,3.28,0,1.14-.9,2.07-2.88,2.07a7.7,7.7,0,0,1-2.7-.48,1.22,1.22,0,0,1,0-.24c0-.56.28-.66.45-.66Z" style="fill:#fff"/><path id="path4090" d="M227.32,17.23V10.3a1.63,1.63,0,0,1,.53-.08c.47,0,.6.17.6.47v.81a3,3,0,0,1,3.06-1.2,1.61,1.61,0,0,1,.05.46c0,.32-.06.53-.63.53a2.55,2.55,0,0,0-2.48,1.53v4.05c0,.28-.19.42-.59.42A2.16,2.16,0,0,1,227.32,17.23Z" style="fill:#fff"/><path id="path4118" d="M234.9,17.39a2,2,0,0,1-2.21-2.08V9c0-.26.1-.45.61-.45a1.67,1.67,0,0,1,.52.08v1.65h2.79a2.29,2.29,0,0,1,0,.45c0,.46-.2.55-.42.55h-2.41v4a1,1,0,0,0,1.2,1.11,9.94,9.94,0,0,0,1.46-.28c.42,0,.48.46.44.84a4.61,4.61,0,0,1-2,.47Z" style="fill:#fff"/><path d="M247,7.27a1,1,0,0,0-1-1H176.77a1,1,0,0,0-1,1v9a1.49,1.49,0,0,1,1.51-1.49l23.46-.94h0L247,12Z" style="fill:#fff;opacity:0.20000000298023224;isolation:isolate"/><g id="_dd1438ff" data-name="#dd1438ff"><path d="M45.69,3.71a1.52,1.52,0,0,1,1.19-.46.7.7,0,0,1,.68.49,2,2,0,0,1-.05.94c-.12.49-.29,1-.4,1.46A28.18,28.18,0,0,0,46.44,9a2,2,0,0,0-.06.42c.16.18.39.28.53.48a1.42,1.42,0,0,1,.06,1.4,1.09,1.09,0,0,1-1,.61,5.32,5.32,0,0,0-.06.56c-.06.65-.16,1.29-.2,1.94s-.06,1.1-.05,1.66A3.23,3.23,0,0,0,46,17.71a2.19,2.19,0,0,1,.28.55,1.31,1.31,0,0,1-.15.8A1.5,1.5,0,0,1,45,19.8a1.3,1.3,0,0,1-.86-.22,1.69,1.69,0,0,1-.41-.48,3.44,3.44,0,0,1-.45-1.28,6.53,6.53,0,0,1,0-1.17,7.17,7.17,0,0,1-1.18,1.09,5.25,5.25,0,0,1-2.31,1.06,1.75,1.75,0,0,1-1.13-.11,1.5,1.5,0,0,1-.53-.56,1.77,1.77,0,0,1-1.65.95,1.3,1.3,0,0,1-.87-.55,3.65,3.65,0,0,1-.56-1.42,8.17,8.17,0,0,1-.1-2.42c0-.35.1-.7.11-1a1.57,1.57,0,0,0-.51.23,3.38,3.38,0,0,0-1,1.28,10.72,10.72,0,0,0-.8,2.46c-.07.34-.17.67-.27,1a1.66,1.66,0,0,1-.58.84,1.45,1.45,0,0,1-.72.28,1,1,0,0,1-.5,0,.72.72,0,0,1-.39-.36,2.44,2.44,0,0,1-.24-1,10.66,10.66,0,0,1,0-1.6c.05-.39.06-.78.13-1.16a26.76,26.76,0,0,1,.71-3.22,5.28,5.28,0,0,1,.62-1.49,2.5,2.5,0,0,1,.84-.81,1.6,1.6,0,0,1,1-.19.71.71,0,0,1,.55.39,1.11,1.11,0,0,1,0,.72c-.17.55-.43,1.07-.63,1.61.17-.21.32-.43.5-.64a4.93,4.93,0,0,1,2.12-1.51,1.32,1.32,0,0,1,1.1,0,1.37,1.37,0,0,1,.6,1.07,5.82,5.82,0,0,1-.08,1.38c-.05.29-.08.59-.13.88a6,6,0,0,0-.1,1.58,2,2,0,0,0,.58,1.35,8.1,8.1,0,0,1,.54-2.47,8.7,8.7,0,0,1,3.42-4,8.37,8.37,0,0,1,1.51-.72c.25-.1.51-.16.77-.24.1-.48.15-1,.24-1.45s.15-.88.26-1.31.22-1,.39-1.56a2.71,2.71,0,0,1,.69-1.25m-2.48,8.38a5.3,5.3,0,0,0-2,1.76,4.55,4.55,0,0,0-.82,2,.88.88,0,0,0,0,.43c.13.11.31,0,.45,0a4.75,4.75,0,0,0,1.33-1.12,8.39,8.39,0,0,0,1.2-2,5.71,5.71,0,0,0,.33-1.21A2.38,2.38,0,0,0,43.21,12.09Z" style="fill:#dd1438"/><path d="M23.54,5.73a1.12,1.12,0,0,1,1-.18,1.18,1.18,0,0,1,.66,1A2.33,2.33,0,0,1,25,7.6c-.17.43-.3.87-.46,1.31-.27.74-.48,1.5-.7,2.25-.15.55-.31,1.09-.45,1.65s-.31,1.2-.47,1.8c-.07.35-.18.69-.24,1.05a9.27,9.27,0,0,0,.92.14,13.72,13.72,0,0,1,.78-2.05,7.5,7.5,0,0,1,1.05-1.62,5.17,5.17,0,0,1,1.8-1.37,3.44,3.44,0,0,1,1.45-.28,1.38,1.38,0,0,1,1,.45,1.64,1.64,0,0,1,.41.94,3.78,3.78,0,0,1-.1,1.34,5.64,5.64,0,0,1-.52,1.42,6.75,6.75,0,0,1-1.73,2,5,5,0,0,1-1.74.92c-.05,0-.12,0-.15.09a1,1,0,0,0,.1.46.65.65,0,0,0,.55.34,1.25,1.25,0,0,0,.71-.14c.29-.16.52-.39.81-.54a1.17,1.17,0,0,1,.68-.17.59.59,0,0,1,.5.51,1.5,1.5,0,0,1-.22.92,3.68,3.68,0,0,1-1.25,1.32,3.45,3.45,0,0,1-2.27.51,2.19,2.19,0,0,1-1.53-1,4.15,4.15,0,0,1-.65-2c-.38,0-.75-.12-1.13-.16-.29,1.28-.6,2.56-.92,3.83a2.63,2.63,0,0,1-.34.81,1.4,1.4,0,0,1-.59.46,2.14,2.14,0,0,1-1.61.06,1.11,1.11,0,0,1-.53-.4,2.49,2.49,0,0,1-.37-1,19.37,19.37,0,0,1-.45-2.6c-.1-.68-.14-1.37-.2-2.05q-.06-.67-.06-1.35a2.56,2.56,0,0,0-.05-.62c-.18.05-.22.24-.27.39-.15.49-.3,1-.44,1.49-.26,1-.52,1.93-.76,2.89-.15.49-.23,1-.36,1.47s-.28,1.11-.43,1.67a3.37,3.37,0,0,1-.3.93,2,2,0,0,1-1.06.83,2.42,2.42,0,0,1-1.25.12,1.08,1.08,0,0,1-.7-.55,4.16,4.16,0,0,1-.45-1.28,10.74,10.74,0,0,1-.25-1.78c-.07-.91-.09-1.82-.1-2.73,0-1.17,0-2.34.13-3.51,0-.82.1-1.64.16-2.45,0-.33.06-.65.07-1,0-.57.06-1.13,0-1.7a1.73,1.73,0,0,0-.23-.92,1.54,1.54,0,0,1-.23-.39A.7.7,0,0,1,11,8a2.94,2.94,0,0,1,1.31-.59,2,2,0,0,1,.8,0,1,1,0,0,1,.68.43,1.28,1.28,0,0,1,.15.58c0,.51-.05,1-.08,1.52-.12,1.19-.3,2.36-.39,3.55-.05.4-.06.81-.11,1.21s0,.7-.07,1,0,.75-.06,1.12c0,.52,0,1,0,1.56a3.1,3.1,0,0,0,.08.86c.08,0,.18,0,.21-.11a3.76,3.76,0,0,0,.28-.88c.23-.86.49-1.73.74-2.59.12-.37.2-.74.33-1.1.25-.77.49-1.54.75-2.3.19-.57.39-1.13.6-1.69a10.14,10.14,0,0,1,.57-1.41,1.73,1.73,0,0,1,.54-.6,1.6,1.6,0,0,1,1-.19,1.24,1.24,0,0,1,1,.53,1.74,1.74,0,0,1,.2.95c0,.87,0,1.75,0,2.62,0,.42,0,.85,0,1.27s0,.77.05,1.15c0,.94,0,1.88.17,2.82a.86.86,0,0,0,.13.38.12.12,0,0,0,.15,0,.91.91,0,0,0,.12-.31c0-.26.11-.51.16-.77.14-.78.32-1.56.46-2.34.23-1.06.45-2.11.73-3.15S22,9.17,22.34,8a10.3,10.3,0,0,1,.55-1.43,2.65,2.65,0,0,1,.65-.87m4.38,6.83a1,1,0,0,0-.45.27,5,5,0,0,0-.89,1.1,6.58,6.58,0,0,0-.49.91,2.93,2.93,0,0,0-.28,1,2.23,2.23,0,0,0,.56-.27,4.31,4.31,0,0,0,1-.91,4.66,4.66,0,0,0,.57-.87,2,2,0,0,0,.23-.84.61.61,0,0,0-.06-.29A.22.22,0,0,0,27.92,12.56Z" style="fill:#dd1438"/><path d="M56.36,6.83a1.27,1.27,0,0,1,.9.15,1.18,1.18,0,0,1,.48.79,2.93,2.93,0,0,1-.25,1.65,1.67,1.67,0,0,1-.73.84,1,1,0,0,1-.69.07.67.67,0,0,1-.5-.57,1.92,1.92,0,0,1,.15-.71,1.74,1.74,0,0,0,.09-.93,2.16,2.16,0,0,1,0-.76A.75.75,0,0,1,56.36,6.83Z" style="fill:#dd1438"/><path d="M48.25,10.11a2,2,0,0,1,1-.68,1.67,1.67,0,0,1,.77,0,.83.83,0,0,1,.56.78,2,2,0,0,1-.31,1.08,9.06,9.06,0,0,0-.65,1.76,7.29,7.29,0,0,0-.3,1.81,4.22,4.22,0,0,0,0,.87.8.8,0,0,0,.11.34.34.34,0,0,0,.33.12.62.62,0,0,0,.38-.18,4,4,0,0,0,.69-.88,5.85,5.85,0,0,0,.64-1.39c.18-.54.37-1.08.53-1.63a7.49,7.49,0,0,1,.8-1.94,1.7,1.7,0,0,1,1-.73,1.08,1.08,0,0,1,.86.15,1.08,1.08,0,0,1,.35.79,7.83,7.83,0,0,1-.36,2.08c-.15.64-.32,1.28-.44,1.92s-.25,1.3-.32,2-.17,1.39-.22,2.09a12.75,12.75,0,0,1-.37,2.21,6.72,6.72,0,0,1-.6,1.5,5,5,0,0,1-1.47,1.53,5.65,5.65,0,0,1-2.09.75,4.58,4.58,0,0,1-1.61,0,2.22,2.22,0,0,1-1.2-.65,1.48,1.48,0,0,1-.31-1.31.79.79,0,0,1,.45-.51,1.16,1.16,0,0,1,.64,0,6,6,0,0,0,1.47.05,2.67,2.67,0,0,0,1.26-.4,2.15,2.15,0,0,0,.78-.83,3.91,3.91,0,0,0,.53-1.44c.11-.69.14-1.39.24-2.08a5.33,5.33,0,0,1-.63.71,4,4,0,0,1-1.58,1A1.48,1.48,0,0,1,48,18.74,2,2,0,0,1,47.4,18a5,5,0,0,1-.46-1.83,13.15,13.15,0,0,1,.14-2.94,8.53,8.53,0,0,1,.56-2A3.89,3.89,0,0,1,48.25,10.11Z" style="fill:#dd1438"/><path d="M59.62,9.66a2.83,2.83,0,0,1,1.26.12,1.61,1.61,0,0,1,.92.82,1.79,1.79,0,0,1,.19.72,2.69,2.69,0,0,1-.21,1.34,1.33,1.33,0,0,1-.48.57,1.08,1.08,0,0,1-.77.11A.73.73,0,0,1,60,13a2.14,2.14,0,0,1-.23-.7c0-.07,0-.16-.11-.19a.73.73,0,0,0-.46,0,2.1,2.1,0,0,0-1,.65.47.47,0,0,0-.11.44.77.77,0,0,0,.23.25,6.16,6.16,0,0,0,1,.62c.32.17.65.32,1,.52a2.94,2.94,0,0,1,1,1.09,1.7,1.7,0,0,1,.14.87,2.65,2.65,0,0,1-.64,1.46,4.4,4.4,0,0,1-2,1.22,5.41,5.41,0,0,1-1.83.22,3.48,3.48,0,0,1-1.12-.22,1.7,1.7,0,0,1-.82-.62,1.92,1.92,0,0,1-.33-.76,1.42,1.42,0,0,1,.36-1.23,1.39,1.39,0,0,1,.77-.32,1.45,1.45,0,0,1,.86.32,2.14,2.14,0,0,0,1.17.28,1,1,0,0,0,.7-.21.15.15,0,0,0,0-.2.8.8,0,0,0-.28-.27,11.77,11.77,0,0,0-1.37-.7,3.71,3.71,0,0,1-1.18-.85,1.57,1.57,0,0,1-.41-.87,2.5,2.5,0,0,1,.37-1.51,5.63,5.63,0,0,1,2.86-2.43A4.1,4.1,0,0,1,59.62,9.66Z" style="fill:#dd1438"/></g><rect x="323" y="6.71" width="80" height="15.32" rx="1.17"/><path d="M329,13.57h-2.24l-1.08-5.09h1.79l.47,3.14.47-3.14h2.1L331,11.7l.48-3.22h1.72l-1.07,5.09h-2.2l-.46-3.29Z" style="fill:#ffe812"/><path d="M380.86,19.88h-5l-2.43-11.4h4l1,7,1.06-7h4.61l1,7.2,1.06-7.2h3.94l-2.38,11.39H382.9l-1-7.37Z" style="fill:#ffe812"/><path d="M334.38,13.57V8.48h3.86V9.79h-1.91v.55h1.77v1.31h-1.77v.6h2v1.32Z" style="fill:#ffe812"/><path d="M351.28,13.57V8.48h3.87V9.79h-1.92v.55H355v1.31h-1.78v.6h2v1.32Z" style="fill:#ffe812"/><path d="M339.54,12.09h1.9v0a.5.5,0,0,0,.13.39.48.48,0,0,0,.38.13.55.55,0,0,0,.35-.1.34.34,0,0,0,.13-.28.59.59,0,0,0-.05-.22.25.25,0,0,0-.14-.13,3.83,3.83,0,0,0-.63-.2l-.75-.2a2.16,2.16,0,0,1-1-.55,1.26,1.26,0,0,1-.3-.86,1.36,1.36,0,0,1,.63-1.2A3.27,3.27,0,0,1,342,8.48a2.92,2.92,0,0,1,1.59.37,1.19,1.19,0,0,1,.55,1.06V10h-1.75a.52.52,0,0,0-.14-.35.55.55,0,0,0-.63,0,.32.32,0,0,0-.12.25c0,.19.21.34.64.44l.38.09a3.62,3.62,0,0,1,1.45.63,1.26,1.26,0,0,1,.38,1,1.56,1.56,0,0,1-.65,1.32,2.9,2.9,0,0,1-1.79.49,3.19,3.19,0,0,1-1.75-.4,1.32,1.32,0,0,1-.62-1.16v-.12A.17.17,0,0,1,339.54,12.09Z" style="fill:#ffe812"/><path d="M350,8.48V9.84h-1.25v3.73h-2V9.85h-1.25V8.48Z" style="fill:#ffe812"/><path d="M356.65,13.55V8.48h2.64a3.19,3.19,0,0,1,1.63.3,1,1,0,0,1,.47,1,1.13,1.13,0,0,1-.25.75,1.48,1.48,0,0,1-.77.43,1.08,1.08,0,0,1,.68.31,1.72,1.72,0,0,1,.28.84l.07.55c0,.09,0,.2.05.34l.12.55h-2a3.93,3.93,0,0,1-.1-.41c0-.1,0-.2-.05-.29l-.05-.37a1.43,1.43,0,0,0-.2-.64.55.55,0,0,0-.41-.13h-.18v1.83Zm2-3h.14a.87.87,0,0,0,.52-.14.48.48,0,0,0,0-.73.8.8,0,0,0-.48-.1h-.22Z" style="fill:#ffe812"/><path d="M364.55,10.43v3.11h-1.62V8.48h2.4l1.11,3v-3h1.63v5h-2.41Z" style="fill:#ffe812"/><path d="M364.55,16.68v3.13h-1.62v-5.1h2.4l1.11,3.05V14.71h1.63v5.1h-2.41Z" style="fill:#ffe812"/><path d="M347.54,16.67v3.14h-1.63v-5.1h2.4l1.11,3.05V14.71h1.63V19.8h-2.4Z" style="fill:#ffe812"/><path d="M339.47,14.72h1.95V17.9a.8.8,0,0,0,.11.5.43.43,0,0,0,.59.08.28.28,0,0,0,.1-.09.85.85,0,0,0,.12-.49V14.72h2v3.1a2,2,0,0,1-.59,1.6,2.68,2.68,0,0,1-1.83.52,3.9,3.9,0,0,1-1.18-.15,1.77,1.77,0,0,1-.78-.48,1.65,1.65,0,0,1-.35-.57,3.17,3.17,0,0,1-.1-.92Z" style="fill:#ffe812"/><path d="M354.72,14.72V19.8h-2V14.72Z" style="fill:#ffe812"/><path d="M358.77,19.94a2.52,2.52,0,0,1-1.91-.7,2.7,2.7,0,0,1-.67-2,2.72,2.72,0,0,1,.69-2,3.07,3.07,0,0,1,3.9,0,2.76,2.76,0,0,1,.68,2,2.69,2.69,0,0,1-.69,2A2.74,2.74,0,0,1,358.77,19.94Zm.06-4a.46.46,0,0,0-.45.29,3.11,3.11,0,0,0-.12,1.06,3.07,3.07,0,0,0,.12,1,.45.45,0,0,0,.44.29.44.44,0,0,0,.44-.31,3.07,3.07,0,0,0,.13-1.1,2.5,2.5,0,0,0-.13-1,.45.45,0,0,0-.43-.27Z" style="fill:#ffe812"/><polygon points="372.87 19.81 372.19 19.81 369.82 8.49 370.49 8.49 372.87 19.81" style="fill:#fff"/><polygon points="374.7 19.81 374.03 19.81 371.65 8.49 372.32 8.49 374.7 19.81" style="fill:#fff"/><path d="M393.48,8.48V15.6a1.91,1.91,0,0,1-.27,1.09.94.94,0,0,1-1.31.22.8.8,0,0,1-.21-.2,1.89,1.89,0,0,1-.27-1.11V8.48h-.85L388.35,19a4.13,4.13,0,0,0,1.47.8,8.48,8.48,0,0,0,2.63.34A6.08,6.08,0,0,0,396.53,19a4.54,4.54,0,0,0,1.31-3.58V8.48Z" style="fill:#ffe812"/><path d="M387.08,8.48v6.94a6.82,6.82,0,0,0,.23,2.06,3.5,3.5,0,0,0,.75,1.24l2.15-10.24Z" style="fill:#ffe812"/><path d="M398.73,9.38h.21a.11.11,0,0,0,0,.08.12.12,0,0,0,.1.05l.07,0a.09.09,0,0,0,0-.06.05.05,0,0,0,0-.05.22.22,0,0,0-.11,0,.4.4,0,0,1-.21-.09.18.18,0,0,1-.07-.15.15.15,0,0,1,0-.11.2.2,0,0,1,.09-.09.57.57,0,0,1,.18,0,.37.37,0,0,1,.21.06.21.21,0,0,1,.09.17l-.21,0a.11.11,0,0,0,0-.08A.12.12,0,0,0,399,9,.07.07,0,0,0,399,9a.05.05,0,0,0,0,0l0,0a.11.11,0,0,0,.07,0,.65.65,0,0,1,.21.07.39.39,0,0,1,.1.08.27.27,0,0,1,0,.12.33.33,0,0,1,0,.13.35.35,0,0,1-.11.1.57.57,0,0,1-.18,0,.33.33,0,0,1-.25-.08A.27.27,0,0,1,398.73,9.38Z" style="fill:#ffe812"/><path d="M399.5,8.87h.29l.12.46.11-.46h.29v.77h-.18V9.05l-.14.59h-.17l-.14-.59v.59h-.18Z" style="fill:#ffe812"/><path d="M468.25,17.16h-1.8l5.29-10.39h2.07l5.28,10.39h-1.82l-1.39-2.74h-6.24l-1.39,2.74Zm7-4-2.47-4.85-2.46,4.85ZM460,6.5l1.23-1.42H464L460,6.5Zm-3.52,10.68h9.29V16h-7.69V12.41h5.71V11.19h-5.71V7.94h7.64V6.78h-9.24v10.4ZM443.87,6.77h6.84a3.18,3.18,0,0,1,3.32,3h0a3.11,3.11,0,0,1-2.63,3l3.21,4.43h-1.89l-3.16-4.37h-4.25v4.37h-1.44V6.77ZM450.79,8l.09,0,.1,0,.09,0,.09,0,.09,0,.08,0,.08,0,.08.05.08,0,.08.05.07.05.07.06.06.06.06.06.06.07.06.07.05.07,0,.07.05.07,0,.08,0,.07,0,.08,0,.07,0,.08,0,.08,0,.08v.65l0,.08,0,.07,0,.08,0,.08,0,.07,0,.08,0,.07,0,.07-.05.08-.05.07-.06.06-.06.07-.06.06-.06.06-.07.06-.07.06-.08,0-.07,0-.09,0-.08,0-.08,0-.09,0-.09,0-.09,0-.1,0h-5.49V8h5.4ZM435,6.16a5.31,5.31,0,1,0,5.31,5.31A5.31,5.31,0,0,0,435,6.16ZM435,5a6.81,6.81,0,0,0-7.07,6.51,7.09,7.09,0,0,0,14.14,0A6.81,6.81,0,0,0,435,5Zm-17.4,12.22V6.78h1.32V16h7.86v1.14Zm62.28,0h9.32V16h-7.86V6.78h-1.46v10.4Zm-33.45,6.75h-.79l2.32-4h.91l2.33,4h-.8l-.61-1.06H447l-.61,1.06Zm3.07-1.56-1.09-1.89-1.08,1.89Zm3.2-2.48h2.88A1.3,1.3,0,0,1,457,21.06h0a1.25,1.25,0,0,1-1.11,1.15l1.35,1.72h-.79l-1.33-1.7h-1.63v1.7h-.76v-4Zm2.91.48h.19l0,0h0l0,0,0,0,0,0,0,0,0,0,0,0,0,0,0,0,0,0,0,0,0,0,0,0,0,0v0l0,0v.44l0,0v.06l0,0,0,0,0,0,0,0,0,0,0,0,0,0,0,0,0,0,0,0,0,0,0,0,0,0h0l0,0h-2.31V20.37h2.12ZM441,19.89h2.88a1.3,1.3,0,0,1,1.39,1.17h0a1.12,1.12,0,0,1-.61,1,1.62,1.62,0,0,1-.81.2H441.8v1.7H441v-4Zm2.91.48h.2l0,0h0l0,0,0,0,0,0,0,0,0,0,0,0,0,0,0,0,0,0,0,0,0,0,0,0,0,0v0l0,0v.5l0,0v0l0,0,0,0,0,0,0,0,0,0,0,0,0,0,0,0,0,0,0,0,0,0,0,0,0,0h0l0,0h-2.3V20.37H444Zm17.59,2.26.7,0a.93.93,0,0,0,.23.5,1.29,1.29,0,0,0,.56.31,3.15,3.15,0,0,0,1.61,0,1,1,0,0,0,.48-.25.47.47,0,0,0,.16-.35.46.46,0,0,0-.15-.33,1.37,1.37,0,0,0-.5-.24l-1-.19a6.28,6.28,0,0,1-1.08-.26,1.44,1.44,0,0,1-.6-.37.75.75,0,0,1-.19-.51.85.85,0,0,1,.24-.57,1.44,1.44,0,0,1,.7-.4,3.95,3.95,0,0,1,2.12,0,1.49,1.49,0,0,1,.73.42,1.06,1.06,0,0,1,.28.64l-.71,0a.78.78,0,0,0-.39-.58,1.92,1.92,0,0,0-1-.2,2,2,0,0,0-1,.18.5.5,0,0,0-.31.43.42.42,0,0,0,.22.36,3.58,3.58,0,0,0,1.11.28,10.46,10.46,0,0,1,1.24.26,1.73,1.73,0,0,1,.72.41.81.81,0,0,1,.23.58.89.89,0,0,1-.25.61,1.62,1.62,0,0,1-.74.44,3.21,3.21,0,0,1-1.07.16,4.29,4.29,0,0,1-1.28-.16,1.8,1.8,0,0,1-.8-.48,1.09,1.09,0,0,1-.31-.73Zm-2.5,1.3V21.07h.75v2.86Zm0-3.28v-.76h.75v.76Zm-35-10.23h1.23l1.83-3.57h-1.55l-1.51,3.57Z" style="fill:#fff;fill-rule:evenodd"/></svg>