<svg xmlns="http://www.w3.org/2000/svg" xmlns:xlink="http://www.w3.org/1999/xlink" viewBox="0 0 419.32 390.36"><defs><clipPath id="clip-path"><path d="M359.92,364.85c-6.77,11-41.12,16.21-59.87,15.72s-72.7-26-76.36-31.44c-3.39-5-11.72-21.57,1.12-31.58a24.88,24.88,0,0,1,3.46-2.24c8.79-4.76,67.25,10.25,67.25,10.25s3.62-2.29,5-2.12c4.08.52,7,3.82,15.24,6.17,5.77,1.65,21.52-4.69,31.58.76a13.88,13.88,0,0,1,3.06,2.22C359.75,341.57,366.68,353.82,359.92,364.85Z" style="fill:#92e3a9;stroke:#263238;stroke-linecap:round;stroke-linejoin:round"/></clipPath><clipPath id="clip-path-2"><path d="M290.67,374.4l17.52,13.75a199.42,199.42,0,0,0,25.11-3.75h0c8.3-1.92,15.54-4.68,15.94-8.45.61-5.75-5.53-7.32-12.82-7.09-1.36,0-2.76.13-4.17.28-11.68,1.25-26.51-5.2-26.51-5.2Z" style="fill:#263238;stroke:#263238;stroke-linecap:round;stroke-linejoin:round"/></clipPath><clipPath id="clip-path-3"><path d="M307,379.82c-3.16.52.31,7,4.59,5S310.16,379.31,307,379.82Z" style="fill:#fff;stroke:#263238;stroke-linecap:round;stroke-linejoin:round"/></clipPath><clipPath id="clip-path-4"><path d="M333.31,384.39c8.3-1.92,15.54-4.68,15.94-8.45.61-5.75-5.53-7.32-12.82-7.09C336.11,369.15,329,376,333.31,384.39Z" style="fill:#fff;stroke:#263238;stroke-linecap:round;stroke-linejoin:round"/></clipPath><clipPath id="clip-path-5"><path d="M279.9,374.93,261,386.77a200.13,200.13,0,0,1-24.59-6.38h0c-8-2.79-15-6.29-15-10.09,0-5.77,6.27-6.69,13.5-5.7,1.35.17,2.73.42,4.12.72,11.47,2.47,26.9-2.38,26.9-2.38Z" style="fill:#263238;stroke:#263238;stroke-linecap:round;stroke-linejoin:round"/></clipPath></defs><g id="Layer_2" data-name="Layer 2"><g id="Background_Simple" data-name="Background Simple"><path d="M27.48,374.15H238.69c.86-1.37,1.72-2.72,2.6-4,22.72-34.59,59.09-59.25,98.83-70.81,17.8-5.18,37.08-8.27,51.38-20.06,14.72-12.14,21.48-31.5,24.4-50.35,3.55-22.82,1.63-48.4-13.86-65.53-18.19-20.12-48.67-22.37-72.37-35.56C288.88,105.1,273.06,53.4,236,25.08,212.52,7.2,180.86.27,152.55,4.19c-40.19,5.56-78,32.5-89.36,72a99.81,99.81,0,0,0-3.44,35.41c1.82,23.55,6.89,47.4,2.11,70.53-5.27,25.5-21.86,47-31.77,71.09-12.33,30-14,63.61-8.76,95.58A165.07,165.07,0,0,0,27.48,374.15Z" style="fill:#92e3a9"/><path d="M27.48,374.15H238.69c.86-1.37,1.72-2.72,2.6-4,22.72-34.59,59.09-59.25,98.83-70.81,17.8-5.18,37.08-8.27,51.38-20.06,14.72-12.14,21.48-31.5,24.4-50.35,3.55-22.82,1.63-48.4-13.86-65.53-18.19-20.12-48.67-22.37-72.37-35.56C288.88,105.1,273.06,53.4,236,25.08,212.52,7.2,180.86.27,152.55,4.19c-40.19,5.56-78,32.5-89.36,72a99.81,99.81,0,0,0-3.44,35.41c1.82,23.55,6.89,47.4,2.11,70.53-5.27,25.5-21.86,47-31.77,71.09-12.33,30-14,63.61-8.76,95.58A165.07,165.07,0,0,0,27.48,374.15Z" style="fill:#fff;opacity:0.7000000000000001"/></g><g id="Floor"><line x1="0.5" y1="374.15" x2="418.82" y2="374.15" style="fill:none;stroke:#263238;stroke-linecap:round;stroke-linejoin:round"/></g><g id="Graphics"><path d="M237.47,55.87V40.18l-11.76-1a32.5,32.5,0,0,0-2.9-7l7.59-9L219.3,12l-9,7.59a32.5,32.5,0,0,0-7-2.9l-1-11.76h-15.7l-1,11.76a32.78,32.78,0,0,0-7.05,2.9l-9-7.59-11.1,11.1,7.59,9a32.52,32.52,0,0,0-2.91,7l-11.75,1V55.87l11.75,1a32.52,32.52,0,0,0,2.91,7l-7.59,9,11.1,11.1,9-7.59a32.78,32.78,0,0,0,7.05,2.9l1,11.76h15.7l1-11.76a32.5,32.5,0,0,0,7-2.9l9,7.59L230.4,73l-7.59-9a32.5,32.5,0,0,0,2.9-7Zm-43.11,10.4A18.25,18.25,0,1,1,212.61,48,18.24,18.24,0,0,1,194.36,66.27Z" style="fill:none;stroke:#263238;stroke-linecap:round;stroke-linejoin:round"/><path d="M406.2,209.33V201.8l-5.64-.48a15.24,15.24,0,0,0-1.4-3.38l3.64-4.33-5.32-5.32-4.33,3.64a15.24,15.24,0,0,0-3.38-1.4l-.48-5.64h-7.53l-.49,5.64a15.44,15.44,0,0,0-3.38,1.4l-4.32-3.64-5.33,5.32,3.64,4.33a15.7,15.7,0,0,0-1.39,3.38l-5.64.48v7.53l5.64.49a15.92,15.92,0,0,0,1.39,3.38l-3.64,4.32,5.33,5.33,4.32-3.64a15.92,15.92,0,0,0,3.38,1.39l.49,5.64h7.53l.48-5.64a15.7,15.7,0,0,0,3.38-1.39l4.33,3.64,5.32-5.33-3.64-4.32a15.44,15.44,0,0,0,1.4-3.38Zm-20.68,5a8.75,8.75,0,1,1,8.75-8.74A8.74,8.74,0,0,1,385.52,214.31Z" style="fill:none;stroke:#263238;stroke-linecap:round;stroke-linejoin:round"/><path d="M400.54,72.28a20.54,20.54,0,0,0-25.37-24.44,19.69,19.69,0,0,0-36.81,8.44,16.27,16.27,0,0,0-3-.29,16.09,16.09,0,0,0-16,14.29,9,9,0,0,0,.2,17.92h75.28a9,9,0,0,0,5.67-15.92Z" style="fill:none;stroke:#263238;stroke-linecap:round;stroke-linejoin:round"/><line x1="359.14" y1="81.32" x2="359.14" y2="102.07" style="fill:none;stroke:#263238;stroke-linecap:round;stroke-linejoin:round"/><line x1="359.14" y1="68.87" x2="359.14" y2="77.17" style="fill:none;stroke:#263238;stroke-linecap:round;stroke-linejoin:round"/><line x1="359.14" y1="61.12" x2="359.14" y2="65.55" style="fill:none;stroke:#263238;stroke-linecap:round;stroke-linejoin:round"/><polyline points="355.22 99.64 359.14 104.49 363.06 99.64" style="fill:none;stroke:#263238;stroke-linecap:round;stroke-linejoin:round"/><path d="M171.14,315.64a20.14,20.14,0,0,0,.53-4.62,20.54,20.54,0,0,0-20.53-20.54,20.21,20.21,0,0,0-5.36.72A19.69,19.69,0,0,0,109,299.63a16.27,16.27,0,0,0-3-.28,16.08,16.08,0,0,0-16,14.28,9,9,0,0,0,.19,17.92h75.29a9,9,0,0,0,5.66-15.91Z" style="fill:none;stroke:#263238;stroke-linecap:round;stroke-linejoin:round"/><line x1="129.75" y1="327.64" x2="129.75" y2="306.89" style="fill:none;stroke:#263238;stroke-linecap:round;stroke-linejoin:round"/><line x1="129.75" y1="340.09" x2="129.75" y2="331.79" style="fill:none;stroke:#263238;stroke-linecap:round;stroke-linejoin:round"/><line x1="129.75" y1="347.84" x2="129.75" y2="343.4" style="fill:none;stroke:#263238;stroke-linecap:round;stroke-linejoin:round"/><polyline points="133.66 309.32 129.75 304.47 125.83 309.32" style="fill:none;stroke:#263238;stroke-linecap:round;stroke-linejoin:round"/></g><g id="Interface"><path d="M12,52.38H263.44a4.24,4.24,0,0,1,4.24,4.24V68.47a0,0,0,0,1,0,0H7.75a0,0,0,0,1,0,0V56.62A4.24,4.24,0,0,1,12,52.38Z" style="fill:#92e3a9;stroke:#263238;stroke-linecap:round;stroke-linejoin:round"/><rect x="19.12" y="71.45" width="262.71" height="184.87" style="fill:#fff;stroke:#263238;stroke-linecap:round;stroke-linejoin:round"/><path d="M285.86,60.43a4,4,0,1,1-4-4A4,4,0,0,1,285.86,60.43Z" style="fill:#fff;stroke:#263238;stroke-linecap:round;stroke-linejoin:round"/><path d="M271.7,60.43a4,4,0,1,1-4-4A4,4,0,0,1,271.7,60.43Z" style="fill:#fff;stroke:#263238;stroke-linecap:round;stroke-linejoin:round"/><path d="M257.54,60.43a4,4,0,1,1-4-4A4,4,0,0,1,257.54,60.43Z" style="fill:#fff;stroke:#263238;stroke-linecap:round;stroke-linejoin:round"/><line x1="273.88" y1="79.38" x2="263.47" y2="79.38" style="fill:none;stroke:#263238;stroke-linecap:round;stroke-linejoin:round;stroke-width:2px"/><line x1="273.88" y1="83.6" x2="263.47" y2="83.6" style="fill:none;stroke:#263238;stroke-linecap:round;stroke-linejoin:round;stroke-width:2px"/><line x1="273.88" y1="87.82" x2="263.47" y2="87.82" style="fill:none;stroke:#263238;stroke-linecap:round;stroke-linejoin:round;stroke-width:2px"/><line x1="37.32" y1="188.46" x2="116.05" y2="188.46" style="fill:none;stroke:#263238;stroke-linecap:round;stroke-linejoin:round;stroke-width:2px"/><line x1="37.32" y1="194.67" x2="116.05" y2="194.67" style="fill:none;stroke:#263238;stroke-linecap:round;stroke-linejoin:round;stroke-width:2px"/><line x1="37.32" y1="201" x2="99.39" y2="201" style="fill:none;stroke:#263238;stroke-linecap:round;stroke-linejoin:round;stroke-width:2px"/><line x1="204.27" y1="73.54" x2="204.27" y2="74.04" style="fill:none;stroke:#263238;stroke-linecap:round;stroke-linejoin:round"/><line x1="204.27" y1="77.03" x2="204.27" y2="251.26" style="fill:none;stroke:#263238;stroke-linecap:round;stroke-linejoin:round;stroke-dasharray:0.998449981212616,2.995349884033203"/><line x1="204.27" y1="252.76" x2="204.27" y2="253.26" style="fill:none;stroke:#263238;stroke-linecap:round;stroke-linejoin:round"/><line x1="22.29" y1="214.86" x2="22.79" y2="214.86" style="fill:none;stroke:#263238;stroke-linecap:round;stroke-linejoin:round"/><line x1="25.78" y1="214.86" x2="275.82" y2="214.86" style="fill:none;stroke:#263238;stroke-linecap:round;stroke-linejoin:round;stroke-dasharray:0.9981380105018616,2.9944100379943848"/><line x1="277.31" y1="214.86" x2="277.81" y2="214.86" style="fill:none;stroke:#263238;stroke-linecap:round;stroke-linejoin:round"/><rect x="202.54" y="213.14" width="3.45" height="3.45" style="fill:#fff;stroke:#263238;stroke-linecap:round;stroke-linejoin:round"/><path d="M125.48.5H76.18A2.18,2.18,0,0,0,74,2.68V25.62a2.19,2.19,0,0,0,2.18,2.18H98.3l2.53,9,2.53-9h22.12a2.19,2.19,0,0,0,2.18-2.18V2.68A2.18,2.18,0,0,0,125.48.5Z" style="fill:#92e3a9;stroke:#263238;stroke-linecap:round;stroke-linejoin:round"/><line x1="82.2" y1="7.07" x2="119.45" y2="7.07" style="fill:none;stroke:#263238;stroke-linecap:round;stroke-linejoin:round;stroke-width:2px"/><line x1="82.2" y1="11.79" x2="119.45" y2="11.79" style="fill:none;stroke:#263238;stroke-linecap:round;stroke-linejoin:round;stroke-width:2px"/><line x1="82.2" y1="16.51" x2="119.45" y2="16.51" style="fill:none;stroke:#263238;stroke-linecap:round;stroke-linejoin:round;stroke-width:2px"/><line x1="82.2" y1="21.23" x2="110.28" y2="21.23" style="fill:none;stroke:#263238;stroke-linecap:round;stroke-linejoin:round;stroke-width:2px"/><rect x="51.71" y="244.08" width="53.66" height="33.63" style="fill:#263238;stroke:#263238;stroke-linecap:round;stroke-linejoin:round"/><rect x="51.71" y="244.08" width="53.66" height="5.11" style="fill:#92e3a9;stroke:#263238;stroke-linecap:round;stroke-linejoin:round"/><line x1="57.19" y1="253.5" x2="70.9" y2="253.5" style="fill:none;stroke:#fff;stroke-linecap:round;stroke-linejoin:round"/><line x1="64.04" y1="257.33" x2="87.78" y2="257.33" style="fill:none;stroke:#fff;stroke-linecap:round;stroke-linejoin:round"/><line x1="61.01" y1="260.89" x2="68" y2="260.89" style="fill:none;stroke:#fff;stroke-linecap:round;stroke-linejoin:round"/><line x1="64.04" y1="265.11" x2="80.03" y2="265.11" style="fill:none;stroke:#fff;stroke-linecap:round;stroke-linejoin:round"/><line x1="57.19" y1="268.93" x2="70.9" y2="268.93" style="fill:none;stroke:#fff;stroke-linecap:round;stroke-linejoin:round"/><line x1="190.5" y1="181.72" x2="144.43" y2="181.72" style="fill:none;stroke:#263238;stroke-linecap:round;stroke-linejoin:round"/><path d="M191.39,203s0-21.4-23.92-21.4S143.55,203,143.55,203" style="fill:none;stroke:#263238;stroke-linecap:round;stroke-linejoin:round"/><circle cx="191.39" cy="203.02" r="2.02" style="fill:#92e3a9;stroke:#263238;stroke-linecap:round;stroke-linejoin:round"/><path d="M141.53,203a2,2,0,1,1,2,2A2,2,0,0,1,141.53,203Z" style="fill:#92e3a9;stroke:#263238;stroke-linecap:round;stroke-linejoin:round"/><rect x="189.61" y="179.85" width="3.54" height="3.54" transform="translate(382.77 363.24) rotate(180)" style="fill:#92e3a9;stroke:#263238;stroke-linecap:round;stroke-linejoin:round"/><rect x="165.7" y="179.85" width="3.54" height="3.54" transform="translate(334.93 363.24) rotate(180)" style="fill:#92e3a9;stroke:#263238;stroke-linecap:round;stroke-linejoin:round"/><rect x="141.78" y="179.85" width="3.54" height="3.54" transform="translate(287.1 363.24) rotate(180)" style="fill:#92e3a9;stroke:#263238;stroke-linecap:round;stroke-linejoin:round"/><path d="M65.94,117.35v-7.07l-5.3-.46a14,14,0,0,0-1.31-3.17l3.42-4.07-5-5L53.69,101a15.09,15.09,0,0,0-3.18-1.31l-.45-5.3H43l-.46,5.3A15.31,15.31,0,0,0,39.35,101l-4.06-3.42-5,5,3.42,4.07a14,14,0,0,0-1.31,3.17l-5.3.46v7.07l5.3.46A14,14,0,0,0,33.71,121l-3.42,4.07,5,5,4.06-3.42a15.31,15.31,0,0,0,3.18,1.31l.46,5.3h7.07l.45-5.3a15.09,15.09,0,0,0,3.18-1.31l4.06,3.42,5-5L59.33,121a14,14,0,0,0,1.31-3.17ZM46.52,122a8.22,8.22,0,1,1,8.22-8.22A8.22,8.22,0,0,1,46.52,122Z" style="fill:#92e3a9;stroke:#263238;stroke-linecap:round;stroke-linejoin:round"/><path d="M90,133.21v-4.84l-3.63-.31a9.38,9.38,0,0,0-.9-2.17l2.35-2.79-3.43-3.42L81.59,122a9.81,9.81,0,0,0-2.17-.89l-.32-3.63H74.26L74,121.13a9.81,9.81,0,0,0-2.17.89L69,119.68l-3.43,3.42,2.34,2.79a9.81,9.81,0,0,0-.89,2.17l-3.63.31v4.84l3.63.32a9.81,9.81,0,0,0,.89,2.17l-2.34,2.78L69,141.9l2.78-2.34a10.34,10.34,0,0,0,2.17.9l.31,3.63H79.1l.32-3.63a10.34,10.34,0,0,0,2.17-.9l2.78,2.34,3.43-3.42-2.35-2.78a9.38,9.38,0,0,0,.9-2.17Zm-13.3,3.21a5.63,5.63,0,1,1,5.63-5.63A5.63,5.63,0,0,1,76.68,136.42Z" style="fill:#92e3a9;stroke:#263238;stroke-linecap:round;stroke-linejoin:round"/><line x1="214.15" y1="226.62" x2="252.88" y2="226.62" style="fill:none;stroke:#263238;stroke-linecap:round;stroke-linejoin:round;stroke-width:2px"/><line x1="214.15" y1="232.83" x2="252.88" y2="232.83" style="fill:none;stroke:#263238;stroke-linecap:round;stroke-linejoin:round;stroke-width:2px"/><line x1="214.15" y1="239.16" x2="236.23" y2="239.16" style="fill:none;stroke:#263238;stroke-linecap:round;stroke-linejoin:round;stroke-width:2px"/><path d="M163.12,241.73H142.73a5,5,0,0,1-5-5h0a5,5,0,0,1,5-5h20.39a5,5,0,0,1,5,5h0A5,5,0,0,1,163.12,241.73Z" style="fill:#92e3a9;stroke:#263238;stroke-linecap:round;stroke-linejoin:round"/><path d="M201.11,241.73H180.73a5,5,0,0,1-5-5h0a5,5,0,0,1,5-5h20.38a5,5,0,0,1,5,5h0A5,5,0,0,1,201.11,241.73Z" style="fill:#92e3a9;stroke:#263238;stroke-linecap:round;stroke-linejoin:round"/><rect x="216.98" y="134.45" width="43.24" height="43.24" style="fill:#fff;stroke:#263238;stroke-linecap:round;stroke-linejoin:round"/><line x1="216.98" y1="134.45" x2="260.22" y2="177.69" style="fill:#fff;stroke:#263238;stroke-linecap:round;stroke-linejoin:round"/><line x1="260.22" y1="134.45" x2="216.98" y2="177.69" style="fill:#fff;stroke:#263238;stroke-linecap:round;stroke-linejoin:round"/><rect x="253.52" y="108.77" width="53.66" height="33.63" style="fill:#263238;stroke:#263238;stroke-linecap:round;stroke-linejoin:round"/><rect x="253.52" y="108.77" width="53.66" height="5.11" style="fill:#92e3a9;stroke:#263238;stroke-linecap:round;stroke-linejoin:round"/><line x1="258.99" y1="118.19" x2="272.71" y2="118.19" style="fill:none;stroke:#fff;stroke-linecap:round;stroke-linejoin:round"/><line x1="265.85" y1="122.01" x2="289.59" y2="122.01" style="fill:none;stroke:#fff;stroke-linecap:round;stroke-linejoin:round"/><line x1="262.82" y1="125.58" x2="269.8" y2="125.58" style="fill:none;stroke:#fff;stroke-linecap:round;stroke-linejoin:round"/><line x1="265.85" y1="129.79" x2="281.84" y2="129.79" style="fill:none;stroke:#fff;stroke-linecap:round;stroke-linejoin:round"/><line x1="258.99" y1="133.62" x2="272.71" y2="133.62" style="fill:none;stroke:#fff;stroke-linecap:round;stroke-linejoin:round"/><polygon points="233.94 85.37 233.94 95.46 229.49 99.91 219.4 99.91 219.4 85.37 233.94 85.37" style="fill:#fff;stroke:#263238;stroke-linecap:round;stroke-linejoin:round"/><polygon points="233.94 95.46 229.49 99.91 229.49 95.46 233.94 95.46" style="fill:#fff;stroke:#263238;stroke-linecap:round;stroke-linejoin:round"/><polygon points="79.31 163.4 79.31 173.49 74.86 177.94 64.77 177.94 64.77 163.4 79.31 163.4" style="fill:#fff;stroke:#263238;stroke-linecap:round;stroke-linejoin:round"/><polygon points="79.31 173.49 74.86 177.94 74.86 173.49 79.31 173.49" style="fill:#fff;stroke:#263238;stroke-linecap:round;stroke-linejoin:round"/><polygon points="24.36 225.56 24.36 235.65 19.91 240.1 9.82 240.1 9.82 225.56 24.36 225.56" style="fill:#fff;stroke:#263238;stroke-linecap:round;stroke-linejoin:round"/><polygon points="24.36 235.65 19.91 240.1 19.91 235.65 24.36 235.65" style="fill:#fff;stroke:#263238;stroke-linecap:round;stroke-linejoin:round"/></g><g id="Character"><path d="M206.38,164.06c-5.29.45-12-5.87-12-5.87a1.17,1.17,0,0,1-1.88-.24c-.86-1.23-4.59-4.1-4.8-6.58s4.19-6.51,4.19-6.51c-3.4.93-3.75-1.06-3.75-1.06s5.71-4.72,7.7-4.84c.79-.05,4.19,1.9,7.48,4.55S213.2,156,213.2,156,235.05,171.9,240.57,176c7.29,5.36,15.93,14.87,15.93,14.87s29,13.07,37,20.26l-10.82,25.63s-26.37-17.67-29-22.16-5.27-1.78-7.91-4.71-5.17-6.28-5.17-6.28A44.76,44.76,0,0,1,228,194.44c-6.17-6.33-11.59-16-15-21.81A36.23,36.23,0,0,0,206.38,164.06Z" style="fill:#fff;stroke:#263238;stroke-linecap:round;stroke-linejoin:round"/><path d="M208,160.32s-7.87-1.9-8.55-7.1a9.56,9.56,0,0,0-1.69-3.62s-7.35-.37-6.88-3.36l9.8-.86a17,17,0,0,1,8.53,7.17" style="fill:#fff;stroke:#263238;stroke-linecap:round;stroke-linejoin:round"/><path d="M194.36,158.19a3.17,3.17,0,0,0,.34-2.12s2.16-.39,1.91-2.3c0,0,3.21-.4,1.14-4.17" style="fill:none;stroke:#263238;stroke-linecap:round;stroke-linejoin:round"/><path d="M196.61,153.77s-4.3-3.2-4.79-4.65" style="fill:none;stroke:#263238;stroke-linecap:round;stroke-linejoin:round"/><path d="M194.7,156.07s-4.59-2.79-4.67-4.43" style="fill:none;stroke:#263238;stroke-linecap:round;stroke-linejoin:round"/><path d="M195.74,141.69s-1.45,2.62-3.87,3.17" style="fill:none;stroke:#263238;stroke-linecap:round;stroke-linejoin:round"/><path d="M195,142.72a12.55,12.55,0,0,1,2.16,1.43" style="fill:none;stroke:#263238;stroke-linecap:round;stroke-linejoin:round"/><path d="M362.62,231.29a234.5,234.5,0,0,0-34.9-11.66c-17.56-4.12-46-7.78-46-7.78s7.82,79.79,5.76,84.6-14.42,20.92-14.42,20.92,66.89,26.08,78.55,28.3,5.58-38.25,5.58-38.25S369.48,256,362.62,231.29Z" style="fill:#263238"/><path d="M338.62,222.72s1.59,3-2.59,4.57c-10.83,4-22.37.47-21.14-3.77.47-1.62,3.15,0,3-6.05a7.37,7.37,0,0,0-.73-2.66,27.47,27.47,0,0,0-2.75-4.61,57.26,57.26,0,0,0-3.71-4.63s17.19-11,29.94,0C340.62,205.57,335.88,208,338.62,222.72Z" style="fill:#fff;stroke:#263238;stroke-linecap:round;stroke-linejoin:round"/><path d="M359.92,364.85c-6.77,11-41.12,16.21-59.87,15.72s-72.7-26-76.36-31.44c-3.39-5-11.72-21.57,1.12-31.58a24.88,24.88,0,0,1,3.46-2.24c8.79-4.76,67.25,10.25,67.25,10.25s3.62-2.29,5-2.12c4.08.52,7,3.82,15.24,6.17,5.77,1.65,21.52-4.69,31.58.76a13.88,13.88,0,0,1,3.06,2.22C359.75,341.57,366.68,353.82,359.92,364.85Z" style="fill:#92e3a9"/><g style="clip-path:url(#clip-path)"><path d="M347.29,330.37c-10.31-.69-19.5,1.47-25.92,5.26-7.61,4.5-43.55,21.81-43.55,21.81.08-1.86,2.08-5.61,2.08-5.61-3.38-3-12.22-5.35-12.22-5.35-6.85-5.85-34-23.3-42.87-28.93a24.88,24.88,0,0,1,3.46-2.24c8.79-4.76,67.25,10.25,67.25,10.25s3.62-2.29,5-2.12c4.08.52,7,3.82,15.24,6.17C321.48,331.26,337.23,324.92,347.29,330.37Z" style="fill-opacity:0.7000000000000001;opacity:0.30000000000000004"/></g><path d="M359.92,364.85c-6.77,11-41.12,16.21-59.87,15.72s-72.7-26-76.36-31.44c-3.39-5-11.72-21.57,1.12-31.58a24.88,24.88,0,0,1,3.46-2.24c8.79-4.76,67.25,10.25,67.25,10.25s3.62-2.29,5-2.12c4.08.52,7,3.82,15.24,6.17,5.77,1.65,21.52-4.69,31.58.76a13.88,13.88,0,0,1,3.06,2.22C359.75,341.57,366.68,353.82,359.92,364.85Z" style="fill:none;stroke:#263238;stroke-linecap:round;stroke-linejoin:round"/><path d="M349.37,374.8l.87,3.77s-2.3,6.53-12.41,7.59-16.1,3.31-21,3.6a41.93,41.93,0,0,1-7.69-.12l-1-1.49Z" style="fill:#fff;stroke:#263238;stroke-linecap:round;stroke-linejoin:round"/><path d="M290.67,374.4l17.52,13.75a199.42,199.42,0,0,0,25.11-3.75h0c8.3-1.92,15.54-4.68,15.94-8.45.61-5.75-5.53-7.32-12.82-7.09-1.36,0-2.76.13-4.17.28-11.68,1.25-26.51-5.2-26.51-5.2Z" style="fill:#263238"/><g style="clip-path:url(#clip-path-2)"><path d="M349.26,375.81a53.84,53.84,0,0,0-9.75,4.79s-16.27,8.38-41.27-.25l-7.57-6,15.08-10.47s14.83,6.45,26.51,5.2c1.41-.15,2.81-.26,4.17-.28C343.67,368.62,349.76,370.17,349.26,375.81Z" style="fill-opacity:0.7000000000000001;opacity:0.30000000000000004"/></g><path d="M290.67,374.4l17.52,13.75a199.42,199.42,0,0,0,25.11-3.75h0c8.3-1.92,15.54-4.68,15.94-8.45.61-5.75-5.53-7.32-12.82-7.09-1.36,0-2.76.13-4.17.28-11.68,1.25-26.51-5.2-26.51-5.2Z" style="fill:none;stroke:#263238;stroke-linecap:round;stroke-linejoin:round"/><path d="M307,379.82c-3.16.52.31,7,4.59,5S310.16,379.31,307,379.82Z" style="fill:#fff"/><g style="clip-path:url(#clip-path-3)"><path d="M312.93,383.79a66.94,66.94,0,0,1-6.81-1.19c-.6-1.26-.47-2.56.88-2.78C309.65,379.39,314.11,381.83,312.93,383.79Z" style="fill-opacity:0.7000000000000001;opacity:0.2"/></g><path d="M307,379.82c-3.16.52.31,7,4.59,5S310.16,379.31,307,379.82Z" style="fill:none;stroke:#263238;stroke-linecap:round;stroke-linejoin:round"/><path d="M333.31,384.39c8.3-1.92,15.54-4.68,15.94-8.45.61-5.75-5.53-7.32-12.82-7.09C336.11,369.15,329,376,333.31,384.39Z" style="fill:#fff"/><g style="clip-path:url(#clip-path-4)"><path d="M349.26,375.81a53.84,53.84,0,0,0-9.75,4.79,32.52,32.52,0,0,1-6.84,2.29c-2.8-7.7,3.46-13.76,3.76-14C343.67,368.62,349.76,370.17,349.26,375.81Z" style="fill-opacity:0.7000000000000001;opacity:0.30000000000000004"/></g><path d="M333.31,384.39c8.3-1.92,15.54-4.68,15.94-8.45.61-5.75-5.53-7.32-12.82-7.09C336.11,369.15,329,376,333.31,384.39Z" style="fill:none;stroke:#263238;stroke-linecap:round;stroke-linejoin:round"/><path d="M327.38,377.26h.05a.86.86,0,0,0,.91-.82,11.74,11.74,0,0,1,3-6.59.87.87,0,0,0-1.25-1.21,13.4,13.4,0,0,0-3.47,7.71A.87.87,0,0,0,327.38,377.26Z" style="fill:#fff;stroke:#263238;stroke-linecap:round;stroke-linejoin:round"/><path d="M323.91,377.47H324a.86.86,0,0,0,.88-.85,12.83,12.83,0,0,1,2.66-6.85.88.88,0,0,0-.12-1.22.87.87,0,0,0-1.22.12,14.36,14.36,0,0,0-3.05,7.92A.87.87,0,0,0,323.91,377.47Z" style="fill:#fff;stroke:#263238;stroke-linecap:round;stroke-linejoin:round"/><path d="M319.76,377h0a.87.87,0,0,0,.94-.79c.27-3,2.85-6.92,2.88-7a.87.87,0,0,0-1.44-1c-.12.18-2.86,4.3-3.17,7.78A.88.88,0,0,0,319.76,377Z" style="fill:#fff;stroke:#263238;stroke-linecap:round;stroke-linejoin:round"/><path d="M315.84,376.61h.24a.87.87,0,0,0,.71-1c-.62-3.68,2.8-6.84,2.84-6.87a.87.87,0,0,0,.06-1.22.86.86,0,0,0-1.22-.06c-.17.15-4.16,3.81-3.39,8.44A.87.87,0,0,0,315.84,376.61Z" style="fill:#fff;stroke:#263238;stroke-linecap:round;stroke-linejoin:round"/><path d="M311.58,375.59a1,1,0,0,0,.29,0,.86.86,0,0,0,.65-1c-.75-3.28,2.48-7,2.51-7a.87.87,0,1,0-1.29-1.16c-.16.18-3.87,4.41-2.91,8.57A.88.88,0,0,0,311.58,375.59Z" style="fill:#fff;stroke:#263238;stroke-linecap:round;stroke-linejoin:round"/><path d="M221.48,369.16l-1.26,3.66s1.6,6.73,11.55,8.85,15.66,5,20.46,5.78a41.9,41.9,0,0,0,7.66.69l1.14-1.37Z" style="fill:#fff;stroke:#263238;stroke-linecap:round;stroke-linejoin:round"/><path d="M279.9,374.93,261,386.77a200.13,200.13,0,0,1-24.59-6.38h0c-8-2.79-15-6.29-15-10.09,0-5.77,6.27-6.69,13.5-5.7,1.35.17,2.73.42,4.12.72,11.47,2.47,26.9-2.38,26.9-2.38Z" style="fill:#263238"/><g style="clip-path:url(#clip-path-5)"><path d="M279.9,374.93l-11.1,7A44.71,44.71,0,0,1,246.27,366,74.84,74.84,0,0,0,266,362.94Z" style="fill-opacity:0.7000000000000001;opacity:0.30000000000000004"/></g><path d="M279.9,374.93,261,386.77a200.13,200.13,0,0,1-24.59-6.38h0c-8-2.79-15-6.29-15-10.09,0-5.77,6.27-6.69,13.5-5.7,1.35.17,2.73.42,4.12.72,11.47,2.47,26.9-2.38,26.9-2.38Z" style="fill:none;stroke:#263238;stroke-linecap:round;stroke-linejoin:round"/><path d="M236.45,380.39c-8-2.79-15-6.29-15-10.09,0-5.77,6.27-6.69,13.5-5.7C235.26,364.94,241.57,372.48,236.45,380.39Z" style="fill:#fff;stroke:#263238;stroke-linecap:round;stroke-linejoin:round"/><path d="M243.09,373.92H243a.86.86,0,0,1-.82-.91,11.68,11.68,0,0,0-2.28-6.87.86.86,0,0,1,.16-1.21.85.85,0,0,1,1.21.15,13.24,13.24,0,0,1,2.64,8A.87.87,0,0,1,243.09,373.92Z" style="fill:#fff;stroke:#263238;stroke-linecap:round;stroke-linejoin:round"/><path d="M246.52,374.49h-.08a.86.86,0,0,1-.79-.93,12.83,12.83,0,0,0-1.92-7.1.87.87,0,0,1,1.45-.95,14.37,14.37,0,0,1,2.2,8.19A.87.87,0,0,1,246.52,374.49Z" style="fill:#fff;stroke:#263238;stroke-linecap:round;stroke-linejoin:round"/><path d="M250.69,374.49h0a.88.88,0,0,1-.85-.88c.06-3.05-2.11-7.19-2.13-7.23a.87.87,0,0,1,1.54-.81c.09.19,2.39,4.57,2.33,8.07A.87.87,0,0,1,250.69,374.49Z" style="fill:#fff;stroke:#263238;stroke-linecap:round;stroke-linejoin:round"/><path d="M254.63,374.49l-.23,0a.87.87,0,0,1-.6-1.07c1-3.6-2.07-7.09-2.11-7.13a.87.87,0,0,1,1.3-1.16c.15.17,3.73,4.23,2.48,8.75A.87.87,0,0,1,254.63,374.49Z" style="fill:#fff;stroke:#263238;stroke-linecap:round;stroke-linejoin:round"/><path d="M259,373.92a1,1,0,0,1-.29-.05.86.86,0,0,1-.53-1.1c1.09-3.19-1.74-7.22-1.77-7.26a.86.86,0,0,1,.21-1.2.85.85,0,0,1,1.2.2c.14.19,3.38,4.79,2,8.82A.88.88,0,0,1,259,373.92Z" style="fill:#fff;stroke:#263238;stroke-linecap:round;stroke-linejoin:round"/><path d="M263.09,378.61c3.09.84-1,6.9-5.09,4.5S260,377.76,263.09,378.61Z" style="fill:#fff;stroke:#263238;stroke-linecap:round;stroke-linejoin:round"/><path d="M227.43,346.47c4.63,6.49,18.36,13.66,32,19.58a64.61,64.61,0,0,0,8.58,11.21c8.42,8.66,11.85,3.8,11.85,3.8s5.32-.59,13.17-1.67a3.72,3.72,0,0,0,4,2.23c1-.16,3-1.62,5.21-3.55,19.83-3,46.74-8,54-13.81" style="fill:#92e3a9;stroke:#263238;stroke-linecap:round;stroke-linejoin:round"/><path d="M348.48,334.13c-3.43-3.78-6.85-3.95-14.06-3.43,0,0-18.79,5.95-31.89,13.89s-32.24,16.26-32.24,16.26-5.83-1.69-9.88,0c0,0-2.85.22-.94,5.2" style="fill:none;stroke:#263238;stroke-linecap:round;stroke-linejoin:round"/><path d="M357.23,356.65s.1,5.81-8.14,9.84" style="fill:none;stroke:#263238;stroke-linecap:round;stroke-linejoin:round"/><path d="M266.35,332.41s13,9.4,15.6,15.6a53.44,53.44,0,0,1,7.39,3.81" style="fill:none;stroke:#263238;stroke-linecap:round;stroke-linejoin:round"/><path d="M282.9,340.23a14.88,14.88,0,0,1,.45,8.41" style="fill:none;stroke:#263238;stroke-linecap:round;stroke-linejoin:round"/><path d="M279.9,334.13a23.16,23.16,0,0,1,1.86,3.25" style="fill:none;stroke:#263238;stroke-linecap:round;stroke-linejoin:round"/><path d="M298.41,333.27s4.36,5.81,5.44,10.54" style="fill:none;stroke:#263238;stroke-linecap:round;stroke-linejoin:round"/><path d="M322.64,368.42a37.25,37.25,0,0,0,4.83-.59" style="fill:none;stroke:#263238;stroke-linecap:round;stroke-linejoin:round"/><path d="M281.84,364.26a232.8,232.8,0,0,0,37.39,4.29" style="fill:none;stroke:#263238;stroke-linecap:round;stroke-linejoin:round"/><path d="M369.83,276.07s-2.35,40.95-5.12,43.35-7.14,3.09-15.42,3.78-44.84,2.93-44.84,2.93l-3.92-11.75s19.45-2,28.09-5.15A144.77,144.77,0,0,1,348.48,304s-1.63-10.32-1.63-14.75V268.34" style="fill:#fff;stroke:#263238;stroke-linecap:round;stroke-linejoin:round"/><path d="M362.62,231.29c8.92,5.48,11.55,18.17,8.46,45.27,0,0,2.64,3.2-1.25,4.8,0,0-14.57-5.45-21.35-1.7s-5-5.19-5-5.19-2.79-24.92,3.38-29.42" style="fill:#263238"/><path d="M346.05,241.23s-8.57,8.92-1,31.44a36.74,36.74,0,0,0-1,5.6c0,1.5,2.07,2.29,2.07,2.29" style="fill:none;stroke:#fff;stroke-linecap:round;stroke-linejoin:round"/><path d="M336,256.32s.62,11,7.44,15.78" style="fill:none;stroke:#fff;stroke-linecap:round;stroke-linejoin:round"/><path d="M338.23,230.78s-13.29,5.09-23.86-.54c-6.27-3.34-3.69-8.72-3.69-8.72" style="fill:none;stroke:#fff;stroke-linecap:round;stroke-linejoin:round"/><path d="M242.66,334.14H315a19.29,19.29,0,0,0,4.84-.62l14.27-3.74a.94.94,0,0,0,.69-.9h0a.93.93,0,0,0-.93-.92h-94.2a.92.92,0,0,0-.92.92v1.35A3.91,3.91,0,0,0,242.66,334.14Z" style="fill:#757575;stroke:#263238;stroke-linecap:round;stroke-linejoin:round"/><path d="M235.49,330.55H308a1.73,1.73,0,0,0,1.69-2.33l-13.46-52.33a3.19,3.19,0,0,0-2.89-2.33H220.83a1.74,1.74,0,0,0-1.69,2.33l13.46,52.33A3.18,3.18,0,0,0,235.49,330.55Z" style="fill:#999;stroke:#263238;stroke-linecap:round;stroke-linejoin:round"/><line x1="223.39" y1="275.43" x2="222.02" y2="275.43" style="fill:none;stroke:#263238;stroke-linecap:round;stroke-linejoin:round"/><line x1="234.02" y1="275.43" x2="226.93" y2="275.43" style="fill:none;stroke:#263238;stroke-linecap:round;stroke-linejoin:round"/><path d="M306.28,323.93l-11.87-46.18a3.19,3.19,0,0,0-2.89-2.32h-55.9" style="fill:none;stroke:#263238;stroke-linecap:round;stroke-linejoin:round"/><line x1="307.32" y1="327.96" x2="307.02" y2="326.81" style="fill:none;stroke:#263238;stroke-linecap:round;stroke-linejoin:round"/><path d="M257.32,303.38a8.13,8.13,0,0,0,.25,1.25c.93,3.15,3.88,5.06,6.59,4.27s4.16-4,3.24-7.16-3.89-5.06-6.6-4.26a3.91,3.91,0,0,0-.92.39A5.57,5.57,0,0,1,257.32,303.38Z" style="fill:#fff;stroke:#263238;stroke-linecap:round;stroke-linejoin:round"/><path d="M289.34,205.31c-6.28-.69-9.71-6.65-13.48-7.58a43.15,43.15,0,0,1-6.18-2s-1.31-4.55-3.25-3-4.51,35.49-2,34.43,2.51,2.93,2.51,2.93l23.32,20.55,19.54-34.6S295.62,206,289.34,205.31Z" style="fill:#263238"/><polyline points="99.39 84.38 99.39 83.88 99.89 83.88" style="fill:none;stroke:#263238;stroke-linecap:round;stroke-linejoin:round"/><line x1="102.83" y1="83.88" x2="187.43" y2="83.88" style="fill:none;stroke:#263238;stroke-linecap:round;stroke-linejoin:round;stroke-dasharray:0.9780219793319702,2.934070110321045"/><polyline points="188.89 83.88 189.39 83.88 189.39 84.38" style="fill:none;stroke:#263238;stroke-linecap:round;stroke-linejoin:round"/><line x1="189.39" y1="87.38" x2="189.39" y2="141.88" style="fill:none;stroke:#263238;stroke-linecap:round;stroke-linejoin:round;stroke-dasharray:1,3"/><polyline points="189.39 143.38 189.39 143.88 188.89 143.88" style="fill:none;stroke:#263238;stroke-linecap:round;stroke-linejoin:round"/><line x1="185.96" y1="143.88" x2="101.36" y2="143.88" style="fill:none;stroke:#263238;stroke-linecap:round;stroke-linejoin:round;stroke-dasharray:0.9780219793319702,2.934070110321045"/><polyline points="99.89 143.88 99.39 143.88 99.39 143.38" style="fill:none;stroke:#263238;stroke-linecap:round;stroke-linejoin:round"/><line x1="99.39" y1="140.38" x2="99.39" y2="85.88" style="fill:none;stroke:#263238;stroke-linecap:round;stroke-linejoin:round;stroke-dasharray:1,3"/><circle cx="144.39" cy="83.88" r="1.48" style="fill:#92e3a9;stroke:#263238;stroke-linecap:round;stroke-linejoin:round"/><circle cx="99.39" cy="113.88" r="1.48" style="fill:#92e3a9;stroke:#263238;stroke-linecap:round;stroke-linejoin:round"/><circle cx="144.39" cy="143.88" r="1.48" style="fill:#92e3a9;stroke:#263238;stroke-linecap:round;stroke-linejoin:round"/><circle cx="189.39" cy="113.88" r="1.48" style="fill:#92e3a9;stroke:#263238;stroke-linecap:round;stroke-linejoin:round"/><rect x="187.67" y="142.16" width="3.45" height="3.45" style="fill:#92e3a9;stroke:#263238;stroke-linecap:round;stroke-linejoin:round"/><rect x="187.67" y="82.16" width="3.45" height="3.45" style="fill:#92e3a9;stroke:#263238;stroke-linecap:round;stroke-linejoin:round"/><rect x="97.67" y="142.16" width="3.45" height="3.45" style="fill:#92e3a9;stroke:#263238;stroke-linecap:round;stroke-linejoin:round"/><rect x="97.67" y="82.16" width="3.45" height="3.45" style="fill:#92e3a9;stroke:#263238;stroke-linecap:round;stroke-linejoin:round"/><rect x="105.37" y="89.19" width="78.33" height="49.77" style="fill:#fff;stroke:#263238;stroke-linecap:round;stroke-linejoin:round"/><polygon points="183.69 124.25 174.99 132.96 151.43 109.41 141.52 119.32 125.71 103.51 105.36 123.86 105.36 138.96 183.69 138.96 183.69 124.25" style="fill:#92e3a9;stroke:#263238;stroke-linecap:round;stroke-linejoin:round"/><circle cx="167.47" cy="103.31" r="5.53" style="fill:#92e3a9;stroke:#263238;stroke-linecap:round;stroke-linejoin:round"/><path d="M293.48,214.48s-6,11.17-6.71,28.26" style="fill:none;stroke:#fff;stroke-linecap:round;stroke-linejoin:round"/><path d="M275.87,222.22s1.79,9.5,7,16.38" style="fill:none;stroke:#fff;stroke-linecap:round;stroke-linejoin:round"/><path d="M300.53,261.41s9,29.56,28.56,38.27" style="fill:none;stroke:#fff;stroke-linecap:round;stroke-linejoin:round"/><path d="M324.19,207.91s-.85,6.45-7.05,6.9a27.47,27.47,0,0,0-2.75-4.61A86.58,86.58,0,0,1,324.19,207.91Z" style="fill:#263238"/><path d="M337.4,208.36s10.37,1.27,14.71-12.65.93-24.41-16.23-29.46c-9.52-2.8-19-.55-22.47,6.65-2.94,6.18-1.55,11.31-2.23,13.38-.75,2.31-7.77,4.28-7.77,5.87,0,1.32,3.89,3.56,3.89,3.56l-1.15,3.45,1.08.58s-2,7.79-1.08,10.53c.67,2,18.24,2.84,19.61-2.13" style="fill:#fff;stroke:#263238;stroke-linecap:round;stroke-linejoin:round"/><path d="M313.5,178s3.43.86,4.37,2.66" style="fill:none;stroke:#263238;stroke-linecap:round;stroke-linejoin:round"/><path d="M314.11,185.86c-.15,1,.08,1.88.51,1.94s.91-.7,1.06-1.71-.09-1.87-.52-1.94S314.25,184.85,314.11,185.86Z" style="fill:#263238"/><path d="M307.23,199.74s5.58,2.14,7.66.84" style="fill:none;stroke:#263238;stroke-linecap:round;stroke-linejoin:round"/><path d="M309.19,185.07c-.41,2.23.09,4.2,1.12,4.39s2.21-1.46,2.62-3.7-.08-4.2-1.12-4.39S309.61,182.83,309.19,185.07Z" style="fill:none;stroke:#263238;stroke-linecap:round;stroke-linejoin:round"/><path d="M352.57,173.67a16.5,16.5,0,0,0-6.52-10.06,30.47,30.47,0,0,0-12.57-5.14s3.31,1.45,4.57,3.35c0,0-8.58-6.44-18.75-2.21s-8.92,15.22-8.92,15.22l1.49-2.87s-.17,3.43,1.63,4.68a22.21,22.21,0,0,1,2.19-4.8s2.7,8.12,10.13,10.86a5.9,5.9,0,0,1-.12-4s4.11,8.92,2.92,13.26l1.31,2.29s4.73-4.79,8.58-.8c2.2,2.29-4.23,11-5.15,11l3.89,5.72s9.71,1.38,15.32-9.14,4.23-15,4.23-15a13.86,13.86,0,0,1,2.05,4S360.45,178.7,352.57,173.67Z" style="fill:#263238"/><path d="M329.7,195.28s3-10.09,9.38-6.53,1.83,8.93-.46,11-4,5.83-5.49,5.83-1.83-1.83-1.83-1.83" style="fill:#fff;stroke:#263238;stroke-linecap:round;stroke-linejoin:round"/><line x1="312.93" y1="185.76" x2="330.73" y2="189.46" style="fill:none;stroke:#263238;stroke-linecap:round;stroke-linejoin:round"/></g></g></svg>