<svg xmlns="http://www.w3.org/2000/svg" xmlns:xlink="http://www.w3.org/1999/xlink" viewBox="0 0 422.83 303.75"><defs><clipPath id="clip-path"><path d="M164.16,162.52s-28.51,6-52.26,19.43-42.34,24.19-42.34,29.38-9.5,87.26-9.5,87.26H276s-21.16-45.36-24.62-64.8-7.34-32-18.57-44.49S188.79,160.79,164.16,162.52Z" style="fill:#fff;stroke:#263238;stroke-linecap:round;stroke-linejoin:round"/></clipPath><clipPath id="clip-path-2"><path d="M154.66,165.54A28.44,28.44,0,0,0,141.27,188c-.86,15.55,0,31.54-.86,40.17s-6.92,15.56-2.16,15.12,15.55-17.71,19.43-17.71,5.19,8.21,6.92,10.8,7.79,3.68,7.79,3.68,5.6-6.7,5.6-8.86-1.73-9.5,3-8.64,15.12,17.28,15.55,12.09-4.75-13-4.75-25.48-6.05-27.22-14.69-36.29S163.51,164.87,154.66,165.54Z" style="fill:#fff;stroke:#263238;stroke-linecap:round;stroke-linejoin:round"/></clipPath><clipPath id="clip-path-3"><path d="M158.26,165.65a66.73,66.73,0,0,0-5.18,25c0,13.66,7.07,27.79,9.89,34.38s9.42,15.07,9.42,15.07-.47-17.42,3.77-25.9,8-14.6,8-14.6-5.18-5.18-12.71-16.95S158.26,165.65,158.26,165.65Z" style="fill:#fff;stroke:#263238;stroke-linecap:round;stroke-linejoin:round"/></clipPath><clipPath id="clip-path-4"><path d="M229.76,132.47s-1.3,19.35-3.4,26.15-5,27.73-11.24,36.88-14.39,17-23.54,17.53-21.45-15.7-28.51-26.16-7.85-20.92-10.2-31.12-2.88-22,.78-31.13,22-20.4,37.4-19.09S225.84,115,229.76,121A10.49,10.49,0,0,1,229.76,132.47Z" style="fill:#fff;stroke:#263238;stroke-linecap:round;stroke-linejoin:round"/></clipPath><clipPath id="clip-path-5"><path d="M159.41,94.29s-17,5.49-18.31,12.29,7.32,30.6,7.06,33.48-2.88,5.23,0,9.41,8.11,10.46,10.2,7.06-.78-8.37,2.62-10.46,8.1-5.49,5.49-9.94-1.31-11,4.18-11.77,10.2-4.44,7.33-.26-11.25,14.39-6.8,15.17,22-11,22-11-6,12-2.88,12.81S218,125.67,218,125.67s11.77,15.43,14.13,14.39.78-9.68.78-9.68,1.83,11.51,5.49,12,8.63-5.76,7.07-9.68-4.19-9.41-4.19-9.41,5.23-1.31,7.32-3.67,1.83-2.61-2.61-3.4-7.85-5.75-12-10.2-11-10.46-11-10.46,7.85,3.4,3.66-.52-26.41-12.82-38.44-12.82-16.48,6.28-16.48,6.28,2.09-7.85-.26-6.8-5,7.32-5,7.32-5.49-1.57-8.37.27S154.44,93,156.79,93a13.69,13.69,0,0,1,3.93.52Z" style="fill:#263238;stroke:#263238;stroke-linecap:round;stroke-linejoin:round"/></clipPath><clipPath id="clip-path-6"><path d="M159.41,162s-6.28-14.64-11.77-14.64-5.23,12.29-1.83,18.83,10.72,9.15,12.81,5.23" style="fill:#fff;stroke:#263238;stroke-linecap:round;stroke-linejoin:round"/></clipPath></defs><g id="Layer_2" data-name="Layer 2"><g id="Background_Simple" data-name="Background Simple"><path d="M391.44,299.23c2.94-11,12.52-47.91,19-85.31C418.22,169.28,425,107.79,394,82s-71.78,5-93.12-5-22.31-59.52-79.54-74.4-89.24,36.7-114.46,64.48S53.51,76,16.65,105.8c-36.46,29.44-5.54,162.69,21.42,193.43Z" style="fill:#c6ff00"/><path d="M391.44,299.23c2.94-11,12.52-47.91,19-85.31C418.22,169.28,425,107.79,394,82s-71.78,5-93.12-5-22.31-59.52-79.54-74.4-89.24,36.7-114.46,64.48S53.51,76,16.65,105.8c-36.46,29.44-5.54,162.69,21.42,193.43Z" style="fill:#fff;opacity:0.7000000000000001"/></g><g id="Codes"><path d="M262.2,95.75H259a.8.8,0,0,1,0-1.6h3.24a.8.8,0,0,1,0,1.6Zm.79,2.9a.79.79,0,0,0-.79-.8H259a.8.8,0,1,0,0,1.6h3.24A.79.79,0,0,0,263,98.65Zm0,3.7a.79.79,0,0,0-.79-.8H259a.8.8,0,1,0,0,1.6h3.24A.79.79,0,0,0,263,102.35Zm0,3.7a.79.79,0,0,0-.79-.8H259a.8.8,0,0,0,0,1.6h3.24A.79.79,0,0,0,263,106.05Zm0,3.7a.79.79,0,0,0-.79-.8H259a.8.8,0,1,0,0,1.59h3.24A.79.79,0,0,0,263,109.75Zm0,3.7a.79.79,0,0,0-.79-.8H259a.8.8,0,1,0,0,1.59h3.24A.79.79,0,0,0,263,113.45Zm0,3.69a.79.79,0,0,0-.79-.79H259a.79.79,0,0,0-.8.79.8.8,0,0,0,.8.8h3.24A.79.79,0,0,0,263,117.14Zm0,3.7a.79.79,0,0,0-.79-.8H259a.8.8,0,0,0,0,1.6h3.24A.79.79,0,0,0,263,120.84ZM275.1,95a.8.8,0,0,0-.8-.8h-8.49a.8.8,0,0,0,0,1.6h8.49A.8.8,0,0,0,275.1,95Zm0,3.7a.8.8,0,0,0-.8-.8h-8.49a.8.8,0,0,0,0,1.6h8.49A.8.8,0,0,0,275.1,98.65Zm0,3.7a.8.8,0,0,0-.8-.8h-8.49a.8.8,0,1,0,0,1.6h8.49A.8.8,0,0,0,275.1,102.35Zm0,3.7a.8.8,0,0,0-.8-.8h-8.49a.8.8,0,0,0,0,1.6h8.49A.8.8,0,0,0,275.1,106.05Zm0,3.7a.8.8,0,0,0-.8-.8h-8.49a.8.8,0,1,0,0,1.59h8.49A.79.79,0,0,0,275.1,109.75Zm10.17,3.7a.8.8,0,0,0-.8-.8H276a.8.8,0,1,0,0,1.59h8.49A.79.79,0,0,0,285.27,113.45Zm0,3.69a.79.79,0,0,0-.8-.79H276a.79.79,0,0,0-.8.79.8.8,0,0,0,.8.8h8.49A.8.8,0,0,0,285.27,117.14Zm0,3.7a.8.8,0,0,0-.8-.8H276a.8.8,0,0,0,0,1.6h8.49A.8.8,0,0,0,285.27,120.84ZM278.84,95a.93.93,0,1,0-.93.93A.93.93,0,0,0,278.84,95Zm2.77,0a.93.93,0,0,0-1.85,0,.93.93,0,1,0,1.85,0Zm2.78,0a.93.93,0,1,0-.93.93A.93.93,0,0,0,284.39,95Zm2.77,0a.93.93,0,0,0-1.85,0,.93.93,0,1,0,1.85,0Zm2.77,0a.93.93,0,0,0-1.85,0,.93.93,0,1,0,1.85,0Zm2.78,0a.93.93,0,1,0-.93.93A.93.93,0,0,0,292.71,95Zm-13.87,7.4a.93.93,0,1,0-1.85,0,.93.93,0,0,0,1.85,0Zm2.77,0a.93.93,0,1,0-.92.92A.93.93,0,0,0,281.61,102.35Zm2.78,0a.93.93,0,1,0-1.85,0,.93.93,0,0,0,1.85,0Zm2.77,0a.93.93,0,1,0-.92.92A.93.93,0,0,0,287.16,102.35Zm2.77,0a.93.93,0,1,0-.92.92A.93.93,0,0,0,289.93,102.35Zm2.78,0a.93.93,0,1,0-1.85,0,.93.93,0,0,0,1.85,0ZM288.32,113a.93.93,0,1,0-.93.93A.93.93,0,0,0,288.32,113Zm2.77,0a.93.93,0,1,0-.93.93A.92.92,0,0,0,291.09,113Zm2.77,0a.93.93,0,0,0-1.85,0,.93.93,0,1,0,1.85,0Zm2.78,0a.93.93,0,1,0-.93.93A.93.93,0,0,0,296.64,113Zm2.77,0a.93.93,0,0,0-1.85,0,.93.93,0,1,0,1.85,0Zm2.77,0a.92.92,0,1,0-.92.93A.92.92,0,0,0,302.18,113Zm-13.86,7.63a.93.93,0,1,0-.93.93A.93.93,0,0,0,288.32,120.61Zm2.77,0a.93.93,0,1,0-.93.93A.92.92,0,0,0,291.09,120.61Zm2.77,0a.93.93,0,0,0-1.85,0,.93.93,0,1,0,1.85,0Zm2.78,0a.93.93,0,1,0-.93.93A.93.93,0,0,0,296.64,120.61Zm2.77,0a.93.93,0,0,0-1.85,0,.93.93,0,1,0,1.85,0Zm2.77,0a.92.92,0,1,0-.92.93A.92.92,0,0,0,302.18,120.61Z" style="fill:#fff"/><path d="M262.2,125.35H259a.8.8,0,0,1,0-1.6h3.24a.8.8,0,0,1,0,1.6Zm.79,2.9a.79.79,0,0,0-.79-.8H259a.8.8,0,0,0-.8.8.79.79,0,0,0,.8.79h3.24A.79.79,0,0,0,263,128.25Zm0,3.69a.79.79,0,0,0-.79-.79H259a.8.8,0,1,0,0,1.59h3.24A.79.79,0,0,0,263,131.94Zm0,3.7a.79.79,0,0,0-.79-.8H259a.8.8,0,1,0,0,1.6h3.24A.79.79,0,0,0,263,135.64Zm0,3.7a.79.79,0,0,0-.79-.8H259a.8.8,0,0,0,0,1.6h3.24A.79.79,0,0,0,263,139.34Zm0,3.7a.79.79,0,0,0-.79-.8H259a.8.8,0,1,0,0,1.6h3.24A.79.79,0,0,0,263,143Zm0,3.7a.79.79,0,0,0-.79-.8H259a.8.8,0,0,0,0,1.6h3.24A.79.79,0,0,0,263,146.74Zm0,3.7a.79.79,0,0,0-.79-.8H259a.8.8,0,1,0,0,1.6h3.24A.79.79,0,0,0,263,150.44Zm12.11-25.89a.8.8,0,0,0-.8-.8h-8.49a.8.8,0,0,0,0,1.6h8.49A.8.8,0,0,0,275.1,124.55Zm0,3.7a.8.8,0,0,0-.8-.8h-8.49a.8.8,0,0,0-.8.8.79.79,0,0,0,.8.79h8.49A.79.79,0,0,0,275.1,128.25Zm0,3.69a.79.79,0,0,0-.8-.79h-8.49a.8.8,0,1,0,0,1.59h8.49A.8.8,0,0,0,275.1,131.94Zm0,3.7a.8.8,0,0,0-.8-.8h-8.49a.8.8,0,0,0,0,1.6h8.49A.8.8,0,0,0,275.1,135.64Zm0,3.7a.8.8,0,0,0-.8-.8h-8.49a.8.8,0,1,0,0,1.6h8.49A.8.8,0,0,0,275.1,139.34Zm10.17,3.7a.8.8,0,0,0-.8-.8H276a.8.8,0,0,0,0,1.6h8.49A.8.8,0,0,0,285.27,143Zm0,3.7a.8.8,0,0,0-.8-.8H276a.8.8,0,1,0,0,1.6h8.49A.8.8,0,0,0,285.27,146.74Zm0,3.7a.8.8,0,0,0-.8-.8H276a.8.8,0,0,0,0,1.6h8.49A.8.8,0,0,0,285.27,150.44Zm-6.43-25.89a.93.93,0,1,0-1.85,0,.93.93,0,0,0,1.85,0Zm2.77,0a.93.93,0,1,0-.92.92A.93.93,0,0,0,281.61,124.55Zm2.78,0a.93.93,0,1,0-1.85,0,.93.93,0,0,0,1.85,0Zm2.77,0a.93.93,0,1,0-.92.92A.93.93,0,0,0,287.16,124.55Zm2.77,0a.93.93,0,1,0-.92.92A.93.93,0,0,0,289.93,124.55Zm2.78,0a.93.93,0,1,0-1.85,0,.93.93,0,0,0,1.85,0Zm-13.87,7.39a.93.93,0,1,0-.93.93A.93.93,0,0,0,278.84,131.94Zm2.77,0a.93.93,0,0,0-1.85,0,.93.93,0,1,0,1.85,0Zm2.78,0a.93.93,0,1,0-.93.93A.93.93,0,0,0,284.39,131.94Zm2.77,0a.93.93,0,1,0-.92.93A.92.92,0,0,0,287.16,131.94Zm2.77,0a.93.93,0,0,0-1.85,0,.93.93,0,1,0,1.85,0Zm2.78,0a.93.93,0,1,0-.93.93A.93.93,0,0,0,292.71,131.94Zm-4.39,10.64a.93.93,0,1,0-1.85,0,.93.93,0,0,0,1.85,0Zm2.77,0a.93.93,0,1,0-1.85,0,.93.93,0,0,0,1.85,0Zm2.77,0a.93.93,0,1,0-.92.92A.93.93,0,0,0,293.86,142.58Zm2.78,0a.93.93,0,1,0-1.85,0,.93.93,0,0,0,1.85,0Zm2.77,0a.93.93,0,1,0-.92.92A.93.93,0,0,0,299.41,142.58Zm2.77,0a.92.92,0,1,0-.92.92A.93.93,0,0,0,302.18,142.58Zm-13.86,7.63a.93.93,0,1,0-1.85,0,.93.93,0,0,0,1.85,0Zm2.77,0a.93.93,0,1,0-1.85,0,.93.93,0,0,0,1.85,0Zm2.77,0a.93.93,0,1,0-.92.92A.93.93,0,0,0,293.86,150.21Zm2.78,0a.93.93,0,1,0-1.85,0,.93.93,0,0,0,1.85,0Zm2.77,0a.93.93,0,1,0-.92.92A.93.93,0,0,0,299.41,150.21Zm2.77,0a.92.92,0,1,0-.92.92A.93.93,0,0,0,302.18,150.21Z" style="fill:#fff"/><path d="M262.2,155.66H259a.8.8,0,0,1,0-1.6h3.24a.8.8,0,0,1,0,1.6Zm.79,2.9a.79.79,0,0,0-.79-.8H259a.8.8,0,0,0-.8.8.79.79,0,0,0,.8.79h3.24A.79.79,0,0,0,263,158.56Zm0,3.69a.79.79,0,0,0-.79-.79H259a.8.8,0,1,0,0,1.59h3.24A.79.79,0,0,0,263,162.25Zm0,3.7a.79.79,0,0,0-.79-.8H259a.8.8,0,1,0,0,1.6h3.24A.79.79,0,0,0,263,166Zm0,3.7a.79.79,0,0,0-.79-.8H259a.8.8,0,0,0,0,1.6h3.24A.79.79,0,0,0,263,169.65Zm0,3.7a.79.79,0,0,0-.79-.8H259a.8.8,0,1,0,0,1.6h3.24A.79.79,0,0,0,263,173.35Zm0,3.7a.79.79,0,0,0-.79-.8H259a.8.8,0,0,0,0,1.6h3.24A.79.79,0,0,0,263,177.05Zm0,3.7a.79.79,0,0,0-.79-.8H259a.8.8,0,1,0,0,1.6h3.24A.79.79,0,0,0,263,180.75Zm12.11-25.89a.8.8,0,0,0-.8-.8h-8.49a.8.8,0,1,0,0,1.6h8.49A.8.8,0,0,0,275.1,154.86Zm0,3.7a.8.8,0,0,0-.8-.8h-8.49a.8.8,0,0,0-.8.8.79.79,0,0,0,.8.79h8.49A.79.79,0,0,0,275.1,158.56Zm0,3.69a.79.79,0,0,0-.8-.79h-8.49a.8.8,0,1,0,0,1.59h8.49A.8.8,0,0,0,275.1,162.25Zm0,3.7a.8.8,0,0,0-.8-.8h-8.49a.8.8,0,0,0,0,1.6h8.49A.8.8,0,0,0,275.1,166Zm0,3.7a.8.8,0,0,0-.8-.8h-8.49a.8.8,0,1,0,0,1.6h8.49A.8.8,0,0,0,275.1,169.65Zm10.17,3.7a.8.8,0,0,0-.8-.8H276a.8.8,0,0,0,0,1.6h8.49A.8.8,0,0,0,285.27,173.35Zm0,3.7a.8.8,0,0,0-.8-.8H276a.8.8,0,1,0,0,1.6h8.49A.8.8,0,0,0,285.27,177.05Zm0,3.7a.8.8,0,0,0-.8-.8H276a.8.8,0,0,0,0,1.6h8.49A.8.8,0,0,0,285.27,180.75Zm-6.43-25.89a.93.93,0,1,0-1.85,0,.93.93,0,0,0,1.85,0Zm2.77,0a.93.93,0,1,0-.92.92A.93.93,0,0,0,281.61,154.86Zm2.78,0a.93.93,0,1,0-1.85,0,.93.93,0,0,0,1.85,0Zm2.77,0a.93.93,0,1,0-.92.92A.93.93,0,0,0,287.16,154.86Zm2.77,0a.93.93,0,1,0-.92.92A.93.93,0,0,0,289.93,154.86Zm2.78,0a.93.93,0,1,0-1.85,0,.93.93,0,0,0,1.85,0Zm-13.87,7.39a.93.93,0,1,0-.93.93A.93.93,0,0,0,278.84,162.25Zm2.77,0a.93.93,0,0,0-1.85,0,.93.93,0,1,0,1.85,0Zm2.78,0a.93.93,0,1,0-.93.93A.93.93,0,0,0,284.39,162.25Zm2.77,0a.93.93,0,1,0-.92.93A.92.92,0,0,0,287.16,162.25Zm2.77,0a.93.93,0,0,0-1.85,0,.93.93,0,1,0,1.85,0Zm2.78,0a.93.93,0,1,0-.93.93A.93.93,0,0,0,292.71,162.25Zm-4.39,10.64a.93.93,0,1,0-1.85,0,.93.93,0,0,0,1.85,0Zm2.77,0a.93.93,0,1,0-1.85,0,.93.93,0,0,0,1.85,0Zm2.77,0a.93.93,0,1,0-.92.92A.93.93,0,0,0,293.86,172.89Zm2.78,0a.93.93,0,1,0-1.85,0,.93.93,0,0,0,1.85,0Zm2.77,0a.93.93,0,1,0-.92.92A.93.93,0,0,0,299.41,172.89Zm2.77,0a.92.92,0,1,0-.92.92A.93.93,0,0,0,302.18,172.89Zm-13.86,7.63a.93.93,0,1,0-1.85,0,.93.93,0,0,0,1.85,0Zm2.77,0a.93.93,0,1,0-1.85,0,.93.93,0,0,0,1.85,0Zm2.77,0a.93.93,0,1,0-.92.92A.93.93,0,0,0,293.86,180.52Zm2.78,0a.93.93,0,1,0-1.85,0,.93.93,0,0,0,1.85,0Zm2.77,0a.93.93,0,1,0-.92.92A.93.93,0,0,0,299.41,180.52Zm2.77,0a.92.92,0,1,0-.92.92A.93.93,0,0,0,302.18,180.52Z" style="fill:#fff"/><path d="M311.88,95.75h-3.24a.8.8,0,0,1,0-1.6h3.24a.8.8,0,1,1,0,1.6Zm.8,2.9a.8.8,0,0,0-.8-.8h-3.24a.8.8,0,0,0,0,1.6h3.24A.8.8,0,0,0,312.68,98.65Zm0,3.7a.8.8,0,0,0-.8-.8h-3.24a.8.8,0,0,0,0,1.6h3.24A.8.8,0,0,0,312.68,102.35Zm0,3.7a.8.8,0,0,0-.8-.8h-3.24a.8.8,0,0,0,0,1.6h3.24A.8.8,0,0,0,312.68,106.05Zm0,3.7a.8.8,0,0,0-.8-.8h-3.24a.8.8,0,0,0,0,1.59h3.24A.79.79,0,0,0,312.68,109.75Zm0,3.7a.8.8,0,0,0-.8-.8h-3.24a.8.8,0,0,0,0,1.59h3.24A.79.79,0,0,0,312.68,113.45Zm0,3.69a.79.79,0,0,0-.8-.79h-3.24a.79.79,0,0,0-.79.79.79.79,0,0,0,.79.8h3.24A.8.8,0,0,0,312.68,117.14Zm0,3.7a.8.8,0,0,0-.8-.8h-3.24a.8.8,0,0,0,0,1.6h3.24A.8.8,0,0,0,312.68,120.84ZM324.78,95a.79.79,0,0,0-.79-.8h-8.5a.8.8,0,0,0,0,1.6H324A.79.79,0,0,0,324.78,95Zm0,3.7a.79.79,0,0,0-.79-.8h-8.5a.8.8,0,0,0,0,1.6H324A.79.79,0,0,0,324.78,98.65Zm0,3.7a.79.79,0,0,0-.79-.8h-8.5a.8.8,0,1,0,0,1.6H324A.79.79,0,0,0,324.78,102.35Zm0,3.7a.79.79,0,0,0-.79-.8h-8.5a.8.8,0,0,0,0,1.6H324A.79.79,0,0,0,324.78,106.05Zm0,3.7a.79.79,0,0,0-.79-.8h-8.5a.8.8,0,1,0,0,1.59H324A.79.79,0,0,0,324.78,109.75Zm10.18,3.7a.8.8,0,0,0-.8-.8h-8.5a.8.8,0,1,0,0,1.59h8.5A.79.79,0,0,0,335,113.45Zm0,3.69a.79.79,0,0,0-.8-.79h-8.5a.79.79,0,0,0-.8.79.8.8,0,0,0,.8.8h8.5A.8.8,0,0,0,335,117.14Zm0,3.7a.8.8,0,0,0-.8-.8h-8.5a.8.8,0,0,0,0,1.6h8.5A.8.8,0,0,0,335,120.84ZM328.52,95a.93.93,0,0,0-1.85,0,.93.93,0,1,0,1.85,0Zm2.78,0a.93.93,0,1,0-.93.93A.93.93,0,0,0,331.3,95Zm2.77,0a.93.93,0,0,0-1.85,0,.93.93,0,1,0,1.85,0Zm2.77,0a.92.92,0,1,0-.92.93A.92.92,0,0,0,336.84,95Zm2.78,0a.93.93,0,1,0-.93.93A.93.93,0,0,0,339.62,95Zm2.77,0a.93.93,0,0,0-1.85,0,.93.93,0,1,0,1.85,0Zm-13.87,7.4a.93.93,0,1,0-.92.92A.93.93,0,0,0,328.52,102.35Zm2.78,0a.93.93,0,1,0-1.85,0,.93.93,0,0,0,1.85,0Zm2.77,0a.93.93,0,1,0-.92.92A.93.93,0,0,0,334.07,102.35Zm2.77,0a.92.92,0,1,0-.92.92A.93.93,0,0,0,336.84,102.35Zm2.78,0a.93.93,0,1,0-1.85,0,.93.93,0,0,0,1.85,0Zm2.77,0a.93.93,0,1,0-.92.92A.93.93,0,0,0,342.39,102.35ZM338,113a.93.93,0,0,0-1.85,0,.93.93,0,1,0,1.85,0Zm2.77,0a.93.93,0,0,0-1.85,0,.93.93,0,1,0,1.85,0Zm2.78,0a.93.93,0,1,0-.93.93A.93.93,0,0,0,343.55,113Zm2.77,0a.93.93,0,0,0-1.85,0,.93.93,0,1,0,1.85,0Zm2.78,0a.93.93,0,1,0-.93.93A.93.93,0,0,0,349.1,113Zm2.77,0a.93.93,0,1,0-.93.93A.92.92,0,0,0,351.87,113ZM338,120.61a.93.93,0,0,0-1.85,0,.93.93,0,1,0,1.85,0Zm2.77,0a.93.93,0,0,0-1.85,0,.93.93,0,1,0,1.85,0Zm2.78,0a.93.93,0,1,0-.93.93A.93.93,0,0,0,343.55,120.61Zm2.77,0a.93.93,0,0,0-1.85,0,.93.93,0,1,0,1.85,0Zm2.78,0a.93.93,0,1,0-.93.93A.93.93,0,0,0,349.1,120.61Zm2.77,0a.93.93,0,1,0-.93.93A.92.92,0,0,0,351.87,120.61Z" style="fill:#fff"/><path d="M311.88,126.06h-3.24a.8.8,0,0,1,0-1.6h3.24a.8.8,0,0,1,0,1.6Zm.8,2.9a.8.8,0,0,0-.8-.8h-3.24a.8.8,0,0,0,0,1.6h3.24A.8.8,0,0,0,312.68,129Zm0,3.7a.8.8,0,0,0-.8-.8h-3.24a.8.8,0,0,0,0,1.6h3.24A.8.8,0,0,0,312.68,132.66Zm0,3.7a.8.8,0,0,0-.8-.8h-3.24a.8.8,0,0,0,0,1.6h3.24A.8.8,0,0,0,312.68,136.36Zm0,3.7a.8.8,0,0,0-.8-.8h-3.24a.8.8,0,0,0,0,1.59h3.24A.79.79,0,0,0,312.68,140.06Zm0,3.7a.8.8,0,0,0-.8-.8h-3.24a.8.8,0,0,0,0,1.59h3.24A.79.79,0,0,0,312.68,143.76Zm0,3.69a.79.79,0,0,0-.8-.79h-3.24a.79.79,0,0,0-.79.79.79.79,0,0,0,.79.8h3.24A.8.8,0,0,0,312.68,147.45Zm0,3.7a.8.8,0,0,0-.8-.8h-3.24a.8.8,0,0,0,0,1.6h3.24A.8.8,0,0,0,312.68,151.15Zm12.1-25.89a.79.79,0,0,0-.79-.8h-8.5a.8.8,0,0,0,0,1.6H324A.79.79,0,0,0,324.78,125.26Zm0,3.7a.79.79,0,0,0-.79-.8h-8.5a.8.8,0,1,0,0,1.6H324A.79.79,0,0,0,324.78,129Zm0,3.7a.79.79,0,0,0-.79-.8h-8.5a.8.8,0,0,0,0,1.6H324A.79.79,0,0,0,324.78,132.66Zm0,3.7a.79.79,0,0,0-.79-.8h-8.5a.8.8,0,1,0,0,1.6H324A.79.79,0,0,0,324.78,136.36Zm0,3.7a.79.79,0,0,0-.79-.8h-8.5a.8.8,0,1,0,0,1.59H324A.79.79,0,0,0,324.78,140.06Zm10.18,3.7a.8.8,0,0,0-.8-.8h-8.5a.8.8,0,1,0,0,1.59h8.5A.79.79,0,0,0,335,143.76Zm0,3.69a.79.79,0,0,0-.8-.79h-8.5a.79.79,0,0,0-.8.79.8.8,0,0,0,.8.8h8.5A.8.8,0,0,0,335,147.45Zm0,3.7a.8.8,0,0,0-.8-.8h-8.5a.8.8,0,1,0,0,1.6h8.5A.8.8,0,0,0,335,151.15Zm-6.44-25.89a.93.93,0,0,0-1.85,0,.93.93,0,1,0,1.85,0Zm2.78,0a.93.93,0,1,0-.93.93A.93.93,0,0,0,331.3,125.26Zm2.77,0a.93.93,0,0,0-1.85,0,.93.93,0,1,0,1.85,0Zm2.77,0a.92.92,0,1,0-.92.93A.92.92,0,0,0,336.84,125.26Zm2.78,0a.93.93,0,1,0-.93.93A.93.93,0,0,0,339.62,125.26Zm2.77,0a.93.93,0,0,0-1.85,0,.93.93,0,1,0,1.85,0Zm-13.87,7.4a.93.93,0,1,0-.92.92A.93.93,0,0,0,328.52,132.66Zm2.78,0a.93.93,0,1,0-1.85,0,.93.93,0,0,0,1.85,0Zm2.77,0a.93.93,0,1,0-.92.92A.93.93,0,0,0,334.07,132.66Zm2.77,0a.92.92,0,1,0-.92.92A.93.93,0,0,0,336.84,132.66Zm2.78,0a.93.93,0,1,0-1.85,0,.93.93,0,0,0,1.85,0Zm2.77,0a.93.93,0,1,0-.92.92A.93.93,0,0,0,342.39,132.66ZM338,143.29a.93.93,0,0,0-1.85,0,.93.93,0,1,0,1.85,0Zm2.77,0a.93.93,0,0,0-1.85,0,.93.93,0,1,0,1.85,0Zm2.78,0a.93.93,0,1,0-.93.93A.93.93,0,0,0,343.55,143.29Zm2.77,0a.93.93,0,0,0-1.85,0,.93.93,0,1,0,1.85,0Zm2.78,0a.93.93,0,1,0-.93.93A.93.93,0,0,0,349.1,143.29Zm2.77,0a.93.93,0,1,0-.93.93A.92.92,0,0,0,351.87,143.29ZM338,150.92a.93.93,0,0,0-1.85,0,.93.93,0,1,0,1.85,0Zm2.77,0a.93.93,0,0,0-1.85,0,.93.93,0,1,0,1.85,0Zm2.78,0a.93.93,0,1,0-.93.93A.93.93,0,0,0,343.55,150.92Zm2.77,0a.93.93,0,0,0-1.85,0,.93.93,0,1,0,1.85,0Zm2.78,0a.93.93,0,1,0-.93.93A.93.93,0,0,0,349.1,150.92Zm2.77,0a.93.93,0,1,0-.93.93A.92.92,0,0,0,351.87,150.92Z" style="fill:#fff"/><path d="M153.26,28.52H150a.8.8,0,0,1,0-1.6h3.24a.8.8,0,0,1,0,1.6Zm.79,2.9a.79.79,0,0,0-.79-.8H150a.8.8,0,1,0,0,1.6h3.24A.79.79,0,0,0,154.05,31.42Zm0,3.7a.79.79,0,0,0-.79-.8H150a.8.8,0,0,0,0,1.6h3.24A.79.79,0,0,0,154.05,35.12Zm0,3.7a.79.79,0,0,0-.79-.8H150a.8.8,0,0,0-.8.8.79.79,0,0,0,.8.79h3.24A.79.79,0,0,0,154.05,38.82Zm0,3.7a.79.79,0,0,0-.79-.8H150a.8.8,0,1,0,0,1.59h3.24A.79.79,0,0,0,154.05,42.52Zm0,3.69a.79.79,0,0,0-.79-.79H150A.8.8,0,1,0,150,47h3.24A.79.79,0,0,0,154.05,46.21Zm0,3.7a.79.79,0,0,0-.79-.8H150a.8.8,0,0,0,0,1.6h3.24A.79.79,0,0,0,154.05,49.91Zm0,3.7a.79.79,0,0,0-.79-.8H150a.8.8,0,1,0,0,1.6h3.24A.79.79,0,0,0,154.05,53.61Zm12.11-25.89a.8.8,0,0,0-.8-.8h-8.49a.8.8,0,0,0,0,1.6h8.49A.8.8,0,0,0,166.16,27.72Zm0,3.7a.8.8,0,0,0-.8-.8h-8.49a.8.8,0,1,0,0,1.6h8.49A.8.8,0,0,0,166.16,31.42Zm0,3.7a.8.8,0,0,0-.8-.8h-8.49a.8.8,0,0,0,0,1.6h8.49A.8.8,0,0,0,166.16,35.12Zm0,3.7a.8.8,0,0,0-.8-.8h-8.49a.8.8,0,0,0-.8.8.79.79,0,0,0,.8.79h8.49A.79.79,0,0,0,166.16,38.82Zm0,3.7a.8.8,0,0,0-.8-.8h-8.49a.8.8,0,1,0,0,1.59h8.49A.79.79,0,0,0,166.16,42.52Zm10.17,3.69a.79.79,0,0,0-.8-.79H167A.8.8,0,1,0,167,47h8.49A.8.8,0,0,0,176.33,46.21Zm0,3.7a.8.8,0,0,0-.8-.8H167a.8.8,0,1,0,0,1.6h8.49A.8.8,0,0,0,176.33,49.91Zm0,3.7a.8.8,0,0,0-.8-.8H167a.8.8,0,0,0,0,1.6h8.49A.8.8,0,0,0,176.33,53.61ZM169.9,27.72a.93.93,0,1,0-.93.93A.92.92,0,0,0,169.9,27.72Zm2.77,0a.93.93,0,0,0-1.85,0,.93.93,0,1,0,1.85,0Zm2.78,0a.93.93,0,1,0-.93.93A.93.93,0,0,0,175.45,27.72Zm2.77,0a.93.93,0,0,0-1.85,0,.93.93,0,1,0,1.85,0Zm2.77,0a.92.92,0,1,0-.92.93A.92.92,0,0,0,181,27.72Zm2.78,0a.93.93,0,1,0-.93.93A.93.93,0,0,0,183.77,27.72Zm-13.87,7.4a.93.93,0,1,0-1.85,0,.93.93,0,0,0,1.85,0Zm2.77,0a.93.93,0,1,0-.92.92A.93.93,0,0,0,172.67,35.12Zm2.78,0a.93.93,0,1,0-1.85,0,.93.93,0,0,0,1.85,0Zm2.77,0a.93.93,0,1,0-.92.92A.93.93,0,0,0,178.22,35.12Zm2.77,0a.92.92,0,1,0-.92.92A.93.93,0,0,0,181,35.12Zm2.78,0a.93.93,0,1,0-1.85,0,.93.93,0,0,0,1.85,0Zm-4.39,10.63a.93.93,0,1,0-.93.93A.93.93,0,0,0,179.38,45.75Zm2.77,0a.93.93,0,0,0-1.85,0,.93.93,0,1,0,1.85,0Zm2.77,0a.93.93,0,0,0-1.85,0,.93.93,0,1,0,1.85,0Zm2.78,0a.93.93,0,1,0-.93.93A.93.93,0,0,0,187.7,45.75Zm2.77,0a.93.93,0,0,0-1.85,0,.93.93,0,1,0,1.85,0Zm2.78,0a.93.93,0,1,0-.93.93A.93.93,0,0,0,193.25,45.75Zm-13.87,7.63a.93.93,0,1,0-1.85,0,.93.93,0,0,0,1.85,0Zm2.77,0a.93.93,0,1,0-.92.92A.93.93,0,0,0,182.15,53.38Zm2.77,0a.93.93,0,1,0-.92.92A.93.93,0,0,0,184.92,53.38Zm2.78,0a.93.93,0,1,0-1.85,0,.93.93,0,0,0,1.85,0Zm2.77,0a.93.93,0,1,0-.92.92A.93.93,0,0,0,190.47,53.38Zm2.78,0a.93.93,0,1,0-1.85,0,.93.93,0,0,0,1.85,0Z" style="fill:#fff"/><path d="M153.26,58.12H150a.8.8,0,1,1,0-1.6h3.24a.8.8,0,0,1,0,1.6Zm.79,2.9a.79.79,0,0,0-.79-.8H150a.8.8,0,1,0,0,1.59h3.24A.79.79,0,0,0,154.05,61Zm0,3.69a.79.79,0,0,0-.79-.79H150a.79.79,0,0,0-.8.79.8.8,0,0,0,.8.8h3.24A.79.79,0,0,0,154.05,64.71Zm0,3.7a.79.79,0,0,0-.79-.8H150a.8.8,0,1,0,0,1.6h3.24A.79.79,0,0,0,154.05,68.41Zm0,3.7a.79.79,0,0,0-.79-.8H150a.8.8,0,1,0,0,1.6h3.24A.79.79,0,0,0,154.05,72.11Zm0,3.7a.79.79,0,0,0-.79-.8H150a.8.8,0,1,0,0,1.6h3.24A.79.79,0,0,0,154.05,75.81Zm0,3.7a.79.79,0,0,0-.79-.8H150a.8.8,0,1,0,0,1.6h3.24A.79.79,0,0,0,154.05,79.51Zm0,3.7a.79.79,0,0,0-.79-.8H150a.8.8,0,0,0-.8.8.79.79,0,0,0,.8.79h3.24A.79.79,0,0,0,154.05,83.21Zm12.11-25.89a.8.8,0,0,0-.8-.8h-8.49a.8.8,0,1,0,0,1.6h8.49A.8.8,0,0,0,166.16,57.32Zm0,3.7a.8.8,0,0,0-.8-.8h-8.49a.8.8,0,1,0,0,1.59h8.49A.79.79,0,0,0,166.16,61Zm0,3.69a.79.79,0,0,0-.8-.79h-8.49a.79.79,0,0,0-.8.79.8.8,0,0,0,.8.8h8.49A.8.8,0,0,0,166.16,64.71Zm0,3.7a.8.8,0,0,0-.8-.8h-8.49a.8.8,0,1,0,0,1.6h8.49A.8.8,0,0,0,166.16,68.41Zm0,3.7a.8.8,0,0,0-.8-.8h-8.49a.8.8,0,1,0,0,1.6h8.49A.8.8,0,0,0,166.16,72.11Zm10.17,3.7a.8.8,0,0,0-.8-.8H167a.8.8,0,0,0,0,1.6h8.49A.8.8,0,0,0,176.33,75.81Zm0,3.7a.8.8,0,0,0-.8-.8H167a.8.8,0,0,0,0,1.6h8.49A.8.8,0,0,0,176.33,79.51Zm0,3.7a.8.8,0,0,0-.8-.8H167a.8.8,0,0,0-.8.8.79.79,0,0,0,.8.79h8.49A.79.79,0,0,0,176.33,83.21ZM169.9,57.32a.93.93,0,1,0-1.85,0,.93.93,0,0,0,1.85,0Zm2.77,0a.93.93,0,1,0-.92.92A.93.93,0,0,0,172.67,57.32Zm2.78,0a.93.93,0,1,0-1.85,0,.93.93,0,0,0,1.85,0Zm2.77,0a.93.93,0,1,0-.92.92A.93.93,0,0,0,178.22,57.32Zm2.77,0a.92.92,0,1,0-.92.92A.93.93,0,0,0,181,57.32Zm2.78,0a.93.93,0,1,0-1.85,0,.93.93,0,0,0,1.85,0ZM169.9,64.71a.93.93,0,1,0-.93.93A.92.92,0,0,0,169.9,64.71Zm2.77,0a.93.93,0,0,0-1.85,0,.93.93,0,1,0,1.85,0Zm2.78,0a.93.93,0,1,0-.93.93A.93.93,0,0,0,175.45,64.71Zm2.77,0a.93.93,0,0,0-1.85,0,.93.93,0,1,0,1.85,0Zm2.77,0a.92.92,0,1,0-.92.93A.92.92,0,0,0,181,64.71Zm2.78,0a.93.93,0,1,0-.93.93A.93.93,0,0,0,183.77,64.71Zm-4.39,10.64a.93.93,0,1,0-1.85,0,.93.93,0,0,0,1.85,0Zm2.77,0a.93.93,0,1,0-.92.92A.93.93,0,0,0,182.15,75.35Zm2.77,0a.93.93,0,1,0-.92.92A.93.93,0,0,0,184.92,75.35Zm2.78,0a.93.93,0,1,0-1.85,0,.93.93,0,0,0,1.85,0Zm2.77,0a.93.93,0,1,0-.92.92A.93.93,0,0,0,190.47,75.35Zm2.78,0a.93.93,0,1,0-1.85,0,.93.93,0,0,0,1.85,0ZM179.38,83a.93.93,0,1,0-.93.93A.93.93,0,0,0,179.38,83Zm2.77,0a.93.93,0,1,0-.92.93A.92.92,0,0,0,182.15,83Zm2.77,0a.93.93,0,0,0-1.85,0,.93.93,0,1,0,1.85,0Zm2.78,0a.93.93,0,1,0-.93.93A.93.93,0,0,0,187.7,83Zm2.77,0a.93.93,0,0,0-1.85,0,.93.93,0,1,0,1.85,0Zm2.78,0a.93.93,0,1,0-.93.93A.93.93,0,0,0,193.25,83Z" style="fill:#fff"/><path d="M153.26,88.42H150a.79.79,0,0,1-.8-.79.8.8,0,0,1,.8-.8h3.24a.79.79,0,0,1,.79.8A.79.79,0,0,1,153.26,88.42Zm.79,2.91a.79.79,0,0,0-.79-.8H150a.8.8,0,1,0,0,1.59h3.24A.79.79,0,0,0,154.05,91.33Zm0,3.69a.79.79,0,0,0-.79-.79H150a.79.79,0,0,0-.8.79.8.8,0,0,0,.8.8h3.24A.79.79,0,0,0,154.05,95Zm0,3.7a.79.79,0,0,0-.79-.8H150a.8.8,0,1,0,0,1.6h3.24A.79.79,0,0,0,154.05,98.72Zm0,3.7a.79.79,0,0,0-.79-.8H150a.8.8,0,1,0,0,1.6h3.24A.79.79,0,0,0,154.05,102.42Zm0,3.7a.79.79,0,0,0-.79-.8H150a.8.8,0,1,0,0,1.6h3.24A.79.79,0,0,0,154.05,106.12Zm0,3.7a.79.79,0,0,0-.79-.8H150a.8.8,0,0,0,0,1.6h3.24A.79.79,0,0,0,154.05,109.82Zm0,3.7a.79.79,0,0,0-.79-.8H150a.8.8,0,1,0,0,1.59h3.24A.79.79,0,0,0,154.05,113.52Zm12.11-25.89a.8.8,0,0,0-.8-.8h-8.49a.8.8,0,0,0-.8.8.79.79,0,0,0,.8.79h8.49A.79.79,0,0,0,166.16,87.63Zm0,3.7a.8.8,0,0,0-.8-.8h-8.49a.8.8,0,1,0,0,1.59h8.49A.79.79,0,0,0,166.16,91.33Zm0,3.69a.79.79,0,0,0-.8-.79h-8.49a.79.79,0,0,0-.8.79.8.8,0,0,0,.8.8h8.49A.8.8,0,0,0,166.16,95Zm0,3.7a.8.8,0,0,0-.8-.8h-8.49a.8.8,0,1,0,0,1.6h8.49A.8.8,0,0,0,166.16,98.72Zm0,3.7a.8.8,0,0,0-.8-.8h-8.49a.8.8,0,0,0,0,1.6h8.49A.8.8,0,0,0,166.16,102.42Zm10.17,3.7a.8.8,0,0,0-.8-.8H167a.8.8,0,1,0,0,1.6h8.49A.8.8,0,0,0,176.33,106.12Zm0,3.7a.8.8,0,0,0-.8-.8H167a.8.8,0,0,0,0,1.6h8.49A.8.8,0,0,0,176.33,109.82Zm0,3.7a.8.8,0,0,0-.8-.8H167a.8.8,0,1,0,0,1.59h8.49A.79.79,0,0,0,176.33,113.52ZM169.9,87.63a.93.93,0,1,0-1.85,0,.93.93,0,0,0,1.85,0Zm2.77,0a.93.93,0,1,0-.92.92A.93.93,0,0,0,172.67,87.63Zm2.78,0a.93.93,0,1,0-1.85,0,.93.93,0,0,0,1.85,0Zm2.77,0a.93.93,0,1,0-.92.92A.93.93,0,0,0,178.22,87.63Zm2.77,0a.92.92,0,1,0-.92.92A.93.93,0,0,0,181,87.63Zm2.78,0a.93.93,0,1,0-1.85,0,.93.93,0,0,0,1.85,0ZM169.9,95A.93.93,0,1,0,169,96,.92.92,0,0,0,169.9,95Zm2.77,0a.93.93,0,0,0-1.85,0,.93.93,0,1,0,1.85,0Zm2.78,0a.93.93,0,1,0-.93.93A.93.93,0,0,0,175.45,95Zm2.77,0a.93.93,0,0,0-1.85,0,.93.93,0,1,0,1.85,0ZM181,95a.92.92,0,1,0-.92.93A.92.92,0,0,0,181,95Zm2.78,0a.93.93,0,1,0-.93.93A.93.93,0,0,0,183.77,95Zm-4.39,10.64a.93.93,0,1,0-1.85,0,.93.93,0,0,0,1.85,0Zm2.77,0a.93.93,0,1,0-.92.92A.93.93,0,0,0,182.15,105.66Zm2.77,0a.93.93,0,1,0-.92.92A.93.93,0,0,0,184.92,105.66Zm2.78,0a.93.93,0,1,0-1.85,0,.93.93,0,0,0,1.85,0Zm2.77,0a.93.93,0,1,0-.92.92A.93.93,0,0,0,190.47,105.66Zm2.78,0a.93.93,0,1,0-1.85,0,.93.93,0,0,0,1.85,0Zm-13.87,7.62a.93.93,0,1,0-.93.93A.93.93,0,0,0,179.38,113.28Zm2.77,0a.93.93,0,1,0-.92.93A.92.92,0,0,0,182.15,113.28Zm2.77,0a.93.93,0,0,0-1.85,0,.93.93,0,1,0,1.85,0Zm2.78,0a.93.93,0,1,0-.93.93A.93.93,0,0,0,187.7,113.28Zm2.77,0a.93.93,0,0,0-1.85,0,.93.93,0,1,0,1.85,0Zm2.78,0a.93.93,0,1,0-.93.93A.93.93,0,0,0,193.25,113.28Z" style="fill:#fff"/><path d="M202.94,28.52H199.7a.8.8,0,0,1,0-1.6h3.24a.8.8,0,1,1,0,1.6Zm.8,2.9a.8.8,0,0,0-.8-.8H199.7a.8.8,0,0,0,0,1.6h3.24A.8.8,0,0,0,203.74,31.42Zm0,3.7a.8.8,0,0,0-.8-.8H199.7a.8.8,0,0,0,0,1.6h3.24A.8.8,0,0,0,203.74,35.12Zm0,3.7a.8.8,0,0,0-.8-.8H199.7a.79.79,0,0,0-.79.8.79.79,0,0,0,.79.79h3.24A.79.79,0,0,0,203.74,38.82Zm0,3.7a.8.8,0,0,0-.8-.8H199.7a.8.8,0,0,0,0,1.59h3.24A.79.79,0,0,0,203.74,42.52Zm0,3.69a.79.79,0,0,0-.8-.79H199.7a.8.8,0,0,0,0,1.59h3.24A.8.8,0,0,0,203.74,46.21Zm0,3.7a.8.8,0,0,0-.8-.8H199.7a.8.8,0,0,0,0,1.6h3.24A.8.8,0,0,0,203.74,49.91Zm0,3.7a.8.8,0,0,0-.8-.8H199.7a.8.8,0,0,0,0,1.6h3.24A.8.8,0,0,0,203.74,53.61Zm12.11-25.89a.8.8,0,0,0-.8-.8h-8.5a.8.8,0,0,0,0,1.6h8.5A.8.8,0,0,0,215.85,27.72Zm0,3.7a.8.8,0,0,0-.8-.8h-8.5a.8.8,0,0,0,0,1.6h8.5A.8.8,0,0,0,215.85,31.42Zm0,3.7a.8.8,0,0,0-.8-.8h-8.5a.8.8,0,1,0,0,1.6h8.5A.8.8,0,0,0,215.85,35.12Zm0,3.7a.8.8,0,0,0-.8-.8h-8.5a.8.8,0,0,0-.8.8.79.79,0,0,0,.8.79h8.5A.79.79,0,0,0,215.85,38.82Zm0,3.7a.8.8,0,0,0-.8-.8h-8.5a.8.8,0,1,0,0,1.59h8.5A.79.79,0,0,0,215.85,42.52ZM226,46.21a.79.79,0,0,0-.8-.79h-8.5a.8.8,0,1,0,0,1.59h8.5A.8.8,0,0,0,226,46.21Zm0,3.7a.8.8,0,0,0-.8-.8h-8.5a.8.8,0,1,0,0,1.6h8.5A.8.8,0,0,0,226,49.91Zm0,3.7a.8.8,0,0,0-.8-.8h-8.5a.8.8,0,0,0,0,1.6h8.5A.8.8,0,0,0,226,53.61Zm-6.44-25.89a.93.93,0,0,0-1.85,0,.93.93,0,1,0,1.85,0Zm2.78,0a.93.93,0,1,0-.93.93A.93.93,0,0,0,222.36,27.72Zm2.77,0a.93.93,0,0,0-1.85,0,.93.93,0,1,0,1.85,0Zm2.78,0a.93.93,0,1,0-.93.93A.93.93,0,0,0,227.91,27.72Zm2.77,0a.93.93,0,1,0-.93.93A.92.92,0,0,0,230.68,27.72Zm2.77,0a.93.93,0,0,0-1.85,0,.93.93,0,1,0,1.85,0Zm-13.87,7.4a.93.93,0,1,0-.92.92A.93.93,0,0,0,219.58,35.12Zm2.78,0a.93.93,0,1,0-1.85,0,.93.93,0,0,0,1.85,0Zm2.77,0a.93.93,0,1,0-.92.92A.93.93,0,0,0,225.13,35.12Zm2.78,0a.93.93,0,1,0-1.85,0,.93.93,0,0,0,1.85,0Zm2.77,0a.93.93,0,1,0-1.85,0,.93.93,0,0,0,1.85,0Zm2.77,0a.93.93,0,1,0-.92.92A.93.93,0,0,0,233.45,35.12Zm-4.39,10.63a.93.93,0,0,0-1.85,0,.93.93,0,1,0,1.85,0Zm2.77,0a.92.92,0,1,0-.92.93A.92.92,0,0,0,231.83,45.75Zm2.78,0a.93.93,0,1,0-.93.93A.93.93,0,0,0,234.61,45.75Zm2.77,0a.93.93,0,0,0-1.85,0,.93.93,0,1,0,1.85,0Zm2.78,0a.93.93,0,1,0-.93.93A.93.93,0,0,0,240.16,45.75Zm2.77,0a.93.93,0,0,0-1.85,0,.93.93,0,1,0,1.85,0Zm-13.87,7.63a.93.93,0,1,0-.92.92A.93.93,0,0,0,229.06,53.38Zm2.77,0a.92.92,0,1,0-.92.92A.93.93,0,0,0,231.83,53.38Zm2.78,0a.93.93,0,1,0-1.85,0,.93.93,0,0,0,1.85,0Zm2.77,0a.93.93,0,1,0-.92.92A.93.93,0,0,0,237.38,53.38Zm2.78,0a.93.93,0,1,0-1.85,0,.93.93,0,0,0,1.85,0Zm2.77,0a.93.93,0,1,0-.92.92A.93.93,0,0,0,242.93,53.38Z" style="fill:#fff"/><path d="M202.94,58.83H199.7a.8.8,0,0,1,0-1.6h3.24a.8.8,0,0,1,0,1.6Zm.8,2.9a.8.8,0,0,0-.8-.8H199.7a.8.8,0,0,0,0,1.6h3.24A.8.8,0,0,0,203.74,61.73Zm0,3.7a.8.8,0,0,0-.8-.8H199.7a.8.8,0,0,0,0,1.6h3.24A.8.8,0,0,0,203.74,65.43Zm0,3.7a.8.8,0,0,0-.8-.8H199.7a.79.79,0,0,0-.79.8.79.79,0,0,0,.79.79h3.24A.79.79,0,0,0,203.74,69.13Zm0,3.69a.79.79,0,0,0-.8-.79H199.7a.8.8,0,0,0,0,1.59h3.24A.8.8,0,0,0,203.74,72.82Zm0,3.7a.79.79,0,0,0-.8-.79H199.7a.8.8,0,0,0,0,1.59h3.24A.8.8,0,0,0,203.74,76.52Zm0,3.7a.8.8,0,0,0-.8-.8H199.7a.8.8,0,0,0,0,1.6h3.24A.8.8,0,0,0,203.74,80.22Zm0,3.7a.8.8,0,0,0-.8-.8H199.7a.8.8,0,0,0,0,1.6h3.24A.8.8,0,0,0,203.74,83.92ZM215.85,58a.8.8,0,0,0-.8-.8h-8.5a.8.8,0,0,0,0,1.6h8.5A.8.8,0,0,0,215.85,58Zm0,3.7a.8.8,0,0,0-.8-.8h-8.5a.8.8,0,1,0,0,1.6h8.5A.8.8,0,0,0,215.85,61.73Zm0,3.7a.8.8,0,0,0-.8-.8h-8.5a.8.8,0,0,0,0,1.6h8.5A.8.8,0,0,0,215.85,65.43Zm0,3.7a.8.8,0,0,0-.8-.8h-8.5a.8.8,0,0,0-.8.8.79.79,0,0,0,.8.79h8.5A.79.79,0,0,0,215.85,69.13Zm0,3.69a.79.79,0,0,0-.8-.79h-8.5a.8.8,0,1,0,0,1.59h8.5A.8.8,0,0,0,215.85,72.82ZM226,76.52a.79.79,0,0,0-.8-.79h-8.5a.8.8,0,1,0,0,1.59h8.5A.8.8,0,0,0,226,76.52Zm0,3.7a.8.8,0,0,0-.8-.8h-8.5a.8.8,0,0,0,0,1.6h8.5A.8.8,0,0,0,226,80.22Zm0,3.7a.8.8,0,0,0-.8-.8h-8.5a.8.8,0,0,0,0,1.6h8.5A.8.8,0,0,0,226,83.92ZM219.58,58a.93.93,0,0,0-1.85,0,.93.93,0,1,0,1.85,0Zm2.78,0a.93.93,0,1,0-.93.93A.93.93,0,0,0,222.36,58Zm2.77,0a.93.93,0,0,0-1.85,0,.93.93,0,1,0,1.85,0Zm2.78,0A.93.93,0,1,0,227,59,.93.93,0,0,0,227.91,58Zm2.77,0a.93.93,0,1,0-.93.93A.92.92,0,0,0,230.68,58Zm2.77,0a.93.93,0,0,0-1.85,0,.93.93,0,1,0,1.85,0Zm-13.87,7.4a.93.93,0,1,0-.92.92A.93.93,0,0,0,219.58,65.43Zm2.78,0a.93.93,0,1,0-1.85,0,.93.93,0,0,0,1.85,0Zm2.77,0a.93.93,0,1,0-.92.92A.93.93,0,0,0,225.13,65.43Zm2.78,0a.93.93,0,1,0-1.85,0,.93.93,0,0,0,1.85,0Zm2.77,0a.93.93,0,1,0-1.85,0,.93.93,0,0,0,1.85,0Zm2.77,0a.93.93,0,1,0-.92.92A.93.93,0,0,0,233.45,65.43Zm-4.39,10.63a.93.93,0,0,0-1.85,0,.93.93,0,1,0,1.85,0Zm2.77,0a.92.92,0,1,0-.92.93A.92.92,0,0,0,231.83,76.06Zm2.78,0a.93.93,0,1,0-.93.93A.93.93,0,0,0,234.61,76.06Zm2.77,0a.93.93,0,0,0-1.85,0,.93.93,0,1,0,1.85,0Zm2.78,0a.93.93,0,1,0-.93.93A.93.93,0,0,0,240.16,76.06Zm2.77,0a.93.93,0,0,0-1.85,0,.93.93,0,1,0,1.85,0Zm-13.87,7.63a.93.93,0,1,0-.92.92A.93.93,0,0,0,229.06,83.69Zm2.77,0a.92.92,0,1,0-.92.92A.93.93,0,0,0,231.83,83.69Zm2.78,0a.93.93,0,1,0-1.85,0,.93.93,0,0,0,1.85,0Zm2.77,0a.93.93,0,1,0-.92.92A.93.93,0,0,0,237.38,83.69Zm2.78,0a.93.93,0,1,0-1.85,0,.93.93,0,0,0,1.85,0Zm2.77,0a.93.93,0,1,0-.92.92A.93.93,0,0,0,242.93,83.69Z" style="fill:#fff"/><path d="M43.85,95.75H40.62a.8.8,0,1,1,0-1.6h3.23a.8.8,0,1,1,0,1.6Zm.8,2.9a.8.8,0,0,0-.8-.8H40.62a.8.8,0,0,0,0,1.6h3.23A.8.8,0,0,0,44.65,98.65Zm0,3.7a.8.8,0,0,0-.8-.8H40.62a.8.8,0,0,0,0,1.6h3.23A.8.8,0,0,0,44.65,102.35Zm0,3.7a.8.8,0,0,0-.8-.8H40.62a.8.8,0,1,0,0,1.6h3.23A.8.8,0,0,0,44.65,106.05Zm0,3.7a.8.8,0,0,0-.8-.8H40.62a.8.8,0,1,0,0,1.59h3.23A.79.79,0,0,0,44.65,109.75Zm0,3.7a.8.8,0,0,0-.8-.8H40.62a.8.8,0,1,0,0,1.59h3.23A.79.79,0,0,0,44.65,113.45Zm0,3.69a.79.79,0,0,0-.8-.79H40.62a.79.79,0,0,0-.8.79.8.8,0,0,0,.8.8h3.23A.8.8,0,0,0,44.65,117.14Zm0,3.7a.8.8,0,0,0-.8-.8H40.62a.8.8,0,0,0,0,1.6h3.23A.8.8,0,0,0,44.65,120.84ZM56.76,95a.8.8,0,0,0-.8-.8h-8.5a.8.8,0,0,0,0,1.6H56A.8.8,0,0,0,56.76,95Zm0,3.7a.8.8,0,0,0-.8-.8h-8.5a.8.8,0,0,0,0,1.6H56A.8.8,0,0,0,56.76,98.65Zm0,3.7a.8.8,0,0,0-.8-.8h-8.5a.8.8,0,0,0,0,1.6H56A.8.8,0,0,0,56.76,102.35Zm0,3.7a.8.8,0,0,0-.8-.8h-8.5a.8.8,0,0,0,0,1.6H56A.8.8,0,0,0,56.76,106.05Zm0,3.7a.8.8,0,0,0-.8-.8h-8.5a.8.8,0,0,0,0,1.59H56A.79.79,0,0,0,56.76,109.75Zm10.17,3.7a.8.8,0,0,0-.8-.8h-8.5a.8.8,0,0,0,0,1.59h8.5A.79.79,0,0,0,66.93,113.45Zm0,3.69a.79.79,0,0,0-.8-.79h-8.5a.79.79,0,0,0-.79.79.79.79,0,0,0,.79.8h8.5A.8.8,0,0,0,66.93,117.14Zm0,3.7a.8.8,0,0,0-.8-.8h-8.5a.8.8,0,0,0,0,1.6h8.5A.8.8,0,0,0,66.93,120.84ZM60.5,95a.93.93,0,1,0-.93.93A.93.93,0,0,0,60.5,95Zm2.77,0a.93.93,0,1,0-.93.93A.92.92,0,0,0,63.27,95ZM66,95a.93.93,0,0,0-1.85,0A.93.93,0,1,0,66,95Zm2.78,0a.93.93,0,1,0-.93.93A.93.93,0,0,0,68.82,95Zm2.77,0a.93.93,0,0,0-1.85,0,.93.93,0,1,0,1.85,0Zm2.77,0a.92.92,0,1,0-.92.93A.92.92,0,0,0,74.36,95Zm-13.86,7.4a.93.93,0,1,0-1.85,0,.93.93,0,0,0,1.85,0Zm2.77,0a.93.93,0,1,0-1.85,0,.93.93,0,0,0,1.85,0Zm2.77,0a.93.93,0,1,0-.92.92A.93.93,0,0,0,66,102.35Zm2.78,0a.93.93,0,1,0-1.85,0,.93.93,0,0,0,1.85,0Zm2.77,0a.93.93,0,1,0-.92.92A.93.93,0,0,0,71.59,102.35Zm2.77,0a.92.92,0,1,0-.92.92A.93.93,0,0,0,74.36,102.35ZM70,113a.93.93,0,0,0-1.85,0A.93.93,0,1,0,70,113Zm2.78,0a.93.93,0,1,0-.93.93A.93.93,0,0,0,72.75,113Zm2.77,0a.93.93,0,0,0-1.85,0,.93.93,0,1,0,1.85,0Zm2.77,0a.93.93,0,0,0-1.85,0,.93.93,0,1,0,1.85,0Zm2.78,0a.93.93,0,1,0-.93.93A.93.93,0,0,0,81.07,113Zm2.77,0A.93.93,0,0,0,82,113a.93.93,0,1,0,1.85,0ZM70,120.61a.93.93,0,0,0-1.85,0,.93.93,0,1,0,1.85,0Zm2.78,0a.93.93,0,1,0-.93.93A.93.93,0,0,0,72.75,120.61Zm2.77,0a.93.93,0,0,0-1.85,0,.93.93,0,1,0,1.85,0Zm2.77,0a.93.93,0,0,0-1.85,0,.93.93,0,1,0,1.85,0Zm2.78,0a.93.93,0,1,0-.93.93A.93.93,0,0,0,81.07,120.61Zm2.77,0a.93.93,0,0,0-1.85,0,.93.93,0,1,0,1.85,0Z" style="fill:#fff"/><path d="M43.85,125.35H40.62a.8.8,0,1,1,0-1.6h3.23a.8.8,0,1,1,0,1.6Zm.8,2.9a.8.8,0,0,0-.8-.8H40.62a.8.8,0,0,0-.8.8.79.79,0,0,0,.8.79h3.23A.79.79,0,0,0,44.65,128.25Zm0,3.69a.79.79,0,0,0-.8-.79H40.62a.8.8,0,1,0,0,1.59h3.23A.8.8,0,0,0,44.65,131.94Zm0,3.7a.8.8,0,0,0-.8-.8H40.62a.8.8,0,0,0,0,1.6h3.23A.8.8,0,0,0,44.65,135.64Zm0,3.7a.8.8,0,0,0-.8-.8H40.62a.8.8,0,1,0,0,1.6h3.23A.8.8,0,0,0,44.65,139.34Zm0,3.7a.8.8,0,0,0-.8-.8H40.62a.8.8,0,0,0,0,1.6h3.23A.8.8,0,0,0,44.65,143Zm0,3.7a.8.8,0,0,0-.8-.8H40.62a.8.8,0,1,0,0,1.6h3.23A.8.8,0,0,0,44.65,146.74Zm0,3.7a.8.8,0,0,0-.8-.8H40.62a.8.8,0,0,0,0,1.6h3.23A.8.8,0,0,0,44.65,150.44Zm12.11-25.89a.8.8,0,0,0-.8-.8h-8.5a.8.8,0,0,0,0,1.6H56A.8.8,0,0,0,56.76,124.55Zm0,3.7a.8.8,0,0,0-.8-.8h-8.5a.79.79,0,0,0-.79.8.79.79,0,0,0,.79.79H56A.79.79,0,0,0,56.76,128.25Zm0,3.69a.79.79,0,0,0-.8-.79h-8.5a.8.8,0,0,0,0,1.59H56A.8.8,0,0,0,56.76,131.94Zm0,3.7a.8.8,0,0,0-.8-.8h-8.5a.8.8,0,0,0,0,1.6H56A.8.8,0,0,0,56.76,135.64Zm0,3.7a.8.8,0,0,0-.8-.8h-8.5a.8.8,0,0,0,0,1.6H56A.8.8,0,0,0,56.76,139.34ZM66.93,143a.8.8,0,0,0-.8-.8h-8.5a.8.8,0,0,0,0,1.6h8.5A.8.8,0,0,0,66.93,143Zm0,3.7a.8.8,0,0,0-.8-.8h-8.5a.8.8,0,0,0,0,1.6h8.5A.8.8,0,0,0,66.93,146.74Zm0,3.7a.8.8,0,0,0-.8-.8h-8.5a.8.8,0,0,0,0,1.6h8.5A.8.8,0,0,0,66.93,150.44ZM60.5,124.55a.93.93,0,1,0-1.85,0,.93.93,0,0,0,1.85,0Zm2.77,0a.93.93,0,1,0-1.85,0,.93.93,0,0,0,1.85,0Zm2.77,0a.93.93,0,1,0-.92.92A.93.93,0,0,0,66,124.55Zm2.78,0a.93.93,0,1,0-1.85,0,.93.93,0,0,0,1.85,0Zm2.77,0a.93.93,0,1,0-.92.92A.93.93,0,0,0,71.59,124.55Zm2.77,0a.92.92,0,1,0-.92.92A.93.93,0,0,0,74.36,124.55ZM60.5,131.94a.93.93,0,1,0-.93.93A.93.93,0,0,0,60.5,131.94Zm2.77,0a.93.93,0,1,0-.93.93A.92.92,0,0,0,63.27,131.94Zm2.77,0a.93.93,0,0,0-1.85,0,.93.93,0,1,0,1.85,0Zm2.78,0a.93.93,0,1,0-.93.93A.93.93,0,0,0,68.82,131.94Zm2.77,0a.93.93,0,0,0-1.85,0,.93.93,0,1,0,1.85,0Zm2.77,0a.92.92,0,1,0-.92.93A.92.92,0,0,0,74.36,131.94ZM70,142.58a.93.93,0,1,0-.92.92A.93.93,0,0,0,70,142.58Zm2.78,0a.93.93,0,1,0-1.85,0,.93.93,0,0,0,1.85,0Zm2.77,0a.93.93,0,1,0-.92.92A.93.93,0,0,0,75.52,142.58Zm2.77,0a.93.93,0,1,0-.92.92A.93.93,0,0,0,78.29,142.58Zm2.78,0a.93.93,0,1,0-1.85,0,.93.93,0,0,0,1.85,0Zm2.77,0a.93.93,0,1,0-.92.92A.93.93,0,0,0,83.84,142.58ZM70,150.21a.93.93,0,1,0-.92.92A.93.93,0,0,0,70,150.21Zm2.78,0a.93.93,0,1,0-1.85,0,.93.93,0,0,0,1.85,0Zm2.77,0a.93.93,0,1,0-.92.92A.93.93,0,0,0,75.52,150.21Zm2.77,0a.93.93,0,1,0-.92.92A.93.93,0,0,0,78.29,150.21Zm2.78,0a.93.93,0,1,0-1.85,0,.93.93,0,0,0,1.85,0Zm2.77,0a.93.93,0,1,0-.92.92A.93.93,0,0,0,83.84,150.21Z" style="fill:#fff"/><path d="M43.85,155.66H40.62a.8.8,0,1,1,0-1.6h3.23a.8.8,0,1,1,0,1.6Zm.8,2.9a.8.8,0,0,0-.8-.8H40.62a.8.8,0,0,0-.8.8.79.79,0,0,0,.8.79h3.23A.79.79,0,0,0,44.65,158.56Zm0,3.69a.79.79,0,0,0-.8-.79H40.62a.8.8,0,1,0,0,1.59h3.23A.8.8,0,0,0,44.65,162.25Zm0,3.7a.8.8,0,0,0-.8-.8H40.62a.8.8,0,0,0,0,1.6h3.23A.8.8,0,0,0,44.65,166Zm0,3.7a.8.8,0,0,0-.8-.8H40.62a.8.8,0,0,0,0,1.6h3.23A.8.8,0,0,0,44.65,169.65Zm0,3.7a.8.8,0,0,0-.8-.8H40.62a.8.8,0,0,0,0,1.6h3.23A.8.8,0,0,0,44.65,173.35Zm0,3.7a.8.8,0,0,0-.8-.8H40.62a.8.8,0,1,0,0,1.6h3.23A.8.8,0,0,0,44.65,177.05Zm0,3.7a.8.8,0,0,0-.8-.8H40.62a.8.8,0,0,0,0,1.6h3.23A.8.8,0,0,0,44.65,180.75Zm12.11-25.89a.8.8,0,0,0-.8-.8h-8.5a.8.8,0,0,0,0,1.6H56A.8.8,0,0,0,56.76,154.86Zm0,3.7a.8.8,0,0,0-.8-.8h-8.5a.79.79,0,0,0-.79.8.79.79,0,0,0,.79.79H56A.79.79,0,0,0,56.76,158.56Zm0,3.69a.79.79,0,0,0-.8-.79h-8.5a.8.8,0,0,0,0,1.59H56A.8.8,0,0,0,56.76,162.25Zm0,3.7a.8.8,0,0,0-.8-.8h-8.5a.8.8,0,0,0,0,1.6H56A.8.8,0,0,0,56.76,166Zm0,3.7a.8.8,0,0,0-.8-.8h-8.5a.8.8,0,0,0,0,1.6H56A.8.8,0,0,0,56.76,169.65Zm10.17,3.7a.8.8,0,0,0-.8-.8h-8.5a.8.8,0,0,0,0,1.6h8.5A.8.8,0,0,0,66.93,173.35Zm0,3.7a.8.8,0,0,0-.8-.8h-8.5a.8.8,0,0,0,0,1.6h8.5A.8.8,0,0,0,66.93,177.05Zm0,3.7a.8.8,0,0,0-.8-.8h-8.5a.8.8,0,0,0,0,1.6h8.5A.8.8,0,0,0,66.93,180.75ZM60.5,154.86a.93.93,0,1,0-1.85,0,.93.93,0,0,0,1.85,0Zm2.77,0a.93.93,0,1,0-1.85,0,.93.93,0,0,0,1.85,0Zm2.77,0a.93.93,0,1,0-.92.92A.93.93,0,0,0,66,154.86Zm2.78,0a.93.93,0,1,0-1.85,0,.93.93,0,0,0,1.85,0Zm2.77,0a.93.93,0,1,0-.92.92A.93.93,0,0,0,71.59,154.86Zm2.77,0a.92.92,0,1,0-.92.92A.93.93,0,0,0,74.36,154.86ZM60.5,162.25a.93.93,0,1,0-.93.93A.93.93,0,0,0,60.5,162.25Zm2.77,0a.93.93,0,1,0-.93.93A.92.92,0,0,0,63.27,162.25Zm2.77,0a.93.93,0,0,0-1.85,0,.93.93,0,1,0,1.85,0Zm2.78,0a.93.93,0,1,0-.93.93A.93.93,0,0,0,68.82,162.25Zm2.77,0a.93.93,0,0,0-1.85,0,.93.93,0,1,0,1.85,0Zm2.77,0a.92.92,0,1,0-.92.93A.92.92,0,0,0,74.36,162.25ZM70,172.89a.93.93,0,1,0-.92.92A.93.93,0,0,0,70,172.89Zm2.78,0a.93.93,0,1,0-1.85,0,.93.93,0,0,0,1.85,0Zm2.77,0a.93.93,0,1,0-.92.92A.93.93,0,0,0,75.52,172.89Zm2.77,0a.93.93,0,1,0-.92.92A.93.93,0,0,0,78.29,172.89Zm2.78,0a.93.93,0,1,0-1.85,0,.93.93,0,0,0,1.85,0Zm2.77,0a.93.93,0,1,0-.92.92A.93.93,0,0,0,83.84,172.89ZM70,180.52a.93.93,0,1,0-.92.92A.93.93,0,0,0,70,180.52Zm2.78,0a.93.93,0,1,0-1.85,0,.93.93,0,0,0,1.85,0Zm2.77,0a.93.93,0,1,0-.92.92A.93.93,0,0,0,75.52,180.52Zm2.77,0a.93.93,0,1,0-.92.92A.93.93,0,0,0,78.29,180.52Zm2.78,0a.93.93,0,1,0-1.85,0,.93.93,0,0,0,1.85,0Zm2.77,0a.93.93,0,1,0-.92.92A.93.93,0,0,0,83.84,180.52Z" style="fill:#fff"/><path d="M93.54,95.75H90.3a.8.8,0,0,1,0-1.6h3.24a.8.8,0,0,1,0,1.6Zm.79,2.9a.79.79,0,0,0-.79-.8H90.3a.8.8,0,0,0,0,1.6h3.24A.79.79,0,0,0,94.33,98.65Zm0,3.7a.79.79,0,0,0-.79-.8H90.3a.8.8,0,0,0,0,1.6h3.24A.79.79,0,0,0,94.33,102.35Zm0,3.7a.79.79,0,0,0-.79-.8H90.3a.8.8,0,0,0,0,1.6h3.24A.79.79,0,0,0,94.33,106.05Zm0,3.7a.79.79,0,0,0-.79-.8H90.3a.8.8,0,1,0,0,1.59h3.24A.79.79,0,0,0,94.33,109.75Zm0,3.7a.79.79,0,0,0-.79-.8H90.3a.8.8,0,1,0,0,1.59h3.24A.79.79,0,0,0,94.33,113.45Zm0,3.69a.79.79,0,0,0-.79-.79H90.3a.79.79,0,0,0-.8.79.8.8,0,0,0,.8.8h3.24A.79.79,0,0,0,94.33,117.14Zm0,3.7a.79.79,0,0,0-.79-.8H90.3a.8.8,0,0,0,0,1.6h3.24A.79.79,0,0,0,94.33,120.84ZM106.44,95a.8.8,0,0,0-.8-.8H97.15a.8.8,0,1,0,0,1.6h8.49A.8.8,0,0,0,106.44,95Zm0,3.7a.8.8,0,0,0-.8-.8H97.15a.8.8,0,1,0,0,1.6h8.49A.8.8,0,0,0,106.44,98.65Zm0,3.7a.8.8,0,0,0-.8-.8H97.15a.8.8,0,1,0,0,1.6h8.49A.8.8,0,0,0,106.44,102.35Zm0,3.7a.8.8,0,0,0-.8-.8H97.15a.8.8,0,1,0,0,1.6h8.49A.8.8,0,0,0,106.44,106.05Zm0,3.7a.8.8,0,0,0-.8-.8H97.15a.8.8,0,1,0,0,1.59h8.49A.79.79,0,0,0,106.44,109.75Zm10.17,3.7a.79.79,0,0,0-.8-.8h-8.49a.8.8,0,1,0,0,1.59h8.49A.79.79,0,0,0,116.61,113.45Zm0,3.69a.79.79,0,0,0-.8-.79h-8.49a.79.79,0,0,0-.8.79.8.8,0,0,0,.8.8h8.49A.8.8,0,0,0,116.61,117.14Zm0,3.7a.8.8,0,0,0-.8-.8h-8.49a.8.8,0,0,0,0,1.6h8.49A.8.8,0,0,0,116.61,120.84ZM110.18,95a.93.93,0,0,0-1.85,0,.93.93,0,1,0,1.85,0ZM113,95a.93.93,0,0,0-1.85,0A.93.93,0,1,0,113,95Zm2.78,0a.93.93,0,1,0-.93.93A.93.93,0,0,0,115.73,95Zm2.77,0a.93.93,0,0,0-1.85,0,.93.93,0,1,0,1.85,0Zm2.78,0a.93.93,0,1,0-.93.93A.93.93,0,0,0,121.28,95Zm2.77,0a.93.93,0,1,0-.93.93A.92.92,0,0,0,124.05,95Zm-13.87,7.4a.93.93,0,1,0-.92.92A.93.93,0,0,0,110.18,102.35Zm2.77,0a.93.93,0,1,0-.92.92A.93.93,0,0,0,113,102.35Zm2.78,0a.93.93,0,1,0-1.85,0,.93.93,0,0,0,1.85,0Zm2.77,0a.93.93,0,1,0-.92.92A.93.93,0,0,0,118.5,102.35Zm2.78,0a.93.93,0,1,0-1.85,0,.93.93,0,0,0,1.85,0Zm2.77,0a.93.93,0,1,0-1.85,0,.93.93,0,0,0,1.85,0ZM119.66,113a.93.93,0,1,0-.93.93A.93.93,0,0,0,119.66,113Zm2.77,0a.93.93,0,0,0-1.85,0,.93.93,0,1,0,1.85,0Zm2.77,0a.92.92,0,1,0-.92.93A.92.92,0,0,0,125.2,113Zm2.78,0a.93.93,0,1,0-.93.93A.93.93,0,0,0,128,113Zm2.77,0a.93.93,0,0,0-1.85,0,.93.93,0,1,0,1.85,0Zm2.78,0a.93.93,0,1,0-.93.93A.93.93,0,0,0,133.53,113Zm-13.87,7.63a.93.93,0,1,0-.93.93A.93.93,0,0,0,119.66,120.61Zm2.77,0a.93.93,0,0,0-1.85,0,.93.93,0,1,0,1.85,0Zm2.77,0a.92.92,0,1,0-.92.93A.92.92,0,0,0,125.2,120.61Zm2.78,0a.93.93,0,1,0-.93.93A.93.93,0,0,0,128,120.61Zm2.77,0a.93.93,0,0,0-1.85,0,.93.93,0,1,0,1.85,0Zm2.78,0a.93.93,0,1,0-.93.93A.93.93,0,0,0,133.53,120.61Z" style="fill:#fff"/><path d="M93.54,126.06H90.3a.8.8,0,1,1,0-1.6h3.24a.8.8,0,0,1,0,1.6Zm.79,2.9a.79.79,0,0,0-.79-.8H90.3a.8.8,0,1,0,0,1.6h3.24A.79.79,0,0,0,94.33,129Zm0,3.7a.79.79,0,0,0-.79-.8H90.3a.8.8,0,0,0,0,1.6h3.24A.79.79,0,0,0,94.33,132.66Zm0,3.7a.79.79,0,0,0-.79-.8H90.3a.8.8,0,1,0,0,1.6h3.24A.79.79,0,0,0,94.33,136.36Zm0,3.7a.79.79,0,0,0-.79-.8H90.3a.8.8,0,1,0,0,1.59h3.24A.79.79,0,0,0,94.33,140.06Zm0,3.7a.79.79,0,0,0-.79-.8H90.3a.8.8,0,1,0,0,1.59h3.24A.79.79,0,0,0,94.33,143.76Zm0,3.69a.79.79,0,0,0-.79-.79H90.3a.79.79,0,0,0-.8.79.8.8,0,0,0,.8.8h3.24A.79.79,0,0,0,94.33,147.45Zm0,3.7a.79.79,0,0,0-.79-.8H90.3a.8.8,0,1,0,0,1.6h3.24A.79.79,0,0,0,94.33,151.15Zm12.11-25.89a.8.8,0,0,0-.8-.8H97.15a.8.8,0,1,0,0,1.6h8.49A.8.8,0,0,0,106.44,125.26Zm0,3.7a.8.8,0,0,0-.8-.8H97.15a.8.8,0,0,0,0,1.6h8.49A.8.8,0,0,0,106.44,129Zm0,3.7a.8.8,0,0,0-.8-.8H97.15a.8.8,0,0,0,0,1.6h8.49A.8.8,0,0,0,106.44,132.66Zm0,3.7a.8.8,0,0,0-.8-.8H97.15a.8.8,0,0,0,0,1.6h8.49A.8.8,0,0,0,106.44,136.36Zm0,3.7a.8.8,0,0,0-.8-.8H97.15a.8.8,0,1,0,0,1.59h8.49A.79.79,0,0,0,106.44,140.06Zm10.17,3.7a.79.79,0,0,0-.8-.8h-8.49a.8.8,0,1,0,0,1.59h8.49A.79.79,0,0,0,116.61,143.76Zm0,3.69a.79.79,0,0,0-.8-.79h-8.49a.79.79,0,0,0-.8.79.8.8,0,0,0,.8.8h8.49A.8.8,0,0,0,116.61,147.45Zm0,3.7a.8.8,0,0,0-.8-.8h-8.49a.8.8,0,0,0,0,1.6h8.49A.8.8,0,0,0,116.61,151.15Zm-6.43-25.89a.93.93,0,0,0-1.85,0,.93.93,0,1,0,1.85,0Zm2.77,0a.93.93,0,0,0-1.85,0,.93.93,0,1,0,1.85,0Zm2.78,0a.93.93,0,1,0-.93.93A.93.93,0,0,0,115.73,125.26Zm2.77,0a.93.93,0,0,0-1.85,0,.93.93,0,1,0,1.85,0Zm2.78,0a.93.93,0,1,0-.93.93A.93.93,0,0,0,121.28,125.26Zm2.77,0a.93.93,0,1,0-.93.93A.92.92,0,0,0,124.05,125.26Zm-13.87,7.4a.93.93,0,1,0-.92.92A.93.93,0,0,0,110.18,132.66Zm2.77,0a.93.93,0,1,0-.92.92A.93.93,0,0,0,113,132.66Zm2.78,0a.93.93,0,1,0-1.85,0,.93.93,0,0,0,1.85,0Zm2.77,0a.93.93,0,1,0-.92.92A.93.93,0,0,0,118.5,132.66Zm2.78,0a.93.93,0,1,0-1.85,0,.93.93,0,0,0,1.85,0Zm2.77,0a.93.93,0,1,0-1.85,0,.93.93,0,0,0,1.85,0Zm-4.39,10.63a.93.93,0,1,0-.93.93A.93.93,0,0,0,119.66,143.29Zm2.77,0a.93.93,0,0,0-1.85,0,.93.93,0,1,0,1.85,0Zm2.77,0a.92.92,0,1,0-.92.93A.92.92,0,0,0,125.2,143.29Zm2.78,0a.93.93,0,1,0-.93.93A.93.93,0,0,0,128,143.29Zm2.77,0a.93.93,0,0,0-1.85,0,.93.93,0,1,0,1.85,0Zm2.78,0a.93.93,0,1,0-.93.93A.93.93,0,0,0,133.53,143.29Zm-13.87,7.63a.93.93,0,1,0-.93.93A.93.93,0,0,0,119.66,150.92Zm2.77,0a.93.93,0,0,0-1.85,0,.93.93,0,1,0,1.85,0Zm2.77,0a.92.92,0,1,0-.92.93A.92.92,0,0,0,125.2,150.92Zm2.78,0a.93.93,0,1,0-.93.93A.93.93,0,0,0,128,150.92Zm2.77,0a.93.93,0,0,0-1.85,0,.93.93,0,1,0,1.85,0Zm2.78,0a.93.93,0,1,0-.93.93A.93.93,0,0,0,133.53,150.92Z" style="fill:#fff"/></g><g id="Chair"><path d="M43.18,298.59s-7-95-12.5-118.5,21.5-28.5,60.5-31.5,57-.5,65.5,5,12.27,70.43,18,93.5,10,53,10,53Z" style="fill:#263238;stroke:#263238;stroke-linecap:round;stroke-linejoin:round"/></g><g id="Plants"><path d="M388,219.86c-5.36,6.69-8,10.42-9.1,12.11a128.56,128.56,0,0,1,6.1-21.59,63.27,63.27,0,0,0,3.73-16.88l-.5.27-.47-.89c.19-.09,18.42-9.78,23.58-18.91l.87.5c-4.66,8.24-19.05,16.59-23,18.76,3.75-.35,15.42-2.13,22.37-10.72,8.35-10.31,6.88-23.09,6.88-23.09s-15.72,10.81-22.11,19.16A60.07,60.07,0,0,0,388.85,191a86.21,86.21,0,0,0-1.55-20.31c5.25-4.13,24.57-20,26.69-31.9,2.45-13.75-1-37.34-1-37.34a121.44,121.44,0,0,1-6.88,14.25c-4.43,7.86-18.18,20.15-20.64,33.41a58,58,0,0,0-1,10.06,195,195,0,0,0-7.94-21.75,42.7,42.7,0,0,1-2-5.85h0l-.43-.26c.09-.15,8.94-15.09,8.94-19.38h1c0,4-6.76,15.9-8.62,19.1,3.09-1.86,8.12-5.67,10-11.59,2.82-8.79-1.35-16.71-1.35-16.71s-7.48,11-9.52,18a41.88,41.88,0,0,0-1.7,9.85,55.1,55.1,0,0,0-6.14-11.93c-4.42-5.9-7.37-14.74-7.37-14.74S354,113.23,358,123.06c3.23,8.07,12.42,11.17,15.6,12,.36,1.07.75,2.11,1.17,3.11a168.39,168.39,0,0,1,10.07,30.24c-2.3-3.05-6.61-8.42-10.7-11.42-5.95-4.36-11.33-12-11.33-12s-2.47,10.5,4.14,18.77c5.4,6.75,15,7.08,18.37,7,2.27,11.9,2.52,24.32-1.33,36.32-.25-2.33-1.65-8.67-9.36-15.76-9.74-9-29.24-37.6-29.24-37.6s1.56,33.81,10.9,44.93c8.55,10.18,24.72,9.58,27.37,9.41-.18.53-.35,1.06-.55,1.59-6.16,16.53-7.45,28.12-7.6,34.25H363.87v53.56h31.94V243.93H377.5a77.63,77.63,0,0,1,1.08-10.42l-.33.1-.26-1c.2,0,20.21-5.69,34.19-20.08l.72.69c-11.29,11.62-26.42,17.6-32.23,19.58,5.77-.71,19.88-2.84,26.44-7.08,8.35-5.4,15.72-21.62,15.72-21.62S395.81,210,388,219.86Zm-15.2-87a25.08,25.08,0,0,1-12.82-17.16l1-.2a24,24,0,0,0,12.25,16.45ZM386.89,171l-.23.34-.38-.16c-.55-.22-13.63-5.6-18.94-13.37l.82-.57c4.66,6.81,15.92,11.91,18.12,12.86,1.69-2.6,12.32-19.08,16-29.44l.94.34C399.2,152.32,387,170.81,386.89,171Zm-4.65,36.67c-.16,0-15.74-5.92-22.67-19.38l.89-.45c6.75,13.11,22,18.84,22.12,18.9Z" style="fill:#263238"/></g><g id="Character"><path d="M164.16,162.52s-28.51,6-52.26,19.43-42.34,24.19-42.34,29.38-9.5,87.26-9.5,87.26H276s-21.16-45.36-24.62-64.8-7.34-32-18.57-44.49S188.79,160.79,164.16,162.52Z" style="fill:#fff"/><g style="clip-path:url(#clip-path)"><path d="M80.43,241.66c3.19-2.28,9.59,15.08,11.42,11s-11.42-24.67-12.34-32,7.77-8.23,17.82-15.08,19.19-12.34,19.19-3.2,4.11,26,7.31,19.19,10-15.53,10.51-3.65,0,23.75,1.37,23.75,13.71-12.79,16.91-19.19S149,199.63,149,192.32s6.4-17.36,6.4-17.36l.4-10.35c-10.22,2.8-28.09,8.45-43.87,17.34-23.75,13.4-42.33,24.19-42.33,29.38s-9.5,87.26-9.5,87.26H71.88C74.08,278.24,78.16,243.28,80.43,241.66Z" style="fill:#c6ff00"/><path d="M80.43,241.66c3.19-2.28,9.59,15.08,11.42,11s-11.42-24.67-12.34-32,7.77-8.23,17.82-15.08,19.19-12.34,19.19-3.2,4.11,26,7.31,19.19,10-15.53,10.51-3.65,0,23.75,1.37,23.75,13.71-12.79,16.91-19.19S149,199.63,149,192.32s6.4-17.36,6.4-17.36l.4-10.35c-10.22,2.8-28.09,8.45-43.87,17.34-23.75,13.4-42.33,24.19-42.33,29.38s-9.5,87.26-9.5,87.26H71.88C74.08,278.24,78.16,243.28,80.43,241.66Z" style="fill:#fff;opacity:0.5"/><path d="M218.1,182.68s15,7.33,20.67,14.67a44.39,44.39,0,0,0-19.67-18Z" style="fill:#263238;stroke:#263238;stroke-linecap:round;stroke-linejoin:round"/></g><path d="M164.16,162.52s-28.51,6-52.26,19.43-42.34,24.19-42.34,29.38-9.5,87.26-9.5,87.26H276s-21.16-45.36-24.62-64.8-7.34-32-18.57-44.49S188.79,160.79,164.16,162.52Z" style="fill:none;stroke:#263238;stroke-linecap:round;stroke-linejoin:round"/><path d="M154.66,165.54A28.44,28.44,0,0,0,141.27,188c-.86,15.55,0,31.54-.86,40.17s-6.92,15.56-2.16,15.12,15.55-17.71,19.43-17.71,5.19,8.21,6.92,10.8,7.79,3.68,7.79,3.68,5.6-6.7,5.6-8.86-1.73-9.5,3-8.64,15.12,17.28,15.55,12.09-4.75-13-4.75-25.48-6.05-27.22-14.69-36.29S163.51,164.87,154.66,165.54Z" style="fill:#fff"/><g style="clip-path:url(#clip-path-2)"><path d="M155.73,165.46l-1.07.08A28.44,28.44,0,0,0,141.27,188c-.86,15.55,0,31.54-.86,40.17-.56,5.56-3.26,10.4-3.85,13,3.18-2.33,13.22-13,16.06-18.73,3.19-6.39-3.66-22.84-3.66-30.15s6.4-17.36,6.4-17.36Z" style="fill:#c6ff00"/><path d="M155.73,165.46l-1.07.08A28.44,28.44,0,0,0,141.27,188c-.86,15.55,0,31.54-.86,40.17-.56,5.56-3.26,10.4-3.85,13,3.18-2.33,13.22-13,16.06-18.73,3.19-6.39-3.66-22.84-3.66-30.15s6.4-17.36,6.4-17.36Z" style="fill:#fff;opacity:0.5"/></g><path d="M154.66,165.54A28.44,28.44,0,0,0,141.27,188c-.86,15.55,0,31.54-.86,40.17s-6.92,15.56-2.16,15.12,15.55-17.71,19.43-17.71,5.19,8.21,6.92,10.8,7.79,3.68,7.79,3.68,5.6-6.7,5.6-8.86-1.73-9.5,3-8.64,15.12,17.28,15.55,12.09-4.75-13-4.75-25.48-6.05-27.22-14.69-36.29S163.51,164.87,154.66,165.54Z" style="fill:none;stroke:#263238;stroke-linecap:round;stroke-linejoin:round"/><path d="M158.26,165.65a66.73,66.73,0,0,0-5.18,25c0,13.66,7.07,27.79,9.89,34.38s9.42,15.07,9.42,15.07-.47-17.42,3.77-25.9,8-14.6,8-14.6-5.18-5.18-12.71-16.95S158.26,165.65,158.26,165.65Z" style="fill:#fff"/><g style="clip-path:url(#clip-path-3)"><path d="M180.89,205.21l-1.78-11.64c-2.07-2.68-4.68-6.3-7.66-11-7.54-11.78-13.19-17-13.19-17a66.73,66.73,0,0,0-5.18,25,56.09,56.09,0,0,0,2.58,15.77l25-.8Z" style="fill:#c6ff00"/><path d="M180.89,205.21l-1.78-11.64c-2.07-2.68-4.68-6.3-7.66-11-7.54-11.78-13.19-17-13.19-17a66.73,66.73,0,0,0-5.18,25,56.09,56.09,0,0,0,2.58,15.77l25-.8Z" style="fill:#fff;opacity:0.5"/><path d="M171.45,182.61c-7.54-11.78-13.19-17-13.19-17a66.73,66.73,0,0,0-5.18,25,47.52,47.52,0,0,0,.81,8.4l21.07.65,5.16-4.81A144.53,144.53,0,0,1,171.45,182.61Z" style="fill:#263238;stroke:#263238;stroke-linecap:round;stroke-linejoin:round"/></g><path d="M158.26,165.65a66.73,66.73,0,0,0-5.18,25c0,13.66,7.07,27.79,9.89,34.38s9.42,15.07,9.42,15.07-.47-17.42,3.77-25.9,8-14.6,8-14.6-5.18-5.18-12.71-16.95S158.26,165.65,158.26,165.65Z" style="fill:none;stroke:#263238;stroke-linecap:round;stroke-linejoin:round"/><path d="M126.58,195.78s9.51-22.9,25.06-28.51" style="fill:none;stroke:#263238;stroke-linecap:round;stroke-linejoin:round"/><path d="M85.54,214.78s13,21.17,14.69,39.31" style="fill:none;stroke:#263238;stroke-linecap:round;stroke-linejoin:round"/><path d="M101.53,234.22s4.32,27.22,4.32,41A116.11,116.11,0,0,0,108,298.59" style="fill:none;stroke:#263238;stroke-linecap:round;stroke-linejoin:round"/><path d="M105.42,269.21a136.89,136.89,0,0,0,3.45-32.4" style="fill:none;stroke:#263238;stroke-linecap:round;stroke-linejoin:round"/><path d="M223.78,234.65s1.29,15.56,4.32,34.56,4.75,28.51,4.75,28.51" style="fill:none;stroke:#263238;stroke-linecap:round;stroke-linejoin:round"/><path d="M153.31,271.5s-9.14,18.63-10.49,21.34-3.39,7.45-3.39,7.45h16.25s9.15-6.1,10.16-6.44,6.77,0,10.84-1.69,8.12-6.09,12.19-7.11,9.48-2.71,11.17-2.71,7.45,1.69,11.18,1.69,8.46-3.72,5.41-5.41-5.41-.68-9.48-2.71-5.42-2.71-9.48-2-7.45-1.69-17.27-3.72S159.41,267.44,153.31,271.5Z" style="fill:#fff;stroke:#263238;stroke-linecap:round;stroke-linejoin:round"/><path d="M181.68,261.1s5.32-4.54,9.71-2.35,2.35,16.29,3.44,21.93,2.35,8.61-.47,8.93-3.91-1.88-6.11-6.89S181.68,261.1,181.68,261.1Z" style="fill:#fff;stroke:#263238;stroke-linecap:round;stroke-linejoin:round"/><path d="M168.68,263.92s7-6.27,10.18-6.27,5.63,11.13,8,16,5.8,10.65,4.39,12.22-4.39,2.19-6.89-.47-8-14.41-9.56-16.29A47.62,47.62,0,0,0,168.68,263.92Z" style="fill:#fff;stroke:#263238;stroke-linecap:round;stroke-linejoin:round"/><path d="M161.47,266.11s.47-2.19,7.21-2.19,12.53,9.4,16.6,11.59,2.82,3.13-.16,4.54-4.85-.15-10.81-3.44S161.47,266.11,161.47,266.11Z" style="fill:#fff;stroke:#263238;stroke-linecap:round;stroke-linejoin:round"/><path d="M154,281.66l4.74-7.79a15,15,0,0,1,6.1,2.71c2.37,2,6.77,6.1,12.19,6.1s7.11-1.69,5.07-3.39-8.12-4.74-12.52-7.79-7.79-8.12-11.18-7.11-5.75,7.45-9.48,15.92" style="fill:#fff;stroke:#263238;stroke-linecap:round;stroke-linejoin:round"/><path d="M229.76,132.47s-1.3,19.35-3.4,26.15-5,27.73-11.24,36.88-14.39,17-23.54,17.53-21.45-15.7-28.51-26.16-7.85-20.92-10.2-31.12-2.88-22,.78-31.13,22-20.4,37.4-19.09S225.84,115,229.76,121A10.49,10.49,0,0,1,229.76,132.47Z" style="fill:#fff"/><g style="clip-path:url(#clip-path-4)"><path d="M153.65,124.62c-3.66,9.16-3.13,20.93-.78,31.13s3.14,20.66,10.2,31.12,19.35,26.68,28.51,26.16a21.23,21.23,0,0,0,10.47-3.8l-4.66.45c-9.59.91-14.16-5.48-20.1-17.82s-2.29-19.64-4.57-21.93-2.29-18.73-2.29-18.73,1.83-7.31,2.75-10,10.5-6.4,10.5-6.4,0,6.85,6.59,6.35,11.23-7.72,11.23-7.72l-.92-26.33a72.15,72.15,0,0,0-9.53-1.52C175.62,104.22,157.32,115.47,153.65,124.62Z" style="fill:#c6ff00"/><path d="M153.65,124.62c-3.66,9.16-3.13,20.93-.78,31.13s3.14,20.66,10.2,31.12,19.35,26.68,28.51,26.16a21.23,21.23,0,0,0,10.47-3.8l-4.66.45c-9.59.91-14.16-5.48-20.1-17.82s-2.29-19.64-4.57-21.93-2.29-18.73-2.29-18.73,1.83-7.31,2.75-10,10.5-6.4,10.5-6.4,0,6.85,6.59,6.35,11.23-7.72,11.23-7.72l-.92-26.33a72.15,72.15,0,0,0-9.53-1.52C175.62,104.22,157.32,115.47,153.65,124.62Z" style="fill:#fff;opacity:0.5"/></g><path d="M229.76,132.47s-1.3,19.35-3.4,26.15-5,27.73-11.24,36.88-14.39,17-23.54,17.53-21.45-15.7-28.51-26.16-7.85-20.92-10.2-31.12-2.88-22,.78-31.13,22-20.4,37.4-19.09S225.84,115,229.76,121A10.49,10.49,0,0,1,229.76,132.47Z" style="fill:none;stroke:#263238;stroke-linecap:round;stroke-linejoin:round"/><path d="M203.35,158.36s.26,13.34,7.06,16.74c0,0,1.57.52.78,2.36s-6.8,2.87-11-.27" style="fill:none;stroke:#263238;stroke-linecap:round;stroke-linejoin:round"/><path d="M209.13,147a1.5,1.5,0,0,1-1-2.66c.24-.2,6-4.84,15.16-1.63a1.51,1.51,0,0,1,.92,1.92,1.49,1.49,0,0,1-1.91.91c-7.58-2.66-12.21,1.08-12.26,1.12A1.5,1.5,0,0,1,209.13,147Z" style="fill:#263238"/><path d="M193.36,145.2a1.5,1.5,0,0,1-1.3-.74c-.15-.27-3.75-6.19-10.83-5.21a1.5,1.5,0,0,1-.42-3c9.12-1.25,13.66,6.35,13.85,6.68a1.51,1.51,0,0,1-.55,2.05A1.43,1.43,0,0,1,193.36,145.2Z" style="fill:#263238"/><line x1="197.82" y1="191.56" x2="202.06" y2="191.56" style="fill:none;stroke:#263238;stroke-linecap:round;stroke-linejoin:round"/><path d="M159.41,94.29s-17,5.49-18.31,12.29,7.32,30.6,7.06,33.48-2.88,5.23,0,9.41,8.11,10.46,10.2,7.06-.78-8.37,2.62-10.46,8.1-5.49,5.49-9.94-1.31-11,4.18-11.77,10.2-4.44,7.33-.26-11.25,14.39-6.8,15.17,22-11,22-11-6,12-2.88,12.81S218,125.67,218,125.67s11.77,15.43,14.13,14.39.78-9.68.78-9.68,1.83,11.51,5.49,12,8.63-5.76,7.07-9.68-4.19-9.41-4.19-9.41,5.23-1.31,7.32-3.67,1.83-2.61-2.61-3.4-7.85-5.75-12-10.2-11-10.46-11-10.46,7.85,3.4,3.66-.52-26.41-12.82-38.44-12.82-16.48,6.28-16.48,6.28,2.09-7.85-.26-6.8-5,7.32-5,7.32-5.49-1.57-8.37.27S154.44,93,156.79,93a13.69,13.69,0,0,1,3.93.52Z" style="fill:#263238"/><g style="clip-path:url(#clip-path-5)"><g style="opacity:0.2"><path d="M158.36,156.53c2.09-3.4-.78-8.37,2.62-10.46s8.1-5.49,5.49-9.94-1.31-11,4.18-11.77c4.14-.59,7.83-2.81,8.17-2.08,1.78-2.44,2.53-4.3,0-3.55-4.86,1.46-19.92,3.89-18.46,8.75s2.43,7.29-1.46,8.74S155,141.08,155,145c0,3.32-1.57,8.83-2,10.36C155.12,157.34,157.21,158.4,158.36,156.53Z" style="fill:#fff"/><path d="M232.9,130.38l.35,4.87.16.77a35.51,35.51,0,0,0-.46-5.37c.3,1.74,2.12,11.28,5.44,11.76,3.67.52,8.63-5.76,7.07-9.68-.34-.84-.73-1.76-1.13-2.68-1.21,1.89-2.87,3.74-4.77,3.74C235.68,133.79,232.9,130.38,232.9,130.38Z" style="fill:#fff"/><path d="M227.74,137.12c-3.23-7.24-6.76-16.63-8.58-19.36-2.92-4.37-13.12,11.66-21.87,17-3.56,2.17-6.14,3.12-7.77,3.14-.31,1.67-.21,3,.75,3.19,3.14.79,27.72-15.43,27.72-15.43A141.55,141.55,0,0,0,227.74,137.12Z" style="fill:#fff"/><path d="M170.15,136.44c-.48,1.51-.31,2.6,1,2.83,3.35.59,14.15-6,19.25-9.22,2.89-3.55,6.47-5.74,6.86-8.89.49-3.89-18,11.66-24.29,14.58A5.35,5.35,0,0,1,170.15,136.44Z" style="fill:#fff"/></g></g><path d="M159.41,94.29s-17,5.49-18.31,12.29,7.32,30.6,7.06,33.48-2.88,5.23,0,9.41,8.11,10.46,10.2,7.06-.78-8.37,2.62-10.46,8.1-5.49,5.49-9.94-1.31-11,4.18-11.77,10.2-4.44,7.33-.26-11.25,14.39-6.8,15.17,22-11,22-11-6,12-2.88,12.81S218,125.67,218,125.67s11.77,15.43,14.13,14.39.78-9.68.78-9.68,1.83,11.51,5.49,12,8.63-5.76,7.07-9.68-4.19-9.41-4.19-9.41,5.23-1.31,7.32-3.67,1.83-2.61-2.61-3.4-7.85-5.75-12-10.2-11-10.46-11-10.46,7.85,3.4,3.66-.52-26.41-12.82-38.44-12.82-16.48,6.28-16.48,6.28,2.09-7.85-.26-6.8-5,7.32-5,7.32-5.49-1.57-8.37.27S154.44,93,156.79,93a13.69,13.69,0,0,1,3.93.52Z" style="fill:none;stroke:#263238;stroke-linecap:round;stroke-linejoin:round"/><path d="M198.06,148s-3.82-4.11-14.1-3.82-17.62,2.06-19.68,3.24-.88,2.64-.29,4.7,2,11.75,4.4,15.56,8.52,7,12.64,7,6.46-.88,10.86-4.11,7.35-15,7.64-15.86,0-2.64,2.94-1.76,3.23,13.8,4.11,16.45,6.76,6.17,11.46,6.17,9.1-2.35,12.92-9.11a21.48,21.48,0,0,0,2.65-13.22s4.11-3.23.88-4.41-14.34-4.26-21.45-2C204.52,149.5,200.12,148.91,198.06,148Z" style="fill:#263238"/><path d="M165.75,147.74l-19.68,2.64v2.35l19.39-1.17S163.69,148.62,165.75,147.74Z" style="fill:#263238"/><path d="M218,172.78c-5.77,0-8.71-3.06-9.35-8.37-.76-6.36-1.45-10.79-3.45-12.92a45.08,45.08,0,0,0,8.66-1.9A17.7,17.7,0,0,1,219,149a48.58,48.58,0,0,1,12.87,2.11l-1.35,1.08.3,1.69a19,19,0,0,1-2.32,11.3C224.59,172,220.66,172.78,218,172.78Zm-37-.88c-3,0-8.31-2.63-10.2-5.69-1.5-2.44-2.76-8.62-3.44-11.93-.27-1.34-.47-2.31-.65-2.92s-.3-1-.46-1.39l-.09-.25c2.31-.95,8.84-2.38,17.85-2.64h1c7.9,0,10.94,2.88,11,2.91l.42.45.55.24a9.6,9.6,0,0,0,1.18.41,5.06,5.06,0,0,0-1.28,2.67l0,.19c0,.05-.08.29-.18.65-2.93,10.31-5.46,13-6.41,13.75C186.05,171.38,184.27,171.9,181,171.9Z" style="fill:#c6ff00"/><path d="M174.1,151.86h-1.5a.37.37,0,0,1-.37-.37.36.36,0,0,1,.37-.37h1.5a.37.37,0,0,1,.38.37A.38.38,0,0,1,174.1,151.86Zm.38,1.35a.37.37,0,0,0-.38-.37h-1.5a.37.37,0,0,0,0,.74h1.5A.37.37,0,0,0,174.48,153.21Zm0,1.72a.38.38,0,0,0-.38-.37h-1.5a.37.37,0,0,0-.37.37.36.36,0,0,0,.37.37h1.5A.37.37,0,0,0,174.48,154.93Zm0,1.72a.38.38,0,0,0-.38-.37h-1.5a.37.37,0,0,0-.37.37.36.36,0,0,0,.37.37h1.5A.37.37,0,0,0,174.48,156.65Zm0,1.72a.38.38,0,0,0-.38-.37h-1.5a.37.37,0,0,0-.37.37.36.36,0,0,0,.37.37h1.5A.37.37,0,0,0,174.48,158.37Zm0,1.72a.38.38,0,0,0-.38-.37h-1.5a.38.38,0,0,0,0,.75h1.5A.38.38,0,0,0,174.48,160.09Zm0,1.72a.38.38,0,0,0-.38-.37h-1.5a.38.38,0,0,0,0,.75h1.5A.38.38,0,0,0,174.48,161.81Zm0,1.73a.38.38,0,0,0-.38-.38h-1.5a.38.38,0,0,0,0,.75h1.5A.38.38,0,0,0,174.48,163.54Zm5.63-12a.37.37,0,0,0-.37-.37h-4a.37.37,0,0,0-.37.37.38.38,0,0,0,.37.37h4A.38.38,0,0,0,180.11,151.49Zm0,1.72a.37.37,0,0,0-.37-.37h-4a.37.37,0,0,0,0,.74h4A.37.37,0,0,0,180.11,153.21Zm0,1.72a.38.38,0,0,0-.37-.37h-4a.38.38,0,0,0-.37.37.37.37,0,0,0,.37.37h4A.37.37,0,0,0,180.11,154.93Zm0,1.72a.38.38,0,0,0-.37-.37h-4a.38.38,0,0,0-.37.37.37.37,0,0,0,.37.37h4A.37.37,0,0,0,180.11,156.65Zm0,1.72a.38.38,0,0,0-.37-.37h-4a.38.38,0,0,0-.37.37.37.37,0,0,0,.37.37h4A.37.37,0,0,0,180.11,158.37Zm4.73,1.72a.38.38,0,0,0-.37-.37h-3.95a.38.38,0,0,0,0,.75h3.95A.38.38,0,0,0,184.84,160.09Zm0,1.72a.38.38,0,0,0-.37-.37h-3.95a.38.38,0,0,0,0,.75h3.95A.38.38,0,0,0,184.84,161.81Zm0,1.73a.38.38,0,0,0-.37-.38h-3.95a.38.38,0,0,0,0,.75h3.95A.38.38,0,0,0,184.84,163.54Zm-3-12a.43.43,0,1,0-.43.43A.43.43,0,0,0,181.85,151.49Zm1.29,0a.43.43,0,1,0-.43.43A.43.43,0,0,0,183.14,151.49Zm1.29,0a.43.43,0,1,0-.43.43A.43.43,0,0,0,184.43,151.49Zm1.29,0a.43.43,0,1,0-.43.43A.43.43,0,0,0,185.72,151.49Zm1.29,0a.43.43,0,1,0-.43.43A.43.43,0,0,0,187,151.49Zm1.29,0a.43.43,0,1,0-.43.43A.43.43,0,0,0,188.3,151.49Zm-6.45,3.44a.43.43,0,1,0-.43.43A.43.43,0,0,0,181.85,154.93Zm1.29,0a.43.43,0,1,0-.43.43A.43.43,0,0,0,183.14,154.93Zm1.29,0a.43.43,0,1,0-.43.43A.43.43,0,0,0,184.43,154.93Zm1.29,0a.43.43,0,1,0-.43.43A.43.43,0,0,0,185.72,154.93Zm1.29,0a.43.43,0,1,0-.43.43A.43.43,0,0,0,187,154.93Zm1.29,0a.43.43,0,1,0-.43.43A.43.43,0,0,0,188.3,154.93Zm-2,4.95a.43.43,0,1,0-.43.43A.43.43,0,0,0,186.26,159.88Zm1.29,0a.43.43,0,1,0-.43.43A.43.43,0,0,0,187.55,159.88Zm1.29,0a.43.43,0,1,0-.43.43A.43.43,0,0,0,188.84,159.88Zm1.29,0a.43.43,0,1,0-.43.43A.43.43,0,0,0,190.13,159.88Zm1.29,0a.43.43,0,1,0-.43.43A.43.43,0,0,0,191.42,159.88Zm1.29,0a.43.43,0,1,0-.43.43A.43.43,0,0,0,192.71,159.88Zm-6.45,3.55a.43.43,0,1,0-.43.43A.43.43,0,0,0,186.26,163.43Zm1.29,0a.43.43,0,1,0-.43.43A.43.43,0,0,0,187.55,163.43Zm1.29,0a.43.43,0,1,0-.43.43A.43.43,0,0,0,188.84,163.43Zm1.29,0a.43.43,0,1,0-.43.43A.43.43,0,0,0,190.13,163.43Zm1.29,0a.43.43,0,1,0-.43.43A.43.43,0,0,0,191.42,163.43Zm1.29,0a.43.43,0,1,0-.43.43A.43.43,0,0,0,192.71,163.43Z" style="fill:#263238"/><path d="M210.89,151.86h-1.51a.37.37,0,0,1-.37-.37.36.36,0,0,1,.37-.37h1.51a.37.37,0,0,1,.37.37A.38.38,0,0,1,210.89,151.86Zm.37,1.35a.37.37,0,0,0-.37-.37h-1.51a.37.37,0,0,0,0,.74h1.51A.37.37,0,0,0,211.26,153.21Zm0,1.72a.38.38,0,0,0-.37-.37h-1.51a.37.37,0,0,0-.37.37.36.36,0,0,0,.37.37h1.51A.37.37,0,0,0,211.26,154.93Zm0,1.72a.38.38,0,0,0-.37-.37h-1.51a.37.37,0,0,0-.37.37.36.36,0,0,0,.37.37h1.51A.37.37,0,0,0,211.26,156.65Zm0,1.72a.38.38,0,0,0-.37-.37h-1.51a.37.37,0,0,0-.37.37.36.36,0,0,0,.37.37h1.51A.37.37,0,0,0,211.26,158.37Zm0,1.72a.38.38,0,0,0-.37-.37h-1.51a.38.38,0,0,0,0,.75h1.51A.38.38,0,0,0,211.26,160.09Zm0,1.72a.38.38,0,0,0-.37-.37h-1.51a.38.38,0,0,0,0,.75h1.51A.38.38,0,0,0,211.26,161.81Zm0,1.73a.38.38,0,0,0-.37-.38h-1.51a.38.38,0,0,0,0,.75h1.51A.38.38,0,0,0,211.26,163.54Zm5.63-12a.37.37,0,0,0-.37-.37h-4a.36.36,0,0,0-.37.37.37.37,0,0,0,.37.37h4A.38.38,0,0,0,216.89,151.49Zm0,1.72a.37.37,0,0,0-.37-.37h-4a.37.37,0,0,0,0,.74h4A.37.37,0,0,0,216.89,153.21Zm0,1.72a.38.38,0,0,0-.37-.37h-4a.37.37,0,0,0-.37.37.36.36,0,0,0,.37.37h4A.37.37,0,0,0,216.89,154.93Zm0,1.72a.38.38,0,0,0-.37-.37h-4a.37.37,0,0,0-.37.37.36.36,0,0,0,.37.37h4A.37.37,0,0,0,216.89,156.65Zm0,1.72a.38.38,0,0,0-.37-.37h-4a.37.37,0,0,0-.37.37.36.36,0,0,0,.37.37h4A.37.37,0,0,0,216.89,158.37Zm4.73,1.72a.37.37,0,0,0-.37-.37H217.3a.38.38,0,0,0,0,.75h3.95A.37.37,0,0,0,221.62,160.09Zm0,1.72a.37.37,0,0,0-.37-.37H217.3a.38.38,0,0,0,0,.75h3.95A.37.37,0,0,0,221.62,161.81Zm0,1.73a.37.37,0,0,0-.37-.38H217.3a.38.38,0,0,0,0,.75h3.95A.37.37,0,0,0,221.62,163.54Zm-3-12a.43.43,0,1,0-.43.43A.43.43,0,0,0,218.63,151.49Zm1.29,0a.43.43,0,1,0-.43.43A.43.43,0,0,0,219.92,151.49Zm1.29,0a.43.43,0,1,0-.43.43A.43.43,0,0,0,221.21,151.49Zm1.29,0a.43.43,0,1,0-.43.43A.43.43,0,0,0,222.5,151.49Zm1.29,0a.43.43,0,1,0-.43.43A.43.43,0,0,0,223.79,151.49Zm1.29,0a.43.43,0,0,0-.43-.43.43.43,0,0,0,0,.86A.43.43,0,0,0,225.08,151.49Zm-6.45,3.44a.43.43,0,1,0-.43.43A.43.43,0,0,0,218.63,154.93Zm1.29,0a.43.43,0,1,0-.43.43A.43.43,0,0,0,219.92,154.93Zm1.29,0a.43.43,0,1,0-.43.43A.43.43,0,0,0,221.21,154.93Zm1.29,0a.43.43,0,1,0-.43.43A.43.43,0,0,0,222.5,154.93Zm1.29,0a.43.43,0,1,0-.43.43A.43.43,0,0,0,223.79,154.93Zm1.29,0a.43.43,0,0,0-.43-.43.43.43,0,0,0,0,.86A.43.43,0,0,0,225.08,154.93Zm-2,4.95a.43.43,0,1,0-.43.43A.43.43,0,0,0,223,159.88Zm1.29,0a.43.43,0,1,0-.43.43A.43.43,0,0,0,224.33,159.88Zm1.29,0a.43.43,0,1,0-.43.43A.43.43,0,0,0,225.62,159.88Zm1.29,0a.43.43,0,1,0-.43.43A.43.43,0,0,0,226.91,159.88Zm1.29,0a.43.43,0,1,0-.43.43A.43.43,0,0,0,228.2,159.88Zm1.29,0a.43.43,0,1,0-.43.43A.43.43,0,0,0,229.49,159.88ZM223,163.43a.43.43,0,1,0-.43.43A.43.43,0,0,0,223,163.43Zm1.29,0a.43.43,0,1,0-.43.43A.43.43,0,0,0,224.33,163.43Zm1.29,0a.43.43,0,1,0-.43.43A.43.43,0,0,0,225.62,163.43Zm1.29,0a.43.43,0,1,0-.43.43A.43.43,0,0,0,226.91,163.43Zm1.29,0a.43.43,0,1,0-.43.43A.43.43,0,0,0,228.2,163.43Zm1.29,0a.43.43,0,1,0-.43.43A.43.43,0,0,0,229.49,163.43Z" style="fill:#263238"/><path d="M159.41,162s-6.28-14.64-11.77-14.64-5.23,12.29-1.83,18.83,10.72,9.15,12.81,5.23" style="fill:#fff"/><g style="clip-path:url(#clip-path-6)"><path d="M159.41,162s-6.28-14.64-11.77-14.64-5.23,12.29-1.83,18.83,10.72,9.15,12.81,5.23" style="fill:#c6ff00"/><path d="M159.41,162s-6.28-14.64-11.77-14.64-5.23,12.29-1.83,18.83,10.72,9.15,12.81,5.23" style="fill:#fff;opacity:0.5"/></g><path d="M159.41,162s-6.28-14.64-11.77-14.64-5.23,12.29-1.83,18.83,10.72,9.15,12.81,5.23" style="fill:none;stroke:#263238;stroke-linecap:round;stroke-linejoin:round"/><path d="M145.81,156.35S145,150,148,151.1s6.53,11.15,6.53,11.15-2.55-2.71-2.23-.16a2.9,2.9,0,0,0,2.55,2.71" style="fill:none;stroke:#263238;stroke-linecap:round;stroke-linejoin:round"/></g><g id="Device"><polygon points="369.19 207.44 245.22 207.44 224.05 292.54 348.02 292.54 369.19 207.44" style="fill:#263238;stroke:#263238;stroke-linecap:round;stroke-linejoin:round"/><rect x="161.84" y="292.54" width="184.88" height="6.05" style="fill:#263238;stroke:#263238;stroke-linecap:round;stroke-linejoin:round"/><rect x="224.05" y="292.54" width="123.98" height="6.05" style="fill:#c6ff00;stroke:#263238;stroke-linecap:round;stroke-linejoin:round"/><polygon points="370.56 207.44 246.59 207.44 225.42 292.54 349.39 292.54 370.56 207.44" style="fill:#c6ff00;stroke:#263238;stroke-linecap:round;stroke-linejoin:round"/><ellipse cx="297.28" cy="251.61" rx="17.68" ry="17.51" style="fill:#263238"/><path d="M296.36,246.52l-.11,6.91c0,2.46-2.15,3.41-4.11,3.44-2.23,0-4-1.17-4-3.47a.4.4,0,0,1,.41-.44h1.82c.39,0,.42.26.42.34a1.23,1.23,0,0,0,1.33,1.34c1.1,0,1.52-.58,1.53-1.57l.05-4.8-3-.06c-.42,0-.5-.19-.5-.49v-1.38c0-.3.08-.49.5-.47l5.1.15C296.27,246,296.37,246.22,296.36,246.52Z" style="fill:#fff"/><path d="M306.07,253.75c-.08,2.16-1.8,3.21-4.15,3.23-1.94,0-4.2-1.07-4.15-3.26,0-.36.1-.44.47-.44h1.54c.36,0,.54.05.56.44a1,1,0,0,0,.28.64,2,2,0,0,0,1.51.5c.83,0,1.51-.19,1.54-1.05s-1.34-.88-2.66-1.31c-1.58-.51-3.05-1.15-3-3.18s2-3.07,4-3.09,4.09,1,4,3.09c0,.37-.11.43-.46.43l-1.5,0c-.29,0-.33-.22-.4-.43a1.37,1.37,0,0,0-.31-.48,2.06,2.06,0,0,0-1.32-.45c-.52,0-1.39.18-1.41.89,0,1,2.27,1.35,2.88,1.6C304.55,251.21,306.14,251.67,306.07,253.75Z" style="fill:#fff"/></g><g id="Table"><rect x="15.34" y="297.25" width="401.33" height="6" style="fill:#fff;stroke:#263238;stroke-linecap:round;stroke-linejoin:round"/></g></g></svg>