<svg xmlns="http://www.w3.org/2000/svg" viewBox="0 0 606.97 373.52"><g id="Layer_2" data-name="Layer 2"><g id="Background_Simple" data-name="Background Simple"><path d="M571.5.33C561.11,2,548.43,6.65,542.79,7.78q-44.5,8.86-89.17,15.68c-48.4,7.36-97,13.12-145.61,14.28C235.72,39.46,164.79,21.62,93.38,12.26c-17-2.23-68-15.78-76.55,14.33C5.75,65.63,6.21,112.54,5,153.35c-1.31,43.54-2.58,87-3,130.52-.13,14.89.92,30.19,6.06,43.2,6.42,16.3,18.35,23.31,31.69,25.59,24.13,4.12,48.66,2.82,73,1.79,32.93-1.39,65.86-4.68,98.76-8.17,56.93-6,114.82-16.28,171.82-14,40,1.57,79.37,10.07,118.62,18.59,15.9,3.45,31.5,8.79,47.61,10.78,13,1.61,33,3.17,43.71-10,9-11.05,9.38-36.88,10.52-51.31,2.47-31.11,2.78-62.44,2.61-93.57-.31-58.33-1-119-9.11-176.18C594.56,11.16,587.78-2.29,571.5.33Z" style="fill:#c6ff00"/><path d="M571.5.33C561.11,2,548.43,6.65,542.79,7.78q-44.5,8.86-89.17,15.68c-48.4,7.36-97,13.12-145.61,14.28C235.72,39.46,164.79,21.62,93.38,12.26c-17-2.23-68-15.78-76.55,14.33C5.75,65.63,6.21,112.54,5,153.35c-1.31,43.54-2.58,87-3,130.52-.13,14.89.92,30.19,6.06,43.2,6.42,16.3,18.35,23.31,31.69,25.59,24.13,4.12,48.66,2.82,73,1.79,32.93-1.39,65.86-4.68,98.76-8.17,56.93-6,114.82-16.28,171.82-14,40,1.57,79.37,10.07,118.62,18.59,15.9,3.45,31.5,8.79,47.61,10.78,13,1.61,33,3.17,43.71-10,9-11.05,9.38-36.88,10.52-51.31,2.47-31.11,2.78-62.44,2.61-93.57-.31-58.33-1-119-9.11-176.18C594.56,11.16,587.78-2.29,571.5.33Z" style="fill:#c6ff00;opacity:0.7000000000000001"/><g style="opacity:0.7000000000000001"><path d="M571.5.33C561.11,2,548.43,6.65,542.79,7.78q-44.5,8.86-89.17,15.68c-48.4,7.36-97,13.12-145.61,14.28C235.72,39.46,164.79,21.62,93.38,12.26c-17-2.23-68-15.78-76.55,14.33C5.75,65.63,6.21,112.54,5,153.35c-1.31,43.54-2.58,87-3,130.52-.13,14.89.92,30.19,6.06,43.2,6.42,16.3,18.35,23.31,31.69,25.59,24.13,4.12,48.66,2.82,73,1.79,32.93-1.39,65.86-4.68,98.76-8.17,56.93-6,114.82-16.28,171.82-14,40,1.57,79.37,10.07,118.62,18.59,15.9,3.45,31.5,8.79,47.61,10.78,13,1.61,33,3.17,43.71-10,9-11.05,9.38-36.88,10.52-51.31,2.47-31.11,2.78-62.44,2.61-93.57-.31-58.33-1-119-9.11-176.18C594.56,11.16,587.78-2.29,571.5.33Z" style="fill:#fff"/><path d="M571.5.33C561.11,2,548.43,6.65,542.79,7.78q-44.5,8.86-89.17,15.68c-48.4,7.36-97,13.12-145.61,14.28C235.72,39.46,164.79,21.62,93.38,12.26c-17-2.23-68-15.78-76.55,14.33C5.75,65.63,6.21,112.54,5,153.35c-1.31,43.54-2.58,87-3,130.52-.13,14.89.92,30.19,6.06,43.2,6.42,16.3,18.35,23.31,31.69,25.59,24.13,4.12,48.66,2.82,73,1.79,32.93-1.39,65.86-4.68,98.76-8.17,56.93-6,114.82-16.28,171.82-14,40,1.57,79.37,10.07,118.62,18.59,15.9,3.45,31.5,8.79,47.61,10.78,13,1.61,33,3.17,43.71-10,9-11.05,9.38-36.88,10.52-51.31,2.47-31.11,2.78-62.44,2.61-93.57-.31-58.33-1-119-9.11-176.18C594.56,11.16,587.78-2.29,571.5.33Z" style="fill:#fff;opacity:0.7000000000000001"/></g></g><g id="Floor"><line x1="0.5" y1="371.25" x2="606.47" y2="371.25" style="fill:none;stroke:#263238;stroke-linecap:round;stroke-linejoin:round"/></g><g id="Plants"><path d="M554.44,332.84s-.53-1.93-.55-2.06c-.2-1.46.26-4.41,1.76-5.13a2,2,0,0,1,2.66,1.18,4.08,4.08,0,0,1-.71,3.38A14.08,14.08,0,0,1,554.44,332.84Z" style="fill:#263238"/><path d="M583.85,332.22a14.35,14.35,0,0,1-4.1.45s.63-1.91.68-2c.64-1.34,2.66-3.54,4.3-3.32a2,2,0,0,1,1.57,2.46A4.12,4.12,0,0,1,583.85,332.22Z" style="fill:#263238"/><path d="M585,336.16c-1.52-.65-4.05.95-5,2.06-.07.08-.84,1.2-1.1,1.61,0,0,0,0,0-.05a26.36,26.36,0,0,0,.75-4.48,35.39,35.39,0,0,0,.1-4.06c0-1.26-.13-2.41-.23-3.42-.06-.55-.13-1.06-.19-1.52l0,0s.58-1.92.6-2.05c.25-1.46-.14-4.42-1.61-5.18a2,2,0,0,0-2.7,1.11,4.1,4.1,0,0,0,.61,3.39,13.06,13.06,0,0,0,3,2.65c.06.49.11,1,.16,1.59.08,1,.16,2.16.16,3.41,0,.33,0,.69,0,1-.11-.59-.28-1.39-.3-1.47-.46-1.41-2.16-3.86-3.82-3.86a2,2,0,0,0-1.89,2.23,4.12,4.12,0,0,0,2.11,2.73,13.36,13.36,0,0,0,3.89,1c0,.77-.06,1.56-.16,2.38a25.14,25.14,0,0,1-.84,4.43h-.09c0-.56-.15-1.72-.17-1.82-.3-1.45-1.72-4.07-3.37-4.25a2,2,0,0,0-2.12,2,4.11,4.11,0,0,0,1.8,2.95,13.92,13.92,0,0,0,3.85,1.42,33.49,33.49,0,0,1-1.62,4.17c-.46,1-1,2-1.49,3,0-.39-.15-1.92-.17-2-.3-1.45-1.73-4.08-3.38-4.26a2,2,0,0,0-2.12,2,4.07,4.07,0,0,0,1.8,2.94,13.61,13.61,0,0,0,3.83,1.42l-.71,1.36c-.78,1.48-1.58,3-2.31,4.44-.26.51-.49,1-.73,1.54,0-.58-.14-1.65-.15-1.74-.3-1.45-1.73-4.07-3.38-4.25a2,2,0,0,0-2.12,2,4.07,4.07,0,0,0,1.8,2.94,12.76,12.76,0,0,0,3.69,1.38c-.38.86-.75,1.73-1.06,2.59-.13.38-.29.75-.39,1.12l-.33,1.1c-.2.75-.39,1.45-.56,2.16-.09.36-.16.7-.24,1.05,0-.6.1-1.55.1-1.64-.08-1.48-1.09-4.29-2.69-4.72a2,2,0,0,0-2.4,1.67,3,3,0,0,0,0,.43,7.68,7.68,0,0,0-1,3.7c0,.1.15,1.21.24,1.78-.17-.44-.35-.87-.53-1.34-.26-.66-.51-1.36-.76-2.05-.11-.36-.23-.72-.35-1.09s-.2-.73-.31-1.1c-.14-.55-.26-1.12-.38-1.69a12.81,12.81,0,0,0,3.5-1.63,4.1,4.1,0,0,0,1.57-3.07,2,2,0,0,0-2.26-1.84c-1.63.3-2.86,3-3.05,4.49,0,0,0,.36,0,.73-.1-.56-.2-1.12-.29-1.69-.23-1.62-.42-3.28-.62-4.95,0-.34-.09-.69-.13-1a12.67,12.67,0,0,0,3.6-1.66,4.09,4.09,0,0,0,1.58-3.06,2,2,0,0,0-2.26-1.85c-1.63.3-2.86,3-3,4.49,0,.05,0,.43,0,.85-.12-.9-.25-1.8-.41-2.69a34,34,0,0,0-1.08-4.5,13.54,13.54,0,0,0,3.71-1.69,4.12,4.12,0,0,0,1.58-3.07,2,2,0,0,0-2.26-1.85c-1.63.3-2.86,3-3.05,4.49,0,.11,0,1.47,0,1.95l0-.05a25,25,0,0,0-1.84-4.16,35.92,35.92,0,0,0-2.16-3.44c-.72-1-1.44-1.93-2.08-2.72-.35-.43-.68-.81-1-1.17h0s-.57-1.92-.62-2c-.61-1.36-2.56-3.61-4.21-3.44a2,2,0,0,0-1.64,2.42,4.1,4.1,0,0,0,2.38,2.49,13.17,13.17,0,0,0,4,.56c.31.38.65.78,1,1.23.63.81,1.33,1.72,2,2.76.19.28.37.59.56.88-.42-.43-1-1-1.06-1.06-1.16-.92-3.94-2-5.32-1.11a2,2,0,0,0-.34,2.9,4.08,4.08,0,0,0,3.26,1.11,12.82,12.82,0,0,0,3.79-1.33c.4.66.8,1.34,1.18,2.08a25.71,25.71,0,0,1,1.74,4.16l-.09,0c-.33-.44-1.07-1.36-1.14-1.43-1-1-3.68-2.44-5.16-1.68a2,2,0,0,0-.65,2.84,4.06,4.06,0,0,0,3.12,1.46,13.59,13.59,0,0,0,4-.94,35.38,35.38,0,0,1,1,4.38c.17,1.09.3,2.21.41,3.33-.23-.32-1.18-1.52-1.26-1.6-1.05-1-3.69-2.44-5.16-1.69a2,2,0,0,0-.66,2.85,4.09,4.09,0,0,0,3.12,1.46,13.48,13.48,0,0,0,4-.93c.06.51.11,1,.16,1.53.16,1.66.32,3.33.52,5,.07.57.16,1.13.25,1.69-.36-.47-1-1.3-1.09-1.37-1.05-1-3.69-2.44-5.16-1.68a2,2,0,0,0-.66,2.84,4.07,4.07,0,0,0,3.12,1.46,12.72,12.72,0,0,0,3.84-.88c.16.93.33,1.85.54,2.75.1.38.18.78.3,1.15s.22.73.32,1.09c.25.74.48,1.43.73,2.12.13.34.25.67.38,1-.29-.53-.77-1.35-.82-1.42-.88-1.19-3.28-3-4.85-2.45a2,2,0,0,0-1.08,2.71,4.08,4.08,0,0,0,2.86,1.92,13.62,13.62,0,0,0,4-.31c.31.82.62,1.61.93,2.35.68,1.67,1.33,3.12,1.87,4.3h1.21c-.61-1.23-1.37-2.81-2.18-4.69-.29-.66-.58-1.36-.88-2.09a14.15,14.15,0,0,0,3.31-2.13,21.23,21.23,0,0,0,2.26,1.07c-.19.85-.37,1.69-.53,2.47-.42,2.13-.71,4-.92,5.37h1.11c.17-1.38.42-3.14.78-5.19.12-.71.27-1.46.42-2.23a13.42,13.42,0,0,0,4.06,0,4.1,4.1,0,0,0,2.72-2.12A2,2,0,0,0,575,359.1c-1.61-.41-3.87,1.54-4.65,2.79-.06.08-.54,1.1-.78,1.62.09-.46.18-.92.29-1.41.15-.69.33-1.42.5-2.13.1-.36.2-.73.31-1.1s.23-.72.35-1.09c.18-.54.4-1.08.61-1.62a12.8,12.8,0,0,0,3.82.57,4.14,4.14,0,0,0,3-1.69,2,2,0,0,0-.87-2.79c-1.53-.64-4.06.95-5,2.07a6.49,6.49,0,0,0-.43.6c.23-.53.45-1.05.7-1.57.7-1.49,1.45-3,2.21-4.47.15-.31.3-.63.46-.94a12.92,12.92,0,0,0,3.92.6,4.11,4.11,0,0,0,3-1.69,2,2,0,0,0-.87-2.78c-1.53-.65-4.05.94-5,2.06,0,0-.25.35-.49.69.4-.81.78-1.64,1.14-2.46a34.13,34.13,0,0,0,1.58-4.36,13.55,13.55,0,0,0,4,.64,4.12,4.12,0,0,0,3-1.69A2,2,0,0,0,585,336.16Z" style="fill:#263238"/><path d="M583.85,332.22a14.35,14.35,0,0,1-4.1.45s.63-1.91.68-2c.64-1.34,2.66-3.54,4.3-3.32a2,2,0,0,1,1.57,2.46A4.12,4.12,0,0,1,583.85,332.22Z" style="fill:#263238;opacity:0.30000000000000004"/><path d="M554.44,332.84s-.53-1.93-.55-2.06c-.2-1.46.26-4.41,1.76-5.13a2,2,0,0,1,2.66,1.18,4.08,4.08,0,0,1-.71,3.38A14.08,14.08,0,0,1,554.44,332.84Z" style="fill:#263238;opacity:0.30000000000000004"/><path d="M585,336.16c-1.52-.65-4.05.95-5,2.06-.07.08-.84,1.2-1.1,1.61,0,0,0,0,0-.05a26.36,26.36,0,0,0,.75-4.48,35.39,35.39,0,0,0,.1-4.06c0-1.26-.13-2.41-.23-3.42-.06-.55-.13-1.06-.19-1.52l0,0s.58-1.92.6-2.05c.25-1.46-.14-4.42-1.61-5.18a2,2,0,0,0-2.7,1.11,4.1,4.1,0,0,0,.61,3.39,13.06,13.06,0,0,0,3,2.65c.06.49.11,1,.16,1.59.08,1,.16,2.16.16,3.41,0,.33,0,.69,0,1-.11-.59-.28-1.39-.3-1.47-.46-1.41-2.16-3.86-3.82-3.86a2,2,0,0,0-1.89,2.23,4.12,4.12,0,0,0,2.11,2.73,13.36,13.36,0,0,0,3.89,1c0,.77-.06,1.56-.16,2.38a25.14,25.14,0,0,1-.84,4.43h-.09c0-.56-.15-1.72-.17-1.82-.3-1.45-1.72-4.07-3.37-4.25a2,2,0,0,0-2.12,2,4.11,4.11,0,0,0,1.8,2.95,13.92,13.92,0,0,0,3.85,1.42,33.49,33.49,0,0,1-1.62,4.17c-.46,1-1,2-1.49,3,0-.39-.15-1.92-.17-2-.3-1.45-1.73-4.08-3.38-4.26a2,2,0,0,0-2.12,2,4.07,4.07,0,0,0,1.8,2.94,13.61,13.61,0,0,0,3.83,1.42l-.71,1.36c-.78,1.48-1.58,3-2.31,4.44-.26.51-.49,1-.73,1.54,0-.58-.14-1.65-.15-1.74-.3-1.45-1.73-4.07-3.38-4.25a2,2,0,0,0-2.12,2,4.07,4.07,0,0,0,1.8,2.94,12.76,12.76,0,0,0,3.69,1.38c-.38.86-.75,1.73-1.06,2.59-.13.38-.29.75-.39,1.12l-.33,1.1c-.2.75-.39,1.45-.56,2.16-.09.36-.16.7-.24,1.05,0-.6.1-1.55.1-1.64-.08-1.48-1.09-4.29-2.69-4.72a2,2,0,0,0-2.4,1.67,3,3,0,0,0,0,.43,7.68,7.68,0,0,0-1,3.7c0,.1.15,1.21.24,1.78-.17-.44-.35-.87-.53-1.34-.26-.66-.51-1.36-.76-2.05-.11-.36-.23-.72-.35-1.09s-.2-.73-.31-1.1c-.14-.55-.26-1.12-.38-1.69a12.81,12.81,0,0,0,3.5-1.63,4.1,4.1,0,0,0,1.57-3.07,2,2,0,0,0-2.26-1.84c-1.63.3-2.86,3-3.05,4.49,0,0,0,.36,0,.73-.1-.56-.2-1.12-.29-1.69-.23-1.62-.42-3.28-.62-4.95,0-.34-.09-.69-.13-1a12.67,12.67,0,0,0,3.6-1.66,4.09,4.09,0,0,0,1.58-3.06,2,2,0,0,0-2.26-1.85c-1.63.3-2.86,3-3,4.49,0,.05,0,.43,0,.85-.12-.9-.25-1.8-.41-2.69a34,34,0,0,0-1.08-4.5,13.54,13.54,0,0,0,3.71-1.69,4.12,4.12,0,0,0,1.58-3.07,2,2,0,0,0-2.26-1.85c-1.63.3-2.86,3-3.05,4.49,0,.11,0,1.47,0,1.95l0-.05a25,25,0,0,0-1.84-4.16,35.92,35.92,0,0,0-2.16-3.44c-.72-1-1.44-1.93-2.08-2.72-.35-.43-.68-.81-1-1.17h0s-.57-1.92-.62-2c-.61-1.36-2.56-3.61-4.21-3.44a2,2,0,0,0-1.64,2.42,4.1,4.1,0,0,0,2.38,2.49,13.17,13.17,0,0,0,4,.56c.31.38.65.78,1,1.23.63.81,1.33,1.72,2,2.76.19.28.37.59.56.88-.42-.43-1-1-1.06-1.06-1.16-.92-3.94-2-5.32-1.11a2,2,0,0,0-.34,2.9,4.08,4.08,0,0,0,3.26,1.11,12.82,12.82,0,0,0,3.79-1.33c.4.66.8,1.34,1.18,2.08a25.71,25.71,0,0,1,1.74,4.16l-.09,0c-.33-.44-1.07-1.36-1.14-1.43-1-1-3.68-2.44-5.16-1.68a2,2,0,0,0-.65,2.84,4.06,4.06,0,0,0,3.12,1.46,13.59,13.59,0,0,0,4-.94,35.38,35.38,0,0,1,1,4.38c.17,1.09.3,2.21.41,3.33-.23-.32-1.18-1.52-1.26-1.6-1.05-1-3.69-2.44-5.16-1.69a2,2,0,0,0-.66,2.85,4.09,4.09,0,0,0,3.12,1.46,13.48,13.48,0,0,0,4-.93c.06.51.11,1,.16,1.53.16,1.66.32,3.33.52,5,.07.57.16,1.13.25,1.69-.36-.47-1-1.3-1.09-1.37-1.05-1-3.69-2.44-5.16-1.68a2,2,0,0,0-.66,2.84,4.07,4.07,0,0,0,3.12,1.46,12.72,12.72,0,0,0,3.84-.88c.16.93.33,1.85.54,2.75.1.38.18.78.3,1.15s.22.73.32,1.09c.25.74.48,1.43.73,2.12.13.34.25.67.38,1-.29-.53-.77-1.35-.82-1.42-.88-1.19-3.28-3-4.85-2.45a2,2,0,0,0-1.08,2.71,4.08,4.08,0,0,0,2.86,1.92,13.62,13.62,0,0,0,4-.31c.31.82.62,1.61.93,2.35.68,1.67,1.33,3.12,1.87,4.3h1.21c-.61-1.23-1.37-2.81-2.18-4.69-.29-.66-.58-1.36-.88-2.09a14.15,14.15,0,0,0,3.31-2.13,21.23,21.23,0,0,0,2.26,1.07c-.19.85-.37,1.69-.53,2.47-.42,2.13-.71,4-.92,5.37h1.11c.17-1.38.42-3.14.78-5.19.12-.71.27-1.46.42-2.23a13.42,13.42,0,0,0,4.06,0,4.1,4.1,0,0,0,2.72-2.12A2,2,0,0,0,575,359.1c-1.61-.41-3.87,1.54-4.65,2.79-.06.08-.54,1.1-.78,1.62.09-.46.18-.92.29-1.41.15-.69.33-1.42.5-2.13.1-.36.2-.73.31-1.1s.23-.72.35-1.09c.18-.54.4-1.08.61-1.62a12.8,12.8,0,0,0,3.82.57,4.14,4.14,0,0,0,3-1.69,2,2,0,0,0-.87-2.79c-1.53-.64-4.06.95-5,2.07a6.49,6.49,0,0,0-.43.6c.23-.53.45-1.05.7-1.57.7-1.49,1.45-3,2.21-4.47.15-.31.3-.63.46-.94a12.92,12.92,0,0,0,3.92.6,4.11,4.11,0,0,0,3-1.69,2,2,0,0,0-.87-2.78c-1.53-.65-4.05.94-5,2.06,0,0-.25.35-.49.69.4-.81.78-1.64,1.14-2.46a34.13,34.13,0,0,0,1.58-4.36,13.55,13.55,0,0,0,4,.64,4.12,4.12,0,0,0,3-1.69A2,2,0,0,0,585,336.16Z" style="fill:#263238;opacity:0.30000000000000004"/><path d="M86.22,332.84s-.53-1.93-.55-2.06c-.2-1.46.27-4.41,1.76-5.13a2,2,0,0,1,2.67,1.18,4.15,4.15,0,0,1-.71,3.38A14.29,14.29,0,0,1,86.22,332.84Z" style="fill:#263238"/><path d="M115.63,332.22a14.35,14.35,0,0,1-4.1.45s.63-1.91.68-2c.64-1.34,2.66-3.54,4.3-3.32a2,2,0,0,1,1.57,2.46A4.12,4.12,0,0,1,115.63,332.22Z" style="fill:#263238"/><path d="M116.76,336.16c-1.52-.65-4.05.95-5,2.06-.07.08-.84,1.2-1.1,1.61,0,0,0,0,0-.05a24.51,24.51,0,0,0,.75-4.48,35.39,35.39,0,0,0,.1-4.06c0-1.26-.13-2.41-.23-3.42-.06-.55-.12-1.06-.19-1.52l0,0s.58-1.92.6-2.05c.25-1.46-.14-4.42-1.61-5.18a2,2,0,0,0-2.7,1.11,4.07,4.07,0,0,0,.62,3.39,12.84,12.84,0,0,0,3,2.65c.06.49.11,1,.16,1.59.08,1,.16,2.16.16,3.41,0,.33,0,.69,0,1-.11-.59-.27-1.39-.3-1.47-.45-1.41-2.16-3.86-3.82-3.86a2,2,0,0,0-1.88,2.23,4.11,4.11,0,0,0,2.1,2.73,13.36,13.36,0,0,0,3.89,1c0,.77-.06,1.56-.16,2.38a24.26,24.26,0,0,1-.84,4.43h-.09c0-.56-.15-1.72-.17-1.82-.29-1.45-1.72-4.07-3.37-4.25a2,2,0,0,0-2.12,2,4.11,4.11,0,0,0,1.8,2.95A13.92,13.92,0,0,0,110.2,340a33.49,33.49,0,0,1-1.62,4.17c-.46,1-1,2-1.49,3,0-.39-.15-1.92-.17-2-.3-1.45-1.73-4.08-3.38-4.26a2,2,0,0,0-2.11,2,4.09,4.09,0,0,0,1.79,2.94,13.61,13.61,0,0,0,3.83,1.42l-.71,1.36c-.78,1.48-1.58,3-2.31,4.44-.26.51-.49,1-.73,1.54,0-.58-.13-1.65-.15-1.74-.3-1.45-1.73-4.07-3.38-4.25a2,2,0,0,0-2.12,2,4.14,4.14,0,0,0,1.8,2.94,12.76,12.76,0,0,0,3.69,1.38c-.38.86-.74,1.73-1.06,2.59-.13.38-.29.75-.39,1.12l-.33,1.1c-.2.75-.39,1.45-.56,2.16l-.24,1.05c0-.6.1-1.55.1-1.64-.08-1.48-1.09-4.29-2.69-4.72a2,2,0,0,0-2.4,1.67,3,3,0,0,0,0,.43,7.68,7.68,0,0,0-1,3.7c0,.1.15,1.21.24,1.78-.17-.44-.35-.87-.53-1.34-.26-.66-.51-1.36-.76-2.05-.11-.36-.23-.72-.35-1.09s-.2-.73-.31-1.1c-.14-.55-.26-1.12-.38-1.69a12.81,12.81,0,0,0,3.5-1.63,4.1,4.1,0,0,0,1.57-3.07,2,2,0,0,0-2.26-1.84c-1.63.3-2.86,3-3,4.49,0,0,0,.36,0,.73-.1-.56-.2-1.12-.28-1.69-.24-1.62-.43-3.28-.63-4.95,0-.34-.09-.69-.13-1a12.67,12.67,0,0,0,3.6-1.66,4.09,4.09,0,0,0,1.58-3.06,2,2,0,0,0-2.26-1.85c-1.63.3-2.86,3-3,4.49,0,.05,0,.43,0,.85-.12-.9-.26-1.8-.41-2.69a35.62,35.62,0,0,0-1.09-4.5,13.54,13.54,0,0,0,3.71-1.69,4.12,4.12,0,0,0,1.58-3.07,2,2,0,0,0-2.26-1.85c-1.63.3-2.86,3-3.05,4.49,0,.11,0,1.47,0,1.95l0-.05a25,25,0,0,0-1.84-4.16,34,34,0,0,0-2.16-3.44c-.72-1-1.44-1.93-2.08-2.72-.35-.43-.68-.81-1-1.17h0s-.57-1.92-.62-2c-.61-1.36-2.56-3.61-4.21-3.44a2,2,0,0,0-1.64,2.42,4.11,4.11,0,0,0,2.39,2.49,13.07,13.07,0,0,0,3.95.56c.31.38.65.78,1,1.23.62.81,1.32,1.72,2,2.76.19.28.38.59.56.88l-1.06-1.06c-1.16-.92-3.93-2-5.32-1.11a2,2,0,0,0-.34,2.9,4.09,4.09,0,0,0,3.27,1.11,12.85,12.85,0,0,0,3.78-1.33c.4.66.81,1.34,1.18,2.08a24.84,24.84,0,0,1,1.74,4.16l-.09,0c-.33-.44-1.07-1.36-1.13-1.43-1-1-3.69-2.44-5.16-1.68a2,2,0,0,0-.66,2.84,4.06,4.06,0,0,0,3.12,1.46,13.77,13.77,0,0,0,4-.94,35.37,35.37,0,0,1,.95,4.38c.17,1.09.3,2.21.41,3.33-.22-.32-1.18-1.52-1.26-1.6-1-1-3.69-2.44-5.16-1.69a2,2,0,0,0-.66,2.85,4.1,4.1,0,0,0,3.12,1.46,13.48,13.48,0,0,0,4-.93c.06.51.11,1,.16,1.53.16,1.66.32,3.33.52,5,.07.57.16,1.13.25,1.69-.36-.47-1-1.3-1.09-1.37-1-1-3.69-2.44-5.16-1.68a2,2,0,0,0-.66,2.84,4.07,4.07,0,0,0,3.12,1.46,12.79,12.79,0,0,0,3.85-.88c.15.93.32,1.85.53,2.75.1.38.18.78.3,1.15l.33,1.09c.25.74.48,1.43.73,2.12.12.34.25.67.37,1-.29-.53-.77-1.35-.82-1.42-.88-1.19-3.28-3-4.85-2.45A2,2,0,0,0,87,363a4.07,4.07,0,0,0,2.87,1.92,13.68,13.68,0,0,0,4-.31c.31.82.62,1.61.92,2.35.68,1.67,1.33,3.12,1.87,4.3h1.21c-.61-1.23-1.37-2.81-2.18-4.69-.29-.66-.58-1.36-.88-2.09a14,14,0,0,0,3.31-2.13,21.23,21.23,0,0,0,2.26,1.07c-.19.85-.37,1.69-.52,2.47-.43,2.13-.72,4-.92,5.37h1.1c.17-1.38.42-3.14.78-5.19.12-.71.27-1.46.42-2.23a13.42,13.42,0,0,0,4.06,0,4.07,4.07,0,0,0,2.72-2.12,2,2,0,0,0-1.28-2.62c-1.61-.41-3.87,1.54-4.65,2.79,0,.08-.54,1.1-.78,1.62.09-.46.19-.92.29-1.41.15-.69.33-1.42.5-2.13.1-.36.21-.73.31-1.1s.23-.72.35-1.09c.18-.54.4-1.08.62-1.62a12.68,12.68,0,0,0,3.81.57,4.14,4.14,0,0,0,3-1.69,2,2,0,0,0-.87-2.79c-1.53-.64-4.05.95-5,2.07,0,0-.21.29-.42.6.22-.53.44-1.05.69-1.57.7-1.49,1.45-3,2.21-4.47l.46-.94a12.92,12.92,0,0,0,3.92.6,4.09,4.09,0,0,0,3-1.69,2,2,0,0,0-.87-2.78c-1.52-.65-4,.94-5,2.06,0,0-.25.35-.49.69.4-.81.79-1.64,1.14-2.46a34.13,34.13,0,0,0,1.58-4.36,13.55,13.55,0,0,0,4,.64,4.11,4.11,0,0,0,3-1.69A2,2,0,0,0,116.76,336.16Z" style="fill:#263238"/><path d="M115.63,332.22a14.35,14.35,0,0,1-4.1.45s.63-1.91.68-2c.64-1.34,2.66-3.54,4.3-3.32a2,2,0,0,1,1.57,2.46A4.12,4.12,0,0,1,115.63,332.22Z" style="fill:#263238;opacity:0.30000000000000004"/><path d="M86.22,332.84s-.53-1.93-.55-2.06c-.2-1.46.27-4.41,1.76-5.13a2,2,0,0,1,2.67,1.18,4.15,4.15,0,0,1-.71,3.38A14.29,14.29,0,0,1,86.22,332.84Z" style="fill:#263238;opacity:0.30000000000000004"/><path d="M116.76,336.16c-1.52-.65-4.05.95-5,2.06-.07.08-.84,1.2-1.1,1.61,0,0,0,0,0-.05a24.51,24.51,0,0,0,.75-4.48,35.39,35.39,0,0,0,.1-4.06c0-1.26-.13-2.41-.23-3.42-.06-.55-.12-1.06-.19-1.52l0,0s.58-1.92.6-2.05c.25-1.46-.14-4.42-1.61-5.18a2,2,0,0,0-2.7,1.11,4.07,4.07,0,0,0,.62,3.39,12.84,12.84,0,0,0,3,2.65c.06.49.11,1,.16,1.59.08,1,.16,2.16.16,3.41,0,.33,0,.69,0,1-.11-.59-.27-1.39-.3-1.47-.45-1.41-2.16-3.86-3.82-3.86a2,2,0,0,0-1.88,2.23,4.11,4.11,0,0,0,2.1,2.73,13.36,13.36,0,0,0,3.89,1c0,.77-.06,1.56-.16,2.38a24.26,24.26,0,0,1-.84,4.43h-.09c0-.56-.15-1.72-.17-1.82-.29-1.45-1.72-4.07-3.37-4.25a2,2,0,0,0-2.12,2,4.11,4.11,0,0,0,1.8,2.95A13.92,13.92,0,0,0,110.2,340a33.49,33.49,0,0,1-1.62,4.17c-.46,1-1,2-1.49,3,0-.39-.15-1.92-.17-2-.3-1.45-1.73-4.08-3.38-4.26a2,2,0,0,0-2.11,2,4.09,4.09,0,0,0,1.79,2.94,13.61,13.61,0,0,0,3.83,1.42l-.71,1.36c-.78,1.48-1.58,3-2.31,4.44-.26.51-.49,1-.73,1.54,0-.58-.13-1.65-.15-1.74-.3-1.45-1.73-4.07-3.38-4.25a2,2,0,0,0-2.12,2,4.14,4.14,0,0,0,1.8,2.94,12.76,12.76,0,0,0,3.69,1.38c-.38.86-.74,1.73-1.06,2.59-.13.38-.29.75-.39,1.12l-.33,1.1c-.2.75-.39,1.45-.56,2.16l-.24,1.05c0-.6.1-1.55.1-1.64-.08-1.48-1.09-4.29-2.69-4.72a2,2,0,0,0-2.4,1.67,3,3,0,0,0,0,.43,7.68,7.68,0,0,0-1,3.7c0,.1.15,1.21.24,1.78-.17-.44-.35-.87-.53-1.34-.26-.66-.51-1.36-.76-2.05-.11-.36-.23-.72-.35-1.09s-.2-.73-.31-1.1c-.14-.55-.26-1.12-.38-1.69a12.81,12.81,0,0,0,3.5-1.63,4.1,4.1,0,0,0,1.57-3.07,2,2,0,0,0-2.26-1.84c-1.63.3-2.86,3-3,4.49,0,0,0,.36,0,.73-.1-.56-.2-1.12-.28-1.69-.24-1.62-.43-3.28-.63-4.95,0-.34-.09-.69-.13-1a12.67,12.67,0,0,0,3.6-1.66,4.09,4.09,0,0,0,1.58-3.06,2,2,0,0,0-2.26-1.85c-1.63.3-2.86,3-3,4.49,0,.05,0,.43,0,.85-.12-.9-.26-1.8-.41-2.69a35.62,35.62,0,0,0-1.09-4.5,13.54,13.54,0,0,0,3.71-1.69,4.12,4.12,0,0,0,1.58-3.07,2,2,0,0,0-2.26-1.85c-1.63.3-2.86,3-3.05,4.49,0,.11,0,1.47,0,1.95l0-.05a25,25,0,0,0-1.84-4.16,34,34,0,0,0-2.16-3.44c-.72-1-1.44-1.93-2.08-2.72-.35-.43-.68-.81-1-1.17h0s-.57-1.92-.62-2c-.61-1.36-2.56-3.61-4.21-3.44a2,2,0,0,0-1.64,2.42,4.11,4.11,0,0,0,2.39,2.49,13.07,13.07,0,0,0,3.95.56c.31.38.65.78,1,1.23.62.81,1.32,1.72,2,2.76.19.28.38.59.56.88l-1.06-1.06c-1.16-.92-3.93-2-5.32-1.11a2,2,0,0,0-.34,2.9,4.09,4.09,0,0,0,3.27,1.11,12.85,12.85,0,0,0,3.78-1.33c.4.66.81,1.34,1.18,2.08a24.84,24.84,0,0,1,1.74,4.16l-.09,0c-.33-.44-1.07-1.36-1.13-1.43-1-1-3.69-2.44-5.16-1.68a2,2,0,0,0-.66,2.84,4.06,4.06,0,0,0,3.12,1.46,13.77,13.77,0,0,0,4-.94,35.37,35.37,0,0,1,.95,4.38c.17,1.09.3,2.21.41,3.33-.22-.32-1.18-1.52-1.26-1.6-1-1-3.69-2.44-5.16-1.69a2,2,0,0,0-.66,2.85,4.1,4.1,0,0,0,3.12,1.46,13.48,13.48,0,0,0,4-.93c.06.51.11,1,.16,1.53.16,1.66.32,3.33.52,5,.07.57.16,1.13.25,1.69-.36-.47-1-1.3-1.09-1.37-1-1-3.69-2.44-5.16-1.68a2,2,0,0,0-.66,2.84,4.07,4.07,0,0,0,3.12,1.46,12.79,12.79,0,0,0,3.85-.88c.15.93.32,1.85.53,2.75.1.38.18.78.3,1.15l.33,1.09c.25.74.48,1.43.73,2.12.12.34.25.67.37,1-.29-.53-.77-1.35-.82-1.42-.88-1.19-3.28-3-4.85-2.45A2,2,0,0,0,87,363a4.07,4.07,0,0,0,2.87,1.92,13.68,13.68,0,0,0,4-.31c.31.82.62,1.61.92,2.35.68,1.67,1.33,3.12,1.87,4.3h1.21c-.61-1.23-1.37-2.81-2.18-4.69-.29-.66-.58-1.36-.88-2.09a14,14,0,0,0,3.31-2.13,21.23,21.23,0,0,0,2.26,1.07c-.19.85-.37,1.69-.52,2.47-.43,2.13-.72,4-.92,5.37h1.1c.17-1.38.42-3.14.78-5.19.12-.71.27-1.46.42-2.23a13.42,13.42,0,0,0,4.06,0,4.07,4.07,0,0,0,2.72-2.12,2,2,0,0,0-1.28-2.62c-1.61-.41-3.87,1.54-4.65,2.79,0,.08-.54,1.1-.78,1.62.09-.46.19-.92.29-1.41.15-.69.33-1.42.5-2.13.1-.36.21-.73.31-1.1s.23-.72.35-1.09c.18-.54.4-1.08.62-1.62a12.68,12.68,0,0,0,3.81.57,4.14,4.14,0,0,0,3-1.69,2,2,0,0,0-.87-2.79c-1.53-.64-4.05.95-5,2.07,0,0-.21.29-.42.6.22-.53.44-1.05.69-1.57.7-1.49,1.45-3,2.21-4.47l.46-.94a12.92,12.92,0,0,0,3.92.6,4.09,4.09,0,0,0,3-1.69,2,2,0,0,0-.87-2.78c-1.52-.65-4,.94-5,2.06,0,0-.25.35-.49.69.4-.81.79-1.64,1.14-2.46a34.13,34.13,0,0,0,1.58-4.36,13.55,13.55,0,0,0,4,.64,4.11,4.11,0,0,0,3-1.69A2,2,0,0,0,116.76,336.16Z" style="fill:#263238;opacity:0.30000000000000004"/></g><g id="Web_Page" data-name="Web Page"><rect x="107.61" y="90.91" width="421.26" height="280.34" style="fill:#c6ff00"/><path d="M172,205.48l6.14,6.15h3.89l4.85-3.88,12.29,1,3.23,6.79h6.8l4.52-2.59h8.41l.65-2.59L229,210l1,2.59,7.11-.65.33,5.18L225.08,223l1,7.12,7.43,6.46,2.27,6.8h4.85l2.59-7.12-3.88-7.76,2.26-1.3,4.85,4.86,2.91-2.27,6.8,7.44-1.62,4.53-8.73-.65-1.62,5.5,6.79.65-.32,4.53L245.79,253l-1.3,10-7.44,1,2.27,8.08-3.88.33-3.24-6.79-10.35,4.2-1,5.5,1.29,2.59,3.89-2.59,3.23-.32-.65,3.88,5.5.32.33,5.5,3.88,1.29,5.17,2.27,12.62-4.53,7.76,10.35,16.5,3.23v17.47l-7.44,1L264.22,332l-7.11,2.59-1.94,3.56-3.24,2.26-1.29,5.83,4.2,5.17-2.58,1-7.44-3.88v-9.06l4.52-25.87-10.35-12,1-11.32-6.79-.65-3.88-6.14-14.23-4.53-1.3-8.74L207,266.94l.32,2.91,3.56,3.23-.64,2.59-5.83-4.2-2.26-7.77-9.06-5.17,1-12.94-12.29-15.85L172,227.8l-4.85,12.62h-9.71v-2.59l6.8-1.3v-6.79l-7.12-.32V223l4.2-5.82-2.58-5.5,4.52-6.47Zm25.87-9.7-5.49,6.79,3.88,2.27,4.85-1.94,2.91,1,1,5.17,5.18,1.29,3.23-1.61,3.56,1.94,1.62-3.56-4.53-2.26-.65-4.86-3.88-2.26-3.88,1.94Zm35.26,1.94L229.61,200l2.27,6.47,5.17,1.62,2.27-.65,5.17,6.15-1,5.82,5.82,5.18,3.24-1.3-2.91-6.47,4.53-1.29-7.44-12-5.18,1-3.88-1.61ZM254.52,156l-6.79,1.3-5.5-2.27-11,5.83,2.26,7.44-8.08-4.53-4.21,1.29,6.15,13.59,5.82,1.61v7.44l2.59.65,8.41-4.85-1-3.24L248.37,167l4.86-2.26,2.26-3.88ZM238.67,191.9l-7.12-1-4.2-4.53-2.27,2.26,3.56,3.88,7.77,2.27Zm19.73-28.14-6.47,8.41,1,4.85-7.11,2.91,1.94,8.73L261,187.37l2.91,7.76v34H273l4.52-12.61,11.33-5.5,2.26-7.44,4.2-2.26L295,181.55l5.5-4.85L301.1,166h-2.91l-1,5.82H292l-.32-10-8.09.32,7.76-4.21v-3.55l-8.08-1.62-13.59,2.59v3.56h3.88L273,164.4l-8.41.33-2.27-4.85S258.72,161.82,258.4,163.76Zm72.45,11-5.49,1.95.64,4.85,3.56.32-.65,4.53h5.18v-5.18l3.88,3.56,2.26-1.29-3.55-5.18,2.58-1.94v-3.23l-3.55.32Zm45.94,13.59-10,6.15-1,6.46,2.91,7.12,3.23-1-1-6.79,2.91-5.82,6.15-3.24.65-4.85Zm-24.68,27.58.95-3.81-11-5.57-12.37,3.53L328.32,220l-10.6,8.83,4.89,2.45,3-.82L327,236l5.71-2.45.68-13.73,5-2.31,1.09,5-4.08,3.4v2.17l11,.14.27,2.58-8.29,1.63-.41,5.57-16.85,2.72L317.18,246l-3.94-.14-1.77,1.5,1.77,2.58-1.64,1.63-1.76-1.63-3.54.95,3.94,9.65,2-.68,2-4.48,5.3-3,4.49-.95,3.67,5,.27,2.32,1.5-.55.54-1.49,1.9,1.22-.13-1.9-3.94-6,1.64-.24,5.5,9.38,2.91-.33,1.62-3.56,2.26-5.17,10.35.32.65,5.18-7.12.32-.32,2.27,6.15,1.29-2.27,5.17-10-2.58-2.26,4.2s-3.54.58-4.53-.32-6.79-8.09-6.79-8.09l-18.44,7.44-.64,11h-6.8l2.59,11,19.41,1,1.29,9.38,5.18,2.26.64,12,3.89,5.5,2.91,12,9.05-.65,3.56-8.09,4.85-3.56,2.59-7.11-3.56-10,12-7.11.65-4.86-4.21-1.29-8.08-3.23-6.47-11,3.88-1.62,4.85,9.7,5.5,3.89L372.9,275l-1.61-2.59-7.44-1.3-2.91-4.52,3.23-.65,12,6.14h8.73l6.47,13.59h5.82V273.41h8.41v4.85h8.09v6.15h9.7V277h-5.5v-5.18H434v-4.53l-4.53-4.53v-7.44h6.14v5.83h4.21v-6.8l12.61-4.2v-9.38h-6.79v-4.53l4.53-4.85h11l1.61-6.47h11.33l-8.41,9.7V242h5.17l.32-6.47,5.5-9.7h8.74V215.19l-2.59-5.5-10.68,1.94-1-4.53-11.64-.32.32-3.56-5.82-.65v4.85H439.54l-1.3-4.85L429.51,200l-8.09,1.3h-3.88v-4.53l5.82-3.24V189l-5.82-2.27-13.26,4.21-8.41,9-1.62,5.18-3.56-3.88-3.23,2.91,1.62,3.56-.33,4.85-4.53.65-.32-11-4.85.65.32,9.7-3.55-2.27L359,213.57,355.11,220,348.64,222l-3.55-7.12Zm61.77,73.15-1.13,2.84.56,3-6.24-3.79-1.14,2.46,14.76,9.27,7.57.38.19-1.7-7.38-1.51-4-3.41Zm38.23,17.22-1.89,2.65-5.11-.76-.95-2.27-2.65.38-.76,2.65-7.19.76v3.78H426V319l1.61,1.61,1.61,7.1,4.35.37,6.63-4.16,7.19,1.14,5.49,7.57H457l6.43-11.93v-4.92l-5.67-2.27-2.46-7.76Zm-10-11.54-.95,1.89,7.38,1.7,1.89,4.92,3.41-.19,4.54,2.46,1.52-1.7-8.9-7.19Zm-77.29,11.66-6,1.36v7.63l3.81.27,3.82-6.81Z" style="fill:#263238"/><path d="M480.5,146.5H156a9.31,9.31,0,0,1-9.31-9.31h0a9.31,9.31,0,0,1,9.31-9.32H480.5a9.32,9.32,0,0,1,9.32,9.32h0A9.31,9.31,0,0,1,480.5,146.5Z" style="fill:#fff;stroke:#263238;stroke-linecap:round;stroke-linejoin:round"/><path d="M480.5,146.5H464.3V127.87h16.2a9.32,9.32,0,0,1,9.32,9.32h0A9.31,9.31,0,0,1,480.5,146.5Z" style="fill:#263238;stroke:#263238;stroke-linecap:round;stroke-linejoin:round"/><path d="M476.9,130.23a5.35,5.35,0,1,0,.25,7.56A5.34,5.34,0,0,0,476.9,130.23Zm-.52,6.84a4.29,4.29,0,1,1-.2-6.06A4.3,4.3,0,0,1,476.38,137.07Z" style="fill:#fff"/><path d="M480.91,139.73a.88.88,0,0,0-.9-.18l-1.93-1.82a.53.53,0,0,0-.74,0l-.17.18a.52.52,0,0,0,0,.74l1.91,1.79a.9.9,0,0,0,.23.95l3.27,3.21a1.16,1.16,0,0,0,1.64,0h0a1.15,1.15,0,0,0-.05-1.63Z" style="fill:#fff"/><rect x="107.61" y="90.68" width="421.26" height="20.15" style="fill:#263238;stroke:#263238;stroke-linecap:round;stroke-linejoin:round"/><circle cx="492.21" cy="99.49" r="3.53" style="fill:#fff;stroke:#263238;stroke-linecap:round;stroke-linejoin:round"/><circle cx="505.07" cy="99.49" r="3.53" style="fill:#fff;stroke:#263238;stroke-linecap:round;stroke-linejoin:round"/><path d="M521.46,99.49A3.53,3.53,0,1,1,517.93,96,3.53,3.53,0,0,1,521.46,99.49Z" style="fill:#fff;stroke:#263238;stroke-linecap:round;stroke-linejoin:round"/><path d="M120.27,276.31h-2a.5.5,0,0,1-.5-.5.51.51,0,0,1,.5-.5h2a.5.5,0,0,1,.5.5A.5.5,0,0,1,120.27,276.31Zm.5,1.82a.5.5,0,0,0-.5-.5h-2a.51.51,0,0,0-.5.5.5.5,0,0,0,.5.5h2A.5.5,0,0,0,120.77,278.13Zm0,2.32a.5.5,0,0,0-.5-.5h-2a.51.51,0,0,0-.5.5.5.5,0,0,0,.5.5h2A.5.5,0,0,0,120.77,280.45Zm0,2.32a.5.5,0,0,0-.5-.5h-2a.5.5,0,0,0,0,1h2A.5.5,0,0,0,120.77,282.77Zm0,2.32a.5.5,0,0,0-.5-.5h-2a.5.5,0,0,0,0,1h2A.5.5,0,0,0,120.77,285.09Zm0,2.32a.5.5,0,0,0-.5-.5h-2a.5.5,0,0,0,0,1h2A.5.5,0,0,0,120.77,287.41Zm0,2.32a.5.5,0,0,0-.5-.5h-2a.5.5,0,0,0,0,1h2A.5.5,0,0,0,120.77,289.73Zm0,2.32a.5.5,0,0,0-.5-.5h-2a.5.5,0,0,0-.5.5.51.51,0,0,0,.5.5h2A.5.5,0,0,0,120.77,292.05Zm7.59-16.24a.5.5,0,0,0-.5-.5h-5.32a.5.5,0,0,0-.5.5.5.5,0,0,0,.5.5h5.32A.5.5,0,0,0,128.36,275.81Zm0,2.32a.5.5,0,0,0-.5-.5h-5.32a.5.5,0,0,0-.5.5.5.5,0,0,0,.5.5h5.32A.5.5,0,0,0,128.36,278.13Zm0,2.32a.5.5,0,0,0-.5-.5h-5.32a.5.5,0,0,0-.5.5.5.5,0,0,0,.5.5h5.32A.5.5,0,0,0,128.36,280.45Zm0,2.32a.5.5,0,0,0-.5-.5h-5.32a.5.5,0,0,0,0,1h5.32A.5.5,0,0,0,128.36,282.77Zm0,2.32a.5.5,0,0,0-.5-.5h-5.32a.5.5,0,0,0,0,1h5.32A.5.5,0,0,0,128.36,285.09Zm6.38,2.32a.5.5,0,0,0-.5-.5h-5.33a.5.5,0,0,0,0,1h5.33A.5.5,0,0,0,134.74,287.41Zm0,2.32a.5.5,0,0,0-.5-.5h-5.33a.5.5,0,1,0,0,1h5.33A.5.5,0,0,0,134.74,289.73Zm0,2.32a.5.5,0,0,0-.5-.5h-5.33a.5.5,0,0,0-.5.5.51.51,0,0,0,.5.5h5.33A.5.5,0,0,0,134.74,292.05Zm-4-16.24a.58.58,0,1,0-.58.58A.58.58,0,0,0,130.71,275.81Zm1.74,0a.58.58,0,1,0-.58.58A.58.58,0,0,0,132.45,275.81Zm1.74,0a.58.58,0,1,0-.58.58A.58.58,0,0,0,134.19,275.81Zm1.73,0a.57.57,0,0,0-.57-.58.58.58,0,0,0,0,1.16A.57.57,0,0,0,135.92,275.81Zm1.74,0a.58.58,0,1,0-.58.58A.58.58,0,0,0,137.66,275.81Zm1.74,0a.58.58,0,1,0-.58.58A.58.58,0,0,0,139.4,275.81Zm-8.69,4.64a.58.58,0,1,0-.58.58A.58.58,0,0,0,130.71,280.45Zm1.74,0a.58.58,0,1,0-.58.58A.58.58,0,0,0,132.45,280.45Zm1.74,0a.58.58,0,1,0-.58.58A.58.58,0,0,0,134.19,280.45Zm1.73,0a.57.57,0,0,0-.57-.58.58.58,0,0,0,0,1.16A.57.57,0,0,0,135.92,280.45Zm1.74,0a.58.58,0,1,0-.58.58A.58.58,0,0,0,137.66,280.45Zm1.74,0a.58.58,0,1,0-.58.58A.58.58,0,0,0,139.4,280.45Zm-2.75,6.67a.58.58,0,1,0-.58.58A.58.58,0,0,0,136.65,287.12Zm1.74,0a.58.58,0,1,0-.58.58A.58.58,0,0,0,138.39,287.12Zm1.74,0a.58.58,0,1,0-.58.58A.58.58,0,0,0,140.13,287.12Zm1.74,0a.58.58,0,1,0-.58.58A.58.58,0,0,0,141.87,287.12Zm1.74,0a.58.58,0,1,0-.58.58A.58.58,0,0,0,143.61,287.12Zm1.74,0a.58.58,0,1,0-.58.58A.58.58,0,0,0,145.35,287.12Zm-8.7,4.78a.58.58,0,1,0-.58.58A.58.58,0,0,0,136.65,291.9Zm1.74,0a.58.58,0,1,0-.58.58A.58.58,0,0,0,138.39,291.9Zm1.74,0a.58.58,0,1,0-.58.58A.58.58,0,0,0,140.13,291.9Zm1.74,0a.58.58,0,1,0-.58.58A.58.58,0,0,0,141.87,291.9Zm1.74,0a.58.58,0,1,0-.58.58A.58.58,0,0,0,143.61,291.9Zm1.74,0a.58.58,0,1,0-.58.58A.58.58,0,0,0,145.35,291.9Z" style="fill:#263238"/><path d="M120.27,294.87h-2a.5.5,0,0,1-.5-.5.51.51,0,0,1,.5-.5h2a.5.5,0,0,1,.5.5A.5.5,0,0,1,120.27,294.87Zm.5,1.82a.5.5,0,0,0-.5-.5h-2a.5.5,0,0,0,0,1h2A.5.5,0,0,0,120.77,296.69Zm0,2.32a.5.5,0,0,0-.5-.5h-2a.5.5,0,0,0,0,1h2A.5.5,0,0,0,120.77,299Zm0,2.32a.5.5,0,0,0-.5-.5h-2a.5.5,0,0,0,0,1h2A.5.5,0,0,0,120.77,301.33Zm0,2.32a.5.5,0,0,0-.5-.5h-2a.5.5,0,0,0-.5.5.51.51,0,0,0,.5.5h2A.5.5,0,0,0,120.77,303.65Zm0,2.32a.5.5,0,0,0-.5-.5h-2a.5.5,0,0,0-.5.5.51.51,0,0,0,.5.5h2A.5.5,0,0,0,120.77,306Zm0,2.32a.5.5,0,0,0-.5-.5h-2a.5.5,0,0,0-.5.5.51.51,0,0,0,.5.5h2A.5.5,0,0,0,120.77,308.29Zm0,2.32a.5.5,0,0,0-.5-.5h-2a.5.5,0,0,0-.5.5.51.51,0,0,0,.5.5h2A.5.5,0,0,0,120.77,310.61Zm7.59-16.24a.5.5,0,0,0-.5-.5h-5.32a.5.5,0,0,0-.5.5.5.5,0,0,0,.5.5h5.32A.5.5,0,0,0,128.36,294.37Zm0,2.32a.5.5,0,0,0-.5-.5h-5.32a.5.5,0,0,0,0,1h5.32A.5.5,0,0,0,128.36,296.69Zm0,2.32a.5.5,0,0,0-.5-.5h-5.32a.5.5,0,0,0,0,1h5.32A.5.5,0,0,0,128.36,299Zm0,2.32a.5.5,0,0,0-.5-.5h-5.32a.5.5,0,0,0,0,1h5.32A.5.5,0,0,0,128.36,301.33Zm0,2.32a.5.5,0,0,0-.5-.5h-5.32a.5.5,0,0,0-.5.5.5.5,0,0,0,.5.5h5.32A.5.5,0,0,0,128.36,303.65Zm6.38,2.32a.5.5,0,0,0-.5-.5h-5.33a.5.5,0,0,0-.5.5.51.51,0,0,0,.5.5h5.33A.5.5,0,0,0,134.74,306Zm0,2.32a.5.5,0,0,0-.5-.5h-5.33a.5.5,0,0,0-.5.5.51.51,0,0,0,.5.5h5.33A.5.5,0,0,0,134.74,308.29Zm0,2.32a.5.5,0,0,0-.5-.5h-5.33a.5.5,0,0,0-.5.5.51.51,0,0,0,.5.5h5.33A.5.5,0,0,0,134.74,310.61Zm-4-16.24a.58.58,0,1,0-.58.58A.58.58,0,0,0,130.71,294.37Zm1.74,0a.58.58,0,1,0-.58.58A.58.58,0,0,0,132.45,294.37Zm1.74,0a.58.58,0,1,0-.58.58A.58.58,0,0,0,134.19,294.37Zm1.73,0a.57.57,0,0,0-.57-.58.58.58,0,1,0,0,1.16A.57.57,0,0,0,135.92,294.37Zm1.74,0a.58.58,0,1,0-.58.58A.58.58,0,0,0,137.66,294.37Zm1.74,0a.58.58,0,1,0-.58.58A.58.58,0,0,0,139.4,294.37ZM130.71,299a.58.58,0,1,0-.58.58A.58.58,0,0,0,130.71,299Zm1.74,0a.58.58,0,1,0-.58.58A.58.58,0,0,0,132.45,299Zm1.74,0a.58.58,0,1,0-.58.58A.58.58,0,0,0,134.19,299Zm1.73,0a.57.57,0,0,0-.57-.58.58.58,0,1,0,0,1.16A.57.57,0,0,0,135.92,299Zm1.74,0a.58.58,0,1,0-.58.58A.58.58,0,0,0,137.66,299Zm1.74,0a.58.58,0,1,0-.58.58A.58.58,0,0,0,139.4,299Zm-2.75,6.67a.58.58,0,1,0-.58.58A.58.58,0,0,0,136.65,305.68Zm1.74,0a.58.58,0,1,0-.58.58A.58.58,0,0,0,138.39,305.68Zm1.74,0a.58.58,0,1,0-.58.58A.58.58,0,0,0,140.13,305.68Zm1.74,0a.58.58,0,1,0-.58.58A.58.58,0,0,0,141.87,305.68Zm1.74,0a.58.58,0,1,0-.58.58A.58.58,0,0,0,143.61,305.68Zm1.74,0a.58.58,0,1,0-.58.58A.58.58,0,0,0,145.35,305.68Zm-8.7,4.78a.58.58,0,1,0-.58.58A.58.58,0,0,0,136.65,310.46Zm1.74,0a.58.58,0,1,0-.58.58A.58.58,0,0,0,138.39,310.46Zm1.74,0a.58.58,0,1,0-.58.58A.58.58,0,0,0,140.13,310.46Zm1.74,0a.58.58,0,1,0-.58.58A.58.58,0,0,0,141.87,310.46Zm1.74,0a.58.58,0,1,0-.58.58A.58.58,0,0,0,143.61,310.46Zm1.74,0a.58.58,0,1,0-.58.58A.58.58,0,0,0,145.35,310.46Z" style="fill:#263238"/><path d="M120.27,313.88h-2a.51.51,0,0,1-.5-.5.5.5,0,0,1,.5-.5h2a.5.5,0,0,1,.5.5A.5.5,0,0,1,120.27,313.88Zm.5,1.82a.5.5,0,0,0-.5-.5h-2a.5.5,0,0,0-.5.5.51.51,0,0,0,.5.5h2A.5.5,0,0,0,120.77,315.7Zm0,2.32a.5.5,0,0,0-.5-.5h-2a.5.5,0,0,0-.5.5.51.51,0,0,0,.5.5h2A.5.5,0,0,0,120.77,318Zm0,2.32a.5.5,0,0,0-.5-.51h-2a.51.51,0,0,0,0,1h2A.5.5,0,0,0,120.77,320.34Zm0,2.31a.5.5,0,0,0-.5-.5h-2a.51.51,0,0,0-.5.5.5.5,0,0,0,.5.5h2A.5.5,0,0,0,120.77,322.65Zm0,2.32a.5.5,0,0,0-.5-.5h-2a.51.51,0,0,0-.5.5.5.5,0,0,0,.5.5h2A.5.5,0,0,0,120.77,325Zm0,2.32a.5.5,0,0,0-.5-.5h-2a.51.51,0,0,0-.5.5.5.5,0,0,0,.5.5h2A.5.5,0,0,0,120.77,327.29Zm0,2.32a.5.5,0,0,0-.5-.5h-2a.51.51,0,0,0-.5.5.5.5,0,0,0,.5.5h2A.5.5,0,0,0,120.77,329.61Zm7.59-16.23a.5.5,0,0,0-.5-.5h-5.32a.5.5,0,0,0-.5.5.5.5,0,0,0,.5.5h5.32A.5.5,0,0,0,128.36,313.38Zm0,2.32a.5.5,0,0,0-.5-.5h-5.32a.5.5,0,0,0-.5.5.5.5,0,0,0,.5.5h5.32A.5.5,0,0,0,128.36,315.7Zm0,2.32a.5.5,0,0,0-.5-.5h-5.32a.5.5,0,0,0-.5.5.5.5,0,0,0,.5.5h5.32A.5.5,0,0,0,128.36,318Zm0,2.32a.5.5,0,0,0-.5-.51h-5.32a.51.51,0,0,0,0,1h5.32A.5.5,0,0,0,128.36,320.34Zm0,2.31a.5.5,0,0,0-.5-.5h-5.32a.5.5,0,0,0-.5.5.5.5,0,0,0,.5.5h5.32A.5.5,0,0,0,128.36,322.65Zm6.38,2.32a.5.5,0,0,0-.5-.5h-5.33a.51.51,0,0,0-.5.5.5.5,0,0,0,.5.5h5.33A.5.5,0,0,0,134.74,325Zm0,2.32a.5.5,0,0,0-.5-.5h-5.33a.51.51,0,0,0-.5.5.5.5,0,0,0,.5.5h5.33A.5.5,0,0,0,134.74,327.29Zm0,2.32a.5.5,0,0,0-.5-.5h-5.33a.51.51,0,0,0-.5.5.5.5,0,0,0,.5.5h5.33A.5.5,0,0,0,134.74,329.61Zm-4-16.23a.58.58,0,1,0-.58.58A.58.58,0,0,0,130.71,313.38Zm1.74,0a.58.58,0,1,0-.58.58A.58.58,0,0,0,132.45,313.38Zm1.74,0a.58.58,0,1,0-.58.58A.58.58,0,0,0,134.19,313.38Zm1.73,0a.57.57,0,0,0-.57-.58.58.58,0,1,0,0,1.16A.57.57,0,0,0,135.92,313.38Zm1.74,0a.58.58,0,1,0-.58.58A.58.58,0,0,0,137.66,313.38Zm1.74,0a.58.58,0,1,0-.58.58A.58.58,0,0,0,139.4,313.38ZM130.71,318a.58.58,0,1,0-.58.58A.58.58,0,0,0,130.71,318Zm1.74,0a.58.58,0,1,0-.58.58A.58.58,0,0,0,132.45,318Zm1.74,0a.58.58,0,1,0-.58.58A.58.58,0,0,0,134.19,318Zm1.73,0a.57.57,0,0,0-.57-.58.58.58,0,0,0,0,1.16A.57.57,0,0,0,135.92,318Zm1.74,0a.58.58,0,1,0-.58.58A.58.58,0,0,0,137.66,318Zm1.74,0a.58.58,0,1,0-.58.58A.58.58,0,0,0,139.4,318Zm-2.75,6.66a.58.58,0,1,0-.58.58A.58.58,0,0,0,136.65,324.68Zm1.74,0a.58.58,0,1,0-.58.58A.58.58,0,0,0,138.39,324.68Zm1.74,0a.58.58,0,1,0-.58.58A.58.58,0,0,0,140.13,324.68Zm1.74,0a.58.58,0,1,0-.58.58A.58.58,0,0,0,141.87,324.68Zm1.74,0a.58.58,0,1,0-.58.58A.58.58,0,0,0,143.61,324.68Zm1.74,0a.58.58,0,1,0-.58.58A.58.58,0,0,0,145.35,324.68Zm-8.7,4.79a.58.58,0,1,0-.58.58A.58.58,0,0,0,136.65,329.47Zm1.74,0a.58.58,0,1,0-.58.58A.58.58,0,0,0,138.39,329.47Zm1.74,0a.58.58,0,1,0-.58.58A.58.58,0,0,0,140.13,329.47Zm1.74,0a.58.58,0,1,0-.58.58A.58.58,0,0,0,141.87,329.47Zm1.74,0a.58.58,0,1,0-.58.58A.58.58,0,0,0,143.61,329.47Zm1.74,0a.58.58,0,1,0-.58.58A.58.58,0,0,0,145.35,329.47Z" style="fill:#263238"/><path d="M149.52,325.22h-2a.5.5,0,0,1,0-1h2a.5.5,0,0,1,0,1ZM150,327a.5.5,0,0,0-.5-.5h-2a.5.5,0,0,0,0,1h2A.5.5,0,0,0,150,327Zm0,2.32a.5.5,0,0,0-.5-.5h-2a.5.5,0,0,0-.5.5.5.5,0,0,0,.5.5h2A.51.51,0,0,0,150,329.36Zm0,2.32a.5.5,0,0,0-.5-.5h-2a.5.5,0,0,0-.5.5.5.5,0,0,0,.5.5h2A.51.51,0,0,0,150,331.68Zm0,2.32a.5.5,0,0,0-.5-.5h-2a.5.5,0,0,0-.5.5.5.5,0,0,0,.5.5h2A.51.51,0,0,0,150,334Zm0,2.32a.5.5,0,0,0-.5-.5h-2a.5.5,0,0,0-.5.5.5.5,0,0,0,.5.5h2A.51.51,0,0,0,150,336.32Zm0,2.31a.51.51,0,0,0-.5-.5h-2a.51.51,0,0,0,0,1h2A.51.51,0,0,0,150,338.63Zm0,2.32a.51.51,0,0,0-.5-.5h-2a.5.5,0,0,0-.5.5.5.5,0,0,0,.5.5h2A.5.5,0,0,0,150,341Zm7.59-16.23a.5.5,0,0,0-.5-.5h-5.33a.5.5,0,1,0,0,1h5.33A.5.5,0,0,0,157.61,324.72Zm0,2.32a.5.5,0,0,0-.5-.5h-5.33a.5.5,0,0,0,0,1h5.33A.5.5,0,0,0,157.61,327Zm0,2.32a.5.5,0,0,0-.5-.5h-5.33a.5.5,0,0,0-.5.5.5.5,0,0,0,.5.5h5.33A.51.51,0,0,0,157.61,329.36Zm0,2.32a.5.5,0,0,0-.5-.5h-5.33a.5.5,0,0,0-.5.5.5.5,0,0,0,.5.5h5.33A.51.51,0,0,0,157.61,331.68Zm0,2.32a.5.5,0,0,0-.5-.5h-5.33a.5.5,0,0,0-.5.5.5.5,0,0,0,.5.5h5.33A.51.51,0,0,0,157.61,334Zm6.38,2.32a.5.5,0,0,0-.51-.5h-5.32a.5.5,0,0,0-.5.5.5.5,0,0,0,.5.5h5.32A.51.51,0,0,0,164,336.32Zm0,2.31a.51.51,0,0,0-.51-.5h-5.32a.51.51,0,0,0,0,1h5.32A.51.51,0,0,0,164,338.63Zm0,2.32a.51.51,0,0,0-.51-.5h-5.32a.5.5,0,0,0-.5.5.5.5,0,0,0,.5.5h5.32A.5.5,0,0,0,164,341Zm-4-16.23a.58.58,0,1,0-.58.58A.58.58,0,0,0,160,324.72Zm1.74,0a.58.58,0,1,0-.58.58A.58.58,0,0,0,161.69,324.72Zm1.74,0a.58.58,0,1,0-.58.58A.58.58,0,0,0,163.43,324.72Zm1.74,0a.58.58,0,1,0-.58.58A.58.58,0,0,0,165.17,324.72Zm1.74,0a.58.58,0,1,0-.58.58A.58.58,0,0,0,166.91,324.72Zm1.74,0a.58.58,0,1,0-.58.58A.58.58,0,0,0,168.65,324.72Zm-8.7,4.64a.58.58,0,1,0-.58.58A.58.58,0,0,0,160,329.36Zm1.74,0a.58.58,0,1,0-.58.58A.58.58,0,0,0,161.69,329.36Zm1.74,0a.58.58,0,1,0-.58.58A.58.58,0,0,0,163.43,329.36Zm1.74,0a.58.58,0,1,0-.58.58A.58.58,0,0,0,165.17,329.36Zm1.74,0a.58.58,0,1,0-.58.58A.58.58,0,0,0,166.91,329.36Zm1.74,0a.58.58,0,1,0-.58.58A.58.58,0,0,0,168.65,329.36ZM165.89,336a.58.58,0,1,0-.58.58A.57.57,0,0,0,165.89,336Zm1.74,0a.58.58,0,1,0-.58.58A.58.58,0,0,0,167.63,336Zm1.74,0a.58.58,0,1,0-.58.58A.58.58,0,0,0,169.37,336Zm1.74,0a.58.58,0,1,0-.58.58A.58.58,0,0,0,171.11,336Zm1.74,0a.58.58,0,1,0-.58.58A.58.58,0,0,0,172.85,336Zm1.74,0a.58.58,0,1,0-.58.58A.58.58,0,0,0,174.59,336Zm-8.7,4.78a.58.58,0,1,0-.58.58A.57.57,0,0,0,165.89,340.81Zm1.74,0a.58.58,0,1,0-.58.58A.58.58,0,0,0,167.63,340.81Zm1.74,0a.58.58,0,1,0-.58.58A.58.58,0,0,0,169.37,340.81Zm1.74,0a.58.58,0,1,0-.58.58A.58.58,0,0,0,171.11,340.81Zm1.74,0a.58.58,0,1,0-.58.58A.58.58,0,0,0,172.85,340.81Zm1.74,0a.58.58,0,1,0-.58.58A.58.58,0,0,0,174.59,340.81Zm1.24-16.09a.5.5,0,0,0-.5-.5H170a.5.5,0,0,0,0,1h5.32A.5.5,0,0,0,175.83,324.72Zm0,2.32a.5.5,0,0,0-.5-.5H170a.5.5,0,0,0,0,1h5.32A.5.5,0,0,0,175.83,327Zm0,2.32a.5.5,0,0,0-.5-.5H170a.5.5,0,0,0-.5.5.5.5,0,0,0,.5.5h5.32A.5.5,0,0,0,175.83,329.36Zm0,2.32a.5.5,0,0,0-.5-.5H170a.5.5,0,0,0-.5.5.5.5,0,0,0,.5.5h5.32A.5.5,0,0,0,175.83,331.68Zm0,2.32a.5.5,0,0,0-.5-.5H170a.5.5,0,0,0-.5.5.5.5,0,0,0,.5.5h5.32A.5.5,0,0,0,175.83,334Zm6.38,2.32a.5.5,0,0,0-.5-.5h-5.33a.5.5,0,0,0-.5.5.51.51,0,0,0,.5.5h5.33A.5.5,0,0,0,182.21,336.32Zm0,2.31a.5.5,0,0,0-.5-.5h-5.33a.51.51,0,0,0,0,1h5.33A.5.5,0,0,0,182.21,338.63Zm0,2.32a.5.5,0,0,0-.5-.5h-5.33a.51.51,0,0,0-.5.5.5.5,0,0,0,.5.5h5.33A.5.5,0,0,0,182.21,341Zm-4-16.23a.58.58,0,1,0-.58.58A.58.58,0,0,0,178.18,324.72Zm1.74,0a.58.58,0,1,0-.58.58A.58.58,0,0,0,179.92,324.72Zm1.74,0a.58.58,0,1,0-.58.58A.58.58,0,0,0,181.66,324.72Zm1.73,0a.58.58,0,1,0-.57.58A.57.57,0,0,0,183.39,324.72Zm1.74,0a.58.58,0,1,0-.58.58A.58.58,0,0,0,185.13,324.72Zm1.74,0a.58.58,0,1,0-.58.58A.58.58,0,0,0,186.87,324.72Zm-8.69,4.64a.58.58,0,1,0-.58.58A.58.58,0,0,0,178.18,329.36Zm1.74,0a.58.58,0,1,0-.58.58A.58.58,0,0,0,179.92,329.36Zm1.74,0a.58.58,0,1,0-.58.58A.58.58,0,0,0,181.66,329.36Zm1.73,0a.58.58,0,1,0-.57.58A.57.57,0,0,0,183.39,329.36Zm1.74,0a.58.58,0,1,0-.58.58A.58.58,0,0,0,185.13,329.36Zm1.74,0a.58.58,0,1,0-.58.58A.58.58,0,0,0,186.87,329.36ZM184.12,336a.58.58,0,1,0-.58.58A.58.58,0,0,0,184.12,336Zm1.74,0a.58.58,0,1,0-.58.58A.58.58,0,0,0,185.86,336Zm1.74,0a.58.58,0,1,0-.58.58A.58.58,0,0,0,187.6,336Zm1.74,0a.58.58,0,1,0-.58.58A.58.58,0,0,0,189.34,336Zm1.74,0a.58.58,0,1,0-.58.58A.58.58,0,0,0,191.08,336Zm1.74,0a.58.58,0,1,0-.58.58A.58.58,0,0,0,192.82,336Zm-8.7,4.78a.58.58,0,1,0-.58.58A.58.58,0,0,0,184.12,340.81Zm1.74,0a.58.58,0,1,0-.58.58A.58.58,0,0,0,185.86,340.81Zm1.74,0a.58.58,0,1,0-.58.58A.58.58,0,0,0,187.6,340.81Zm1.74,0a.58.58,0,1,0-.58.58A.58.58,0,0,0,189.34,340.81Zm1.74,0a.58.58,0,1,0-.58.58A.58.58,0,0,0,191.08,340.81Zm1.74,0a.58.58,0,1,0-.58.58A.58.58,0,0,0,192.82,340.81Zm1.24-16.09a.5.5,0,0,0-.5-.5h-5.33a.5.5,0,0,0,0,1h5.33A.5.5,0,0,0,194.06,324.72Zm0,2.32a.5.5,0,0,0-.5-.5h-5.33a.5.5,0,1,0,0,1h5.33A.5.5,0,0,0,194.06,327Zm0,2.32a.5.5,0,0,0-.5-.5h-5.33a.5.5,0,0,0-.5.5.5.5,0,0,0,.5.5h5.33A.51.51,0,0,0,194.06,329.36Zm0,2.32a.5.5,0,0,0-.5-.5h-5.33a.5.5,0,0,0-.5.5.5.5,0,0,0,.5.5h5.33A.51.51,0,0,0,194.06,331.68Zm0,2.32a.5.5,0,0,0-.5-.5h-5.33a.5.5,0,0,0-.5.5.5.5,0,0,0,.5.5h5.33A.51.51,0,0,0,194.06,334Zm6.38,2.32a.5.5,0,0,0-.51-.5h-5.32a.5.5,0,0,0-.5.5.5.5,0,0,0,.5.5h5.32A.51.51,0,0,0,200.44,336.32Zm0,2.31a.51.51,0,0,0-.51-.5h-5.32a.51.51,0,0,0,0,1h5.32A.51.51,0,0,0,200.44,338.63Zm0,2.32a.51.51,0,0,0-.51-.5h-5.32a.5.5,0,0,0-.5.5.5.5,0,0,0,.5.5h5.32A.5.5,0,0,0,200.44,341Zm-4-16.23a.58.58,0,1,0-.58.58A.58.58,0,0,0,196.4,324.72Zm1.74,0a.58.58,0,1,0-.58.58A.58.58,0,0,0,198.14,324.72Zm1.74,0a.58.58,0,1,0-.58.58A.58.58,0,0,0,199.88,324.72Zm1.74,0a.58.58,0,1,0-.58.58A.58.58,0,0,0,201.62,324.72Zm1.74,0a.58.58,0,1,0-.58.58A.58.58,0,0,0,203.36,324.72Zm1.74,0a.58.58,0,1,0-.58.58A.58.58,0,0,0,205.1,324.72Zm-8.7,4.64a.58.58,0,1,0-.58.58A.58.58,0,0,0,196.4,329.36Zm1.74,0a.58.58,0,1,0-.58.58A.58.58,0,0,0,198.14,329.36Zm1.74,0a.58.58,0,1,0-.58.58A.58.58,0,0,0,199.88,329.36Zm1.74,0a.58.58,0,1,0-.58.58A.58.58,0,0,0,201.62,329.36Zm1.74,0a.58.58,0,1,0-.58.58A.58.58,0,0,0,203.36,329.36Zm1.74,0a.58.58,0,1,0-.58.58A.58.58,0,0,0,205.1,329.36ZM202.34,336a.58.58,0,1,0-.58.58A.57.57,0,0,0,202.34,336Zm1.74,0a.58.58,0,1,0-.58.58A.58.58,0,0,0,204.08,336Zm1.74,0a.58.58,0,1,0-.58.58A.58.58,0,0,0,205.82,336Zm1.74,0a.58.58,0,1,0-.58.58A.58.58,0,0,0,207.56,336Zm1.74,0a.58.58,0,1,0-.58.58A.58.58,0,0,0,209.3,336Zm1.74,0a.58.58,0,1,0-.58.58A.58.58,0,0,0,211,336Zm-8.7,4.78a.58.58,0,1,0-.58.58A.57.57,0,0,0,202.34,340.81Zm1.74,0a.58.58,0,1,0-.58.58A.58.58,0,0,0,204.08,340.81Zm1.74,0a.58.58,0,1,0-.58.58A.58.58,0,0,0,205.82,340.81Zm1.74,0a.58.58,0,1,0-.58.58A.58.58,0,0,0,207.56,340.81Zm1.74,0a.58.58,0,1,0-.58.58A.58.58,0,0,0,209.3,340.81Zm1.74,0a.58.58,0,1,0-.58.58A.58.58,0,0,0,211,340.81Zm1.24-16.09a.5.5,0,0,0-.5-.5h-5.32a.5.5,0,1,0,0,1h5.32A.5.5,0,0,0,212.28,324.72Zm0,2.32a.5.5,0,0,0-.5-.5h-5.32a.5.5,0,1,0,0,1h5.32A.5.5,0,0,0,212.28,327Zm0,2.32a.5.5,0,0,0-.5-.5h-5.32a.5.5,0,0,0-.51.5.51.51,0,0,0,.51.5h5.32A.5.5,0,0,0,212.28,329.36Zm0,2.32a.5.5,0,0,0-.5-.5h-5.32a.5.5,0,0,0-.51.5.51.51,0,0,0,.51.5h5.32A.5.5,0,0,0,212.28,331.68Zm0,2.32a.5.5,0,0,0-.5-.5h-5.32a.5.5,0,0,0-.51.5.51.51,0,0,0,.51.5h5.32A.5.5,0,0,0,212.28,334Zm6.38,2.32a.5.5,0,0,0-.5-.5h-5.33a.5.5,0,0,0-.5.5.51.51,0,0,0,.5.5h5.33A.5.5,0,0,0,218.66,336.32Zm0,2.31a.5.5,0,0,0-.5-.5h-5.33a.51.51,0,0,0,0,1h5.33A.5.5,0,0,0,218.66,338.63Zm0,2.32a.5.5,0,0,0-.5-.5h-5.33a.51.51,0,0,0-.5.5.5.5,0,0,0,.5.5h5.33A.5.5,0,0,0,218.66,341Zm-4-16.23a.58.58,0,1,0-.58.58A.58.58,0,0,0,214.63,324.72Zm1.74,0a.58.58,0,1,0-.58.58A.58.58,0,0,0,216.37,324.72Zm1.74,0a.58.58,0,1,0-.58.58A.58.58,0,0,0,218.11,324.72Zm1.73,0a.58.58,0,1,0-.58.58A.57.57,0,0,0,219.84,324.72Zm1.74,0a.58.58,0,1,0-.58.58A.58.58,0,0,0,221.58,324.72Zm1.74,0a.58.58,0,1,0-.58.58A.58.58,0,0,0,223.32,324.72Zm-8.69,4.64a.58.58,0,1,0-.58.58A.58.58,0,0,0,214.63,329.36Zm1.74,0a.58.58,0,1,0-.58.58A.58.58,0,0,0,216.37,329.36Zm1.74,0a.58.58,0,1,0-.58.58A.58.58,0,0,0,218.11,329.36Zm1.73,0a.58.58,0,1,0-.58.58A.57.57,0,0,0,219.84,329.36Zm1.74,0a.58.58,0,1,0-.58.58A.58.58,0,0,0,221.58,329.36Zm1.74,0a.58.58,0,1,0-.58.58A.58.58,0,0,0,223.32,329.36ZM220.57,336a.58.58,0,1,0-.58.58A.58.58,0,0,0,220.57,336Zm1.74,0a.58.58,0,1,0-.58.58A.58.58,0,0,0,222.31,336Zm1.74,0a.58.58,0,1,0-.58.58A.58.58,0,0,0,224.05,336Zm1.74,0a.58.58,0,1,0-.58.58A.58.58,0,0,0,225.79,336Zm1.74,0a.58.58,0,1,0-.58.58A.58.58,0,0,0,227.53,336Zm1.74,0a.58.58,0,1,0-.58.58A.58.58,0,0,0,229.27,336Zm-8.7,4.78a.58.58,0,1,0-.58.58A.58.58,0,0,0,220.57,340.81Zm1.74,0a.58.58,0,1,0-.58.58A.58.58,0,0,0,222.31,340.81Zm1.74,0a.58.58,0,1,0-.58.58A.58.58,0,0,0,224.05,340.81Zm1.74,0a.58.58,0,1,0-.58.58A.58.58,0,0,0,225.79,340.81Zm1.74,0a.58.58,0,1,0-.58.58A.58.58,0,0,0,227.53,340.81Zm1.74,0a.58.58,0,1,0-.58.58A.58.58,0,0,0,229.27,340.81Z" style="fill:#263238"/><path d="M149.52,346h-2a.5.5,0,0,1-.5-.5.5.5,0,0,1,.5-.5h2a.5.5,0,0,1,.5.5A.51.51,0,0,1,149.52,346Zm.5,1.82a.5.5,0,0,0-.5-.5h-2a.5.5,0,0,0-.5.5.5.5,0,0,0,.5.5h2A.51.51,0,0,0,150,347.81Zm0,2.32a.5.5,0,0,0-.5-.5h-2a.5.5,0,0,0-.5.5.5.5,0,0,0,.5.5h2A.51.51,0,0,0,150,350.13Zm0,2.32a.51.51,0,0,0-.5-.51h-2a.51.51,0,0,0,0,1h2A.51.51,0,0,0,150,352.45Zm0,2.31a.51.51,0,0,0-.5-.5h-2a.5.5,0,0,0-.5.5.5.5,0,0,0,.5.5h2A.5.5,0,0,0,150,354.76Zm0,2.32a.51.51,0,0,0-.5-.5h-2a.5.5,0,0,0-.5.5.5.5,0,0,0,.5.5h2A.5.5,0,0,0,150,357.08Zm0,2.32a.51.51,0,0,0-.5-.5h-2a.5.5,0,0,0-.5.5.5.5,0,0,0,.5.5h2A.5.5,0,0,0,150,359.4Zm0,2.32a.51.51,0,0,0-.5-.5h-2a.5.5,0,0,0-.5.5.5.5,0,0,0,.5.5h2A.5.5,0,0,0,150,361.72Zm7.59-16.23a.5.5,0,0,0-.5-.5h-5.33a.5.5,0,0,0-.5.5.5.5,0,0,0,.5.5h5.33A.51.51,0,0,0,157.61,345.49Zm0,2.32a.5.5,0,0,0-.5-.5h-5.33a.5.5,0,0,0-.5.5.5.5,0,0,0,.5.5h5.33A.51.51,0,0,0,157.61,347.81Zm0,2.32a.5.5,0,0,0-.5-.5h-5.33a.5.5,0,0,0-.5.5.5.5,0,0,0,.5.5h5.33A.51.51,0,0,0,157.61,350.13Zm0,2.32a.51.51,0,0,0-.5-.51h-5.33a.51.51,0,0,0,0,1h5.33A.51.51,0,0,0,157.61,352.45Zm0,2.31a.51.51,0,0,0-.5-.5h-5.33a.5.5,0,0,0-.5.5.5.5,0,0,0,.5.5h5.33A.5.5,0,0,0,157.61,354.76Zm6.38,2.32a.51.51,0,0,0-.51-.5h-5.32a.5.5,0,0,0-.5.5.5.5,0,0,0,.5.5h5.32A.5.5,0,0,0,164,357.08Zm0,2.32a.51.51,0,0,0-.51-.5h-5.32a.5.5,0,0,0-.5.5.5.5,0,0,0,.5.5h5.32A.5.5,0,0,0,164,359.4Zm0,2.32a.51.51,0,0,0-.51-.5h-5.32a.5.5,0,0,0-.5.5.5.5,0,0,0,.5.5h5.32A.5.5,0,0,0,164,361.72Zm-4-16.23a.58.58,0,1,0-.58.58A.58.58,0,0,0,160,345.49Zm1.74,0a.58.58,0,1,0-.58.58A.58.58,0,0,0,161.69,345.49Zm1.74,0a.58.58,0,1,0-.58.58A.58.58,0,0,0,163.43,345.49Zm1.74,0a.58.58,0,1,0-.58.58A.58.58,0,0,0,165.17,345.49Zm1.74,0a.58.58,0,1,0-.58.58A.58.58,0,0,0,166.91,345.49Zm1.74,0a.58.58,0,1,0-.58.58A.58.58,0,0,0,168.65,345.49Zm-8.7,4.64a.58.58,0,1,0-.58.58A.58.58,0,0,0,160,350.13Zm1.74,0a.58.58,0,1,0-.58.58A.58.58,0,0,0,161.69,350.13Zm1.74,0a.58.58,0,1,0-.58.58A.58.58,0,0,0,163.43,350.13Zm1.74,0a.58.58,0,1,0-.58.58A.58.58,0,0,0,165.17,350.13Zm1.74,0a.58.58,0,1,0-.58.58A.58.58,0,0,0,166.91,350.13Zm1.74,0a.58.58,0,1,0-.58.58A.58.58,0,0,0,168.65,350.13Zm-2.76,6.66a.58.58,0,1,0-.58.58A.57.57,0,0,0,165.89,356.79Zm1.74,0a.58.58,0,1,0-.58.58A.58.58,0,0,0,167.63,356.79Zm1.74,0a.58.58,0,1,0-.58.58A.58.58,0,0,0,169.37,356.79Zm1.74,0a.58.58,0,1,0-.58.58A.58.58,0,0,0,171.11,356.79Zm1.74,0a.58.58,0,1,0-.58.58A.58.58,0,0,0,172.85,356.79Zm1.74,0a.58.58,0,1,0-.58.58A.58.58,0,0,0,174.59,356.79Zm-8.7,4.79a.58.58,0,1,0-.58.58A.57.57,0,0,0,165.89,361.58Zm1.74,0a.58.58,0,1,0-.58.58A.58.58,0,0,0,167.63,361.58Zm1.74,0a.58.58,0,1,0-.58.58A.58.58,0,0,0,169.37,361.58Zm1.74,0a.58.58,0,1,0-.58.58A.58.58,0,0,0,171.11,361.58Zm1.74,0a.58.58,0,1,0-.58.58A.58.58,0,0,0,172.85,361.58Zm1.74,0a.58.58,0,1,0-.58.58A.58.58,0,0,0,174.59,361.58Zm1.24-16.09a.5.5,0,0,0-.5-.5H170a.5.5,0,0,0-.5.5.5.5,0,0,0,.5.5h5.32A.5.5,0,0,0,175.83,345.49Zm0,2.32a.5.5,0,0,0-.5-.5H170a.5.5,0,0,0-.5.5.5.5,0,0,0,.5.5h5.32A.5.5,0,0,0,175.83,347.81Zm0,2.32a.5.5,0,0,0-.5-.5H170a.5.5,0,0,0-.5.5.5.5,0,0,0,.5.5h5.32A.5.5,0,0,0,175.83,350.13Zm0,2.32a.5.5,0,0,0-.5-.51H170a.51.51,0,0,0,0,1h5.32A.5.5,0,0,0,175.83,352.45Zm0,2.31a.5.5,0,0,0-.5-.5H170a.5.5,0,0,0-.5.5.5.5,0,0,0,.5.5h5.32A.5.5,0,0,0,175.83,354.76Zm6.38,2.32a.5.5,0,0,0-.5-.5h-5.33a.51.51,0,0,0-.5.5.5.5,0,0,0,.5.5h5.33A.5.5,0,0,0,182.21,357.08Zm0,2.32a.5.5,0,0,0-.5-.5h-5.33a.51.51,0,0,0-.5.5.5.5,0,0,0,.5.5h5.33A.5.5,0,0,0,182.21,359.4Zm0,2.32a.5.5,0,0,0-.5-.5h-5.33a.51.51,0,0,0-.5.5.5.5,0,0,0,.5.5h5.33A.5.5,0,0,0,182.21,361.72Zm-4-16.23a.58.58,0,1,0-.58.58A.58.58,0,0,0,178.18,345.49Zm1.74,0a.58.58,0,1,0-.58.58A.58.58,0,0,0,179.92,345.49Zm1.74,0a.58.58,0,1,0-.58.58A.58.58,0,0,0,181.66,345.49Zm1.73,0a.58.58,0,1,0-.57.58A.57.57,0,0,0,183.39,345.49Zm1.74,0a.58.58,0,1,0-.58.58A.58.58,0,0,0,185.13,345.49Zm1.74,0a.58.58,0,1,0-.58.58A.58.58,0,0,0,186.87,345.49Zm-8.69,4.64a.58.58,0,1,0-.58.58A.58.58,0,0,0,178.18,350.13Zm1.74,0a.58.58,0,1,0-.58.58A.58.58,0,0,0,179.92,350.13Zm1.74,0a.58.58,0,1,0-.58.58A.58.58,0,0,0,181.66,350.13Zm1.73,0a.58.58,0,1,0-.57.58A.57.57,0,0,0,183.39,350.13Zm1.74,0a.58.58,0,1,0-.58.58A.58.58,0,0,0,185.13,350.13Zm1.74,0a.58.58,0,1,0-.58.58A.58.58,0,0,0,186.87,350.13Zm-2.75,6.66a.58.58,0,1,0-.58.58A.58.58,0,0,0,184.12,356.79Zm1.74,0a.58.58,0,1,0-.58.58A.58.58,0,0,0,185.86,356.79Zm1.74,0a.58.58,0,1,0-.58.58A.58.58,0,0,0,187.6,356.79Zm1.74,0a.58.58,0,1,0-.58.58A.58.58,0,0,0,189.34,356.79Zm1.74,0a.58.58,0,1,0-.58.58A.58.58,0,0,0,191.08,356.79Zm1.74,0a.58.58,0,1,0-.58.58A.58.58,0,0,0,192.82,356.79Zm-8.7,4.79a.58.58,0,1,0-.58.58A.58.58,0,0,0,184.12,361.58Zm1.74,0a.58.58,0,1,0-.58.58A.58.58,0,0,0,185.86,361.58Zm1.74,0a.58.58,0,1,0-.58.58A.58.58,0,0,0,187.6,361.58Zm1.74,0a.58.58,0,1,0-.58.58A.58.58,0,0,0,189.34,361.58Zm1.74,0a.58.58,0,1,0-.58.58A.58.58,0,0,0,191.08,361.58Zm1.74,0a.58.58,0,1,0-.58.58A.58.58,0,0,0,192.82,361.58Zm1.24-16.09a.5.5,0,0,0-.5-.5h-5.33a.5.5,0,0,0-.5.5.5.5,0,0,0,.5.5h5.33A.51.51,0,0,0,194.06,345.49Zm0,2.32a.5.5,0,0,0-.5-.5h-5.33a.5.5,0,0,0-.5.5.5.5,0,0,0,.5.5h5.33A.51.51,0,0,0,194.06,347.81Zm0,2.32a.5.5,0,0,0-.5-.5h-5.33a.5.5,0,0,0-.5.5.5.5,0,0,0,.5.5h5.33A.51.51,0,0,0,194.06,350.13Zm0,2.32a.51.51,0,0,0-.5-.51h-5.33a.51.51,0,0,0,0,1h5.33A.51.51,0,0,0,194.06,352.45Zm0,2.31a.51.51,0,0,0-.5-.5h-5.33a.5.5,0,0,0-.5.5.5.5,0,0,0,.5.5h5.33A.5.5,0,0,0,194.06,354.76Zm6.38,2.32a.51.51,0,0,0-.51-.5h-5.32a.5.5,0,0,0-.5.5.5.5,0,0,0,.5.5h5.32A.5.5,0,0,0,200.44,357.08Zm0,2.32a.51.51,0,0,0-.51-.5h-5.32a.5.5,0,0,0-.5.5.5.5,0,0,0,.5.5h5.32A.5.5,0,0,0,200.44,359.4Zm0,2.32a.51.51,0,0,0-.51-.5h-5.32a.5.5,0,0,0-.5.5.5.5,0,0,0,.5.5h5.32A.5.5,0,0,0,200.44,361.72Zm-4-16.23a.58.58,0,1,0-.58.58A.58.58,0,0,0,196.4,345.49Zm1.74,0a.58.58,0,1,0-.58.58A.58.58,0,0,0,198.14,345.49Zm1.74,0a.58.58,0,1,0-.58.58A.58.58,0,0,0,199.88,345.49Zm1.74,0a.58.58,0,1,0-.58.58A.58.58,0,0,0,201.62,345.49Zm1.74,0a.58.58,0,1,0-.58.58A.58.58,0,0,0,203.36,345.49Zm1.74,0a.58.58,0,1,0-.58.58A.58.58,0,0,0,205.1,345.49Zm-8.7,4.64a.58.58,0,1,0-.58.58A.58.58,0,0,0,196.4,350.13Zm1.74,0a.58.58,0,1,0-.58.58A.58.58,0,0,0,198.14,350.13Zm1.74,0a.58.58,0,1,0-.58.58A.58.58,0,0,0,199.88,350.13Zm1.74,0a.58.58,0,1,0-.58.58A.58.58,0,0,0,201.62,350.13Zm1.74,0a.58.58,0,1,0-.58.58A.58.58,0,0,0,203.36,350.13Zm1.74,0a.58.58,0,1,0-.58.58A.58.58,0,0,0,205.1,350.13Zm-2.76,6.66a.58.58,0,1,0-.58.58A.57.57,0,0,0,202.34,356.79Zm1.74,0a.58.58,0,1,0-.58.58A.58.58,0,0,0,204.08,356.79Zm1.74,0a.58.58,0,1,0-.58.58A.58.58,0,0,0,205.82,356.79Zm1.74,0a.58.58,0,1,0-.58.58A.58.58,0,0,0,207.56,356.79Zm1.74,0a.58.58,0,1,0-.58.58A.58.58,0,0,0,209.3,356.79Zm1.74,0a.58.58,0,1,0-.58.58A.58.58,0,0,0,211,356.79Zm-8.7,4.79a.58.58,0,1,0-.58.58A.57.57,0,0,0,202.34,361.58Zm1.74,0a.58.58,0,1,0-.58.58A.58.58,0,0,0,204.08,361.58Zm1.74,0a.58.58,0,1,0-.58.58A.58.58,0,0,0,205.82,361.58Zm1.74,0a.58.58,0,1,0-.58.58A.58.58,0,0,0,207.56,361.58Zm1.74,0a.58.58,0,1,0-.58.58A.58.58,0,0,0,209.3,361.58Zm1.74,0a.58.58,0,1,0-.58.58A.58.58,0,0,0,211,361.58Zm1.24-16.09a.5.5,0,0,0-.5-.5h-5.32a.5.5,0,0,0-.51.5.51.51,0,0,0,.51.5h5.32A.5.5,0,0,0,212.28,345.49Zm0,2.32a.5.5,0,0,0-.5-.5h-5.32a.5.5,0,0,0-.51.5.51.51,0,0,0,.51.5h5.32A.5.5,0,0,0,212.28,347.81Zm0,2.32a.5.5,0,0,0-.5-.5h-5.32a.5.5,0,0,0-.51.5.51.51,0,0,0,.51.5h5.32A.5.5,0,0,0,212.28,350.13Zm0,2.32a.5.5,0,0,0-.5-.51h-5.32a.51.51,0,1,0,0,1h5.32A.5.5,0,0,0,212.28,352.45Zm0,2.31a.5.5,0,0,0-.5-.5h-5.32a.51.51,0,0,0-.51.5.5.5,0,0,0,.51.5h5.32A.5.5,0,0,0,212.28,354.76Zm6.38,2.32a.5.5,0,0,0-.5-.5h-5.33a.51.51,0,0,0-.5.5.5.5,0,0,0,.5.5h5.33A.5.5,0,0,0,218.66,357.08Zm0,2.32a.5.5,0,0,0-.5-.5h-5.33a.51.51,0,0,0-.5.5.5.5,0,0,0,.5.5h5.33A.5.5,0,0,0,218.66,359.4Zm0,2.32a.5.5,0,0,0-.5-.5h-5.33a.51.51,0,0,0-.5.5.5.5,0,0,0,.5.5h5.33A.5.5,0,0,0,218.66,361.72Zm-4-16.23a.58.58,0,1,0-.58.58A.58.58,0,0,0,214.63,345.49Zm1.74,0a.58.58,0,1,0-.58.58A.58.58,0,0,0,216.37,345.49Zm1.74,0a.58.58,0,1,0-.58.58A.58.58,0,0,0,218.11,345.49Zm1.73,0a.58.58,0,1,0-.58.58A.57.57,0,0,0,219.84,345.49Zm1.74,0a.58.58,0,1,0-.58.58A.58.58,0,0,0,221.58,345.49Zm1.74,0a.58.58,0,1,0-.58.58A.58.58,0,0,0,223.32,345.49Zm-8.69,4.64a.58.58,0,1,0-.58.58A.58.58,0,0,0,214.63,350.13Zm1.74,0a.58.58,0,1,0-.58.58A.58.58,0,0,0,216.37,350.13Zm1.74,0a.58.58,0,1,0-.58.58A.58.58,0,0,0,218.11,350.13Zm1.73,0a.58.58,0,1,0-.58.58A.57.57,0,0,0,219.84,350.13Zm1.74,0a.58.58,0,1,0-.58.58A.58.58,0,0,0,221.58,350.13Zm1.74,0a.58.58,0,1,0-.58.58A.58.58,0,0,0,223.32,350.13Zm-2.75,6.66a.58.58,0,1,0-.58.58A.58.58,0,0,0,220.57,356.79Zm1.74,0a.58.58,0,1,0-.58.58A.58.58,0,0,0,222.31,356.79Zm1.74,0a.58.58,0,1,0-.58.58A.58.58,0,0,0,224.05,356.79Zm1.74,0a.58.58,0,1,0-.58.58A.58.58,0,0,0,225.79,356.79Zm1.74,0a.58.58,0,1,0-.58.58A.58.58,0,0,0,227.53,356.79Zm1.74,0a.58.58,0,1,0-.58.58A.58.58,0,0,0,229.27,356.79Zm-8.7,4.79a.58.58,0,1,0-.58.58A.58.58,0,0,0,220.57,361.58Zm1.74,0a.58.58,0,1,0-.58.58A.58.58,0,0,0,222.31,361.58Zm1.74,0a.58.58,0,1,0-.58.58A.58.58,0,0,0,224.05,361.58Zm1.74,0a.58.58,0,1,0-.58.58A.58.58,0,0,0,225.79,361.58Zm1.74,0a.58.58,0,1,0-.58.58A.58.58,0,0,0,227.53,361.58Zm1.74,0a.58.58,0,1,0-.58.58A.58.58,0,0,0,229.27,361.58Z" style="fill:#263238"/><path d="M120.27,336.62h-2a.51.51,0,0,1-.5-.5.5.5,0,0,1,.5-.5h2a.5.5,0,0,1,.5.5A.5.5,0,0,1,120.27,336.62Zm.5,1.81a.5.5,0,0,0-.5-.5h-2a.51.51,0,0,0,0,1h2A.5.5,0,0,0,120.77,338.43Zm0,2.32a.5.5,0,0,0-.5-.5h-2a.51.51,0,0,0-.5.5.5.5,0,0,0,.5.5h2A.5.5,0,0,0,120.77,340.75Zm0,2.32a.5.5,0,0,0-.5-.5h-2a.51.51,0,0,0-.5.5.5.5,0,0,0,.5.5h2A.5.5,0,0,0,120.77,343.07Zm0,2.32a.5.5,0,0,0-.5-.5h-2a.51.51,0,0,0-.5.5.5.5,0,0,0,.5.5h2A.5.5,0,0,0,120.77,345.39Zm0,2.32a.5.5,0,0,0-.5-.5h-2a.5.5,0,0,0,0,1h2A.5.5,0,0,0,120.77,347.71Zm0,2.32a.5.5,0,0,0-.5-.5h-2a.5.5,0,0,0,0,1h2A.5.5,0,0,0,120.77,350Zm0,2.32a.5.5,0,0,0-.5-.5h-2a.5.5,0,0,0,0,1h2A.5.5,0,0,0,120.77,352.35Zm7.59-16.23a.5.5,0,0,0-.5-.5h-5.32a.5.5,0,0,0-.5.5.5.5,0,0,0,.5.5h5.32A.5.5,0,0,0,128.36,336.12Zm0,2.31a.5.5,0,0,0-.5-.5h-5.32a.51.51,0,0,0,0,1h5.32A.5.5,0,0,0,128.36,338.43Zm0,2.32a.5.5,0,0,0-.5-.5h-5.32a.5.5,0,0,0-.5.5.5.5,0,0,0,.5.5h5.32A.5.5,0,0,0,128.36,340.75Zm0,2.32a.5.5,0,0,0-.5-.5h-5.32a.5.5,0,0,0-.5.5.5.5,0,0,0,.5.5h5.32A.5.5,0,0,0,128.36,343.07Zm0,2.32a.5.5,0,0,0-.5-.5h-5.32a.5.5,0,0,0-.5.5.5.5,0,0,0,.5.5h5.32A.5.5,0,0,0,128.36,345.39Zm6.38,2.32a.5.5,0,0,0-.5-.5h-5.33a.5.5,0,0,0,0,1h5.33A.5.5,0,0,0,134.74,347.71Zm0,2.32a.5.5,0,0,0-.5-.5h-5.33a.5.5,0,1,0,0,1h5.33A.5.5,0,0,0,134.74,350Zm0,2.32a.5.5,0,0,0-.5-.5h-5.33a.5.5,0,1,0,0,1h5.33A.5.5,0,0,0,134.74,352.35Zm-4-16.23a.58.58,0,1,0-.58.58A.58.58,0,0,0,130.71,336.12Zm1.74,0a.58.58,0,1,0-.58.58A.58.58,0,0,0,132.45,336.12Zm1.74,0a.58.58,0,1,0-.58.58A.58.58,0,0,0,134.19,336.12Zm1.73,0a.57.57,0,0,0-.57-.58.58.58,0,1,0,0,1.16A.57.57,0,0,0,135.92,336.12Zm1.74,0a.58.58,0,1,0-.58.58A.58.58,0,0,0,137.66,336.12Zm1.74,0a.58.58,0,1,0-.58.58A.58.58,0,0,0,139.4,336.12Zm-8.69,4.63a.58.58,0,1,0-.58.58A.58.58,0,0,0,130.71,340.75Zm1.74,0a.58.58,0,1,0-.58.58A.58.58,0,0,0,132.45,340.75Zm1.74,0a.58.58,0,1,0-.58.58A.58.58,0,0,0,134.19,340.75Zm1.73,0a.57.57,0,0,0-.57-.58.58.58,0,1,0,0,1.16A.57.57,0,0,0,135.92,340.75Zm1.74,0a.58.58,0,1,0-.58.58A.58.58,0,0,0,137.66,340.75Zm1.74,0a.58.58,0,1,0-.58.58A.58.58,0,0,0,139.4,340.75Zm-2.75,6.67a.58.58,0,1,0-.58.58A.58.58,0,0,0,136.65,347.42Zm1.74,0a.58.58,0,1,0-.58.58A.58.58,0,0,0,138.39,347.42Zm1.74,0a.58.58,0,1,0-.58.58A.58.58,0,0,0,140.13,347.42Zm1.74,0a.58.58,0,1,0-.58.58A.58.58,0,0,0,141.87,347.42Zm1.74,0a.58.58,0,1,0-.58.58A.58.58,0,0,0,143.61,347.42Zm1.74,0a.58.58,0,1,0-.58.58A.58.58,0,0,0,145.35,347.42Zm-8.7,4.78a.58.58,0,1,0-.58.58A.58.58,0,0,0,136.65,352.2Zm1.74,0a.58.58,0,1,0-.58.58A.58.58,0,0,0,138.39,352.2Zm1.74,0a.58.58,0,1,0-.58.58A.58.58,0,0,0,140.13,352.2Zm1.74,0a.58.58,0,1,0-.58.58A.58.58,0,0,0,141.87,352.2Zm1.74,0a.58.58,0,1,0-.58.58A.58.58,0,0,0,143.61,352.2Zm1.74,0a.58.58,0,1,0-.58.58A.58.58,0,0,0,145.35,352.2Z" style="fill:#263238"/><path d="M149.52,348h-2a.5.5,0,0,1-.5-.5.5.5,0,0,1,.5-.5h2a.5.5,0,0,1,.5.5A.51.51,0,0,1,149.52,348Zm.5,1.82a.5.5,0,0,0-.5-.5h-2a.5.5,0,0,0-.5.5.5.5,0,0,0,.5.5h2A.51.51,0,0,0,150,349.78Zm0,2.32a.5.5,0,0,0-.5-.5h-2a.5.5,0,0,0-.5.5.5.5,0,0,0,.5.5h2A.51.51,0,0,0,150,352.1Zm0,2.31a.51.51,0,0,0-.5-.5h-2a.51.51,0,0,0,0,1h2A.51.51,0,0,0,150,354.41Zm0,2.32a.51.51,0,0,0-.5-.5h-2a.5.5,0,0,0-.5.5.5.5,0,0,0,.5.5h2A.5.5,0,0,0,150,356.73Zm0,2.32a.51.51,0,0,0-.5-.5h-2a.5.5,0,0,0-.5.5.5.5,0,0,0,.5.5h2A.5.5,0,0,0,150,359.05Zm0,2.32a.51.51,0,0,0-.5-.5h-2a.5.5,0,0,0-.5.5.5.5,0,0,0,.5.5h2A.5.5,0,0,0,150,361.37Zm0,2.32a.51.51,0,0,0-.5-.5h-2a.5.5,0,0,0-.5.5.5.5,0,0,0,.5.5h2A.5.5,0,0,0,150,363.69Zm7.59-16.23a.5.5,0,0,0-.5-.5h-5.33a.5.5,0,0,0-.5.5.5.5,0,0,0,.5.5h5.33A.51.51,0,0,0,157.61,347.46Zm0,2.32a.5.5,0,0,0-.5-.5h-5.33a.5.5,0,0,0-.5.5.5.5,0,0,0,.5.5h5.33A.51.51,0,0,0,157.61,349.78Zm0,2.32a.5.5,0,0,0-.5-.5h-5.33a.5.5,0,0,0-.5.5.5.5,0,0,0,.5.5h5.33A.51.51,0,0,0,157.61,352.1Zm0,2.31a.51.51,0,0,0-.5-.5h-5.33a.51.51,0,0,0,0,1h5.33A.51.51,0,0,0,157.61,354.41Zm0,2.32a.51.51,0,0,0-.5-.5h-5.33a.5.5,0,0,0-.5.5.5.5,0,0,0,.5.5h5.33A.5.5,0,0,0,157.61,356.73Zm6.38,2.32a.51.51,0,0,0-.51-.5h-5.32a.5.5,0,0,0-.5.5.5.5,0,0,0,.5.5h5.32A.5.5,0,0,0,164,359.05Zm0,2.32a.51.51,0,0,0-.51-.5h-5.32a.5.5,0,0,0-.5.5.5.5,0,0,0,.5.5h5.32A.5.5,0,0,0,164,361.37Zm0,2.32a.51.51,0,0,0-.51-.5h-5.32a.5.5,0,0,0-.5.5.5.5,0,0,0,.5.5h5.32A.5.5,0,0,0,164,363.69Zm-4-16.23a.58.58,0,1,0-.58.58A.58.58,0,0,0,160,347.46Zm1.74,0a.58.58,0,1,0-.58.58A.58.58,0,0,0,161.69,347.46Zm1.74,0a.58.58,0,1,0-.58.58A.58.58,0,0,0,163.43,347.46Zm1.74,0a.58.58,0,1,0-.58.58A.58.58,0,0,0,165.17,347.46Zm1.74,0a.58.58,0,1,0-.58.58A.58.58,0,0,0,166.91,347.46Zm1.74,0a.58.58,0,1,0-.58.58A.58.58,0,0,0,168.65,347.46ZM160,352.1a.58.58,0,1,0-.58.58A.58.58,0,0,0,160,352.1Zm1.74,0a.58.58,0,1,0-.58.58A.58.58,0,0,0,161.69,352.1Zm1.74,0a.58.58,0,1,0-.58.58A.58.58,0,0,0,163.43,352.1Zm1.74,0a.58.58,0,1,0-.58.58A.58.58,0,0,0,165.17,352.1Zm1.74,0a.58.58,0,1,0-.58.58A.58.58,0,0,0,166.91,352.1Zm1.74,0a.58.58,0,1,0-.58.58A.58.58,0,0,0,168.65,352.1Zm-2.76,6.66a.58.58,0,1,0-.58.58A.57.57,0,0,0,165.89,358.76Zm1.74,0a.58.58,0,1,0-.58.58A.58.58,0,0,0,167.63,358.76Zm1.74,0a.58.58,0,1,0-.58.58A.58.58,0,0,0,169.37,358.76Zm1.74,0a.58.58,0,1,0-.58.58A.58.58,0,0,0,171.11,358.76Zm1.74,0a.58.58,0,1,0-.58.58A.58.58,0,0,0,172.85,358.76Zm1.74,0a.58.58,0,1,0-.58.58A.58.58,0,0,0,174.59,358.76Zm-8.7,4.79a.58.58,0,1,0-.58.58A.57.57,0,0,0,165.89,363.55Zm1.74,0a.58.58,0,1,0-.58.58A.58.58,0,0,0,167.63,363.55Zm1.74,0a.58.58,0,1,0-.58.58A.58.58,0,0,0,169.37,363.55Zm1.74,0a.58.58,0,1,0-.58.58A.58.58,0,0,0,171.11,363.55Zm1.74,0a.58.58,0,1,0-.58.58A.58.58,0,0,0,172.85,363.55Zm1.74,0a.58.58,0,1,0-.58.58A.58.58,0,0,0,174.59,363.55Z" style="fill:#263238"/><path d="M151.43,276.31h-2a.5.5,0,0,1-.5-.5.5.5,0,0,1,.5-.5h2a.51.51,0,0,1,.5.5A.5.5,0,0,1,151.43,276.31Zm.5,1.82a.51.51,0,0,0-.5-.5h-2a.5.5,0,0,0-.5.5.5.5,0,0,0,.5.5h2A.5.5,0,0,0,151.93,278.13Zm0,2.32a.51.51,0,0,0-.5-.5h-2a.5.5,0,0,0-.5.5.5.5,0,0,0,.5.5h2A.5.5,0,0,0,151.93,280.45Zm0,2.32a.5.5,0,0,0-.5-.5h-2a.5.5,0,1,0,0,1h2A.5.5,0,0,0,151.93,282.77Zm0,2.32a.5.5,0,0,0-.5-.5h-2a.5.5,0,0,0,0,1h2A.5.5,0,0,0,151.93,285.09Zm0,2.32a.5.5,0,0,0-.5-.5h-2a.5.5,0,0,0,0,1h2A.5.5,0,0,0,151.93,287.41Zm0,2.32a.5.5,0,0,0-.5-.5h-2a.5.5,0,1,0,0,1h2A.5.5,0,0,0,151.93,289.73Zm0,2.32a.5.5,0,0,0-.5-.5h-2a.5.5,0,0,0-.5.5.5.5,0,0,0,.5.5h2A.51.51,0,0,0,151.93,292.05Zm7.59-16.24a.51.51,0,0,0-.5-.5h-5.33a.5.5,0,0,0-.5.5.5.5,0,0,0,.5.5H159A.5.5,0,0,0,159.52,275.81Zm0,2.32a.51.51,0,0,0-.5-.5h-5.33a.5.5,0,0,0-.5.5.5.5,0,0,0,.5.5H159A.5.5,0,0,0,159.52,278.13Zm0,2.32a.51.51,0,0,0-.5-.5h-5.33a.5.5,0,0,0-.5.5.5.5,0,0,0,.5.5H159A.5.5,0,0,0,159.52,280.45Zm0,2.32a.5.5,0,0,0-.5-.5h-5.33a.5.5,0,0,0,0,1H159A.5.5,0,0,0,159.52,282.77Zm0,2.32a.5.5,0,0,0-.5-.5h-5.33a.5.5,0,0,0,0,1H159A.5.5,0,0,0,159.52,285.09Zm6.38,2.32a.5.5,0,0,0-.51-.5h-5.32a.5.5,0,0,0,0,1h5.32A.5.5,0,0,0,165.9,287.41Zm0,2.32a.5.5,0,0,0-.51-.5h-5.32a.5.5,0,0,0,0,1h5.32A.5.5,0,0,0,165.9,289.73Zm0,2.32a.5.5,0,0,0-.51-.5h-5.32a.5.5,0,0,0-.5.5.5.5,0,0,0,.5.5h5.32A.51.51,0,0,0,165.9,292.05Zm-4-16.24a.58.58,0,1,0-.58.58A.58.58,0,0,0,161.86,275.81Zm1.74,0a.58.58,0,1,0-.58.58A.58.58,0,0,0,163.6,275.81Zm1.74,0a.58.58,0,1,0-.58.58A.58.58,0,0,0,165.34,275.81Zm1.74,0a.58.58,0,1,0-.58.58A.58.58,0,0,0,167.08,275.81Zm1.74,0a.58.58,0,1,0-.58.58A.58.58,0,0,0,168.82,275.81Zm1.74,0a.58.58,0,1,0-.58.58A.58.58,0,0,0,170.56,275.81Zm-8.7,4.64a.58.58,0,1,0-.58.58A.58.58,0,0,0,161.86,280.45Zm1.74,0a.58.58,0,1,0-.58.58A.58.58,0,0,0,163.6,280.45Zm1.74,0a.58.58,0,1,0-.58.58A.58.58,0,0,0,165.34,280.45Zm1.74,0a.58.58,0,1,0-.58.58A.58.58,0,0,0,167.08,280.45Zm1.74,0a.58.58,0,1,0-.58.58A.58.58,0,0,0,168.82,280.45Zm1.74,0a.58.58,0,1,0-.58.58A.58.58,0,0,0,170.56,280.45Zm-2.76,6.67a.57.57,0,0,0-.58-.58.58.58,0,1,0,0,1.16A.57.57,0,0,0,167.8,287.12Zm1.74,0a.58.58,0,1,0-.58.58A.58.58,0,0,0,169.54,287.12Zm1.74,0a.58.58,0,1,0-.58.58A.58.58,0,0,0,171.28,287.12Zm1.74,0a.58.58,0,1,0-.58.58A.58.58,0,0,0,173,287.12Zm1.74,0a.58.58,0,1,0-.58.58A.58.58,0,0,0,174.76,287.12Zm1.74,0a.58.58,0,1,0-.58.58A.58.58,0,0,0,176.5,287.12Zm-8.7,4.78a.57.57,0,0,0-.58-.58.58.58,0,0,0,0,1.16A.57.57,0,0,0,167.8,291.9Zm1.74,0a.58.58,0,1,0-.58.58A.58.58,0,0,0,169.54,291.9Zm1.74,0a.58.58,0,1,0-.58.58A.58.58,0,0,0,171.28,291.9Zm1.74,0a.58.58,0,1,0-.58.58A.58.58,0,0,0,173,291.9Zm1.74,0a.58.58,0,1,0-.58.58A.58.58,0,0,0,174.76,291.9Zm1.74,0a.58.58,0,1,0-.58.58A.58.58,0,0,0,176.5,291.9Z" style="fill:#263238"/><path d="M151.43,295.32h-2a.5.5,0,0,1,0-1h2a.5.5,0,0,1,0,1Zm.5,1.82a.5.5,0,0,0-.5-.5h-2a.5.5,0,1,0,0,1h2A.5.5,0,0,0,151.93,297.14Zm0,2.32a.5.5,0,0,0-.5-.5h-2a.5.5,0,0,0-.5.5.5.5,0,0,0,.5.5h2A.51.51,0,0,0,151.93,299.46Zm0,2.32a.5.5,0,0,0-.5-.5h-2a.5.5,0,0,0-.5.5.5.5,0,0,0,.5.5h2A.51.51,0,0,0,151.93,301.78Zm0,2.32a.5.5,0,0,0-.5-.5h-2a.5.5,0,0,0-.5.5.5.5,0,0,0,.5.5h2A.51.51,0,0,0,151.93,304.1Zm0,2.32a.5.5,0,0,0-.5-.5h-2a.5.5,0,0,0-.5.5.5.5,0,0,0,.5.5h2A.51.51,0,0,0,151.93,306.42Zm0,2.31a.51.51,0,0,0-.5-.5h-2a.51.51,0,0,0,0,1h2A.51.51,0,0,0,151.93,308.73Zm0,2.32a.51.51,0,0,0-.5-.5h-2a.5.5,0,0,0-.5.5.5.5,0,0,0,.5.5h2A.5.5,0,0,0,151.93,311.05Zm7.59-16.23a.5.5,0,0,0-.5-.5h-5.33a.5.5,0,0,0,0,1H159A.5.5,0,0,0,159.52,294.82Zm0,2.32a.5.5,0,0,0-.5-.5h-5.33a.5.5,0,0,0,0,1H159A.5.5,0,0,0,159.52,297.14Zm0,2.32a.5.5,0,0,0-.5-.5h-5.33a.5.5,0,0,0-.5.5.5.5,0,0,0,.5.5H159A.51.51,0,0,0,159.52,299.46Zm0,2.32a.5.5,0,0,0-.5-.5h-5.33a.5.5,0,0,0-.5.5.5.5,0,0,0,.5.5H159A.51.51,0,0,0,159.52,301.78Zm0,2.32a.5.5,0,0,0-.5-.5h-5.33a.5.5,0,0,0-.5.5.5.5,0,0,0,.5.5H159A.51.51,0,0,0,159.52,304.1Zm6.38,2.32a.5.5,0,0,0-.51-.5h-5.32a.5.5,0,0,0-.5.5.5.5,0,0,0,.5.5h5.32A.51.51,0,0,0,165.9,306.42Zm0,2.31a.51.51,0,0,0-.51-.5h-5.32a.51.51,0,0,0,0,1h5.32A.51.51,0,0,0,165.9,308.73Zm0,2.32a.51.51,0,0,0-.51-.5h-5.32a.5.5,0,0,0-.5.5.5.5,0,0,0,.5.5h5.32A.5.5,0,0,0,165.9,311.05Zm-4-16.23a.58.58,0,1,0-.58.58A.58.58,0,0,0,161.86,294.82Zm1.74,0a.58.58,0,1,0-.58.58A.58.58,0,0,0,163.6,294.82Zm1.74,0a.58.58,0,1,0-.58.58A.58.58,0,0,0,165.34,294.82Zm1.74,0a.58.58,0,1,0-.58.58A.58.58,0,0,0,167.08,294.82Zm1.74,0a.58.58,0,1,0-.58.58A.58.58,0,0,0,168.82,294.82Zm1.74,0a.58.58,0,1,0-.58.58A.58.58,0,0,0,170.56,294.82Zm-8.7,4.64a.58.58,0,1,0-.58.58A.58.58,0,0,0,161.86,299.46Zm1.74,0a.58.58,0,1,0-.58.58A.58.58,0,0,0,163.6,299.46Zm1.74,0a.58.58,0,1,0-.58.58A.58.58,0,0,0,165.34,299.46Zm1.74,0a.58.58,0,1,0-.58.58A.58.58,0,0,0,167.08,299.46Zm1.74,0a.58.58,0,1,0-.58.58A.58.58,0,0,0,168.82,299.46Zm1.74,0a.58.58,0,1,0-.58.58A.58.58,0,0,0,170.56,299.46Zm-2.76,6.67a.57.57,0,0,0-.58-.58.58.58,0,1,0,0,1.16A.57.57,0,0,0,167.8,306.13Zm1.74,0a.58.58,0,1,0-.58.58A.58.58,0,0,0,169.54,306.13Zm1.74,0a.58.58,0,1,0-.58.58A.58.58,0,0,0,171.28,306.13Zm1.74,0a.58.58,0,1,0-.58.58A.58.58,0,0,0,173,306.13Zm1.74,0a.58.58,0,1,0-.58.58A.58.58,0,0,0,174.76,306.13Zm1.74,0a.58.58,0,1,0-.58.58A.58.58,0,0,0,176.5,306.13Zm-8.7,4.78a.57.57,0,0,0-.58-.58.58.58,0,0,0,0,1.16A.57.57,0,0,0,167.8,310.91Zm1.74,0a.58.58,0,1,0-.58.58A.58.58,0,0,0,169.54,310.91Zm1.74,0a.58.58,0,1,0-.58.58A.58.58,0,0,0,171.28,310.91Zm1.74,0a.58.58,0,1,0-.58.58A.58.58,0,0,0,173,310.91Zm1.74,0a.58.58,0,1,0-.58.58A.58.58,0,0,0,174.76,310.91Zm1.74,0a.58.58,0,1,0-.58.58A.58.58,0,0,0,176.5,310.91Z" style="fill:#263238"/></g><g id="Text"><path d="M211.94,373q-17.22,0-28.66-7.38A46.41,46.41,0,0,1,166,345.23q-5.91-13-6.89-30.25l24.59-6.64A110.35,110.35,0,0,0,187,328.75a36.47,36.47,0,0,0,8.49,16.11q5.89,6.27,16.48,6.27,10.81,0,16.35-6t5.53-17.34q0-13.53-6.14-21.77a115,115,0,0,0-15.5-16.6l-33.45-29.51a56.28,56.28,0,0,1-14.51-18.82q-4.66-10.2-4.67-25.2,0-21.9,12.54-33.94t34.19-12.06A64.1,64.1,0,0,1,227.06,173a36.52,36.52,0,0,1,15,9.47,46.45,46.45,0,0,1,9.6,16.11,91.41,91.41,0,0,1,4.79,22.75l-23.61,6.39a97.69,97.69,0,0,0-3-18.08,27,27,0,0,0-7.75-13.28q-5.53-5-15.86-5t-16.11,5.54q-5.78,5.52-5.78,16.35,0,9.1,3.07,15a43.67,43.67,0,0,0,10,12.05l33.69,29.52A105.32,105.32,0,0,1,251,293.21q8.61,13.65,8.61,32.35,0,14.74-6.15,25.45a41.45,41.45,0,0,1-16.85,16.36Q226,373,211.94,373Z" style="fill:#263238;stroke:#263238;stroke-linecap:round;stroke-linejoin:round"/><path d="M281.29,370.81V171.6h77.23v20.66H309.08v65.91h40.09v19.67H309.08v73.05H359v19.92Z" style="fill:#263238;stroke:#263238;stroke-linecap:round;stroke-linejoin:round"/><path d="M432.3,373q-20.18,0-32.22-7.87t-17.22-22.5Q377.7,328,377.7,308.34v-75.5q0-19.68,5.29-33.82a42.09,42.09,0,0,1,17.21-21.64q11.93-7.5,32.1-7.51t32,7.63a43,43,0,0,1,17.09,21.64q5.29,14,5.29,33.7v75.75q0,19.43-5.29,33.94T464.27,365Q452.47,373,432.3,373Zm0-21.89q11.07,0,16.72-4.55t7.63-12.79a83.85,83.85,0,0,0,2-19.3V227.18a80.73,80.73,0,0,0-2-19.06,21.27,21.27,0,0,0-7.63-12.3q-5.65-4.29-16.72-4.3t-16.85,4.3a21,21,0,0,0-7.75,12.3,80.73,80.73,0,0,0-2,19.06v87.31a83.85,83.85,0,0,0,2,19.3,22.21,22.21,0,0,0,7.75,12.79Q421.23,351.14,432.3,351.13Z" style="fill:#263238;stroke:#263238;stroke-linecap:round;stroke-linejoin:round"/><path d="M223.33,373q-17.22,0-28.65-7.38a46.37,46.37,0,0,1-17.34-20.41q-5.91-13-6.89-30.25L195,308.34a110.35,110.35,0,0,0,3.33,20.41,36.46,36.46,0,0,0,8.48,16.11q5.9,6.27,16.48,6.27,10.81,0,16.35-6t5.54-17.34q0-13.53-6.15-21.77a115,115,0,0,0-15.5-16.6l-33.44-29.51a56.15,56.15,0,0,1-14.51-18.82q-4.68-10.2-4.68-25.2,0-21.9,12.55-33.94t34.18-12.06A64.05,64.05,0,0,1,238.45,173a36.49,36.49,0,0,1,15,9.47,46.59,46.59,0,0,1,9.59,16.11,91.41,91.41,0,0,1,4.79,22.75l-23.61,6.39a97.69,97.69,0,0,0-2.95-18.08,26.92,26.92,0,0,0-7.75-13.28q-5.52-5-15.86-5t-16.11,5.54q-5.77,5.52-5.78,16.35,0,9.1,3.08,15a43.62,43.62,0,0,0,10,12.05l33.69,29.52a105.32,105.32,0,0,1,19.92,23.48Q271,306.86,271,325.56q0,14.74-6.15,25.45a41.49,41.49,0,0,1-16.84,16.36Q237.34,373,223.33,373Z" style="fill:#fff;stroke:#263238;stroke-linecap:round;stroke-linejoin:round"/><path d="M292.68,370.81V171.6h77.23v20.66H320.47v65.91h40.09v19.67H320.47v73.05H370.4v19.92Z" style="fill:#fff;stroke:#263238;stroke-linecap:round;stroke-linejoin:round"/><path d="M443.69,373q-20.18,0-32.22-7.87t-17.21-22.5q-5.17-14.62-5.17-34.31v-75.5q0-19.68,5.29-33.82a42.09,42.09,0,0,1,17.21-21.64q11.93-7.5,32.1-7.51t32,7.63a43,43,0,0,1,17.09,21.64q5.29,14,5.29,33.7v75.75q0,19.43-5.29,33.94T475.66,365Q463.86,373,443.69,373Zm0-21.89q11.07,0,16.72-4.55T468,333.79a83.81,83.81,0,0,0,2-19.3V227.18a80.69,80.69,0,0,0-2-19.06,21.27,21.27,0,0,0-7.63-12.3q-5.66-4.29-16.72-4.3t-16.85,4.3a21,21,0,0,0-7.74,12.3,80.16,80.16,0,0,0-2,19.06v87.31a83.26,83.26,0,0,0,2,19.3,22.2,22.2,0,0,0,7.74,12.79Q432.62,351.14,443.69,351.13Z" style="fill:#fff;stroke:#263238;stroke-linecap:round;stroke-linejoin:round"/></g><g id="Lines"><path d="M61.36,219.11V68.69a9.3,9.3,0,0,1,9.3-9.31H348.05" style="fill:none;stroke:#263238;stroke-linecap:round;stroke-linejoin:round"/></g><g id="Speedometer"><path d="M257.78,8.95h91.57A5.09,5.09,0,0,1,354.44,14v3.52a0,0,0,0,1,0,0H252.69a0,0,0,0,1,0,0V14A5.09,5.09,0,0,1,257.78,8.95Z" style="fill:#263238;stroke:#263238;stroke-miterlimit:10"/><path d="M252.69,17.57H354.44a0,0,0,0,1,0,0V73.94a6.51,6.51,0,0,1-6.51,6.51H259.2a6.51,6.51,0,0,1-6.51-6.51V17.57A0,0,0,0,1,252.69,17.57Z" style="fill:#fff;stroke:#263238;stroke-linecap:round;stroke-linejoin:round"/><path d="M344.29,62.45a40.76,40.76,0,0,0-81.45,0Z" style="fill:#fff;stroke:#263238;stroke-linecap:round;stroke-linejoin:round"/><path d="M304.66,29.52l0,10A24.59,24.59,0,0,1,314,41.74l5-8.61A34.47,34.47,0,0,0,304.66,29.52Z" style="fill:#c6ff00;stroke:#263238;stroke-linecap:round;stroke-linejoin:round"/><path d="M292.89,41.86a24.7,24.7,0,0,1,9.28-2.38l0-9.95a34.59,34.59,0,0,0-14.26,3.69Z" style="fill:#858585;stroke:#263238;stroke-linecap:round;stroke-linejoin:round"/><path d="M290.73,43l-4.94-8.63a35,35,0,0,0-10.85,10.2l8.62,5A24.89,24.89,0,0,1,290.73,43Z" style="fill:#adadad;stroke:#263238;stroke-linecap:round;stroke-linejoin:round"/><path d="M321.17,34.29l-5,8.6a24.9,24.9,0,0,1,7.36,6.65l8.65-5A34.94,34.94,0,0,0,321.17,34.29Z" style="fill:#c6ff00;stroke:#263238;stroke-linecap:round;stroke-linejoin:round"/><path d="M324.88,51.6a24.77,24.77,0,0,1,3.38,10.85h10a34.55,34.55,0,0,0-4.71-15.8Z" style="fill:#c6ff00;stroke:#263238;stroke-linecap:round;stroke-linejoin:round"/><path d="M273.62,46.67a34.56,34.56,0,0,0-4.71,15.78h10a24.65,24.65,0,0,1,3.34-10.78Z" style="fill:#dbdbdb;stroke:#263238;stroke-linecap:round;stroke-linejoin:round"/><path d="M331.58,37.54,305.85,57.65A4.92,4.92,0,1,0,308.43,62a5.35,5.35,0,0,0-.07-.7Z" style="fill:#263238;stroke:#263238;stroke-linecap:round;stroke-linejoin:round"/></g><g id="Codes"><path d="M32.07,105H69.22a3,3,0,0,1,3,3v43.76a5.39,5.39,0,0,1-5.39,5.39H34.48a5.39,5.39,0,0,1-5.39-5.39V108A3,3,0,0,1,32.07,105Z" style="fill:#fff;stroke:#263238;stroke-linecap:round;stroke-linejoin:round"/><path d="M32.07,105H69.22a3,3,0,0,1,3,3v2.29a0,0,0,0,1,0,0H29.1a0,0,0,0,1,0,0V108A3,3,0,0,1,32.07,105Z" style="fill:#263238;stroke:#263238;stroke-linecap:round;stroke-linejoin:round"/><path d="M61.68,107.78a1.4,1.4,0,1,0-1.4,1.4A1.4,1.4,0,0,0,61.68,107.78Z" style="fill:#fff;stroke:#263238;stroke-linecap:round;stroke-linejoin:round"/><path d="M66.17,107.78a1.41,1.41,0,1,0-1.41,1.4A1.41,1.41,0,0,0,66.17,107.78Z" style="fill:#fff;stroke:#263238;stroke-linecap:round;stroke-linejoin:round"/><path d="M70.65,107.78a1.4,1.4,0,1,0-1.4,1.4A1.4,1.4,0,0,0,70.65,107.78Z" style="fill:#fff;stroke:#263238;stroke-linecap:round;stroke-linejoin:round"/><polyline points="45.46 116.3 38.08 122.13 45.46 127.97" style="fill:none;stroke:#263238;stroke-linecap:round;stroke-linejoin:round;stroke-width:3px"/><polyline points="55.59 116.3 62.98 122.13 55.59 127.97" style="fill:none;stroke:#263238;stroke-linecap:round;stroke-linejoin:round;stroke-width:3px"/><line x1="51.47" y1="114.92" x2="49.24" y2="129" style="fill:none;stroke:#263238;stroke-linecap:round;stroke-linejoin:round;stroke-width:3px"/><line x1="59.6" y1="135.67" x2="67.76" y2="135.67" style="fill:none;stroke:#263238;stroke-linecap:round;stroke-linejoin:round"/><line x1="47.51" y1="135.67" x2="58.12" y2="135.67" style="fill:none;stroke:#263238;stroke-linecap:round;stroke-linejoin:round"/><line x1="38.61" y1="135.67" x2="45.18" y2="135.67" style="fill:none;stroke:#263238;stroke-linecap:round;stroke-linejoin:round"/><line x1="34.04" y1="135.67" x2="37.12" y2="135.67" style="fill:none;stroke:#263238;stroke-linecap:round;stroke-linejoin:round"/><line x1="62.99" y1="140.49" x2="67.76" y2="140.49" style="fill:none;stroke:#263238;stroke-linecap:round;stroke-linejoin:round"/><line x1="39.24" y1="140.49" x2="60.66" y2="140.49" style="fill:none;stroke:#263238;stroke-linecap:round;stroke-linejoin:round"/><line x1="34.04" y1="140.49" x2="36.7" y2="140.49" style="fill:none;stroke:#263238;stroke-linecap:round;stroke-linejoin:round"/><line x1="51.54" y1="145.3" x2="67.76" y2="145.3" style="fill:none;stroke:#263238;stroke-linecap:round;stroke-linejoin:round"/><line x1="37.97" y1="145.3" x2="48.57" y2="145.3" style="fill:none;stroke:#263238;stroke-linecap:round;stroke-linejoin:round"/><line x1="34.04" y1="145.3" x2="36.27" y2="145.3" style="fill:none;stroke:#263238;stroke-linecap:round;stroke-linejoin:round"/><line x1="63.21" y1="150.12" x2="67.76" y2="150.12" style="fill:none;stroke:#263238;stroke-linecap:round;stroke-linejoin:round"/><line x1="47.72" y1="150.12" x2="60.66" y2="150.12" style="fill:none;stroke:#263238;stroke-linecap:round;stroke-linejoin:round"/><line x1="34.04" y1="150.12" x2="45.18" y2="150.12" style="fill:none;stroke:#263238;stroke-linecap:round;stroke-linejoin:round"/><path d="M46.91,114.57H84.06a3,3,0,0,1,3,3V161.3a5.39,5.39,0,0,1-5.39,5.39H49.33a5.39,5.39,0,0,1-5.39-5.39V117.54A3,3,0,0,1,46.91,114.57Z" style="fill:#fff;stroke:#263238;stroke-linecap:round;stroke-linejoin:round"/><path d="M46.91,114.57H84.06a3,3,0,0,1,3,3v2.29a0,0,0,0,1,0,0H43.95a0,0,0,0,1,0,0v-2.29A3,3,0,0,1,46.91,114.57Z" style="fill:#263238;stroke:#263238;stroke-linecap:round;stroke-linejoin:round"/><circle cx="75.13" cy="117.3" r="1.4" style="fill:#fff;stroke:#263238;stroke-linecap:round;stroke-linejoin:round"/><path d="M81,117.3a1.4,1.4,0,1,0-1.4,1.4A1.4,1.4,0,0,0,81,117.3Z" style="fill:#fff;stroke:#263238;stroke-linecap:round;stroke-linejoin:round"/><circle cx="84.09" cy="117.3" r="1.4" style="fill:#fff;stroke:#263238;stroke-linecap:round;stroke-linejoin:round"/><polyline points="60.31 125.82 52.93 131.65 60.31 137.49" style="fill:none;stroke:#263238;stroke-linecap:round;stroke-linejoin:round;stroke-width:3px"/><polyline points="70.44 125.82 77.82 131.65 70.44 137.49" style="fill:none;stroke:#263238;stroke-linecap:round;stroke-linejoin:round;stroke-width:3px"/><line x1="66.32" y1="124.44" x2="64.09" y2="138.52" style="fill:none;stroke:#263238;stroke-linecap:round;stroke-linejoin:round;stroke-width:3px"/><line x1="74.45" y1="145.19" x2="82.6" y2="145.19" style="fill:none;stroke:#263238;stroke-linecap:round;stroke-linejoin:round"/><line x1="62.36" y1="145.19" x2="72.96" y2="145.19" style="fill:none;stroke:#263238;stroke-linecap:round;stroke-linejoin:round"/><line x1="53.45" y1="145.19" x2="60.03" y2="145.19" style="fill:none;stroke:#263238;stroke-linecap:round;stroke-linejoin:round"/><line x1="48.89" y1="145.19" x2="51.97" y2="145.19" style="fill:none;stroke:#263238;stroke-linecap:round;stroke-linejoin:round"/><line x1="77.84" y1="150.01" x2="82.6" y2="150.01" style="fill:none;stroke:#263238;stroke-linecap:round;stroke-linejoin:round"/><line x1="54.09" y1="150.01" x2="75.51" y2="150.01" style="fill:none;stroke:#263238;stroke-linecap:round;stroke-linejoin:round"/><line x1="48.89" y1="150.01" x2="51.54" y2="150.01" style="fill:none;stroke:#263238;stroke-linecap:round;stroke-linejoin:round"/><line x1="66.39" y1="154.82" x2="82.6" y2="154.82" style="fill:none;stroke:#263238;stroke-linecap:round;stroke-linejoin:round"/><line x1="52.82" y1="154.82" x2="63.42" y2="154.82" style="fill:none;stroke:#263238;stroke-linecap:round;stroke-linejoin:round"/><line x1="48.89" y1="154.82" x2="51.12" y2="154.82" style="fill:none;stroke:#263238;stroke-linecap:round;stroke-linejoin:round"/><line x1="78.05" y1="159.64" x2="82.6" y2="159.64" style="fill:none;stroke:#263238;stroke-linecap:round;stroke-linejoin:round"/><line x1="62.57" y1="159.64" x2="75.51" y2="159.64" style="fill:none;stroke:#263238;stroke-linecap:round;stroke-linejoin:round"/><line x1="48.89" y1="159.64" x2="60.03" y2="159.64" style="fill:none;stroke:#263238;stroke-linecap:round;stroke-linejoin:round"/></g><g id="Character_3" data-name="Character 3"><path d="M80.51,252.54s3.25,0,3.88.73-1.08,1.44-1.71,1.53a10.43,10.43,0,0,1-2.35-.27Z" style="fill:#fff;stroke:#263238;stroke-linecap:round;stroke-linejoin:round"/><path d="M79.06,251.73s1.45-.54,1.81.63-.54,4.71-1.09,4.8-.81-.28-.81-1.36S79.06,251.73,79.06,251.73Z" style="fill:#fff;stroke:#263238;stroke-linecap:round;stroke-linejoin:round"/><path d="M76.53,251.55s1.9-1.09,2.62-.27-.09,5.6-.09,5.6c-.54.28-1.45-2.89-2.26-3.88a9.57,9.57,0,0,1-1-1.36Z" style="fill:#fff;stroke:#263238;stroke-linecap:round;stroke-linejoin:round"/><path d="M74.81,254.9l.54-.73s1.09,2.35,1.54,3a.53.53,0,0,0,.9.09,14.87,14.87,0,0,0-.36-2.72c-.27-.81-1.35-3.34-2.17-2.89s-4.16,4.34-5,4.34-4.93-3.59-4.93-3.59l.28,5.8s4.69-.19,5.88-.28a19.45,19.45,0,0,0,3.56-.94" style="fill:#fff;stroke:#263238;stroke-linecap:round;stroke-linejoin:round"/><path d="M72.28,254.71s2.8.46,3.25,1.27.55.9-.45,1-3.34.37-3.71-.09S71.92,254.8,72.28,254.71Z" style="fill:#fff;stroke:#263238;stroke-linecap:round;stroke-linejoin:round"/><polygon points="53.12 222.97 43.88 235.68 44.45 272.64 66.02 272.64 66.4 242.61 61.21 228.67 53.12 222.97" style="fill:#c6ff00;stroke:#263238;stroke-linecap:round;stroke-linejoin:round"/><path d="M58,362.05s6.22,4,9.62,4.74,4.44,1.77,1.63,3.11S56.1,371.4,52,371.17s-3.6-.09-4-1.87a11.31,11.31,0,0,1,.15-5C48.41,362.94,55.66,360.87,58,362.05Z" style="fill:#fff;stroke:#263238;stroke-linecap:round;stroke-linejoin:round"/><path d="M66,272.64s-1.16,9.25-2.66,21.38c-1.14,9.19-3.11,29.85-4.14,36.51s-1.78,17.61-1.93,22.5-.44,6.36-.15,6.8,1,.59,1,1.19.15,1.92.15,1.92a17,17,0,0,1-4.88,2.52c-3.56,1.33-5.92,2.07-5.92,2.07a40,40,0,0,1-1.34-5.36c-.45-2.66.3-4.26.3-6S44.08,337,45.42,330.65,48,322.16,48,318.32s-1.48-27.26-1.48-27.26-2.44-6.81-2.58-11.4a25.31,25.31,0,0,1,.54-7S59.09,272.26,66,272.64Z" style="fill:#263238;stroke:#263238;stroke-linecap:round;stroke-linejoin:round"/><path d="M72.85,207.23a16.81,16.81,0,0,1-.26,4.34,4.4,4.4,0,0,0-.18,3.3c.44.87,1.31,1.91.7,2.43a7.52,7.52,0,0,1-1.3.87s-1.74,3.12-2.61,4.86-1.3,2.17-2.17,1.82a12.31,12.31,0,0,1-1.82-.95,41,41,0,0,0-2.78,3.47,4.46,4.46,0,0,1-1.22,1.3l-5.9-6.42a9,9,0,0,0,2.08-4c.61-2.51.78-2.86.18-4s-1.83-1.21-1.13-4-.26-3.65,2.26-5.39,7.29-2,8.68-2a5.12,5.12,0,0,1,3.12,1A19.92,19.92,0,0,1,72.85,207.23Z" style="fill:#fff;stroke:#263238;stroke-linecap:round;stroke-linejoin:round"/><path d="M70.83,213.83c0,.58-.17,1-.38,1s-.39-.47-.39-1,.17-1.06.39-1.06S70.83,213.24,70.83,213.83Z" style="fill:#263238"/><path d="M69.1,211.42s2.74-1.43,3.49.15" style="fill:none;stroke:#263238;stroke-linecap:round;stroke-linejoin:round;stroke-width:0.5px"/><path d="M69.49,220.22s-1.31-.6-1.5-1.21" style="fill:none;stroke:#263238;stroke-linecap:round;stroke-linejoin:round;stroke-width:0.5px"/><path d="M67.2,200.8s6.25,2,7.12,2.78S71,206.11,71,206.11l-2.35.51-.92.72s1.44,1.3-2,1.12-2.77-1-2.77-1,2.17,2.43,2,3.12-1.39,1.83-1.73,2.35-.87-.17-.87-.17-.52,2.17-.7,1.64a19.38,19.38,0,0,1-.34-2.34s-.78-1.74-1.91-1.3-1.74,3.21-1,4.51a3.5,3.5,0,0,0,2.17,1.57s-1.82,2-2.34,1.56-.7-1.3-1-1.74-4.69-4.17-5.21-6.86,3.38-9.2,6.42-9.81S67.2,200.8,67.2,200.8Z" style="fill:#263238;stroke:#263238;stroke-linecap:round;stroke-linejoin:round"/><path d="M61.13,216.87s-1.05,3-.35,3.9A16.24,16.24,0,0,0,63.73,223" style="fill:none;stroke:#263238;stroke-linecap:round;stroke-linejoin:round;stroke-width:0.5px"/><polygon points="90.37 262.26 102.54 236.44 94.31 236.87 83.99 260.85 90.37 262.26" style="fill:#263238;stroke:#263238;stroke-linecap:round;stroke-linejoin:round"/><polygon points="84.74 258.8 90.69 261.39 58.12 261.39 62.56 258.58 84.74 258.8" style="fill:#263238;stroke:#263238;stroke-linecap:round;stroke-linejoin:round"/><path d="M55.24,231.09s4.11.76,4.76,4.44-1.19,17.75-1.19,18.07v2.6c0,.65-2.6.43-5.63,1.84s-4.87,3.68-4.87,1.95-1.51-20.13-1.51-20.13" style="fill:#c6ff00;stroke:#263238;stroke-linecap:round;stroke-linejoin:round"/><path d="M60.29,255.76l3.13,5s-11.8,6.92-12.13,6.7-2.07-2-2.07-3.12-1.93-2.14-.66-4.21c1.09-1.76,4.61-4.83,5.79-4.27C54.35,255.86,59.1,255.22,60.29,255.76Z" style="fill:#c6ff00;stroke:#263238;stroke-linecap:round;stroke-linejoin:round"/><path d="M62.3,260.1a37,37,0,0,0,11.19,2.11c7.25.43,6.48-.59,6.48-.59A36.85,36.85,0,0,1,83.34,259c1.08-.65,4.55-.11,5.2-.54s.64-1.84,1.08-2.28,2.38-.21,2.38-.21,1,.54,1,1.3.65,5.62-.21,6.06-12.16,2-16.35,2.59c-5.32.71-12.3,2.33-18.68,1.36S51.81,266.7,52,265,60.25,259.67,62.3,260.1Z" style="fill:#fff;stroke:#263238;stroke-linecap:round;stroke-linejoin:round"/><line x1="92.54" y1="256.58" x2="92.32" y2="262.31" style="fill:#fff;stroke:#263238;stroke-linecap:round;stroke-linejoin:round"/><line x1="90.81" y1="256.04" x2="90.48" y2="261.66" style="fill:#fff;stroke:#263238;stroke-linecap:round;stroke-linejoin:round"/><path d="M88.54,258.42s.43,1.3-.33,1.84a14.33,14.33,0,0,1-3.68,1" style="fill:#fff;stroke:#263238;stroke-linecap:round;stroke-linejoin:round"/><polygon points="55.24 220.28 53.12 222.97 62.36 232.41 63.71 228.36 55.24 220.28" style="fill:#c6ff00;stroke:#263238;stroke-linecap:round;stroke-linejoin:round"/></g></g></svg>