<svg xmlns="http://www.w3.org/2000/svg" viewBox="0 0 419.61 390.7"><g id="Layer_2" data-name="Layer 2"><g id="Background_Simple" data-name="Background Simple"><path d="M0,207.5v1.09c-.08,48.52,11.86,116.23,84.86,127.67,95.62,15,145.22-101.79,193.58-96.95,24.75,2.48,53.14,5.76,75.95-3.25a106.28,106.28,0,0,0,49.91-41.53c38.55-61,.29-127.86-70.13-163.44-93.94-47.45-228.76-44.15-289,34.8C13.73,107.19.28,159.09,0,207.5Z" style="fill:#92e3a9"/><path d="M0,207.5v1.09c-.08,48.52,11.86,116.23,84.86,127.67,95.62,15,145.22-101.79,193.58-96.95,24.75,2.48,53.14,5.76,75.95-3.25a106.28,106.28,0,0,0,49.91-41.53c38.55-61,.29-127.86-70.13-163.44-93.94-47.45-228.76-44.15-289,34.8C13.73,107.19.28,159.09,0,207.5Z" style="fill:#fff;opacity:0.7000000000000001"/></g><g id="Lines"><path d="M54.05,160.46H49.14a19.88,19.88,0,0,0-19.88,19.88V289.43a19.89,19.89,0,0,0,19.88,19.89h67.41a19.89,19.89,0,0,0,19.88-19.89h0" style="fill:none;stroke:#263238;stroke-linecap:round;stroke-linejoin:round;stroke-dasharray:4"/><path d="M130.9,57.52V36a12.18,12.18,0,0,1,12.18-12.18h87.66A12.18,12.18,0,0,1,242.92,36h0" style="fill:none;stroke:#263238;stroke-linecap:round;stroke-linejoin:round;stroke-dasharray:4"/></g><g id="Shadow"><ellipse cx="209.8" cy="366.44" rx="167.99" ry="24.26" style="fill:#92e3a9"/><ellipse cx="209.8" cy="366.44" rx="167.99" ry="24.26" style="fill:#fff;opacity:0.5"/></g><g id="Window"><path d="M373.47,86.43V249.67a20.13,20.13,0,0,1-20.12,20.12H66.26a20.13,20.13,0,0,1-20.12-20.12V86.43c0-.48,0-1,.06-1.42A20.12,20.12,0,0,1,66.26,66.3H353.35A20.12,20.12,0,0,1,373.41,85C373.45,85.48,373.47,86,373.47,86.43Z" style="fill:#fff;stroke:#263238;stroke-linecap:round;stroke-linejoin:round"/><path d="M55.93,92.56H364.7a0,0,0,0,1,0,0V243.34a18.86,18.86,0,0,1-18.86,18.86H74.78a18.86,18.86,0,0,1-18.86-18.86V92.56A0,0,0,0,1,55.93,92.56Z" style="fill:#263238"/><path d="M364.71,92.55V243.34a18.76,18.76,0,0,1-18.65,18.85H74.57a18.75,18.75,0,0,1-18.64-18.85V92.55Z" style="fill:#fff;opacity:0.2"/><path d="M373.41,85H46.2A20.12,20.12,0,0,1,66.26,66.3H353.35A20.12,20.12,0,0,1,373.41,85Z" style="fill:#92e3a9;stroke:#263238;stroke-miterlimit:10"/><path d="M86.41,75.66a3.57,3.57,0,1,1-3.57-3.56A3.56,3.56,0,0,1,86.41,75.66Z" style="fill:#263238"/><path d="M101.48,75.66a3.57,3.57,0,1,1-3.57-3.56A3.56,3.56,0,0,1,101.48,75.66Z" style="fill:#263238"/><path d="M116.54,75.66A3.56,3.56,0,1,1,113,72.1,3.56,3.56,0,0,1,116.54,75.66Z" style="fill:#263238"/><path d="M364.7,92.56V243.34a18.86,18.86,0,0,1-18.86,18.86H74.78A18.85,18.85,0,0,1,56.29,247h0v0a18.72,18.72,0,0,1-.35-3.61V92.56Z" style="fill:none;stroke:#263238;stroke-miterlimit:10"/><path d="M364.41,115.88a19.18,19.18,0,0,0-4.19-1.73l-1.69-7.57h-7.2l-1.68,7.57a18.58,18.58,0,0,0-4.2,1.73l-6.5-4.16-5.09,5.09,4.09,6.5a18.5,18.5,0,0,0-1.73,4.2l-7.57,1.68v7.2l7.57,1.69a18.36,18.36,0,0,0,1.73,4.23l-4.16,6.54,5.09,5.09,6.54-4.16a18.61,18.61,0,0,0,4.2,1.74l1.68,7.56h7.2l1.69-7.56a19.21,19.21,0,0,0,4.19-1.74l.33.21v-34.3ZM355,142.13a9.3,9.3,0,1,1,9.3-9.3A9.3,9.3,0,0,1,355,142.13Z" style="fill:#263238"/><path d="M234.69,123.17V108l-16-3.54a41.24,41.24,0,0,0-3.65-8.86l1.93-3H141.68l1.86,3a39.28,39.28,0,0,0-3.64,8.85l-16,3.56v15.17l16,3.56a39.81,39.81,0,0,0,3.64,8.92l-8.77,13.79,10.74,10.73,13.78-8.77a40.6,40.6,0,0,0,8.86,3.67l3.54,15.94h15.18L190.44,155a40.86,40.86,0,0,0,8.83-3.67l13.79,8.77,10.73-10.73-8.71-13.79a41.6,41.6,0,0,0,3.65-8.84Zm-55.3,12A19.61,19.61,0,1,1,199,115.58,19.6,19.6,0,0,1,179.39,135.19Z" style="fill:#263238"/><path d="M134,227.41l.64-12-12.48-3.52a33.78,33.78,0,0,0-2.56-7.16l7.54-10.59-8.08-9-11.3,6.39a33.46,33.46,0,0,0-6.88-3.29l-2.16-12.8-12-.64L83.2,187.31A31.48,31.48,0,0,0,76,189.85l-10.58-7.54-9,8.08,6.4,11.31a31.26,31.26,0,0,0-3.3,6.87l-3.65.6v16.31l2.65.75a31.52,31.52,0,0,0,2.56,7.18l-5.21,7.29.35,6.25v0h0l5.37,6L73,246.57a31.36,31.36,0,0,0,6.9,3.33l2.06,12.29h0l.1.51,12,.64.32-1.15h0l3.16-11.36a32.28,32.28,0,0,0,7.2-2.54l10.56,7.53,9-8.07-6.38-11.32a31.26,31.26,0,0,0,3.26-6.86ZM102,208.6a15.59,15.59,0,1,0-1.16,22A15.59,15.59,0,0,0,102,208.6Z" style="fill:#263238"/><path d="M230.29,209.42a24.33,24.33,0,0,0,.73-5.7l8.66-4.55-2.39-8.79-9.77.46A25,25,0,0,0,224,186.3L226.9,177,219,172.44l-6.6,7.2a25.84,25.84,0,0,0-5.68-.72l-4.57-8.67-8.77,2.39.46,9.78a25,25,0,0,0-4.55,3.51L180,183l-4.52,7.88,7.24,6.58a23.28,23.28,0,0,0-.71,5.69l-8.68,4.57,2.39,8.78,9.79-.46a23.3,23.3,0,0,0,3.5,4.54l-2.91,9.3,7.89,4.52,6.56-7.14a24.32,24.32,0,0,0,5.7.72l4.56,8.66,8.77-2.38-.39-8.36-.06-1.43a24.39,24.39,0,0,0,4.59-3.51l9.34,2.9,3.86-6.75.66-1.14Zm-20.73,5.33a11.74,11.74,0,1,1,8.24-14.42A11.73,11.73,0,0,1,209.56,214.75Z" style="fill:#263238"/><path d="M330.66,224.86l2-12.05-12.2-4.91a32.37,32.37,0,0,0-1.75-7.52l8.78-9.77-7.11-9.94-12.11,5.13a32.19,32.19,0,0,0-6.54-4.06L301,168.61l-12.06-2L284,178.76a33.73,33.73,0,0,0-7.49,1.76l-9.81-8.78-9.93,7.12L261.94,191a32.94,32.94,0,0,0-3.67,5.7c-.14.28-.28.56-.41.84l-13.13.74-2,12,2,.8,10.22,4.12a31.74,31.74,0,0,0,1.75,7.49l-8.78,9.81,7.11,9.94,12.11-5.17a31.39,31.39,0,0,0,6.53,4.09l.68,13.08,12.05,2,4.93-12.06a32.21,32.21,0,0,0,7.51-1.77l9.79,8.79,9.94-7.12-5.15-12.11a31.58,31.58,0,0,0,4.13-6.57Zm-33.81-.54a15.78,15.78,0,1,1,3.64-22A15.78,15.78,0,0,1,296.85,224.32Z" style="fill:#263238"/></g><g id="Graphics"><rect x="60.58" y="135.61" width="118.57" height="155.03" rx="11.88" style="fill:#92e3a9;stroke:#263238;stroke-miterlimit:10"/><rect x="60.58" y="135.61" width="118.57" height="155.03" rx="11.88" style="opacity:0.2"/><path d="M190.19,159.2V290.46a11.89,11.89,0,0,1-11.89,11.89H83.5a11.88,11.88,0,0,1-11.88-11.89V159.2A11.88,11.88,0,0,1,83.5,147.32h94.8A11.88,11.88,0,0,1,190.19,159.2Z" style="fill:#fff;stroke:#263238;stroke-linecap:round;stroke-linejoin:round"/><path d="M190.19,159.2v7H71.62v-7A11.88,11.88,0,0,1,83.5,147.32h94.8A11.88,11.88,0,0,1,190.19,159.2Z" style="fill:#92e3a9;stroke:#263238;stroke-miterlimit:10"/><rect x="82.77" y="174.38" width="29.17" height="4.89" style="fill:#92e3a9"/><rect x="82.77" y="218.24" width="29.17" height="4.89" style="fill:#92e3a9"/><rect x="82.77" y="258.02" width="29.17" height="4.89" style="fill:#92e3a9"/><rect x="82.77" y="186.49" width="82.85" height="3.59" style="fill:#263238"/><rect x="82.77" y="193.36" width="67.91" height="3.5" style="fill:#263238"/><rect x="82.77" y="200.11" width="76.8" height="3.5" style="fill:#263238"/><rect x="82.77" y="206.86" width="76.8" height="3.5" style="fill:#263238"/><rect x="82.77" y="226.27" width="82.85" height="3.59" style="fill:#263238"/><rect x="82.77" y="233.14" width="67.91" height="3.5" style="fill:#263238"/><rect x="82.77" y="239.89" width="76.8" height="3.5" style="fill:#263238"/><rect x="82.77" y="269.95" width="82.85" height="3.59" style="fill:#263238"/><rect x="82.77" y="276.82" width="67.91" height="3.5" style="fill:#263238"/><rect x="82.77" y="283.57" width="76.8" height="3.5" style="fill:#263238"/><path d="M323.81,56.31v53.05a14.16,14.16,0,0,1-14.17,14.17H187.45a14.17,14.17,0,0,1-14.17-14.17v-53a14.18,14.18,0,0,1,14.17-14.18H309.64A14.17,14.17,0,0,1,323.81,56.31Z" style="fill:#fff;stroke:#222221;stroke-miterlimit:10"/><path d="M323.81,56.31v1.21H173.28V56.31a14.18,14.18,0,0,1,14.17-14.18H309.64A14.17,14.17,0,0,1,323.81,56.31Z" style="fill:#92e3a9;stroke:#263238;stroke-miterlimit:10"/><circle cx="193.86" cy="50.83" r="2.17" style="fill:#263238"/><circle cx="203.94" cy="50.83" r="2.17" style="fill:#263238"/><circle cx="214.02" cy="50.83" r="2.17" style="fill:#263238"/><rect x="182.88" y="67.28" width="49.2" height="42.53" style="fill:none;stroke:#263238;stroke-linecap:round;stroke-linejoin:round;stroke-dasharray:4"/><rect x="239.68" y="67.28" width="56.63" height="2.99" style="fill:#263238"/><rect x="239.68" y="73.47" width="43.44" height="2.99" style="fill:#263238"/><rect x="239.68" y="79.63" width="64.68" height="3.02" style="fill:#263238"/><rect x="239.68" y="85.65" width="55.08" height="3.02" style="fill:#263238"/></g><g id="Character"><path d="M252.29,364.69s-26.29,7.54-30,8.84c-3.34,1.18-12.39,4.35-19.18,3.37a14.81,14.81,0,0,1-1.94-.42c-6.88-2.05-10-4-10.87-8.29s2.52-7.51,5.82-9.55,21.2-4.17,21.2-4.17l4.32,1.27h0Z" style="fill:#92e3a9"/><path d="M203.15,376.9a14.81,14.81,0,0,1-1.94-.42c-6.88-2.05-10-4-10.87-8.29s2.52-7.51,5.82-9.55,21.2-4.17,21.2-4.17l4.32,1.27c-3.91,1.8-18.49,2.8-21.67,4.63s-4.72,5.28-2.84,9.94C198.17,372.79,200.85,375.19,203.15,376.9Z" style="fill:#fff"/><path d="M248.33,365.76s-19.74,5.11-27.57,8.39-22.77,4.71-28.09-2-.61-12.56,4.71-13.85,16.08-3.34,22-2.52" style="fill:none;stroke:#263238;stroke-linecap:round;stroke-linejoin:round"/><path d="M203.54,376.54s-10-5.51-6.71-13.23c2.46-5.7,15.87-4.46,22.5-7.58" style="fill:none;stroke:#263238;stroke-linecap:round;stroke-linejoin:round"/><path d="M332.36,378.12c-.27,2.69-1.22,5.27-3.94,6.87-1.81,1.07-4.39,1.71-8.08,1.67-9.22-.12-26.55-6.71-26.55-6.71l-16.23-9L286,357.62l2.31-3.66,6,1.34s4.94,2.8,9.91,5,17,2.7,21.28,6.14S332.82,373.64,332.36,378.12Z" style="fill:#92e3a9"/><path d="M332.36,378.12c-.27,2.69-1.22,5.27-3.94,6.87a12.15,12.15,0,0,0-.46-8.1c-1.8-4.07-7.71-7.66-15.47-8.26s-13.7-4.23-16.81-5.85c-2.43-1.26-7.55-4-9.68-5.16l2.31-3.66,6,1.34s4.94,2.8,9.91,5,17,2.7,21.28,6.14S332.82,373.64,332.36,378.12Z" style="fill:#fff"/><path d="M281.15,373.49a102.43,102.43,0,0,0,38,13c2.95.35,6.39.4,8.36-1.82a6.14,6.14,0,0,0,1.37-4.63c-.36-4.17-3.86-7.47-7.7-9.12s-8.09-2-12.17-3a48.72,48.72,0,0,1-11.7-4.28c-2.93-1.54-5.77-3.39-9-4.08s-7.09.15-8.82,3" style="fill:none;stroke:#263238;stroke-linecap:round;stroke-linejoin:round"/><path d="M326.42,385.78a10.79,10.79,0,0,0,5.94-7.66c.59-3.93-1.65-7.88-4.8-10.29s-7.09-3.55-11-4.36-7.86-1.35-11.56-2.8c-5.69-2.22-11.3-6.61-17.2-5" style="fill:none;stroke:#263238;stroke-linecap:round;stroke-linejoin:round"/><path d="M299.47,233.06,272,222.61l-.34-.13s.1-.73.18-1.79c.17-2.19.26-5.76-.77-7-1.53-1.79-5.87-.29-10.1-2.23S248.92,213,248.92,213s-5.65-1-8.14,3c-1.27,3.29-.83,8.19-.83,8.19l-.52.19c-3.27,1.22-21.07,7.92-24.84,10.61-4.16,2.95-8.76,33.2-10.24,42.08s-4.11,16.89-2.77,19.95S222,314.86,233,318.66s50,2.69,50,2.69.64-.17,1.77-.53c6.6-2.12,30-10.85,42.44-31.44C327.28,289.38,315.25,249.92,299.47,233.06Zm-74.19,50.88c-2,1.43-.94,7-.94,7l-3.44-3,8.63-21.22L233.21,283S227.3,282.52,225.28,283.94Zm69,13.48c-.95.49,2.73-9.71,1-12s-7-2.09-7-2.09l.45-2.79,3.11-15.95,1-1.23s10.68,18.31,12.59,24.76C305.49,288.1,293.85,297.42,294.32,297.42Z" style="fill:#92e3a9"/><path d="M247.62,166.87l-14.17,15s-2,1.73-1.18,6.09,2.58,8.12,3.95,8.41a19.37,19.37,0,0,0,3.28.29s3,6.58,5.19,9.17c0,0,.75,10.16.35,13,0,0,5.09,4.45,9.89,5s12.21-6.78,12.21-6.78l1.83-9s4.35-6.6,4.65-8.35,2.28-1.31,3.26-2.18a16.62,16.62,0,0,0,3.61-8.4c.37-3.66.4-7.87-3.86-6.64-3.68-1-1.38-8.78-1.38-8.78L268.78,168Z" style="fill:#fff"/><path d="M272,222.61a14.5,14.5,0,0,1-.73,1.64c-2.34,4.41-12.53,12.81-12.53,12.81l-3.08-9.47L254,237.06c-3.4-1.48-13.77-10.47-13.77-10.47s-.35-.84-.78-2.15l.52-.19s-.44-4.9.83-8.19c2.49-4.08,8.14-3,8.14-3s7.83-3.47,12.06-1.53,8.57.44,10.1,2.23.59,8.76.59,8.76Z" style="fill:#fff;opacity:0.5"/><path d="M299.47,233.06,272,222.61l-.34-.13s.1-.73.18-1.79l-.57,3.56-4.06,5.52a110.72,110.72,0,0,1,12.67,5.58,11.14,11.14,0,0,1,5.82,11.1l-5.06,43.29-2.07,24.58,6.26,6.5c6.6-2.12,30-10.85,42.44-31.44C327.28,289.38,315.25,249.92,299.47,233.06Zm-5.15,64.36c-.95.49,2.73-9.71,1-12s-7-2.09-7-2.09l.45-2.79,3.11-15.95,1-1.23s10.68,18.31,12.59,24.76C305.49,288.1,293.85,297.42,294.32,297.42Z" style="opacity:0.2"/><path d="M235.07,285.4l-4.27-14.27s-7.66-26.11-12.91-32.55l1.38,18.36s-4.5,21.94-8.67,28.46-5.07,8.14,0,8.14,17.4,9.83,17.4,9.83l-.95-8.2Zm-10.73,5.52-3.44-3,8.63-21.22L233.21,283s-5.91-.44-7.93,1S224.34,290.92,224.34,290.92Z" style="opacity:0.2"/><path d="M244.69,205.88s.79,7.69,0,11.21" style="fill:none;stroke:#263238;stroke-linecap:round;stroke-linejoin:round"/><path d="M267.92,216.06a32.49,32.49,0,0,1,.86-7.35" style="fill:none;stroke:#263238;stroke-linecap:round;stroke-linejoin:round"/><path d="M270,172.61s4.66,5.85,4.42,10.26-.6,9.67-.48,14.81-8.24,15.87-12.53,16.83-8,1.19-10.75-1.56-5.49-6.56-9.07-11.45-2.74-15.64-2.74-15.64" style="fill:none;stroke:#263238;stroke-linecap:round;stroke-linejoin:round"/><path d="M258.77,190a24.85,24.85,0,0,0-.36,4.87,5.55,5.55,0,0,0,1.2,3.81c.51.52,1.26.94,1.36,1.67a1.8,1.8,0,0,1-1,1.59,12.77,12.77,0,0,0-1.68,1" style="fill:none;stroke:#263238;stroke-linecap:round;stroke-linejoin:round"/><path d="M251.38,203.45s.54,3.47,5.19,4.2" style="fill:none;stroke:#263238;stroke-linecap:round;stroke-linejoin:round"/><path d="M251.87,192.6c0,1-.44,1.81-1,1.81s-1-.81-1-1.81.43-1.82,1-1.82S251.87,191.59,251.87,192.6Z" style="fill:#263238"/><path d="M265.74,193c0,1-.43,1.82-1,1.82s-1-.81-1-1.82.43-1.81,1-1.81S265.74,192,265.74,193Z" style="fill:#263238"/><path d="M262.94,188.64s4.52-4.51,8.34.52" style="fill:none;stroke:#263238;stroke-linecap:round;stroke-linejoin:round;stroke-width:2px"/><path d="M253.4,188.72s-2.86-3.21-7.38,0" style="fill:none;stroke:#263238;stroke-linecap:round;stroke-linejoin:round;stroke-width:2px"/><path d="M245,210.11s2.76,7.62,8.94,9.78,14.37-9.06,14.37-9.06l-.43-1.45s-5.37,7-11.35,5.78-11.88-9.28-11.88-9.28Z" style="fill:#263238"/><path d="M239.5,196.42s-3.68,1.3-4.66-1.57-4.33-10.42-1.39-12.93,5.29,3.32,5.29,3.32" style="fill:none;stroke:#263238;stroke-linecap:round;stroke-linejoin:round"/><path d="M273.91,198s3.42.69,4.4-2.18,4.33-10.41,1.4-12.93-5.3,3.32-5.3,3.32" style="fill:none;stroke:#263238;stroke-linecap:round;stroke-linejoin:round"/><path d="M238.74,192.6a5.12,5.12,0,0,0,3.23-1.91,8.12,8.12,0,0,0,.94-2.89,35.7,35.7,0,0,0,.51-5.84,7.85,7.85,0,0,1,.2-2.27,6,6,0,0,1,1.23-2c1.29-1.51,2.84-2.78,4.06-4.34a7.21,7.21,0,0,0,1.78-5.48,24.9,24.9,0,0,0,20.38,5.27c6.47-1.27,12.69-7,11.93-14.09a5.77,5.77,0,0,0-4.56-5c-3.2-.8-6.08.91-9,2-5.29,2-10.46-1.43-15.8-2-4.57-.49-10.18.08-12.56,4.62,0,0-8.2,1-11.8,7.71s3.24,16.07,3.24,16.07,2.75-3.33,6.29,3.41Z" style="fill:#263238"/><path d="M270.5,170.88s-2.12,11.06,3.41,16.42c0,0,1.21-3.33,2.44-4.14a12.83,12.83,0,0,0-1-12.28C271.33,164.45,270.5,170.88,270.5,170.88Z" style="fill:#263238"/><path d="M280.64,158.3a10.45,10.45,0,0,1-6.32,6.6c-7.69,3.13-15.15-.35-22.85-1-6.29-.55-13.22,5.12-13.66,11.57" style="fill:none;stroke:#fff;stroke-linecap:round;stroke-linejoin:round;opacity:0.2"/><path d="M233,173.74a13.46,13.46,0,0,1,8.19-11.86" style="fill:none;stroke:#fff;stroke-linecap:round;stroke-linejoin:round;opacity:0.2"/><path d="M242.92,216.06a35,35,0,0,0,12,8.19s9.2-2.67,13.89-9.09" style="fill:none;stroke:#263238;stroke-linecap:round;stroke-linejoin:round"/><circle cx="248.92" cy="192.6" r="8.14" style="fill:none;stroke:#263238;stroke-linecap:round;stroke-linejoin:round"/><circle cx="267.11" cy="192.6" r="8.14" style="fill:none;stroke:#263238;stroke-linecap:round;stroke-linejoin:round"/><path d="M244.69,213a6.37,6.37,0,0,0-3.92,3c-1.44,2.53-.57,10.52-.57,10.52S247.64,234,254,237.05l1.87-10.51,2.9,10.51s9.81-6.94,12.53-12.8c0,0,.88-6.84,0-9.09a3.15,3.15,0,0,0-2.93-2.14" style="fill:none;stroke:#263238;stroke-linecap:round;stroke-linejoin:round"/><path d="M233,283.31s-2.9-19.49-6.77-27.44" style="fill:none;stroke:#263238;stroke-linecap:round;stroke-linejoin:round"/><path d="M217.89,238.58a78.34,78.34,0,0,1,6,10.07" style="fill:none;stroke:#263238;stroke-linecap:round;stroke-linejoin:round"/><path d="M294.32,253.12a55.69,55.69,0,0,1,3.2-9.51" style="fill:none;stroke:#263238;stroke-linecap:round;stroke-linejoin:round"/><path d="M288.3,283.31s2.1-13.36,4.6-24.37" style="fill:none;stroke:#263238;stroke-linecap:round;stroke-linejoin:round"/><path d="M291.86,264.56A15.34,15.34,0,0,1,300,259" style="fill:none;stroke:#263238;stroke-linecap:round;stroke-linejoin:round"/><path d="M271.67,222.48s16.9,6.74,27.8,10.58c0,0,13.42,12.62,27.8,56.32,0,0-13.18,22.17-38.25,29.28" style="fill:none;stroke:#263238;stroke-linecap:round;stroke-linejoin:round"/><path d="M293.37,298.21l12.11-10.11s6.41-4.87,13.08-1.54" style="fill:none;stroke:#263238;stroke-linecap:round;stroke-linejoin:round"/><path d="M292.9,263.34s10,14.76,12.58,24.76" style="fill:none;stroke:#263238;stroke-linecap:round;stroke-linejoin:round"/><path d="M224.44,291.48l-3.54-3.38s-5.26-.92-11.22,3.07" style="fill:none;stroke:#263238;stroke-linecap:round;stroke-linejoin:round"/><path d="M220.9,288.1s4.4-14.47,8.75-21.93" style="fill:none;stroke:#263238;stroke-linecap:round;stroke-linejoin:round"/><path d="M239.94,224.25s-24.3,9.12-26.69,11.77-11.44,53.67-11.67,59.5c-.22,5.22,18.71,17,28.07,21.89" style="fill:none;stroke:#263238;stroke-linecap:round;stroke-linejoin:round"/><rect x="294.32" y="187.97" width="39.54" height="28.09" rx="5.92" style="fill:#fff;stroke:#263238;stroke-linecap:round;stroke-linejoin:round"/><polyline points="307.07 196.42 299.47 201.19 306.53 207.45" style="fill:none;stroke:#263238;stroke-linecap:round;stroke-linejoin:round"/><polyline points="320.93 207.9 327.76 202.08 319.87 196.91" style="fill:none;stroke:#263238;stroke-linecap:round;stroke-linejoin:round"/><line x1="310.77" y1="211.48" x2="316.38" y2="193.89" style="fill:none;stroke:#263238;stroke-linecap:round;stroke-linejoin:round"/><path d="M258.12,241.48a1.6,1.6,0,1,1-1.6-1.6A1.6,1.6,0,0,1,258.12,241.48Z" style="fill:#263238"/><path d="M286.24,326.89H230.93a1.3,1.3,0,0,1-1.3-1.29h0a1.3,1.3,0,0,1,1.3-1.3h55.31a1.3,1.3,0,0,1,1.3,1.3h0A1.3,1.3,0,0,1,286.24,326.89Z" style="fill:#263238"/><path d="M288.18,322.6l7.41-34.81a3.71,3.71,0,0,0-3.62-4.48H227.34a3.7,3.7,0,0,0-3.63,4.42l6.64,33.65a3.7,3.7,0,0,0,3.55,3l50.57,1.16A3.71,3.71,0,0,0,288.18,322.6Z" style="fill:#fff;stroke:#263238;stroke-linecap:round;stroke-linejoin:round"/><path d="M264.59,303.37a5.16,5.16,0,1,1-5.16-5.16A5.16,5.16,0,0,1,264.59,303.37Z" style="fill:#263238"/><line x1="274.73" y1="286.61" x2="282.41" y2="286.61" style="fill:none;stroke:#263238;stroke-linecap:round;stroke-linejoin:round"/><line x1="238.06" y1="286.61" x2="267.21" y2="286.61" style="fill:none;stroke:#263238;stroke-linecap:round;stroke-linejoin:round"/><path d="M288.3,359.52,282.41,375s-15-3.79-34.27-7.73c-20.13-4.13-41.15-9.47-52.06-28.6-1.33-2.33-2.21-5.09-1.59-7.7,1.57-6.61,10.17-8.4,15.84-9.06a103.63,103.63,0,0,1,10.72-.61c1.83,0,7.84-1,9.3.09a42.85,42.85,0,0,0,7,4.15c3.21,1.36,50.19-1.23,50.19-1.23a16.73,16.73,0,0,0,1.48-5.64c7.38-3.75,24.48-6.93,31.7-5.53,11.36,2.21,18,8.84,16.73,15.78S311.11,354.47,288.3,359.52Z" style="fill:#263238"/><path d="M288.3,359.52s-14.28-3.78-26-11.67-20.8-17-37.07-15.15" style="fill:none;stroke:#fff;stroke-linecap:round;stroke-linejoin:round"/><path d="M259.65,346c7.38-2.13,12.79-6.9,18.71-11.48a127.2,127.2,0,0,1,20-13.16" style="fill:none;stroke:#fff;stroke-linecap:round;stroke-linejoin:round"/><line x1="257.06" y1="193.89" x2="259.22" y2="193.89" style="fill:none;stroke:#263238;stroke-linecap:round;stroke-linejoin:round"/></g></g></svg>