<svg xmlns="http://www.w3.org/2000/svg" xmlns:xlink="http://www.w3.org/1999/xlink" viewBox="0 0 740.12 105.31"><defs><clipPath id="clip-path" transform="translate(0)"><rect width="716.25" height="79.25" style="fill:none"/></clipPath></defs><g id="Layer_2" data-name="Layer 2"><g id="Layer_1-2" data-name="Layer 1"><g style="clip-path:url(#clip-path)"><path d="M687.59,85.5,695,98.31l3.92-2.26a3.49,3.49,0,0,1,3.68.12q.93.6,1.92,1.11a3.51,3.51,0,0,1,2,3.12v4.53h14.8V100.4a3.51,3.51,0,0,1,1.94-3.12q1-.51,1.92-1.11a3.51,3.51,0,0,1,3.69-.12l3.92,2.26,7.39-12.81-3.94-2.27A3.53,3.53,0,0,1,734.46,80c0-.36,0-.72,0-1.09s0-.72,0-1.08a3.49,3.49,0,0,1,1.71-3.25l4-2.29-7.39-12.81-3.93,2.27a3.53,3.53,0,0,1-3.69-.13c-.62-.4-1.25-.77-1.91-1.11a3.51,3.51,0,0,1-1.94-3.12V52.82h-14.8v4.53a3.51,3.51,0,0,1-2,3.12c-.65.34-1.29.71-1.9,1.11a3.53,3.53,0,0,1-3.69.13L695,59.44l-7.4,12.81,3.94,2.27a3.52,3.52,0,0,1,1.71,3.26c0,.36,0,.73,0,1.09s0,.73,0,1.09a3.53,3.53,0,0,1-1.72,3.27Zm14.15-6.63A12.12,12.12,0,1,1,713.85,91,12.11,12.11,0,0,1,701.74,78.87Z" transform="translate(0)" style="fill:#ececec"/><rect x="412.24" y="58.44" width="11.02" height="46.87" style="fill:#f8b743"/><rect x="427.17" y="64.52" width="11.02" height="40.78" style="fill:#f8b743"/><rect x="442.11" y="52.25" width="11.02" height="53.06" style="fill:#f8b743"/><rect x="397.31" y="72.45" width="11.02" height="32.86" style="fill:#f8b743"/><path d="M402.82,67.81a2.47,2.47,0,1,1,2.46-2.46A2.46,2.46,0,0,1,402.82,67.81Zm0-4.16a1.7,1.7,0,1,0,1.69,1.7A1.7,1.7,0,0,0,402.82,63.65Z" transform="translate(0)" style="fill:#ffc933"/><path d="M417.88,52.73a2.47,2.47,0,1,1,2.46-2.46A2.46,2.46,0,0,1,417.88,52.73Zm0-4.15a1.69,1.69,0,1,0,1.69,1.69A1.69,1.69,0,0,0,417.88,48.58Z" transform="translate(0)" style="fill:#ffc933"/><path d="M432.89,60.17a2.46,2.46,0,1,1,2.47-2.46A2.46,2.46,0,0,1,432.89,60.17Zm0-4.15a1.69,1.69,0,1,0,1.69,1.69A1.69,1.69,0,0,0,432.89,56Z" transform="translate(0)" style="fill:#ffc933"/><path d="M447.61,45.87a2.47,2.47,0,1,1,2.47-2.46A2.46,2.46,0,0,1,447.61,45.87Zm0-4.15a1.69,1.69,0,1,0,1.7,1.69A1.69,1.69,0,0,0,447.61,41.72Z" transform="translate(0)" style="fill:#ffc933"/><path d="M404.07,63.94a.35.35,0,0,1-.27-.11.38.38,0,0,1,0-.54l11.73-12.08a.37.37,0,0,1,.54,0,.38.38,0,0,1,0,.55L404.35,63.83A.43.43,0,0,1,404.07,63.94Z" transform="translate(0)" style="fill:#e5f2fb"/><path d="M430.48,57.08a.49.49,0,0,1-.2,0l-10.37-6.35a.39.39,0,1,1,.4-.66l10.38,6.35a.39.39,0,0,1,.12.53A.38.38,0,0,1,430.48,57.08Z" transform="translate(0)" style="fill:#e5f2fb"/><path d="M434.61,56.47a.39.39,0,0,1-.28-.12.37.37,0,0,1,0-.54l11.14-10.89a.39.39,0,0,1,.55,0,.38.38,0,0,1,0,.55L434.88,56.36A.43.43,0,0,1,434.61,56.47Z" transform="translate(0)" style="fill:#e5f2fb"/><circle cx="127.41" cy="64.62" r="18.71" transform="translate(-5.69 12.72) rotate(-5.59)" style="fill:#fcb403"/><path d="M127.39,80.85a16.22,16.22,0,1,1,14.08-8.11A16.16,16.16,0,0,1,127.39,80.85Zm0-31.37a15.14,15.14,0,1,0,7.55,2A15.16,15.16,0,0,0,127.44,49.48Z" transform="translate(0)" style="fill:#efe9d5"/><path d="M123.34,71.62a10.89,10.89,0,0,1-2.72-2.21,7,7,0,0,1-1.53-2.55l1.6-1.1A7.46,7.46,0,0,0,122,68,8.19,8.19,0,0,0,124.3,70a6.64,6.64,0,0,0,2.1.85,2.72,2.72,0,0,0,1.53-.12,2.11,2.11,0,0,0,1-.89,1.71,1.71,0,0,0,.19-1.4,3.91,3.91,0,0,0-.79-1.38A15.81,15.81,0,0,0,127,65.62c-.51-.47-1-1-1.51-1.49a9.06,9.06,0,0,1-1.23-1.61,3.94,3.94,0,0,1-.55-1.79,3.69,3.69,0,0,1,.59-2,4.06,4.06,0,0,1,1.68-1.63,4.45,4.45,0,0,1,2.55-.43,8.22,8.22,0,0,1,3.27,1.17A10.46,10.46,0,0,1,134,59.47a7.79,7.79,0,0,1,1.52,2.08l-1.55,1.19a7.2,7.2,0,0,0-1.37-1.92,7.88,7.88,0,0,0-1.75-1.36,6,6,0,0,0-2.07-.81,2.6,2.6,0,0,0-1.53.16,2.09,2.09,0,0,0-1,.9,1.73,1.73,0,0,0-.21,1.42,3.83,3.83,0,0,0,.8,1.37,19.21,19.21,0,0,0,1.35,1.4c.51.47,1,1,1.51,1.48a9.07,9.07,0,0,1,1.24,1.6,3.94,3.94,0,0,1,.55,1.78,3.55,3.55,0,0,1-.57,2,4,4,0,0,1-1.68,1.6,4.47,4.47,0,0,1-2.58.42A8.28,8.28,0,0,1,123.34,71.62Zm-1.76,1.91,10.63-18.41,1.25.73-10.62,18.4Z" transform="translate(0)" style="fill:#043047"/><path d="M714.25,2V77.25H2V2H714.25m2-2H0V79.25H716.25V0Z" transform="translate(0)"/></g></g></g></svg>