<svg xmlns="http://www.w3.org/2000/svg" viewBox="0 0 94.96 90.28"><g id="Layer_2" data-name="Layer 2"><g id="Layer_1-2" data-name="Layer 1"><polygon points="5.41 38.73 12.05 41.08 10.38 42.05 5.74 44.7 4.25 45.56 5.41 38.73" style="fill:#ececec"/><polygon points="34.32 75.17 38.45 73.3 29.45 57.96 25.4 61.56 18.26 49.05 14.34 51.71 7.95 40.2 5.6 41.19 13.4 56.72 17.83 52.88 24.55 66.84 28.57 62.49 34.32 75.17" style="fill:#ececec"/><path d="M93.92,57.61a5.74,5.74,0,1,1-4.83-6.52A5.73,5.73,0,0,1,93.92,57.61Z" style="fill:#f5f5f5"/><path d="M92.57,57.41a4.38,4.38,0,1,1-3.68-5A4.37,4.37,0,0,1,92.57,57.41Z" style="fill:#ececec"/><path d="M92.59,57.27a2.18,2.18,0,0,1,0-.54,4.58,4.58,0,0,0-.3-1.4,4.82,4.82,0,0,0-.45-.87,4.53,4.53,0,0,0-.75-.85,4.29,4.29,0,0,0-.48-.36,5,5,0,0,0-.56-.31,4,4,0,0,0-.61-.22,3.85,3.85,0,0,0-1.34-.16,4.62,4.62,0,0,0-.65.07,3.91,3.91,0,0,0-.61.17,3.17,3.17,0,0,0-.56.25,4.18,4.18,0,0,0-.92.64,5.38,5.38,0,0,0-.65.74,5.08,5.08,0,0,0-.62,1.3,2,2,0,0,1-.16.51,1.4,1.4,0,0,1,0-.54,4.12,4.12,0,0,1,.54-1.4,4.35,4.35,0,0,1,.66-.81,4.81,4.81,0,0,1,1-.72,5.46,5.46,0,0,1,.6-.27,4.45,4.45,0,0,1,.65-.19,4.17,4.17,0,0,1,.71-.08,4.33,4.33,0,0,1,.72,0,4.18,4.18,0,0,1,.72.15,4.7,4.7,0,0,1,.66.24,4.79,4.79,0,0,1,.59.34,4.21,4.21,0,0,1,.52.4,4.69,4.69,0,0,1,.77.93,5,5,0,0,1,.45.94,4,4,0,0,1,.2,1.48A1.36,1.36,0,0,1,92.59,57.27Z" style="fill:#e1e1e1"/><path d="M88.34,59.41l-.1.76-.67-.1.09-.73a3.2,3.2,0,0,1-1.6-.77l.48-.77a2.9,2.9,0,0,0,1.24.66l.16-1.13c-.73-.28-1.53-.65-1.4-1.61.1-.72.7-1.26,1.78-1.24l.1-.75.68.09-.1.74a3,3,0,0,1,1.31.6l-.45.78a2.82,2.82,0,0,0-1-.49l-.16,1.15c.73.27,1.52.64,1.39,1.59C90,58.89,89.42,59.43,88.34,59.41Zm-.27-3.07.13-1c-.37,0-.54.21-.57.43S87.79,56.2,88.07,56.34ZM89,58.12c0-.24-.14-.39-.42-.53l-.13.93C88.81,58.49,89,58.34,89,58.12Z" style="fill:#e1e1e1"/><path d="M89.75,12.49a5,5,0,1,1-4.2-5.68A5,5,0,0,1,89.75,12.49Z" style="fill:#f5f5f5"/><path d="M88.58,12.31A3.82,3.82,0,1,1,85.37,8,3.82,3.82,0,0,1,88.58,12.31Z" style="fill:#ececec"/><path d="M88.59,12.19a3,3,0,0,1,0-.47,4.17,4.17,0,0,0-.26-1.22,3.5,3.5,0,0,0-.4-.76A3.9,3.9,0,0,0,87.26,9a4.27,4.27,0,0,0-.91-.59,4.29,4.29,0,0,0-.54-.19,5.23,5.23,0,0,0-.57-.12,3.92,3.92,0,0,0-.59,0,3.43,3.43,0,0,0-.57.06,4.61,4.61,0,0,0-.53.15,4.25,4.25,0,0,0-.49.21,4,4,0,0,0-.8.57,3.62,3.62,0,0,0-.56.64,4.14,4.14,0,0,0-.54,1.13,3.58,3.58,0,0,1-.14.45,1,1,0,0,1,0-.48,3.29,3.29,0,0,1,.48-1.21,3.56,3.56,0,0,1,.56-.71,3.81,3.81,0,0,1,.84-.62A4.9,4.9,0,0,1,83.45,8,3.74,3.74,0,0,1,84,7.87a6.18,6.18,0,0,1,.62-.07,4.47,4.47,0,0,1,.63,0,4.26,4.26,0,0,1,.62.13,3.63,3.63,0,0,1,.58.21,4.4,4.4,0,0,1,.52.3,2.51,2.51,0,0,1,.44.35,3.86,3.86,0,0,1,.68.8,4.32,4.32,0,0,1,.39.82,3.81,3.81,0,0,1,.18,1.29A1,1,0,0,1,88.59,12.19Z" style="fill:#e1e1e1"/><path d="M84.89,14.06l-.08.66-.59-.08L84.3,14a3,3,0,0,1-1.4-.67l.43-.68a2.35,2.35,0,0,0,1.08.58l.13-1c-.63-.24-1.33-.56-1.21-1.4.08-.62.6-1.1,1.55-1.08L85,9.11l.58.08-.08.64a2.72,2.72,0,0,1,1.14.52l-.39.69a2.24,2.24,0,0,0-.86-.43l-.13,1c.63.24,1.32.55,1.2,1.38C86.35,13.6,85.83,14.07,84.89,14.06Zm-.23-2.68.11-.83c-.32,0-.47.18-.49.37S84.41,11.26,84.66,11.38Zm.82,1.55c0-.2-.13-.34-.37-.46l-.11.81C85.3,13.26,85.45,13.12,85.48,12.93Z" style="fill:#e1e1e1"/><path d="M31,6.15A8.35,8.35,0,1,1,20.78.3,8.34,8.34,0,0,1,31,6.15Z" style="fill:#f5f5f5"/><path d="M29.11,6.67A6.36,6.36,0,1,1,21.3,2.21,6.36,6.36,0,0,1,29.11,6.67Z" style="fill:#ececec"/><path d="M29.06,6.47s-.14-.25-.36-.69a6.78,6.78,0,0,0-1.22-1.69,6.45,6.45,0,0,0-1.12-.89,6,6,0,0,0-1.49-.69,4.69,4.69,0,0,0-.86-.2,6.68,6.68,0,0,0-.91-.09,7.57,7.57,0,0,0-1,.06,6.35,6.35,0,0,0-1,.22,6.76,6.76,0,0,0-.92.36,6.07,6.07,0,0,0-.82.48,5.89,5.89,0,0,0-.72.58,7.22,7.22,0,0,0-.6.65A6.42,6.42,0,0,0,17.29,6a6.71,6.71,0,0,0-.43,1.37,6.81,6.81,0,0,0-.06,2.08,4.69,4.69,0,0,1,.09.78,1.78,1.78,0,0,1-.28-.75,5.8,5.8,0,0,1-.09-2.17,6.84,6.84,0,0,1,.39-1.47,6.67,6.67,0,0,1,.87-1.51,6,6,0,0,1,.63-.71A5.85,5.85,0,0,1,19.17,3,6.61,6.61,0,0,1,21,2a7.75,7.75,0,0,1,1-.23,7.11,7.11,0,0,1,1-.05,5.34,5.34,0,0,1,1,.1,5.38,5.38,0,0,1,.92.23,6.39,6.39,0,0,1,1.57.78,6.74,6.74,0,0,1,1.15,1A6,6,0,0,1,28.87,5.7,1.82,1.82,0,0,1,29.06,6.47Z" style="fill:#e1e1e1"/><path d="M24.66,11.81,25,12.88l-.95.27-.3-1A4.63,4.63,0,0,1,21.13,12l.19-1.31a4,4,0,0,0,2,.15L22.9,9.28c-1.13.05-2.41,0-2.8-1.33-.29-1,.2-2.08,1.65-2.69l-.3-1,.95-.28.3,1a4.32,4.32,0,0,1,2.09,0l-.14,1.3a4.12,4.12,0,0,0-1.59-.07l.46,1.61c1.13,0,2.39,0,2.78,1.31C26.58,10.14,26.1,11.2,24.66,11.81ZM22.5,7.88l-.39-1.35c-.47.26-.59.59-.5.91S22,7.87,22.5,7.88ZM24.8,9.7c-.1-.33-.43-.43-.88-.46l.38,1.32C24.75,10.31,24.89,10,24.8,9.7Z" style="fill:#e1e1e1"/><path d="M12.45,20.23a5.23,5.23,0,1,1-4.16-6.1A5.22,5.22,0,0,1,12.45,20.23Z" style="fill:#f5f5f5"/><path d="M11.23,20a4,4,0,1,1-3.17-4.65A4,4,0,0,1,11.23,20Z" style="fill:#ececec"/><path d="M11.25,19.87a2.66,2.66,0,0,1,0-.49,4.1,4.1,0,0,0-.6-2.09A4.26,4.26,0,0,0,10,16.5a3.84,3.84,0,0,0-.43-.35,4,4,0,0,0-.49-.3,5.25,5.25,0,0,0-.55-.22,4.39,4.39,0,0,0-.6-.15,4.26,4.26,0,0,0-.61,0,3,3,0,0,0-.6,0,5.07,5.07,0,0,0-.56.13c-.18.06-.35.13-.51.2a3.87,3.87,0,0,0-.86.56,4.16,4.16,0,0,0-.62.65,4,4,0,0,0-.6,1.16c-.1.29-.14.46-.17.46a1.36,1.36,0,0,1,.05-.5A3.59,3.59,0,0,1,4,16.9a4,4,0,0,1,.62-.72,4.33,4.33,0,0,1,.9-.62,4.5,4.5,0,0,1,.55-.22,3.1,3.1,0,0,1,.6-.15,3.49,3.49,0,0,1,.65-.06,5,5,0,0,1,.66,0,4.61,4.61,0,0,1,.64.16,2.83,2.83,0,0,1,.59.25,3.11,3.11,0,0,1,.53.32,3.5,3.5,0,0,1,.46.39,4.77,4.77,0,0,1,.67.86,4,4,0,0,1,.37.88,3.63,3.63,0,0,1,.13,1.35C11.32,19.71,11.27,19.88,11.25,19.87Z" style="fill:#e1e1e1"/><path d="M7.32,21.67l-.12.69-.61-.11.11-.67a3,3,0,0,1-1.43-.75l.46-.68a2.64,2.64,0,0,0,1.11.64l.18-1c-.65-.29-1.36-.64-1.21-1.52.11-.64.68-1.12,1.66-1.06l.12-.67.61.1-.12.67a2.6,2.6,0,0,1,1.17.59l-.43.69a2.55,2.55,0,0,0-.88-.48l-.18,1c.65.28,1.35.63,1.2,1.49C8.85,21.26,8.29,21.72,7.32,21.67Zm-.14-2.8L7.33,18c-.34,0-.5.18-.53.38S6.92,18.74,7.18,18.87ZM8,20.52c0-.21-.12-.36-.37-.49l-.14.84C7.77,20.85,7.94,20.72,8,20.52Z" style="fill:#e1e1e1"/><polygon points="94.03 66.26 89.04 66.08 89.89 67.16 92.26 70.11 93.02 71.07 94.03 66.26" style="fill:#f5f5f5"/><polygon points="65.48 82.74 63.25 80.43 73.18 72.67 74.91 76.1 82.87 69.72 84.77 72.49 91.98 66.57 93.27 67.83 84.08 76.03 82.16 72.35 74.09 79.8 72.58 75.88 65.48 82.74" style="fill:#f5f5f5"/><polygon points="84.55 21.86 77.89 25.41 79.82 26.17 85.15 28.24 86.87 28.91 84.55 21.86" style="fill:#e1e1e1"/><polygon points="59.71 65.08 55.03 63.76 62.13 46.07 67 49.24 72.57 34.85 77.16 37.04 82.1 23.82 84.74 24.5 78.94 42.2 73.64 38.84 68.74 54.71 63.79 50.73 59.71 65.08" style="fill:#e1e1e1"/><path d="M94.28,90.23s-21.11,0-47.14,0S0,90.26,0,90.23s21.1-.06,47.14-.06S94.28,90.2,94.28,90.23Z" style="fill:#1a2e35"/><rect x="54.85" y="81.89" width="5.06" height="8.29" transform="translate(114.77 172.07) rotate(180)" style="fill:#f8b743"/><rect x="75.28" y="76.12" width="5.06" height="14.06" transform="translate(155.62 166.29) rotate(180)" style="fill:#f8b743"/><rect x="85.49" y="85.07" width="5.06" height="5.11" transform="translate(176.04 175.25) rotate(180)" style="fill:#f8b743"/><rect x="65.06" y="77.95" width="5.06" height="12.23" transform="translate(135.19 168.13) rotate(180)" style="fill:#f8b743"/><rect x="44.64" y="74.94" width="5.06" height="15.23" transform="translate(94.35 165.12) rotate(180)" style="fill:#f8b743"/><rect x="34.43" y="70.58" width="5.06" height="19.6" transform="translate(73.92 160.76) rotate(180)" style="fill:#f8b743"/><rect x="24.22" y="65.72" width="5.06" height="24.46" transform="translate(53.5 155.9) rotate(180)" style="fill:#f8b743"/><rect x="14.01" y="59.13" width="5.06" height="31.04" transform="translate(33.07 149.31) rotate(180)" style="fill:#f8b743"/><rect x="3.79" y="49.37" width="5.06" height="40.81" transform="translate(12.65 139.55) rotate(180)" style="fill:#f8b743"/><path d="M81.7,84.68a10.11,10.11,0,0,0-8.57-5.38,8.67,8.67,0,0,0,1.33-9,11.15,11.15,0,0,0-7-6.1,15.8,15.8,0,0,0-9.45.25,3.91,3.91,0,0,0-4.26-4.25,2.22,2.22,0,0,0-2.19-3.85l.14-16.93H41.62l.13,16.93a2.22,2.22,0,0,0-2.18,3.85,3.9,3.9,0,0,0-4.26,4.25,15.8,15.8,0,0,0-9.45-.25,11.19,11.19,0,0,0-7,6.1,8.69,8.69,0,0,0,1.34,9,10.11,10.11,0,0,0-8.57,5.38c-.94,1.84-1,4.54.8,5.5H80.9C82.72,89.22,82.63,86.52,81.7,84.68Z" style="fill:#ececec"/><path d="M12.4,90.18,12.15,90a2.39,2.39,0,0,1-.61-.58A3.21,3.21,0,0,1,11,88.19a5,5,0,0,1,0-1.89,6.58,6.58,0,0,1,.88-2.21,9.64,9.64,0,0,1,1.83-2.2,10.23,10.23,0,0,1,2.78-1.79l.41-.17.43-.15a3.22,3.22,0,0,1,.44-.14c.15,0,.3-.09.45-.12a10.72,10.72,0,0,1,1.91-.25l0,.06a7.73,7.73,0,0,1-1.49-2.5,8.94,8.94,0,0,1-.54-3.08,9.18,9.18,0,0,1,.61-3.27,8.79,8.79,0,0,1,.79-1.56,9.76,9.76,0,0,1,1.08-1.43,12,12,0,0,1,6.55-3.66,14.74,14.74,0,0,1,4.05-.24,17.58,17.58,0,0,1,4.13.82l-.06,0a3.33,3.33,0,0,1,.18-1.65,4.17,4.17,0,0,1,2.36-2.44,3.49,3.49,0,0,1,1.78-.22l0,.09a2.27,2.27,0,0,1,2.23-3.94l-.07.05c0-5.39-.09-11.08-.13-16.93v-.05H51.73v.05c0,5.84-.09,11.51-.13,16.93l-.08-.05a2.27,2.27,0,0,1,2.23,3.94l0-.09a3.37,3.37,0,0,1,1.75.21,4,4,0,0,1,1.45,1,4.1,4.1,0,0,1,.93,1.44A3.49,3.49,0,0,1,58,64.46l-.07,0a17.76,17.76,0,0,1,4.14-.82,15.09,15.09,0,0,1,4,.23,12,12,0,0,1,6.55,3.66,9.25,9.25,0,0,1,1.08,1.43,8.71,8.71,0,0,1,.79,1.55A9.83,9.83,0,0,1,75,72.1a11.49,11.49,0,0,1,.15,1.64,8.94,8.94,0,0,1-.54,3.08,7.88,7.88,0,0,1-1.49,2.51l0-.06a10.72,10.72,0,0,1,1.92.25l.45.12a3.22,3.22,0,0,1,.44.14l.43.15.41.17a10.31,10.31,0,0,1,2.79,1.8,9.8,9.8,0,0,1,1.82,2.19,6.32,6.32,0,0,1,.87,2.22,5,5,0,0,1,0,1.88,3,3,0,0,1-.53,1.26,2.39,2.39,0,0,1-.61.58l-.24.15.24-.16a2.39,2.39,0,0,0,.6-.58,3,3,0,0,0,.52-1.25,5,5,0,0,0,0-1.88,6.19,6.19,0,0,0-.87-2.19,9.86,9.86,0,0,0-1.83-2.19,10.3,10.3,0,0,0-2.77-1.78L76.35,80l-.43-.15-.43-.13c-.15,0-.3-.09-.45-.12a9.88,9.88,0,0,0-1.91-.24h-.07l0,0a7.79,7.79,0,0,0,1.48-2.48,8.86,8.86,0,0,0,.52-3.06A9,9,0,0,0,75,72.11a8.77,8.77,0,0,0-.47-1.62A8.57,8.57,0,0,0,73.71,69a10.35,10.35,0,0,0-1.07-1.42,12,12,0,0,0-6.51-3.62,14.91,14.91,0,0,0-4-.23A18,18,0,0,0,58,64.5l-.07,0v-.07a3.27,3.27,0,0,0-.18-1.64,3.85,3.85,0,0,0-.91-1.41,4,4,0,0,0-1.41-.95,3.32,3.32,0,0,0-1.71-.2l-.21,0,.18-.12a2.17,2.17,0,0,0-2.13-3.77l-.08,0v-.08c0-5.43.09-11.09.14-16.93l0,.06H41.62l.05-.06c0,5.85.09,11.54.13,16.93v.08l-.08,0a2.17,2.17,0,0,0-2.13,3.77l.18.12-.22,0a3.26,3.26,0,0,0-1.72.21,4.06,4.06,0,0,0-1.42,1,3.66,3.66,0,0,0-1.06,3v.07l-.08,0a17.94,17.94,0,0,0-4.11-.82,14.91,14.91,0,0,0-4,.23,11.93,11.93,0,0,0-6.51,3.63A10.16,10.16,0,0,0,19.58,69a9,9,0,0,0-.87,7.85,7.74,7.74,0,0,0,1.48,2.47l0,0h-.06a9.88,9.88,0,0,0-1.91.24c-.15,0-.3.08-.45.12l-.43.13L17,80l-.41.17a10.3,10.3,0,0,0-2.77,1.78A9.29,9.29,0,0,0,12,84.11a6.08,6.08,0,0,0-.88,2.2,4.94,4.94,0,0,0,0,1.87,3.07,3.07,0,0,0,.52,1.26,2.4,2.4,0,0,0,.6.58Z" style="fill:#1a2e35"/><polygon points="33.6 16.22 46.27 1.47 58.44 16.22 53.69 16.22 53.69 40.28 38.94 40.28 38.94 16.25 33.6 16.22" style="fill:#f8b743"/><polygon points="93.78 40.19 84.81 42.95 86.98 44.32 93.02 48.07 94.96 49.29 93.78 40.19" style="fill:#f8b743"/><polygon points="53.3 86.87 47.89 84.17 60.71 64.35 65.92 69.34 76.1 53.16 81.19 56.89 90.32 41.99 93.39 43.43 82.16 63.56 76.47 58.25 66.75 76.38 61.64 70.39 53.3 86.87" style="fill:#f8b743"/><g style="opacity:0.30000000000000004"><path d="M58.59,81.76a5.8,5.8,0,0,0-4.27-.62,2,2,0,0,1-1.43,0,2.17,2.17,0,0,1-.72-1.22,7.17,7.17,0,0,0-5.61-4.32,10,10,0,0,0-6.61.89,9.63,9.63,0,0,0-3.84,3.31c-.34.5-.94,1.51-.94,1.51a3.57,3.57,0,0,1-1.57.43,5.88,5.88,0,0,0-4.66,4.4l31-.51A3.28,3.28,0,0,0,58.59,81.76Z"/></g><path d="M27.24,88.13A7.45,7.45,0,0,1,35.53,83a8.63,8.63,0,0,1,8.13-6.74,8.63,8.63,0,0,1,8.24,6.61c2.1-.49,4.37-.85,6.38,0S61.83,86,61,88" style="fill:#ececec"/><path d="M61,88a.39.39,0,0,1,0-.06l.05-.17a1.48,1.48,0,0,0,.08-.29,2.06,2.06,0,0,0,0-.39,3.77,3.77,0,0,0-.74-2.46,5.13,5.13,0,0,0-1.33-1.29,5.38,5.38,0,0,0-2-.78,9.17,9.17,0,0,0-2.47-.08,19.57,19.57,0,0,0-2.71.48h0v0a8.28,8.28,0,0,0-2.37-4.15,8.68,8.68,0,0,0-4.69-2.33,7.5,7.5,0,0,0-3.34.27,8.82,8.82,0,0,0-4.84,3.75,7.8,7.8,0,0,0-1,2.59v0h0a6.68,6.68,0,0,0-2.27,0c-.36,0-.7.15-1,.23l-.47.17c-.16,0-.31.13-.46.19a7.26,7.26,0,0,0-.83.44l-.36.24-.18.12-.17.13-.32.26-.29.27c-.09.09-.18.17-.26.26l-.24.27a6.93,6.93,0,0,0-1.13,1.81c-.1.23-.15.41-.2.53a1.52,1.52,0,0,1-.07.18s.07-.26.24-.72a6.89,6.89,0,0,1,1.12-1.83l.24-.28c.08-.09.17-.17.26-.26s.19-.19.29-.27l.32-.26.17-.14.18-.12.37-.25a7.26,7.26,0,0,1,.83-.44,3.76,3.76,0,0,1,.46-.2l.48-.17a8.74,8.74,0,0,1,1-.24,7.11,7.11,0,0,1,2.3,0l0,0a8,8,0,0,1,1-2.62,8.57,8.57,0,0,1,2-2.28,8.83,8.83,0,0,1,2.86-1.52,7.53,7.53,0,0,1,3.38-.28,8.78,8.78,0,0,1,4.75,2.37,8.36,8.36,0,0,1,2.4,4.2l-.06,0a19.57,19.57,0,0,1,2.72-.46,9.31,9.31,0,0,1,2.49.08,5.37,5.37,0,0,1,2,.8,5.08,5.08,0,0,1,1.34,1.31,3.78,3.78,0,0,1,.73,2.5,2.25,2.25,0,0,1-.06.4,1.36,1.36,0,0,1-.08.28l-.06.17Z" style="fill:#1a2e35"/><path d="M41.68,35.28A14.89,14.89,0,1,1,26.56,20.56,15,15,0,0,1,41.68,35.28Zm-22,.35a7.12,7.12,0,1,0,7-7.26A7.14,7.14,0,0,0,19.68,35.63Z" style="fill:#e1e1e1"/><path d="M41.68,35.28A15,15,0,0,1,27,50.48l-.12-7.81a7.15,7.15,0,0,0-.23-14.3l-.12-7.81A14.94,14.94,0,0,1,41.68,35.28Z" style="fill:#375a64"/><path d="M26.93,50.58l-.13-8h.11a7.05,7.05,0,0,0,4.76-12.11,6.93,6.93,0,0,0-5-2h-.1l-.13-8h.1A15,15,0,0,1,41.78,35.28,15,15,0,0,1,27,50.58ZM27,42.77l.12,7.6a14.86,14.86,0,0,0-.47-29.71l.12,7.6a7.2,7.2,0,0,1,5,2A7.26,7.26,0,0,1,27,42.77Z" style="fill:#375a64"/><path d="M28.37,51.68A17,17,0,0,1,11,34.73L20,34.58c.07,4.62,3.58,7.52,8.18,7.45Z" style="fill:#f8b743"/><path d="M16.17,34.89a25.2,25.2,0,0,1-1.92,3,25.6,25.6,0,0,1-2.12,2.86,24.9,24.9,0,0,1,1.91-3A24.9,24.9,0,0,1,16.17,34.89Z" style="fill:#1a2e35"/><path d="M20.12,35.65c.06,0-1.21,2-2.83,4.34s-3,4.24-3,4.2a51.68,51.68,0,0,1,2.84-4.34C18.7,37.49,20.07,35.61,20.12,35.65Z" style="fill:#1a2e35"/><path d="M22.05,39.69a45.82,45.82,0,0,1-2.56,3.93,44.18,44.18,0,0,1-2.76,3.79,41.59,41.59,0,0,1,2.55-3.93A41.16,41.16,0,0,1,22.05,39.69Z" style="fill:#1a2e35"/><path d="M25.39,41.92a42.43,42.43,0,0,1-2.55,3.94,41.79,41.79,0,0,1-2.77,3.78,45.82,45.82,0,0,1,2.56-3.93A46.88,46.88,0,0,1,25.39,41.92Z" style="fill:#1a2e35"/><path d="M28.26,44.76A28.86,28.86,0,0,1,26.17,48a30.94,30.94,0,0,1-2.29,3.11A28.88,28.88,0,0,1,26,47.87,28.43,28.43,0,0,1,28.26,44.76Z" style="fill:#1a2e35"/><path d="M75.66,6.8s.9-2.07.94-2.39a1.85,1.85,0,0,0-.27-1.24.65.65,0,0,0-.74-.1.61.61,0,0,0-.5-.53.33.33,0,0,0-.44.34.39.39,0,0,0-.31-.4.52.52,0,0,0-.35,0s-.44-.39-.73-.15,0,4,0,4Z" style="fill:#ffc19d"/><path d="M73.24,6a7.52,7.52,0,0,1-.79-1.75,2.26,2.26,0,0,1,.7-1.34c.25-.1,1.24-.33,1.24-.33s.4.38-.19.76l-.69.39a1.58,1.58,0,0,1,1.06,1.49" style="fill:#ffc19d"/><path d="M74.57,5.17a2.62,2.62,0,0,0-.1-.52,1.53,1.53,0,0,0-.32-.51,2,2,0,0,0-.66-.42l-.09,0,.08,0,.7-.4a.64.64,0,0,0,.27-.3.35.35,0,0,0-.1-.37l.05,0-.53.12-.41.11-.2.06-.1,0L73.09,3a2.44,2.44,0,0,0-.42.64,2,2,0,0,0-.13.34.72.72,0,0,0,0,.32,2.93,2.93,0,0,0,.2.57c.16.35.3.62.4.81a1.43,1.43,0,0,1,.14.3,1.75,1.75,0,0,1-.18-.28c-.11-.18-.26-.45-.43-.79a3,3,0,0,1-.22-.6.89.89,0,0,1,0-.36,2.09,2.09,0,0,1,.13-.35A2.54,2.54,0,0,1,73,2.89l.1-.07.1,0,.21-.06.42-.11.53-.13h0l0,0a.46.46,0,0,1,.12.47.72.72,0,0,1-.31.35l-.71.4V3.63a1.94,1.94,0,0,1,.68.46,1.42,1.42,0,0,1,.32.54c0,.09,0,.16,0,.23a1.09,1.09,0,0,1,0,.17C74.58,5.12,74.58,5.17,74.57,5.17Z" style="fill:#ff9c6a"/><path d="M74.57,2.89a3.69,3.69,0,0,0-.12,1.24.59.59,0,0,0,.13.39.41.41,0,0,0,.37.1.71.71,0,0,0,.35-.19" style="fill:#ffc19d"/><path d="M75.3,4.43a.52.52,0,0,1-.3.22.45.45,0,0,1-.41-.06.63.63,0,0,1-.2-.47,2.39,2.39,0,0,1,.18-1.23,7.23,7.23,0,0,0-.07,1.22.54.54,0,0,0,.15.4.41.41,0,0,0,.33.07C75.19,4.53,75.28,4.41,75.3,4.43Z" style="fill:#ff9c6a"/><path d="M73.69,3.64a.85.85,0,0,0,0,.45.45.45,0,0,0,.32.43c.15,0,.35-.17.45-.38" style="fill:#ffc19d"/><path d="M74.42,4.14s0,.1-.1.23a.66.66,0,0,1-.21.19.25.25,0,0,1-.19,0,.27.27,0,0,1-.16-.1.53.53,0,0,1-.15-.31c0-.11,0-.19,0-.28s.08-.24.09-.23,0,.09,0,.23l0,.26a.45.45,0,0,0,.12.26l.12.08a.16.16,0,0,0,.12,0,.55.55,0,0,0,.19-.14C74.36,4.21,74.4,4.13,74.42,4.14Z" style="fill:#ff9c6a"/><path d="M75.66,3.1a2.15,2.15,0,0,0-.48.86.5.5,0,0,0,.07.49.44.44,0,0,0,.51,0,1,1,0,0,0,.45-.67" style="fill:#ffc19d"/><path d="M76.21,3.76a.61.61,0,0,1-.13.41.86.86,0,0,1-.35.33.61.61,0,0,1-.28.07.31.31,0,0,1-.29-.15.44.44,0,0,1-.06-.31,1.07,1.07,0,0,1,.07-.27,2.06,2.06,0,0,1,.2-.42c.15-.23.28-.33.29-.32s-.1.13-.22.35a2.79,2.79,0,0,0-.18.42,1.83,1.83,0,0,0-.06.25.42.42,0,0,0,0,.25c.09.14.3.11.44,0A1,1,0,0,0,76,4.13,2.35,2.35,0,0,0,76.21,3.76Z" style="fill:#ff9c6a"/><path d="M64.52,20a13.81,13.81,0,0,1,1.55-1.47,23.26,23.26,0,0,0,3.64-4.63c.3-.91,3.14-8.2,3.09-8.1s3.6.77,3.6.77S73.68,15,73.35,16c-.6,1.75-3.57,5.28-5.26,7.39a19,19,0,0,0-1.72,3.79Z" style="fill:#1a2e35"/><path d="M67.17,24.56a4.21,4.21,0,0,1-.11-.66c0-.41-.09-1-.1-1.61s0-1.2.05-1.61a3.94,3.94,0,0,1,.08-.66,3.49,3.49,0,0,1,0,.67c0,.41,0,1,0,1.6s0,1.19.07,1.6A5.43,5.43,0,0,1,67.17,24.56Z" style="fill:#375a64"/><path d="M48.82,67.41,47.26,70.6l-.2.78s1,4.74.39,5.2l-4.66-7.51,1.2-.76,1.49-3.18Z" style="fill:#375a64"/><path d="M42.79,69.07l.59-.34,4.25,7.33s.07.42-.18.52Z" style="fill:#1a2e35"/><path d="M47.17,71.48s-.17-.15-.39-.27-.43-.11-.44-.15.23-.12.5,0S47.21,71.47,47.17,71.48Z" style="fill:#1a2e35"/><path d="M47.35,72.46s-.19-.09-.41-.13-.4,0-.42,0,.16-.18.44-.13S47.38,72.44,47.35,72.46Z" style="fill:#1a2e35"/><path d="M46.73,73.46s.12-.19.37-.21.43.1.41.13-.19,0-.39,0S46.76,73.5,46.73,73.46Z" style="fill:#1a2e35"/><path d="M64.77,44c-.15.37-8,12.39-9.62,13.73S48,70,48,70,43.55,67.8,43.45,68s3.15-7.74,5.09-11,2.84-4.54,2.84-4.54l3.86-10.3a21.43,21.43,0,0,1,.58-4.71,7.09,7.09,0,0,1,2-2.46Z" style="fill:#1a2e35"/><path d="M57.7,58.48l-4.18.3s-1.07,4.58-1.84,4.72L50.76,55l6.49-.75Z" style="fill:#375a64"/><path d="M53.59,56.11a.32.32,0,1,0-.17.43.35.35,0,0,0,.15-.46" style="fill:#e1e1e1"/><path d="M50.76,55l.66,0,.63,8.19s-.11.39-.37.38Z" style="fill:#1a2e35"/><path d="M53.58,58.92s-.08-.21-.23-.4S53,58.24,53,58.2s.25,0,.42.23A.53.53,0,0,1,53.58,58.92Z" style="fill:#1a2e35"/><path d="M53.32,59.85s-.12-.16-.3-.28-.37-.15-.37-.19.22-.09.44.07S53.36,59.85,53.32,59.85Z" style="fill:#1a2e35"/><path d="M52.36,60.47s.18-.12.41,0,.33.26.3.29-.16-.09-.34-.16S52.37,60.51,52.36,60.47Z" style="fill:#1a2e35"/><path d="M54.52,58.74s0-.21,0-.45-.14-.4-.1-.43.19.14.23.41S54.55,58.76,54.52,58.74Z" style="fill:#1a2e35"/><path d="M54,40.8s0,4,1.81,5.36S64,52.6,64,52.6L53.9,54.33,54.66,59s13.59-1.38,15.25-1.93a3.77,3.77,0,0,0,1.56-5.33c-.65-1-7.42-10.6-7.42-10.6l-.2-2.59-8.53.54Z" style="fill:#1a2e35"/><path d="M54.66,59s0,0,0-.09l0-.24-.16-.93c-.13-.81-.33-2-.57-3.41v0h0l9.19-1.59.87-.15,0,.1c-1.42-1.18-2.77-2.28-4-3.27L58.19,48c-.55-.43-1.07-.82-1.51-1.23a10.38,10.38,0,0,1-1.79-2.15,6.47,6.47,0,0,1-.37-.67c0-.08-.06-.14-.07-.18l0-.06s0,0,0,.06a.8.8,0,0,0,.08.17,7.06,7.06,0,0,0,.38.66,11.3,11.3,0,0,0,1.81,2.12c.44.4,1,.78,1.51,1.21s1.14.9,1.76,1.39c1.24,1,2.59,2.09,4,3.26l.09.08-.12,0-.87.15-9.2,1.56,0,0c.23,1.44.41,2.6.54,3.42l.14.93,0,.24A.62.62,0,0,1,54.66,59Z" style="fill:#375a64"/><path d="M66.69,52.89s-.6-.14-1.35-.22-1.35,0-1.36-.06a.93.93,0,0,1,.4-.06,5.84,5.84,0,0,1,1.93.2A1.42,1.42,0,0,1,66.69,52.89Z" style="fill:#375a64"/><path d="M60.47,7.18a.94.94,0,0,1,.87-.64,1.28,1.28,0,0,1,1.56-.25A1.16,1.16,0,0,1,64,6.06a1.21,1.21,0,0,1,.76.84,1,1,0,0,1,1.1,1.44.92.92,0,0,1,0,1.83l-5-2A1,1,0,0,1,60.47,7.18Z" style="fill:#1a2e35"/><path d="M66,10.27a3.9,3.9,0,0,0-4.45-2.84l-.2,0c-2.11.51-2.42,2.61-1.85,4.71L61.1,20.1h0L65,22.43l.47-1.73V17.88a2.51,2.51,0,0,0,1.65-2.76C67,14.13,66.44,12.1,66,10.27Z" style="fill:#ffc19d"/><path d="M65.5,17.88a5.07,5.07,0,0,1-2.83-.31,2.35,2.35,0,0,0,2.82.93Z" style="fill:#ff9c6a"/><path d="M65.71,12.21a.3.3,0,0,1-.23.35.28.28,0,0,1-.35-.21.3.3,0,0,1,.23-.35A.29.29,0,0,1,65.71,12.21Z" style="fill:#1a2e35"/><path d="M65.74,11.46s-.28-.08-.59,0-.52.26-.56.22,0-.09.09-.18a.87.87,0,0,1,.44-.23.78.78,0,0,1,.48.07C65.71,11.38,65.76,11.44,65.74,11.46Z" style="fill:#1a2e35"/><path d="M63,12.83a.3.3,0,0,1-.23.35.28.28,0,0,1-.35-.21.3.3,0,0,1,.23-.35A.29.29,0,0,1,63,12.83Z" style="fill:#1a2e35"/><path d="M62.72,12s-.28-.08-.59,0-.52.26-.56.23,0-.09.09-.18a.74.74,0,0,1,.44-.23.78.78,0,0,1,.48.06C62.69,11.88,62.74,11.94,62.72,12Z" style="fill:#1a2e35"/><path d="M64.19,14.12a1.61,1.61,0,0,1,.49-.18c.08,0,.15-.06.16-.11a.42.42,0,0,0-.1-.23L64.39,13a11,11,0,0,1-.83-1.51,10.17,10.17,0,0,1,1,1.44l.34.58a.46.46,0,0,1,.1.31.18.18,0,0,1-.11.14.48.48,0,0,1-.14,0A2,2,0,0,1,64.19,14.12Z" style="fill:#1a2e35"/><path d="M63.3,14.51c.05,0,.11.33.45.52s.69.09.71.14-.07.08-.23.11a.9.9,0,0,1-.58-.09.79.79,0,0,1-.36-.44C63.25,14.6,63.28,14.51,63.3,14.51Z" style="fill:#1a2e35"/><path d="M62.56,11.06c0,.09-.3.06-.63.13s-.59.18-.64.11,0-.13.12-.22a.93.93,0,0,1,.47-.21.9.9,0,0,1,.5,0C62.51,11,62.57,11,62.56,11.06Z" style="fill:#1a2e35"/><path d="M65.51,10.6c0,.09-.26.07-.52.14s-.46.17-.53.11,0-.11.06-.2a.78.78,0,0,1,.39-.23.76.76,0,0,1,.46,0C65.48,10.5,65.53,10.56,65.51,10.6Z" style="fill:#1a2e35"/><path d="M65.59,9.36S64.82,8.17,64.14,8s-1,.66-1.74.59-1.52-.29-2.15.39-.24,1.11-.12,2c.47,3.74,0,4.91-.52,3.2-.06-.19-.61-.24-.84-1a9.25,9.25,0,0,1-.46-3.08,3,3,0,0,1,.91-1.75,4.85,4.85,0,0,1,3.2-1.28C63.38,7,65.38,7.73,65.59,9.36Z" style="fill:#1a2e35"/><path d="M60,14.07a.58.58,0,0,0-.7-.43c-.38.11-.76.41-.59,1.19a1.07,1.07,0,0,0,1.63.78S60.12,14.66,60,14.07Z" style="fill:#ffc19d"/><path d="M59.91,15.14a.2.2,0,0,1,0,0,.27.27,0,0,1-.19.05.64.64,0,0,1-.39-.49.88.88,0,0,1,0-.36.28.28,0,0,1,.15-.23.11.11,0,0,1,.15,0s0,.06,0,.07a.11.11,0,0,0,0-.09.15.15,0,0,0-.08-.08.17.17,0,0,0-.14,0,.37.37,0,0,0-.21.27.94.94,0,0,0,0,.41.66.66,0,0,0,.49.53.28.28,0,0,0,.21-.09S59.92,15.14,59.91,15.14Z" style="fill:#ff9c6a"/><path d="M59.26,11.39a1.32,1.32,0,0,0,.64.16.46.46,0,0,0,.45-.41c0-.1,0-.21,0-.3s.2-.1.32-.11a.91.91,0,0,0,.81-.81A.4.4,0,0,0,62,9.87a2,2,0,0,0,.3-.48.61.61,0,0,1,.44-.33,1.72,1.72,0,0,0,.32,0c.18-.05.23-.29.22-.48s0-.4.12-.53.32-.1.5-.11.38-.08.39-.26a.3.3,0,0,0-.11-.24.91.91,0,0,0-1.13-.15,1.24,1.24,0,0,0-2.3.17,1.26,1.26,0,0,0-1.91.82.94.94,0,0,0-.89.49,1,1,0,0,0,.11,1,.86.86,0,0,0-.35.77.5.5,0,0,0,.65.41.51.51,0,0,0,1,.34" style="fill:#1a2e35"/><path d="M58.26,11a.39.39,0,0,0,.14.26.43.43,0,0,0,.31.11.51.51,0,0,0,.38-.18H59a1.66,1.66,0,0,0,.34.3,1,1,0,0,0,.29.11.52.52,0,0,0,.28,0,.59.59,0,0,0,.37-.31,1.17,1.17,0,0,0,.06-.31.55.55,0,0,0,0-.12s0,0,0,.11a.8.8,0,0,1-.08.29.57.57,0,0,1-.83.18,1.52,1.52,0,0,1-.33-.28l0,0,0,0a.45.45,0,0,1-.32.17.49.49,0,0,1-.28-.09C58.3,11.11,58.28,11,58.26,11Z" style="fill:#375a64"/><path d="M60.33,7.3l.1,0a.45.45,0,0,1,.25.15l0,0v0a1.81,1.81,0,0,1,.58-.67,1.32,1.32,0,0,1,.53-.22,1.11,1.11,0,0,1,.62.06,1.32,1.32,0,0,1,.42.27,1,1,0,0,1,.23.4v0l0,0a.84.84,0,0,1,.6,0,.81.81,0,0,1,.38.28,1.18,1.18,0,0,1,.16.4.31.31,0,0,0,0-.11.94.94,0,0,0-.13-.31.75.75,0,0,0-.39-.32.86.86,0,0,0-.65,0l.05,0a.94.94,0,0,0-.25-.43,1.23,1.23,0,0,0-.44-.3,1.28,1.28,0,0,0-.67-.06,1.38,1.38,0,0,0-.55.24,1.71,1.71,0,0,0-.58.71h0a.49.49,0,0,0-.28-.14Z" style="fill:#375a64"/><path d="M62.67,41.53c.19,0,.86.25,1.73-1.35s1.69-7.53,1.69-7.53Z" style="fill:#e1e1e1"/><path d="M66.41,30.35l.1-5.74-1.16-4.39a8.38,8.38,0,0,0-1.69-1.91,5.34,5.34,0,0,0-1.91-.93l-1.32-.32-.14,1.09,3.84,4.4Z" style="fill:#e1e1e1"/><path d="M60.31,17.44A6,6,0,0,1,65,21.52c.82,2.05,1.32,7.55,1.42,8.41a24,24,0,0,1-.81,5.48c-.12.51-.53,1.87-1.66,5.16-1.2,3.51-2.16,6.11-2.16,6.11l-10.1-3.91,5-8.81s-.26-2.71-.25-3c.1-2-.29-3.16.37-7A9.68,9.68,0,0,1,58,20.67a6.46,6.46,0,0,1,2.19-2.19Z" style="fill:#1a2e35"/><polygon points="61.39 41.5 61.66 39.37 56.85 37.42 55.97 39.46 61.39 41.5" style="fill:#1a2e35"/><path d="M61.39,41.5l-.11,0-.3-.13-1.14-.44L56,39.41l0,.07c.23-.55.48-1.13.74-1.73l.14-.31-.07,0,4.82,1.94,0,0-.17,1.55,0,.43c0,.1,0,.15,0,.15s0,0,0-.13l.06-.42c.05-.38.13-.91.22-1.57v0h0l-4.8-2,0,0,0,0-.14.31c-.26.6-.51,1.18-.74,1.73l0,.05.05,0L59.86,41l1.13.42.3.1Z" style="fill:#375a64"/><path d="M65.38,36.12s0,0,0,.05l-.05.16-.2.61c-.17.54-.43,1.3-.74,2.24-.64,1.89-1.52,4.49-2.5,7.36l-.05.15,0,.06-.05,0L54.62,44l-2.15-.86-.59-.23-.15-.07,0,0h.06l.15.06.59.22,2.17.82,7.15,2.75-.07,0,.05-.16c1-2.86,1.88-5.46,2.53-7.35l.78-2.22.21-.6.06-.16Z" style="fill:#375a64"/><path d="M50.54,47.37s1.2-3.89,2.21-4.15,2.36-.3,2.6.36a7.34,7.34,0,0,1,.39,2.6,15,15,0,0,1-.4,2.41l-1-.32s.81-3.94.6-4.59-1.93-.49-2.24.18-1.32,3.76-1.32,3.76Z" style="fill:#375a64"/><path d="M45.78,52.26c.36-1.63,1.21-5.21,1.58-6.78a.84.84,0,0,1,1-.62l9.73,1.93a.81.81,0,0,1,.65.94l-1.1,6.76a.81.81,0,0,1-1,.67L46.43,53.25A.82.82,0,0,1,45.78,52.26Z" style="fill:#375a64"/><path d="M57.7,49.28a.42.42,0,0,1,0,.07l0,.22-.16.84-.62,3.1,0,.25a.46.46,0,0,1-.1.25.55.55,0,0,1-.24.15.67.67,0,0,1-.28,0l-1.11-.21-2.46-.48-2.71-.52-1.44-.28-.73-.15-.19,0a1.8,1.8,0,0,1-.19,0,.51.51,0,0,1-.26-.31,1,1,0,0,1,0-.17c0-.06,0-.11,0-.17l.07-.31.13-.63c.09-.42.18-.83.26-1.24l.51-2.34v0h0c2.77.71,5.16,1.22,6.85,1.55l2,.38.53.1.14,0h0l-.13,0L57,49.17l-2-.36c-1.7-.32-4.1-.82-6.87-1.52l0,0-.5,2.35-.27,1.23-.13.63-.07.32a.63.63,0,0,0,0,.3.37.37,0,0,0,.21.26l.18,0,.18,0,.74.14,1.43.28,2.71.54,2.46.48,1.11.22a.57.57,0,0,0,.26,0,.34.34,0,0,0,.2-.13.35.35,0,0,0,.1-.22l0-.24.64-3.09.18-.84,0-.22A.45.45,0,0,0,57.7,49.28Z" style="fill:#1a2e35"/><path d="M54.08,53.07h.17a.9.9,0,0,0,.47-.16.89.89,0,0,0,.37-.66c.06-.31.13-.65.2-1l.12-.6a.84.84,0,0,0-.58-1l-.74-.15-3.3-.66A.82.82,0,0,0,50,49a.87.87,0,0,0-.19.37l-.08.41-.17.82L49.5,51c0,.13-.06.26-.07.38a.85.85,0,0,0,.27.65.92.92,0,0,0,.3.18l.34.07,1.26.26,1.81.38.49.1.13,0,0,0h0l-.13,0L53.41,53l-1.82-.36-1.26-.25L50,52.27a.8.8,0,0,1-.32-.19.87.87,0,0,1-.29-.7,2.44,2.44,0,0,1,.06-.39l.08-.4.16-.81.09-.42A.79.79,0,0,1,50,49a.9.9,0,0,1,.84-.28l3.3.67c.25,0,.5.09.74.15a.91.91,0,0,1,.56.45,1,1,0,0,1,.06.67l-.13.6c-.07.39-.15.73-.21,1a1.74,1.74,0,0,1-.05.22.56.56,0,0,1-.09.19.75.75,0,0,1-.26.27.85.85,0,0,1-.48.14A.51.51,0,0,1,54.08,53.07Z" style="fill:#1a2e35"/><g style="opacity:0.30000000000000004"><path d="M47.33,52.38a15.85,15.85,0,0,0,8.92,1.73Z"/></g><path d="M53.45,50.35l-1.15-.23a.33.33,0,0,1-.26-.39h0a.33.33,0,0,1,.39-.26l1.15.23a.33.33,0,0,1,.26.39h0A.33.33,0,0,1,53.45,50.35Z" style="fill:#e1e1e1"/><path d="M55.27,42.35a3.26,3.26,0,0,1,.37.73,9.55,9.55,0,0,1,0,1.39s-.24.12-.43-.52A4.78,4.78,0,0,1,55,43Z" style="fill:#ffc19d"/><path d="M55.24,44.41l0-2-.79-1.51-2.49,0-.09,2.47a8,8,0,0,0,.54,1.26c.18.2.53.05.53.05.19.29.7.18.7.18.25.31.65,0,.65,0s.34.32.5.3A.3.3,0,0,0,55,45,.86.86,0,0,0,55.24,44.41Z" style="fill:#ffc19d"/><path d="M52.8,44.07s.08.1.13.24.06.27,0,.27-.08-.1-.13-.24S52.77,44.08,52.8,44.07Z" style="fill:#ff9c6a"/><path d="M53.44,44s.07.17.13.38a1.53,1.53,0,0,1,.1.39.81.81,0,0,1-.19-.37A.78.78,0,0,1,53.44,44Z" style="fill:#ff9c6a"/><path d="M54.18,44.11a1.42,1.42,0,0,1,.08.34,1.47,1.47,0,0,1,.05.35s-.1-.14-.14-.34S54.15,44.11,54.18,44.11Z" style="fill:#ff9c6a"/><path d="M55.26,43a3.7,3.7,0,0,1,0,.78,4.46,4.46,0,0,1,0,.77,2.7,2.7,0,0,1,0-.77A3.22,3.22,0,0,1,55.26,43Z" style="fill:#ff9c6a"/><path d="M52.76,43.66s0,0,0,.07a.4.4,0,0,1-.2,0,.32.32,0,0,1-.17-.11s0-.08,0-.08.09.07.21.1S52.75,43.64,52.76,43.66Z" style="fill:#ff9c6a"/><path d="M53.51,43.78s0,0-.06.07a.46.46,0,0,1-.21,0,.38.38,0,0,1-.19-.1c0-.05,0-.08,0-.09s.11.07.24.1S53.5,43.76,53.51,43.78Z" style="fill:#ff9c6a"/><path d="M55,43.63s.06.06,0,.15a.45.45,0,0,1-.3.14.6.6,0,0,1-.33-.07c-.07-.05-.1-.1-.09-.1a.92.92,0,0,0,.41.08.53.53,0,0,0,.26-.09C55,43.69,54.94,43.64,55,43.63Z" style="fill:#ff9c6a"/><path d="M62.7,24.5c-1,1-7.05,7-7.05,7s-.35,9.63-.53,9.67-3.66-.24-3.66-.24S51,30.69,51.38,29.53s5.59-8,5.71-8.12a4.21,4.21,0,0,1,2.69-1.69c2.33-.6,3.3.52,3.69,1.66a4.05,4.05,0,0,1-.61,2.93C62.81,24.38,62.75,24.44,62.7,24.5Z" style="fill:#1a2e35"/><path d="M62.7,24.5l.09-.12A1.53,1.53,0,0,0,63,24a5,5,0,0,0,.5-1.53,2.29,2.29,0,0,0-.08-1.15,2.71,2.71,0,0,0-.73-1.15,2.13,2.13,0,0,0-.64-.41,2.68,2.68,0,0,0-.79-.19,5,5,0,0,0-1.76.24,5,5,0,0,0-1.74.88,3.71,3.71,0,0,0-.69.78l-.66.87c-.89,1.18-1.84,2.45-2.81,3.81-.48.67-1,1.37-1.45,2.1a9.08,9.08,0,0,0-.67,1.13c0,.05-.05.09-.07.15l0,.15a1.88,1.88,0,0,0,0,.33l0,.34v.33c-.07,1.81,0,3.69,0,5.61,0,1.56.1,3.09.17,4.57l0,0,1.88.15.92.07.45,0h.38s0,0,0,0h0a8.46,8.46,0,0,0,.1-.88l.06-.88.09-1.71c.11-2.24.2-4.31.27-6.16v0h0l5.16-5.08L62.2,25l.37-.35.13-.12-.12.12-.37.37-1.39,1.4L55.68,31.5v0c-.06,1.85-.14,3.92-.25,6.16l-.09,1.72-.06.88c0,.29,0,.58-.1.9,0,0,0,0,0,0l0,0H54.7l-.45,0-.92-.06L51.45,41h0V40.9c-.07-1.48-.13-3-.18-4.58,0-1.92-.1-3.8,0-5.61l0-.34,0-.34a2,2,0,0,1,0-.34l0-.17.07-.15a10.87,10.87,0,0,1,.68-1.15c.48-.73,1-1.42,1.46-2.1q1.47-2,2.82-3.81l.66-.87c.1-.13.21-.29.33-.42a4.27,4.27,0,0,1,.38-.36,5.21,5.21,0,0,1,1.77-.9,5.29,5.29,0,0,1,1.78-.23,3,3,0,0,1,.81.2,2.33,2.33,0,0,1,.66.42,3,3,0,0,1,.74,1.18,2.5,2.5,0,0,1,.07,1.17A5.22,5.22,0,0,1,63,24a1.71,1.71,0,0,1-.24.35Z" style="fill:#375a64"/><path d="M66.14,28.9a.39.39,0,0,1,0-.11l-.1-.34-.36-1.24c-.29-1.07-.7-2.54-1.15-4.19v0l0,0,.35-.55.1-.15,0,.08-.68-.06h0v0c-.13-.39-.27-.77-.42-1.13a5.27,5.27,0,0,0-.53-1,2.36,2.36,0,0,0-.77-.61c-.27-.15-.53-.28-.77-.39-.48-.23-.87-.39-1.14-.5l-.31-.13-.11-.05s0,0,.11,0l.32.11c.28.1.67.26,1.16.47.24.11.51.24.78.39a2.74,2.74,0,0,1,.81.62,5.85,5.85,0,0,1,.54,1,11.73,11.73,0,0,1,.43,1.14l0,0,.68.06h.08l0,.07-.1.14-.36.56v0c.44,1.65.84,3.12,1.12,4.19L66,28.44l.08.34A.56.56,0,0,1,66.14,28.9Z" style="fill:#375a64"/><path d="M65.43,22.77c-1.19.7-2.16.7-4.14.53-1.38-.12-2.59-.51-4-.56A11.33,11.33,0,0,0,52,24.11l-1.34,1.58,2.52.76a10.94,10.94,0,0,1,5.49-1.2c3.09.17,6-.67,7-1.45l.35-1-.14-.5-.42,0Z" style="fill:#ff735d"/><path d="M65.43,22.77a1.16,1.16,0,0,1,0-.13l0-.36v0h0l.42,0h0l.14.51h0l-.35,1h0a4.46,4.46,0,0,1-1,.54,10.19,10.19,0,0,1-1.22.42,14.78,14.78,0,0,1-3,.5,14,14,0,0,1-1.72,0,12.62,12.62,0,0,0-1.83.06,10.66,10.66,0,0,0-1.88.39,10.29,10.29,0,0,0-1.87.75h0l-1.47-.45-1-.31-.08,0,0-.06L52,24.08h0a18.27,18.27,0,0,1,2.66-1,8.48,8.48,0,0,1,2.6-.33A13.8,13.8,0,0,1,59.6,23a18,18,0,0,0,2,.28,14.07,14.07,0,0,0,1.65.07,4.5,4.5,0,0,0,1.22-.18,4.77,4.77,0,0,0,.72-.29l.18-.09.06,0-.05,0-.18.1a5,5,0,0,1-.72.31,4.48,4.48,0,0,1-1.23.19,16.35,16.35,0,0,1-1.66-.05,18.37,18.37,0,0,1-2-.27,14.82,14.82,0,0,0-2.32-.3,8.62,8.62,0,0,0-2.57.34,19,19,0,0,0-2.65,1h0l-1.33,1.58,0-.09,1,.32,1.47.44h0a9.83,9.83,0,0,1,1.89-.76,10.69,10.69,0,0,1,1.9-.39,11.44,11.44,0,0,1,1.84-.05,16.32,16.32,0,0,0,1.72,0,14.75,14.75,0,0,0,3-.48,10.05,10.05,0,0,0,1.21-.41,4.9,4.9,0,0,0,1-.52h0l.36-1h0l-.13-.51h0l-.42,0h0l0,.37A1.13,1.13,0,0,1,65.43,22.77Z" style="fill:#1a2e35"/><path d="M60.73,35.58a19.88,19.88,0,0,1-2-.67,18.42,18.42,0,0,1-2-.77s.92.28,2,.67A21.29,21.29,0,0,1,60.73,35.58Z" style="fill:#375a64"/></g></g></svg>