<svg xmlns="http://www.w3.org/2000/svg" viewBox="0 0 352.13 54.81"><g id="Layer_2" data-name="Layer 2"><g id="Layer_1-2" data-name="Layer 1"><path d="M77.19,52a8.69,8.69,0,0,1-4.76-1.15,3.65,3.65,0,0,1-1.79-3.23,2.73,2.73,0,0,1,.67-1.94,2.39,2.39,0,0,1,1.85-.73,2.78,2.78,0,0,1,1.64.52A1.79,1.79,0,0,1,75.53,47a2.08,2.08,0,0,1-.3,1.09,1.79,1.79,0,0,1-1,.77,2.1,2.1,0,0,0,1.17.74,5.91,5.91,0,0,0,1.49.18,3,3,0,0,0,2.9-1.69,11.43,11.43,0,0,0,.83-4.94v-.68a6,6,0,0,1-1.91,1,8,8,0,0,1-2.38.34A7.4,7.4,0,0,1,72.92,43a6,6,0,0,1-2.4-2.19,6.52,6.52,0,0,1,.08-6.71,6.93,6.93,0,0,1,2.74-2.5,8.68,8.68,0,0,1,4.2-.95A7.9,7.9,0,0,1,82.39,32,7.62,7.62,0,0,1,85,35.78a17.15,17.15,0,0,1,.82,5.52A13.7,13.7,0,0,1,84.74,47a8.53,8.53,0,0,1-3,3.69A8,8,0,0,1,77.19,52Zm-2.76-15.1a4.67,4.67,0,0,0,1.08,3.38,3.45,3.45,0,0,0,2.54,1.09,4,4,0,0,0,1.52-.28,2.3,2.3,0,0,0,1.08-.84c0-.38,0-.74,0-1.1a12.44,12.44,0,0,0-.49-4A3.58,3.58,0,0,0,79,33.25a2.53,2.53,0,0,0-1.45-.51,3.39,3.39,0,0,0-1.42.34,2.72,2.72,0,0,0-1.18,1.25A5.52,5.52,0,0,0,74.43,36.89Z"/><path d="M93.12,52a8.19,8.19,0,0,1-1.26-.1,4.8,4.8,0,0,1-1.2-.34,25.54,25.54,0,0,1,1.06-5.73,26.5,26.5,0,0,1,2.5-5.63,46.81,46.81,0,0,1,4.26-6,21.76,21.76,0,0,1-2.34.52,16.32,16.32,0,0,1-2.78.22,4.53,4.53,0,0,0-2.47.51,2.87,2.87,0,0,0-1.08,1.83H88.15A3.93,3.93,0,0,1,87.29,36a4.29,4.29,0,0,1-.39-1.92,3.4,3.4,0,0,1,.88-2.42,3.73,3.73,0,0,1,2.88-.95,15,15,0,0,1,2.17.21l2.9.43a21.24,21.24,0,0,0,2.84.22,6,6,0,0,0,1.08-.08,2.32,2.32,0,0,0,.76-.28c.24-.14.53-.33.89-.59l1.06,1.45a27.53,27.53,0,0,0-3.77,6.12A22.76,22.76,0,0,0,97,43.57a31.1,31.1,0,0,0-.38,4.57V49.8a2.34,2.34,0,0,1-.24,1,1.83,1.83,0,0,1-1,.83A5.87,5.87,0,0,1,93.12,52Z"/><path d="M110.42,44.5a5.35,5.35,0,0,1-4-1.57c-1-1-1.53-2.74-1.53-5.09s.51-4.08,1.54-5.11a5.46,5.46,0,0,1,4.06-1.56,5.39,5.39,0,0,1,4.06,1.56c1,1,1.51,2.74,1.51,5.11s-.52,4.09-1.54,5.12A5.48,5.48,0,0,1,110.42,44.5Zm0-1.72a1,1,0,0,0,.75-.4,3.32,3.32,0,0,0,.55-1.48,17.47,17.47,0,0,0,.21-3.12,17,17,0,0,0-.21-3.11,3.11,3.11,0,0,0-.53-1.4,1,1,0,0,0-.74-.35,1,1,0,0,0-.73.35,3,3,0,0,0-.54,1.41,17.52,17.52,0,0,0-.21,3.16,18.65,18.65,0,0,0,.19,3.09,3.3,3.3,0,0,0,.53,1.47A1,1,0,0,0,110.42,42.78Zm3.11,12a3.22,3.22,0,0,1-1.14-.3,3.14,3.14,0,0,1-1-.68l11.76-24a3.21,3.21,0,0,1,1.18.3,3.44,3.44,0,0,1,1,.65Zm12.68-1.57a5.4,5.4,0,0,1-4.06-1.57q-1.52-1.58-1.51-5.1t1.52-5.12a6.08,6.08,0,0,1,8.12,0c1,1.05,1.52,2.74,1.52,5.09s-.51,4.08-1.54,5.11A5.43,5.43,0,0,1,126.21,53.24Zm0-1.75a1,1,0,0,0,.74-.38,3.57,3.57,0,0,0,.53-1.47,17.47,17.47,0,0,0,.21-3.12,17.22,17.22,0,0,0-.21-3.13A3.24,3.24,0,0,0,127,42a1,1,0,0,0-.74-.35,1,1,0,0,0-.73.35,3,3,0,0,0-.55,1.41,17.59,17.59,0,0,0-.2,3.15,18.6,18.6,0,0,0,.19,3.11,3.14,3.14,0,0,0,.53,1.46A1,1,0,0,0,126.21,51.49Z"/><path d="M140,51.67a2.67,2.67,0,0,1-.68-1.9,2.63,2.63,0,0,0,1.49-.47,2.67,2.67,0,0,0,1-1.45l4.86-14.34a10.07,10.07,0,0,0-3-.38,3.29,3.29,0,0,1,.71-2.14h8.12l5.51,16.77a2.87,2.87,0,0,0,1,1.49,2.47,2.47,0,0,0,1.48.52,2.67,2.67,0,0,1-.68,1.9h-8a2.68,2.68,0,0,1-.69-1.9,2,2,0,0,0,1.23-.34,1.23,1.23,0,0,0,.46-1.08,4.91,4.91,0,0,0,0-.62,5.15,5.15,0,0,0-.17-.77l-.17-.62h-6.64l-.17.62c-.08.26-.15.49-.2.71a2.62,2.62,0,0,0-.07.59,1.33,1.33,0,0,0,.5,1.16,2.44,2.44,0,0,0,1.39.35,2.67,2.67,0,0,1-.68,1.9ZM146.49,44h5.34l-2.11-7.35a5.69,5.69,0,0,0-.68-1.51Z"/><path d="M167.7,52.11a7.28,7.28,0,0,1-3.8-1,6.79,6.79,0,0,1-2.58-2.8,9.52,9.52,0,0,1-.93-4.37,9.46,9.46,0,0,1,1-4.52,7,7,0,0,1,2.76-2.87,7.82,7.82,0,0,1,3.94-1,5,5,0,0,1,3.46,1.08,3.45,3.45,0,0,1,1.19,2.65,3.12,3.12,0,0,1-.71,2.19,2.41,2.41,0,0,1-1.84.77,2,2,0,0,1-1.54-.68,2.64,2.64,0,0,1-.37-2.82,2.54,2.54,0,0,1,.64-.74,2.14,2.14,0,0,0-.49-.22,1.67,1.67,0,0,0-.37,0,2,2,0,0,0-1.16.44,3.37,3.37,0,0,0-1,1.57,9.65,9.65,0,0,0-.4,3.14c0,2.17.32,3.7,1,4.58a3.08,3.08,0,0,0,2.66,1.31,5.71,5.71,0,0,0,1.62-.23,4.09,4.09,0,0,0,1.37-.68,2.37,2.37,0,0,1,.4.72,2.2,2.2,0,0,1,.17.76,1.8,1.8,0,0,1-.67,1.26,5.2,5.2,0,0,1-1.79,1.05A7.4,7.4,0,0,1,167.7,52.11Z"/><path d="M181.38,52.11a7.28,7.28,0,0,1-3.8-1,6.79,6.79,0,0,1-2.58-2.8,9.52,9.52,0,0,1-.93-4.37,9.34,9.34,0,0,1,1-4.52,7.05,7.05,0,0,1,2.75-2.87,7.87,7.87,0,0,1,3.94-1,5,5,0,0,1,3.47,1.08,3.47,3.47,0,0,1,1.18,2.65,3.12,3.12,0,0,1-.71,2.19,2.4,2.4,0,0,1-1.84.77,2,2,0,0,1-1.54-.68,2.41,2.41,0,0,1-.62-1.66,2.35,2.35,0,0,1,.25-1.16,2.54,2.54,0,0,1,.64-.74,2.14,2.14,0,0,0-.49-.22,1.61,1.61,0,0,0-.37,0,2,2,0,0,0-1.16.44,3.37,3.37,0,0,0-1,1.57,9.94,9.94,0,0,0-.4,3.14c0,2.17.32,3.7.95,4.58a3.08,3.08,0,0,0,2.67,1.31,5.64,5.64,0,0,0,1.61-.23,4.24,4.24,0,0,0,1.38-.68,2.6,2.6,0,0,1,.4.72,2.16,2.16,0,0,1,.16.76,1.8,1.8,0,0,1-.67,1.26,5.2,5.2,0,0,1-1.79,1.05A7.4,7.4,0,0,1,181.38,52.11Z"/><path d="M193.38,51.88a4.14,4.14,0,0,1-3.23-1.28A4.91,4.91,0,0,1,189,47.17V39a.74.74,0,0,0-.39-.71,2.24,2.24,0,0,0-1.06-.21V36.8a4.92,4.92,0,0,1,1.61-.7,9.83,9.83,0,0,1,2.77-.37,2.83,2.83,0,0,1,1.52.27c.25.18.37.61.37,1.3v10a2.56,2.56,0,0,0,.3,1.36,1.14,1.14,0,0,0,1,.47,2.2,2.2,0,0,0,1.2-.38,4.32,4.32,0,0,0,1-.89V39a.74.74,0,0,0-.44-.71,2.94,2.94,0,0,0-1.22-.21V36.8a5.56,5.56,0,0,1,1.63-.7,10.15,10.15,0,0,1,2.87-.37,3.13,3.13,0,0,1,1.57.27c.28.18.42.61.42,1.3V48.2a1.86,1.86,0,0,0,.37,1.19,1.42,1.42,0,0,0,1,.53v.83a2.85,2.85,0,0,1-1.5.84,7.29,7.29,0,0,1-2,.29,2.88,2.88,0,0,1-1.7-.52,2.53,2.53,0,0,1-1-1.5A4.73,4.73,0,0,1,193.38,51.88Z"/><path d="M205.49,51.67A2.78,2.78,0,0,1,205,51a2.11,2.11,0,0,1-.18-.89A1.69,1.69,0,0,0,206,49.7a1.74,1.74,0,0,0,.37-1.26V39.88a1.38,1.38,0,0,0-.41-1.11,2.51,2.51,0,0,0-1.54-.34V37.1a8.09,8.09,0,0,1,1.69-.73,18.14,18.14,0,0,1,1.92-.5,8,8,0,0,1,1.48-.2,1.08,1.08,0,0,1,1,.48,4.26,4.26,0,0,1,.31,2,5,5,0,0,1,1-1.23,5.71,5.71,0,0,1,1.43-1,3.76,3.76,0,0,1,1.66-.38,2.45,2.45,0,0,1,2,.71,2.77,2.77,0,0,1,.59,1.83,3.23,3.23,0,0,1-.65,2.08,2.47,2.47,0,0,1-3.41.22,1.83,1.83,0,0,1-.59-1.32,2.39,2.39,0,0,1,.09-.74,5.85,5.85,0,0,0-.92.31,3.15,3.15,0,0,0-.89.61v8.88a2.45,2.45,0,0,0,.21,1.1,1.28,1.28,0,0,0,.81.61,6.41,6.41,0,0,0,1.82.19,3.44,3.44,0,0,1-.11.89,1.78,1.78,0,0,1-.45.71Z"/><path d="M222.61,51.88a5.21,5.21,0,0,1-3.6-1.23,4.4,4.4,0,0,1-.11-6.27,5.5,5.5,0,0,1,3.89-1.18,10.56,10.56,0,0,1,1.81.16,5,5,0,0,1,1.54.49V39.91a2,2,0,0,0-.64-1.73,2.43,2.43,0,0,0-1.55-.49,2.58,2.58,0,0,0-1.6.47,1.6,1.6,0,0,1,.86.64,1.81,1.81,0,0,1,.26.93,1.94,1.94,0,0,1-.69,1.56,2.63,2.63,0,0,1-1.71.57,2.46,2.46,0,0,1-1.8-.66,2.23,2.23,0,0,1-.68-1.68,3.1,3.1,0,0,1,.68-1.91,4.89,4.89,0,0,1,2.11-1.49,9.79,9.79,0,0,1,3.72-.59q6,0,6,4.71v7.84a1.58,1.58,0,0,0,1.36,1.72v1a2.28,2.28,0,0,1-1.31.84,6,6,0,0,1-1.77.29,3.05,3.05,0,0,1-2.85-1.4,5.64,5.64,0,0,1-1.57,1A5.81,5.81,0,0,1,222.61,51.88Zm1.93-2.4a3,3,0,0,0,.86-.14,2.67,2.67,0,0,0,.74-.34V46.13a2.83,2.83,0,0,0-.76-.36,3.13,3.13,0,0,0-.9-.14,2,2,0,0,0-1.33.48,1.92,1.92,0,0,0-.57,1.53,1.76,1.76,0,0,0,.54,1.32A2,2,0,0,0,224.54,49.48Z"/><path d="M239.64,51.88a5.66,5.66,0,0,1-2.28-.46,3.6,3.6,0,0,1-1.67-1.59,6.31,6.31,0,0,1-.64-3.08V38.61h-1.86V36.8a2.45,2.45,0,0,0,1.51-1,8.72,8.72,0,0,0,1.23-2.19,10.42,10.42,0,0,0,.66-2.61,7.16,7.16,0,0,1,1-.08,1.81,1.81,0,0,1,1.64.68,2.28,2.28,0,0,1,.46,1.27V36h3.44c0,.47,0,.94-.07,1.41a3.08,3.08,0,0,1-.4,1.23h-2.91V47a1.58,1.58,0,0,0,.39,1.26,1.48,1.48,0,0,0,1,.31,2.61,2.61,0,0,0,1.2-.31,3.2,3.2,0,0,0,1-.73,1.36,1.36,0,0,1,.44.79,3.7,3.7,0,0,1,.12.78,2.36,2.36,0,0,1-.44,1.31A3.37,3.37,0,0,1,242,51.45,5.75,5.75,0,0,1,239.64,51.88Z"/><path d="M251.79,51.94a6.91,6.91,0,0,1-5.29-2.11,8.24,8.24,0,0,1-2-5.86,9.56,9.56,0,0,1,1-4.46,7.08,7.08,0,0,1,2.65-2.89,7.23,7.23,0,0,1,3.81-1,5.92,5.92,0,0,1,4.28,1.56,5.8,5.8,0,0,1,1.61,4.37,4.81,4.81,0,0,1-.37,2,1.5,1.5,0,0,1-1.53.84h-6.39a4.83,4.83,0,0,0,1.08,3.32,3.53,3.53,0,0,0,2.59,1,5.58,5.58,0,0,0,1.86-.31,5.82,5.82,0,0,0,1.6-.88,1.64,1.64,0,0,1,.43.73,2.66,2.66,0,0,1,.17.81,1.93,1.93,0,0,1-.67,1.17,5.58,5.58,0,0,1-1.9,1.23A7.25,7.25,0,0,1,251.79,51.94Zm-2.22-9.84h3a.59.59,0,0,0,.63-.38,2.93,2.93,0,0,0,.14-.95,4.52,4.52,0,0,0-.46-2.5,1.33,1.33,0,0,0-1.08-.61,1.7,1.7,0,0,0-1,.38,2.79,2.79,0,0,0-.83,1.35A9.84,9.84,0,0,0,249.57,42.1Z"/><path d="M7.59,17.93a7.93,7.93,0,0,1-4-1A6.83,6.83,0,0,1,.92,14.19a8.61,8.61,0,0,1-.92-4A10,10,0,0,1,.92,5.65,6.34,6.34,0,0,1,3.48,2.94,7.48,7.48,0,0,1,7.22,2a8.89,8.89,0,0,1,1.17.09,6.53,6.53,0,0,1,1.49.4,3.5,3.5,0,0,1,.59-.21l.75-.19A2.73,2.73,0,0,1,11.81,2a7.08,7.08,0,0,1,.42,1.62c.09.61.15,1.21.18,1.81s0,1.11,0,1.55H10.32a3.49,3.49,0,0,0-1.1-2.19,3.06,3.06,0,0,0-2.07-.76,2.73,2.73,0,0,0-1.58.48A3.22,3.22,0,0,0,4.46,6.21a10.72,10.72,0,0,0-.41,3.38,14.33,14.33,0,0,0,.38,3.69,3.64,3.64,0,0,0,1.13,1.93,2.77,2.77,0,0,0,1.79.59,2.3,2.3,0,0,0,1.74-.58v-2.5a.86.86,0,0,0-.51-.83A3.58,3.58,0,0,0,7,11.64a3.36,3.36,0,0,1,.15-.9,2.29,2.29,0,0,1,.38-.8h4.75a1.43,1.43,0,0,1,1,.3,1.45,1.45,0,0,1,.43.65,2,2,0,0,1,.1.53.74.74,0,0,1-.11.39c-.24,0-.46,0-.67,0a1.77,1.77,0,0,0-.56.14v2.53a2.17,2.17,0,0,0,.07.68,1.1,1.1,0,0,0,.17.31.76.76,0,0,1,.11.14.56.56,0,0,1,0,.26c0,.26-.23.55-.7.86a6.8,6.8,0,0,1-1.9.82A9.78,9.78,0,0,1,7.59,17.93Z"/><path d="M20.09,17.82a5.11,5.11,0,0,1-3.93-1.56A6.11,6.11,0,0,1,14.7,11.9a7.15,7.15,0,0,1,.72-3.31,5.24,5.24,0,0,1,2-2.14,5.37,5.37,0,0,1,2.83-.75A4.39,4.39,0,0,1,23.4,6.85a4.31,4.31,0,0,1,1.2,3.25,3.65,3.65,0,0,1-.28,1.46,1.1,1.1,0,0,1-1.13.63H18.44a3.54,3.54,0,0,0,.8,2.46,2.59,2.59,0,0,0,1.92.73,4.18,4.18,0,0,0,1.39-.23,4.6,4.6,0,0,0,1.19-.65,1.21,1.21,0,0,1,.32.54,2,2,0,0,1,.12.6,1.42,1.42,0,0,1-.5.87,4.14,4.14,0,0,1-1.41.91A5.31,5.31,0,0,1,20.09,17.82Zm-1.65-7.3h2.22a.44.44,0,0,0,.47-.29,2.07,2.07,0,0,0,.1-.7,3.37,3.37,0,0,0-.34-1.86,1,1,0,0,0-.8-.45,1.23,1.23,0,0,0-.75.28,2.07,2.07,0,0,0-.62,1A7.5,7.5,0,0,0,18.44,10.52Z"/><path d="M30.18,17.78a4.25,4.25,0,0,1-1.69-.34,2.66,2.66,0,0,1-1.24-1.18A4.62,4.62,0,0,1,26.77,14V7.92H25.39V6.58a1.84,1.84,0,0,0,1.12-.75,6.14,6.14,0,0,0,.91-1.63,7.63,7.63,0,0,0,.5-1.93,3.8,3.8,0,0,1,.72-.07,1.35,1.35,0,0,1,1.22.51,1.69,1.69,0,0,1,.35.94V6h2.55a9.24,9.24,0,0,1-.06,1,2.08,2.08,0,0,1-.29.91H30.25v6.2a1.15,1.15,0,0,0,.29.94,1.13,1.13,0,0,0,.72.23,2,2,0,0,0,.89-.23,2.27,2.27,0,0,0,.72-.54,1,1,0,0,1,.33.58,2.81,2.81,0,0,1,.09.59,1.69,1.69,0,0,1-.33,1,2.47,2.47,0,0,1-1,.81A4.21,4.21,0,0,1,30.18,17.78Z"/><path d="M37.71,17.62a2,2,0,0,1-.51-1.41,1.87,1.87,0,0,0,1.11-.35,2,2,0,0,0,.76-1.08L42.68,4.14a7.33,7.33,0,0,0-2.22-.29A2.34,2.34,0,0,1,41,2.27h6L51.1,14.72a2.23,2.23,0,0,0,.78,1.11,1.79,1.79,0,0,0,1.1.38,2,2,0,0,1-.51,1.41h-6A2,2,0,0,1,46,16.21a1.47,1.47,0,0,0,.91-.25.93.93,0,0,0,.34-.8,4.07,4.07,0,0,0,0-.46,3.53,3.53,0,0,0-.12-.58L47,13.66H42l-.13.46a4.69,4.69,0,0,0-.14.53,1.85,1.85,0,0,0-.06.44,1,1,0,0,0,.37.86,1.76,1.76,0,0,0,1,.26,2,2,0,0,1-.51,1.41ZM42.52,12h4L44.92,6.49a4.3,4.3,0,0,0-.5-1.12Z"/><path d="M58.28,18a5.46,5.46,0,0,1-2.83-.72,5.07,5.07,0,0,1-1.91-2.08,7,7,0,0,1-.7-3.25,7,7,0,0,1,.75-3.35,5.23,5.23,0,0,1,2-2.14,5.81,5.81,0,0,1,2.92-.73,3.69,3.69,0,0,1,2.58.8,2.58,2.58,0,0,1,.88,2,2.35,2.35,0,0,1-.53,1.63,1.77,1.77,0,0,1-1.36.57A1.49,1.49,0,0,1,59,10.14a1.76,1.76,0,0,1-.46-1.23,1.69,1.69,0,0,1,.19-.86,1.79,1.79,0,0,1,.47-.55,1.28,1.28,0,0,0-.36-.16,1,1,0,0,0-.28,0,1.46,1.46,0,0,0-.86.33A2.41,2.41,0,0,0,57,8.8a7.15,7.15,0,0,0-.3,2.33,6,6,0,0,0,.7,3.4,2.31,2.31,0,0,0,2,1,4.16,4.16,0,0,0,1.2-.18,2.83,2.83,0,0,0,1-.5,2,2,0,0,1,.29.54,1.61,1.61,0,0,1,.12.56,1.3,1.3,0,0,1-.49.93,3.72,3.72,0,0,1-1.33.78A5.28,5.28,0,0,1,58.28,18Z"/><path d="M68.44,18a5.49,5.49,0,0,1-2.83-.72,5.07,5.07,0,0,1-1.91-2.08A7.09,7.09,0,0,1,63,11.9a7,7,0,0,1,.75-3.35,5.21,5.21,0,0,1,2-2.14,5.85,5.85,0,0,1,2.93-.73,3.67,3.67,0,0,1,2.57.8,2.54,2.54,0,0,1,.88,2,2.3,2.3,0,0,1-.53,1.63,1.76,1.76,0,0,1-1.36.57,1.45,1.45,0,0,1-1.14-.51,1.77,1.77,0,0,1-.47-1.23,1.65,1.65,0,0,1,.66-1.41A1.08,1.08,0,0,0,69,7.34a.93.93,0,0,0-.27,0,1.43,1.43,0,0,0-.86.33,2.41,2.41,0,0,0-.74,1.17,7.15,7.15,0,0,0-.3,2.33,6,6,0,0,0,.71,3.4,2.31,2.31,0,0,0,2,1,4.26,4.26,0,0,0,1.2-.18,2.86,2.86,0,0,0,1-.5,1.73,1.73,0,0,1,.3.54,1.61,1.61,0,0,1,.12.56,1.32,1.32,0,0,1-.5.93,3.63,3.63,0,0,1-1.33.78A5.28,5.28,0,0,1,68.44,18Z"/><path d="M77.35,17.78a3.07,3.07,0,0,1-2.4-1,3.66,3.66,0,0,1-.85-2.55v-6a.55.55,0,0,0-.29-.53A1.74,1.74,0,0,0,73,7.55v-1a3.67,3.67,0,0,1,1.2-.52,7.17,7.17,0,0,1,2-.27A2.23,2.23,0,0,1,77.41,6c.18.14.27.46.27,1v7.39a1.93,1.93,0,0,0,.22,1,.84.84,0,0,0,.77.35,1.57,1.57,0,0,0,.89-.29,2.86,2.86,0,0,0,.72-.66V8.23A.54.54,0,0,0,80,7.7,2.23,2.23,0,0,0,79,7.55v-1a4.11,4.11,0,0,1,1.21-.52,7.58,7.58,0,0,1,2.14-.27A2.44,2.44,0,0,1,83.56,6c.2.14.3.46.3,1v8.1a1.36,1.36,0,0,0,.28.88,1.06,1.06,0,0,0,.78.39v.62a2.2,2.2,0,0,1-1.11.63,5.53,5.53,0,0,1-1.46.21,2.1,2.1,0,0,1-1.27-.39,1.82,1.82,0,0,1-.71-1.11A3.51,3.51,0,0,1,77.35,17.78Z"/><path d="M86.35,17.62a1.92,1.92,0,0,1-.38-.53,1.69,1.69,0,0,1-.13-.66,1.3,1.3,0,0,0,.92-.27,1.32,1.32,0,0,0,.27-.94V8.87A1,1,0,0,0,86.72,8a1.84,1.84,0,0,0-1.14-.25v-1a5.8,5.8,0,0,1,1.25-.54,11.6,11.6,0,0,1,1.43-.37,5.69,5.69,0,0,1,1.1-.15.82.82,0,0,1,.74.35,3.27,3.27,0,0,1,.23,1.52,3.42,3.42,0,0,1,.72-.91A4.12,4.12,0,0,1,92.11,6a2.83,2.83,0,0,1,1.23-.28,1.85,1.85,0,0,1,1.48.52,2.1,2.1,0,0,1,.44,1.37,2.33,2.33,0,0,1-.49,1.54,1.65,1.65,0,0,1-1.34.59,1.63,1.63,0,0,1-1.19-.43,1.33,1.33,0,0,1-.44-1,2,2,0,0,1,.07-.55,4.23,4.23,0,0,0-.68.24,2.16,2.16,0,0,0-.66.45V15a1.89,1.89,0,0,0,.15.81,1,1,0,0,0,.61.45,4.61,4.61,0,0,0,1.35.14,2.19,2.19,0,0,1-.09.66,1.31,1.31,0,0,1-.33.53Z"/><path d="M99.06,17.78a3.85,3.85,0,0,1-2.67-.92,3,3,0,0,1-1-2.34,3,3,0,0,1,.93-2.31,4.11,4.11,0,0,1,2.9-.88,8,8,0,0,1,1.34.12,3.64,3.64,0,0,1,1.14.36V8.89a1.55,1.55,0,0,0-.47-1.29,1.86,1.86,0,0,0-1.16-.36,1.9,1.9,0,0,0-1.18.35,1.15,1.15,0,0,1,.63.47,1.26,1.26,0,0,1,.2.7,1.42,1.42,0,0,1-.51,1.15,1.92,1.92,0,0,1-1.27.43,1.83,1.83,0,0,1-1.34-.49,1.67,1.67,0,0,1-.51-1.25,2.31,2.31,0,0,1,.51-1.42,3.79,3.79,0,0,1,1.57-1.11,7.38,7.38,0,0,1,2.76-.44q4.43,0,4.42,3.5V15a1.18,1.18,0,0,0,1,1.28v.7a1.76,1.76,0,0,1-1,.63,4.53,4.53,0,0,1-1.32.21,2.25,2.25,0,0,1-2.11-1,4.6,4.6,0,0,1-1.17.72A4.29,4.29,0,0,1,99.06,17.78ZM100.49,16a2.41,2.41,0,0,0,.64-.09,2,2,0,0,0,.55-.26V13.51a2.25,2.25,0,0,0-.56-.27,2.29,2.29,0,0,0-.67-.11,1.43,1.43,0,0,0-1,.37A1.41,1.41,0,0,0,99,14.63a1.29,1.29,0,0,0,.4,1A1.41,1.41,0,0,0,100.49,16Z"/><path d="M111.71,17.78a4.25,4.25,0,0,1-1.69-.34,2.66,2.66,0,0,1-1.24-1.18A4.62,4.62,0,0,1,108.3,14V7.92h-1.38V6.58A1.84,1.84,0,0,0,108,5.83,6.14,6.14,0,0,0,109,4.2a7.24,7.24,0,0,0,.5-1.93,3.8,3.8,0,0,1,.72-.07,1.38,1.38,0,0,1,1.23.51,1.75,1.75,0,0,1,.34.94V6h2.55a9.24,9.24,0,0,1-.06,1,2.08,2.08,0,0,1-.29.91h-2.16v6.2a1.18,1.18,0,0,0,.29.94,1.13,1.13,0,0,0,.72.23,2,2,0,0,0,.89-.23,2.27,2.27,0,0,0,.72-.54,1,1,0,0,1,.33.58,2.81,2.81,0,0,1,.09.59,1.69,1.69,0,0,1-.33,1,2.41,2.41,0,0,1-1,.81A4.21,4.21,0,0,1,111.71,17.78Z"/><path d="M120.73,17.82a5.11,5.11,0,0,1-3.92-1.56,6.11,6.11,0,0,1-1.46-4.36,7.15,7.15,0,0,1,.72-3.31,5.24,5.24,0,0,1,2-2.14,5.37,5.37,0,0,1,2.83-.75,4.39,4.39,0,0,1,3.18,1.15,4.31,4.31,0,0,1,1.2,3.25,3.65,3.65,0,0,1-.28,1.46,1.1,1.1,0,0,1-1.13.63h-4.76a3.59,3.59,0,0,0,.81,2.46,2.59,2.59,0,0,0,1.92.73,4.18,4.18,0,0,0,1.39-.23,4.76,4.76,0,0,0,1.19-.65,1.21,1.21,0,0,1,.32.54,2,2,0,0,1,.12.6,1.42,1.42,0,0,1-.5.87,4.14,4.14,0,0,1-1.41.91A5.32,5.32,0,0,1,120.73,17.82Zm-1.65-7.3h2.23a.44.44,0,0,0,.47-.29,2.07,2.07,0,0,0,.1-.7,3.37,3.37,0,0,0-.34-1.86,1,1,0,0,0-.81-.45,1.22,1.22,0,0,0-.74.28,2.07,2.07,0,0,0-.62,1A7.44,7.44,0,0,0,119.08,10.52Z"/><path d="M136.42,17.86q-.51,0-1.14-.06c-.43-.05-1-.09-1.63-.12s-1.53-.06-2.6-.06a2.23,2.23,0,0,1-.48-1.41,1.67,1.67,0,0,0,1-.25,1,1,0,0,0,.32-.87V4.75a1,1,0,0,0-.32-.84,1.67,1.67,0,0,0-1-.26,2,2,0,0,1,.48-1.38c1.45,0,2.68,0,3.69-.14s1.67-.13,2-.13a8.13,8.13,0,0,1,3.3.61,6.33,6.33,0,0,1,2.29,1.65,6.89,6.89,0,0,1,1.34,2.42,9.61,9.61,0,0,1,.44,2.93,11.33,11.33,0,0,1-.44,3.19,7.27,7.27,0,0,1-1.38,2.63,6.38,6.38,0,0,1-2.38,1.78A8.38,8.38,0,0,1,136.42,17.86ZM136.24,16a3.6,3.6,0,0,0,2.09-.6,3.74,3.74,0,0,0,1.37-1.93,10.87,10.87,0,0,0,.48-3.57,7.8,7.8,0,0,0-1.12-4.69,3.57,3.57,0,0,0-3-1.49h-.29a.6.6,0,0,0-.24.05V16l.36,0Z"/><path d="M149,17.78a3.85,3.85,0,0,1-2.67-.92,3,3,0,0,1-1-2.34,3,3,0,0,1,.93-2.31,4.08,4.08,0,0,1,2.89-.88,8.05,8.05,0,0,1,1.35.12,3.64,3.64,0,0,1,1.14.36V8.89a1.55,1.55,0,0,0-.47-1.29A1.86,1.86,0,0,0,150,7.24a2,2,0,0,0-1.19.35,1.14,1.14,0,0,1,.64.47,1.35,1.35,0,0,1,.2.7,1.4,1.4,0,0,1-.52,1.15,1.87,1.87,0,0,1-1.26.43,1.81,1.81,0,0,1-1.34-.49A1.67,1.67,0,0,1,146,8.6a2.31,2.31,0,0,1,.51-1.42,3.73,3.73,0,0,1,1.57-1.11,7.38,7.38,0,0,1,2.76-.44q4.42,0,4.42,3.5V15a1.18,1.18,0,0,0,1,1.28v.7a1.73,1.73,0,0,1-1,.63,4.53,4.53,0,0,1-1.32.21,2.27,2.27,0,0,1-2.12-1,4.22,4.22,0,0,1-2.88,1ZM150.41,16a2.41,2.41,0,0,0,.64-.09,2.17,2.17,0,0,0,.55-.26V13.51a2.44,2.44,0,0,0-.56-.27,2.29,2.29,0,0,0-.67-.11,1.43,1.43,0,0,0-1,.37,1.41,1.41,0,0,0-.42,1.13,1.29,1.29,0,0,0,.4,1A1.41,1.41,0,0,0,150.41,16Z"/><path d="M161.63,17.78a4.25,4.25,0,0,1-1.69-.34,2.68,2.68,0,0,1-1.25-1.18,4.74,4.74,0,0,1-.47-2.29V7.92h-1.38V6.58A1.84,1.84,0,0,0,158,5.83a6.43,6.43,0,0,0,.91-1.63,7.63,7.63,0,0,0,.5-1.93,3.8,3.8,0,0,1,.72-.07,1.36,1.36,0,0,1,1.22.51,1.67,1.67,0,0,1,.34.94V6h2.56a9.24,9.24,0,0,1-.06,1,2.09,2.09,0,0,1-.3.91H161.7v6.2a1.18,1.18,0,0,0,.28.94,1.16,1.16,0,0,0,.73.23,2,2,0,0,0,.89-.23,2.27,2.27,0,0,0,.72-.54,1,1,0,0,1,.33.58,3.45,3.45,0,0,1,.08.59,1.69,1.69,0,0,1-.33,1,2.44,2.44,0,0,1-1,.81A4.21,4.21,0,0,1,161.63,17.78Z"/><path d="M169.09,17.78a3.85,3.85,0,0,1-2.67-.92,3,3,0,0,1-1-2.34,3.05,3.05,0,0,1,.94-2.31,4.08,4.08,0,0,1,2.89-.88,7.94,7.94,0,0,1,1.34.12,3.8,3.8,0,0,1,1.15.36V8.89a1.52,1.52,0,0,0-.48-1.29,1.84,1.84,0,0,0-1.15-.36,2,2,0,0,0-1.19.35,1.14,1.14,0,0,1,.64.47,1.35,1.35,0,0,1,.2.7,1.4,1.4,0,0,1-.52,1.15,1.89,1.89,0,0,1-1.26.43,1.85,1.85,0,0,1-1.35-.49,1.7,1.7,0,0,1-.5-1.25,2.36,2.36,0,0,1,.5-1.42,3.83,3.83,0,0,1,1.58-1.11,7.38,7.38,0,0,1,2.76-.44q4.42,0,4.42,3.5V15a1.18,1.18,0,0,0,1,1.28v.7a1.72,1.72,0,0,1-1,.63,4.43,4.43,0,0,1-1.32.21,2.26,2.26,0,0,1-2.11-1,4.22,4.22,0,0,1-2.88,1ZM170.52,16a2.41,2.41,0,0,0,.64-.09,2.17,2.17,0,0,0,.55-.26V13.51a2.66,2.66,0,0,0-.56-.27,2.29,2.29,0,0,0-.67-.11,1.4,1.4,0,0,0-1,.37,1.41,1.41,0,0,0-.42,1.13,1.32,1.32,0,0,0,.39,1A1.45,1.45,0,0,0,170.52,16Z"/><path d="M184.2,17.62a2,2,0,0,1-.48-1.41,4.77,4.77,0,0,0,1.84-.28,1,1,0,0,0,.65-.9V4h-.49a2.06,2.06,0,0,0-1.13.36,2.69,2.69,0,0,0-1,1.28,9.08,9.08,0,0,0-.56,2.72l-.66,0c-.26,0-.52,0-.76-.08a4.65,4.65,0,0,1-.56-.12c0-.31,0-.74,0-1.3s.08-1.15.14-1.78a17.73,17.73,0,0,1,.23-1.77A5.5,5.5,0,0,1,181.83,2a6.2,6.2,0,0,1,.9.07,4.28,4.28,0,0,1,.9.2h8.58a4.94,4.94,0,0,1,.9-.2A6,6,0,0,1,194,2a6.06,6.06,0,0,1,.34,1.27c.09.55.17,1.14.23,1.77s.1,1.22.13,1.78,0,1,0,1.3a3.87,3.87,0,0,1-.91.17,9.05,9.05,0,0,1-1.07.07,11.42,11.42,0,0,0-.44-2.72,2.37,2.37,0,0,0-.81-1.28,2.19,2.19,0,0,0-1.3-.36h-.37V15c0,.79.77,1.18,2.33,1.18a2,2,0,0,1-.51,1.41Z"/><path d="M200.26,17.91a5.7,5.7,0,0,1-2.77-.67,4.62,4.62,0,0,1-1.88-2,7.08,7.08,0,0,1-.67-3.25,7.66,7.66,0,0,1,.7-3.47,5,5,0,0,1,2-2.14,5.7,5.7,0,0,1,2.88-.72,5.49,5.49,0,0,1,2.79.68,4.62,4.62,0,0,1,1.87,2,7.36,7.36,0,0,1,.67,3.29,7.58,7.58,0,0,1-.71,3.44,4.85,4.85,0,0,1-1.95,2.1A5.81,5.81,0,0,1,200.26,17.91Zm.18-1.59a1.11,1.11,0,0,0,.8-.33,2.32,2.32,0,0,0,.53-1.22,13.7,13.7,0,0,0,.19-2.58,18.71,18.71,0,0,0-.2-3.14,2.8,2.8,0,0,0-.57-1.44,1.21,1.21,0,0,0-.88-.37,1.17,1.17,0,0,0-.82.33A2.44,2.44,0,0,0,199,8.8a14.29,14.29,0,0,0-.18,2.62,17.07,17.07,0,0,0,.21,3.1,2.88,2.88,0,0,0,.58,1.43A1.19,1.19,0,0,0,200.44,16.32Z"/><path d="M211.7,17.62a2,2,0,0,1-.5-1.41,1.8,1.8,0,0,0,1.06-.24,1,1,0,0,0,.32-.86V4.77a1,1,0,0,0-.32-.86,1.72,1.72,0,0,0-1.06-.26,2,2,0,0,1,.13-.73,2.25,2.25,0,0,1,.35-.65c1.44,0,2.59,0,3.45-.08s1.61-.08,2.23-.08a9.84,9.84,0,0,1,3.7.57,3.85,3.85,0,0,1,2,1.69,5.51,5.51,0,0,1,.61,2.71,4.85,4.85,0,0,1-.72,2.6,4.79,4.79,0,0,1-2.15,1.84,8.82,8.82,0,0,1-3.67.67h-.92v1.93a3.42,3.42,0,0,0,.19,1.31,1.06,1.06,0,0,0,.71.62,5.29,5.29,0,0,0,1.5.16,2,2,0,0,1-.49,1.41Zm5.06-7.19a3.56,3.56,0,0,0,1.64-.32,2.23,2.23,0,0,0,.91-.83,2.8,2.8,0,0,0,.41-1.11,6.71,6.71,0,0,0,.1-1.15,4.64,4.64,0,0,0-.25-1.56,2.37,2.37,0,0,0-.86-1.17A2.88,2.88,0,0,0,217,3.85a3.12,3.12,0,0,0-.81.09v6.44l.29,0Z"/><path d="M225,17.62a1.92,1.92,0,0,1-.38-.53,1.69,1.69,0,0,1-.13-.66,1.3,1.3,0,0,0,.92-.27,1.32,1.32,0,0,0,.27-.94V8.87a1,1,0,0,0-.31-.83,1.84,1.84,0,0,0-1.14-.25v-1a5.8,5.8,0,0,1,1.25-.54,11.6,11.6,0,0,1,1.43-.37,5.69,5.69,0,0,1,1.1-.15.84.84,0,0,1,.74.35A3.27,3.27,0,0,1,229,7.61a3.42,3.42,0,0,1,.72-.91A4.12,4.12,0,0,1,230.73,6,2.83,2.83,0,0,1,232,5.68a1.85,1.85,0,0,1,1.48.52,2.1,2.1,0,0,1,.44,1.37,2.33,2.33,0,0,1-.49,1.54,1.65,1.65,0,0,1-1.34.59,1.63,1.63,0,0,1-1.19-.43,1.33,1.33,0,0,1-.44-1,2,2,0,0,1,.07-.55,4.23,4.23,0,0,0-.68.24,2.16,2.16,0,0,0-.66.45V15a1.89,1.89,0,0,0,.15.81.92.92,0,0,0,.61.45,4.61,4.61,0,0,0,1.35.14,2.19,2.19,0,0,1-.09.66,1.31,1.31,0,0,1-.33.53Z"/><path d="M239.42,17.91a5.7,5.7,0,0,1-2.77-.67,4.62,4.62,0,0,1-1.88-2A7.08,7.08,0,0,1,234.1,12a7.66,7.66,0,0,1,.7-3.47,5,5,0,0,1,2-2.14,5.7,5.7,0,0,1,2.88-.72,5.49,5.49,0,0,1,2.79.68,4.68,4.68,0,0,1,1.87,2,7.36,7.36,0,0,1,.67,3.29,7.58,7.58,0,0,1-.71,3.44,4.81,4.81,0,0,1-2,2.1A5.75,5.75,0,0,1,239.42,17.91Zm.18-1.59a1.11,1.11,0,0,0,.8-.33,2.4,2.4,0,0,0,.53-1.22,13.7,13.7,0,0,0,.19-2.58,18.71,18.71,0,0,0-.2-3.14,2.8,2.8,0,0,0-.57-1.44,1.21,1.21,0,0,0-.88-.37,1.17,1.17,0,0,0-.82.33,2.44,2.44,0,0,0-.54,1.23,14.29,14.29,0,0,0-.18,2.62,17.07,17.07,0,0,0,.21,3.1,2.8,2.8,0,0,0,.58,1.43A1.19,1.19,0,0,0,239.6,16.32Z"/><path d="M250.93,17.84a8,8,0,0,1-1.6-.17,6.71,6.71,0,0,1-1.47-.51,3.19,3.19,0,0,1-1.09-.83,1.69,1.69,0,0,1-.42-1.13,1.76,1.76,0,0,1,.44-1.24,1.46,1.46,0,0,1,1.12-.47,1.52,1.52,0,0,1,1.05.39,1.38,1.38,0,0,1,.43,1,1.22,1.22,0,0,1-.09.49,2.7,2.7,0,0,1-.26.45,1.31,1.31,0,0,0,.7.29,5.69,5.69,0,0,0,1,.09,2.11,2.11,0,0,0,1.19-.29.84.84,0,0,0,.42-.7,1.38,1.38,0,0,0-.71-1.14c-.47-.31-1-.63-1.6-.95s-1.09-.61-1.62-.94A4.54,4.54,0,0,1,247.07,11a3.15,3.15,0,0,1-.54-1.89,2.91,2.91,0,0,1,1.21-2.4,5.45,5.45,0,0,1,3.43-1,6.39,6.39,0,0,1,2.46.39,3,3,0,0,1,1.35,1,2.08,2.08,0,0,1,.41,1.22,1.42,1.42,0,0,1-1.47,1.49,1.47,1.47,0,0,1-1-.34,1.09,1.09,0,0,1-.42-.89,2,2,0,0,1,.09-.57,1.51,1.51,0,0,1,.24-.51,1.33,1.33,0,0,0-.56-.27,3.28,3.28,0,0,0-.76-.08,1.62,1.62,0,0,0-1.11.34,1.08,1.08,0,0,0-.38.83,1.46,1.46,0,0,0,.71,1.23,15.73,15.73,0,0,0,1.6.94c.54.28,1.07.58,1.59.91a4.46,4.46,0,0,1,1.31,1.21,3.09,3.09,0,0,1,.53,1.87,2.79,2.79,0,0,1-.7,2,4.07,4.07,0,0,1-1.82,1.06A8.17,8.17,0,0,1,250.93,17.84Z"/><path d="M257.46,21.8a1.92,1.92,0,0,1-.38-.53,1.33,1.33,0,0,1-.15-.63c.44,0,.73-.1.85-.29a1.78,1.78,0,0,0,.19-.92V8.89a1,1,0,0,0-.32-.84,1.92,1.92,0,0,0-1.16-.26v-1a7,7,0,0,1,1.16-.53A10.07,10.07,0,0,1,259,5.89a4.63,4.63,0,0,1,1-.15,1.42,1.42,0,0,1,.74.18,1.12,1.12,0,0,1,.43.7,2.77,2.77,0,0,1,1.19-.68,5.44,5.44,0,0,1,1.47-.2,4.15,4.15,0,0,1,2.18.61,4.37,4.37,0,0,1,1.63,1.81,6.67,6.67,0,0,1,.63,3.08,7.48,7.48,0,0,1-.8,3.58,5.61,5.61,0,0,1-2.16,2.26,5.89,5.89,0,0,1-3,.78h-.4l-.46,0v1.61a1,1,0,0,0,.46.92,1.81,1.81,0,0,0,.95.29,1.59,1.59,0,0,1-.51,1.16Zm4.8-5.54a1.82,1.82,0,0,0,1.54-1.06,7,7,0,0,0,.64-3.43,7.46,7.46,0,0,0-.32-2.41,2.68,2.68,0,0,0-.87-1.28A2.11,2.11,0,0,0,262,7.7a1.35,1.35,0,0,0-.62.13V16A1.6,1.6,0,0,0,262.26,16.26Z"/><path d="M274.89,17.82A5.11,5.11,0,0,1,271,16.26a6.11,6.11,0,0,1-1.46-4.36,7.15,7.15,0,0,1,.72-3.31,5.24,5.24,0,0,1,2-2.14A5.37,5.37,0,0,1,275,5.7a4.39,4.39,0,0,1,3.18,1.15,4.31,4.31,0,0,1,1.2,3.25,3.65,3.65,0,0,1-.28,1.46,1.1,1.1,0,0,1-1.13.63h-4.75a3.54,3.54,0,0,0,.8,2.46,2.59,2.59,0,0,0,1.92.73,4.18,4.18,0,0,0,1.39-.23,4.76,4.76,0,0,0,1.19-.65,1.21,1.21,0,0,1,.32.54,2,2,0,0,1,.12.6,1.42,1.42,0,0,1-.5.87,4.14,4.14,0,0,1-1.41.91A5.31,5.31,0,0,1,274.89,17.82Zm-1.65-7.3h2.22a.44.44,0,0,0,.47-.29,2.07,2.07,0,0,0,.1-.7,3.37,3.37,0,0,0-.34-1.86,1,1,0,0,0-.8-.45,1.23,1.23,0,0,0-.75.28,2.07,2.07,0,0,0-.62,1A7.5,7.5,0,0,0,273.24,10.52Z"/><path d="M286,18a5.49,5.49,0,0,1-2.83-.72,5.07,5.07,0,0,1-1.91-2.08,7.09,7.09,0,0,1-.7-3.25,7,7,0,0,1,.75-3.35,5.23,5.23,0,0,1,2-2.14,5.81,5.81,0,0,1,2.92-.73,3.69,3.69,0,0,1,2.58.8,2.54,2.54,0,0,1,.88,2,2.35,2.35,0,0,1-.53,1.63,1.77,1.77,0,0,1-1.36.57,1.49,1.49,0,0,1-1.15-.51,1.8,1.8,0,0,1-.46-1.23,1.69,1.69,0,0,1,.19-.86,1.79,1.79,0,0,1,.47-.55,1.28,1.28,0,0,0-.36-.16,1,1,0,0,0-.28,0,1.46,1.46,0,0,0-.86.33,2.48,2.48,0,0,0-.73,1.17,7.15,7.15,0,0,0-.3,2.33,6.13,6.13,0,0,0,.7,3.4,2.31,2.31,0,0,0,2,1,4.14,4.14,0,0,0,1.19-.18,2.83,2.83,0,0,0,1-.5,2,2,0,0,1,.29.54,1.61,1.61,0,0,1,.12.56,1.3,1.3,0,0,1-.49.93,3.63,3.63,0,0,1-1.33.78A5.28,5.28,0,0,1,286,18Z"/><path d="M295.21,17.78a4.25,4.25,0,0,1-1.69-.34,2.66,2.66,0,0,1-1.24-1.18A4.62,4.62,0,0,1,291.8,14V7.92h-1.38V6.58a1.84,1.84,0,0,0,1.12-.75,6.43,6.43,0,0,0,.91-1.63,7.63,7.63,0,0,0,.5-1.93,3.8,3.8,0,0,1,.72-.07,1.35,1.35,0,0,1,1.22.51,1.67,1.67,0,0,1,.34.94V6h2.56a9.24,9.24,0,0,1-.06,1,2.22,2.22,0,0,1-.29.91h-2.16v6.2a1.18,1.18,0,0,0,.28.94,1.18,1.18,0,0,0,.73.23,2,2,0,0,0,.89-.23,2.27,2.27,0,0,0,.72-.54,1,1,0,0,1,.33.58,3.45,3.45,0,0,1,.08.59,1.69,1.69,0,0,1-.33,1,2.37,2.37,0,0,1-1,.81A4.21,4.21,0,0,1,295.21,17.78Z"/><path d="M307.64,17.78,303.75,4.69a1.46,1.46,0,0,0-.46-.81,1.87,1.87,0,0,0-1.06-.23,3.23,3.23,0,0,1,.07-.71,2,2,0,0,1,.26-.67h5.94a3.93,3.93,0,0,1,.25.63,2.45,2.45,0,0,1,.12.75,1.41,1.41,0,0,0-1.08.3,1,1,0,0,0-.26.67l1.89,7.11.36,1.8,2.09-8a4.27,4.27,0,0,1,.55-1.5,1.2,1.2,0,0,1,1.07-.66h2.31L318,11.73l.49,1.89.5-1.94,1.63-6.33a1.9,1.9,0,0,0,.07-.44,1.12,1.12,0,0,0-.42-.92,1.76,1.76,0,0,0-1.12-.34,4,4,0,0,1,.06-.71,2.48,2.48,0,0,1,.25-.67h5.16a2.12,2.12,0,0,1,.26.66,3.38,3.38,0,0,1,.08.72,2.55,2.55,0,0,0-1.18.23,1.3,1.3,0,0,0-.61.81l-2.77,10.07A5.5,5.5,0,0,1,319.29,17a2.29,2.29,0,0,1-1.77.74h-1.23l-2-7.09-.86-3.23-.71,3.25-1.12,4a6.08,6.08,0,0,1-1,2.28,2.13,2.13,0,0,1-1.72.74Z"/><path d="M325.35,17.62a1.88,1.88,0,0,1-.37-.53,1.53,1.53,0,0,1-.13-.66,1.39,1.39,0,0,0,.94-.27,1.2,1.2,0,0,0,.31-.94V8.84a1.19,1.19,0,0,0-.27-.85,1.72,1.72,0,0,0-1.18-.29v-1a7,7,0,0,1,1-.45,11,11,0,0,1,1.49-.43,6.52,6.52,0,0,1,1.44-.17.93.93,0,0,1,.72.23,1.09,1.09,0,0,1,.22.78v8.56a1.12,1.12,0,0,0,.33.92,1.5,1.5,0,0,0,1,.26,1.53,1.53,0,0,1-.13.66,1.73,1.73,0,0,1-.38.53Zm2.47-13.48a2.05,2.05,0,0,1-1.51-.56,2.07,2.07,0,0,1-.56-1.51,2,2,0,0,1,.58-1.5A2.1,2.1,0,0,1,327.86,0a2,2,0,0,1,1.53.57,2.06,2.06,0,0,1,.56,1.5,2,2,0,0,1-.58,1.51A2.17,2.17,0,0,1,327.82,4.14Z"/><path d="M336,17.78a4.25,4.25,0,0,1-1.69-.34,2.61,2.61,0,0,1-1.24-1.18,4.62,4.62,0,0,1-.48-2.29V7.92h-1.38V6.58a1.84,1.84,0,0,0,1.12-.75,6.43,6.43,0,0,0,.91-1.63,7.63,7.63,0,0,0,.5-1.93,3.8,3.8,0,0,1,.72-.07,1.35,1.35,0,0,1,1.22.51,1.67,1.67,0,0,1,.34.94V6h2.56a9.24,9.24,0,0,1-.06,1,2.09,2.09,0,0,1-.3.91h-2.15v6.2a1.18,1.18,0,0,0,.28.94,1.16,1.16,0,0,0,.73.23,2,2,0,0,0,.89-.23,2.27,2.27,0,0,0,.72-.54,1,1,0,0,1,.33.58,2.67,2.67,0,0,1,.08.59,1.69,1.69,0,0,1-.33,1,2.44,2.44,0,0,1-1,.81A4.21,4.21,0,0,1,336,17.78Z"/><path d="M349.71,17.75a3.34,3.34,0,0,1-1.65-.33,1.11,1.11,0,0,1-.58-1.05V9.28a1.35,1.35,0,0,0-1.43-1.47,1.85,1.85,0,0,0-.89.27,1.87,1.87,0,0,0-.71.74v6.43a1.27,1.27,0,0,0,.27.91,1.34,1.34,0,0,0,.94.27,1.62,1.62,0,0,1-.51,1.19h-4.86a1.62,1.62,0,0,1-.51-1.19,1.32,1.32,0,0,0,.94-.27,1.27,1.27,0,0,0,.27-.91V3.32a1.06,1.06,0,0,0-.28-.79,1.75,1.75,0,0,0-1.19-.29v-.9a10.09,10.09,0,0,1,1.29-.53,11.35,11.35,0,0,1,1.47-.38A6.23,6.23,0,0,1,343.5.29a1,1,0,0,1,.73.23,1.14,1.14,0,0,1,.22.78V5.63l-.05,1.76a5.14,5.14,0,0,1,1.48-1.23,4.06,4.06,0,0,1,2-.51q3.13,0,3.13,3.26v6.16a1.19,1.19,0,0,0,1.05,1.32l0,.64A3.52,3.52,0,0,1,349.71,17.75Z"/></g></g></svg>